<svg width="413" height="612" viewBox="0 0 413 612" fill="none" xmlns="http://www.w3.org/2000/svg">
<path d="M111.922 553.005L112.11 552.189C112.365 551.085 112.925 550.075 113.726 549.274C114.862 548.138 115.499 546.597 115.497 544.991L115.002 158.956C115.001 158.003 114.741 157.069 114.251 156.252C113.76 155.433 113.5 154.495 113.5 153.54V148.911C113.5 147.978 113.668 147.053 113.995 146.179L114.305 145.354C114.754 144.157 115.614 143.159 116.731 142.538C118.44 141.589 119.5 139.787 119.5 137.832V115.149C119.5 112.421 118.865 109.729 117.644 107.289L116.539 105.078C116.184 104.367 115.685 103.737 115.074 103.228C113.76 102.133 113 100.511 113 98.8005V94.15C113 89.608 114.968 85.2887 118.395 82.3083L121.618 79.5061C123.528 77.8449 125.679 76.4828 127.998 75.466L153 64.5L159.361 62.0677C166.438 59.362 173.755 57.3325 181.214 56.0064L182.08 55.8525C189.013 54.6199 196.042 54 203.084 54H215.5L238.5 57L251.686 60.5962C257.553 62.1964 263.291 64.2404 268.849 66.7105L288.553 75.468C290.838 76.4837 292.959 77.8342 294.846 79.4751L295.002 79.6107C300.4 84.3047 303.5 91.1075 303.5 98.2612C303.5 100.411 303.219 102.552 302.665 104.629L301.5 109L297.753 123.156C297.253 125.044 297 126.989 297 128.942V136.332C297 138.646 298.069 140.831 299.896 142.252C300.946 143.069 301.761 144.151 302.255 145.387L302.672 146.431C303.219 147.798 303.502 149.256 303.506 150.728L304.495 545.551C304.498 546.811 304.941 548.03 305.748 548.997C306.557 549.968 307 551.192 307 552.456V552.856C307 555.384 305.536 557.683 303.245 558.752L301.398 559.614C300.147 560.198 298.786 560.508 297.406 560.524L130.149 562.464C128.054 562.488 125.961 562.319 123.897 561.96L117.078 560.774C116.042 560.594 115.066 560.162 114.236 559.517C112.263 557.982 111.36 555.441 111.922 553.005Z" fill="#B50303"/>
<path d="M297 137.715V128.062C297 126.692 297.168 125.328 297.5 124L300.5 112.75L301.233 110L301.242 109.966C301.372 109.478 301.005 109 300.5 109H295.5H121.05C119.731 109 118.741 110.207 119 111.5C119.333 113.163 119.5 114.854 119.5 116.55V138V138.858C119.5 138.951 119.478 139.044 119.436 139.127C119.236 139.528 119.527 140 119.976 140H296.049C296.945 140 297.528 139.057 297.127 138.255C297.044 138.087 297 137.903 297 137.715Z" fill="#CB0E0E"/>
<path d="M266.5 164.5H148.5C142.977 164.5 138.5 168.977 138.5 174.5V544C138.5 549.523 142.977 554 148.5 554H266.5C272.023 554 276.5 549.523 276.5 544V174.5C276.5 168.977 272.023 164.5 266.5 164.5Z" fill="#A70C0C"/>
<path d="M265 370V357.414C265 356.509 265.36 355.64 266 355C266.64 354.36 267.509 354 268.414 354H269.5C270.444 354 271.333 354.445 271.9 355.2C272.289 355.719 272.5 356.351 272.5 357V370.439C272.5 371.118 272.23 371.77 271.75 372.25C271.27 372.73 270.618 373 269.939 373H268C267.351 373 266.719 372.789 266.2 372.4C265.445 371.833 265 370.944 265 370Z" fill="#D18584"/>
<path d="M155 186H187V233H155V186Z" fill="#D9D9D9"/>
<path d="M192 186H224V233H192V186Z" fill="#D9D9D9"/>
<path d="M228 186H260V233H228V186Z" fill="#D9D9D9"/>
<path d="M228 237H260V284H228V237Z" fill="#D9D9D9"/>
<path d="M191 237H223V284H191V237Z" fill="#D9D9D9"/>
<path d="M155 237H187V284H155V237Z" fill="#D9D9D9"/>
<path d="M228 290H260V337H228V290Z" fill="#D9D9D9"/>
<path d="M191 290H223V337H191V290Z" fill="#D9D9D9"/>
<path d="M155 290H187V337H155V290Z" fill="#D9D9D9"/>
<path d="M228 341H260V388H228V341Z" fill="#D9D9D9"/>
<path d="M191 341H223V388H191V341Z" fill="#D9D9D9"/>
<path d="M155 341H187V388H155V341Z" fill="#D9D9D9"/>
<path d="M228 392H260V439H228V392Z" fill="#D9D9D9"/>
<path d="M191 392H223V439H191V392Z" fill="#D9D9D9"/>
<path d="M155 392H187V439H155V392Z" fill="#D9D9D9"/>
<path d="M228 443H260V490H228V443Z" fill="#D9D9D9"/>
<path d="M191 443H223V490H191V443Z" fill="#D9D9D9"/>
<path d="M155 443H187V490H155V443Z" fill="#D9D9D9"/>
<path d="M152.813 76.2802L121.711 91.4108C120.97 91.7712 120.5 92.5229 120.5 93.3469C120.5 94.536 121.464 95.5 122.653 95.5H293.804C295.017 95.5 296 94.5167 296 93.3038C296 92.5001 295.561 91.7605 294.855 91.3757L268.914 77.2257C264.988 75.0842 260.802 73.4584 256.459 72.3885L243.231 69.1294C233.446 66.7187 223.406 65.5 213.328 65.5H205.092C193.75 65.5 182.461 67.0437 171.535 70.0886L162.521 72.6007C159.181 73.5317 155.931 74.7632 152.813 76.2802Z" fill="#A70C0C"/>
<path d="M273.5 114.5H144C142.895 114.5 142 115.395 142 116.5V132.5C142 133.605 142.895 134.5 144 134.5H273.5C274.605 134.5 275.5 133.605 275.5 132.5V116.5C275.5 115.395 274.605 114.5 273.5 114.5Z" fill="#F5F5F5"/>
<path d="M171.32 118C170.88 118.413 170.66 118.833 170.66 119.26C170.66 119.513 170.653 121.253 170.64 124.48C170.627 127.707 170.62 129.5 170.62 129.86C170.62 130.167 170.673 130.5 170.78 130.86C170.9 131.207 171.02 131.48 171.14 131.68L171.32 131.98H168.22C168.74 131.38 169 130.667 169 129.84V124.68H163.1V129.84C163.1 130.213 163.16 130.58 163.28 130.94C163.413 131.287 163.547 131.547 163.68 131.72L163.88 131.98H160.78C161.247 131.26 161.48 130.553 161.48 129.86C161.48 129.5 161.473 127.707 161.46 124.48C161.447 121.253 161.44 119.513 161.44 119.26C161.44 119.073 161.387 118.873 161.28 118.66C161.173 118.447 161.067 118.28 160.96 118.16L160.78 118H163.68C163.293 118.36 163.1 118.847 163.1 119.46V123.88H169V119.46C169 119.193 168.953 118.94 168.86 118.7C168.767 118.447 168.667 118.267 168.56 118.16L168.42 118H171.32ZM179.828 125.46C179.828 125.46 179.202 123.407 177.948 119.3C177.322 121.46 176.728 123.513 176.168 125.46H179.828ZM184.188 132H181.108C181.255 131.773 181.328 131.44 181.328 131C181.328 130.653 181.275 130.293 181.168 129.92C181.168 129.893 180.802 128.673 180.068 126.26H175.948C175.242 128.713 174.888 129.96 174.888 130C174.822 130.253 174.788 130.527 174.788 130.82C174.788 131.047 174.808 131.26 174.848 131.46C174.888 131.647 174.935 131.787 174.988 131.88L175.048 132H172.928C173.328 131.68 173.748 130.773 174.188 129.28L177.368 118H179.288C181.448 125.133 182.615 128.92 182.788 129.36C183.015 129.947 183.242 130.46 183.468 130.9C183.708 131.34 183.888 131.633 184.008 131.78L184.188 132ZM190.891 117.68C191.531 117.68 192.098 117.74 192.591 117.86C193.084 117.967 193.444 118.087 193.671 118.22C193.898 118.353 194.098 118.48 194.271 118.6C194.458 118.707 194.591 118.76 194.671 118.76C194.818 118.76 195.011 118.587 195.251 118.24L195.311 121.52C194.951 120.32 194.438 119.533 193.771 119.16C193.118 118.773 192.198 118.58 191.011 118.58C189.678 118.58 188.584 119.127 187.731 120.22C186.891 121.3 186.471 122.887 186.471 124.98C186.471 126.78 186.918 128.28 187.811 129.48C188.704 130.68 189.851 131.28 191.251 131.28C191.864 131.28 192.424 131.213 192.931 131.08C193.451 130.947 193.858 130.78 194.151 130.58C194.458 130.38 194.711 130.187 194.911 130C195.124 129.8 195.271 129.633 195.351 129.5L195.451 129.3L195.611 129.44C195.584 129.52 195.538 129.627 195.471 129.76C195.404 129.88 195.251 130.107 195.011 130.44C194.771 130.76 194.504 131.047 194.211 131.3C193.918 131.54 193.518 131.767 193.011 131.98C192.504 132.18 191.964 132.28 191.391 132.28C189.458 132.28 187.831 131.627 186.511 130.32C185.204 129.013 184.551 127.233 184.551 124.98C184.551 123.753 184.738 122.66 185.111 121.7C185.498 120.727 186.004 119.96 186.631 119.4C187.258 118.827 187.931 118.4 188.651 118.12C189.384 117.827 190.131 117.68 190.891 117.68ZM205.306 119.22C204.959 119.54 203.559 121.093 201.106 123.88C202.799 126.08 204.646 128.413 206.646 130.88C207.192 131.533 207.612 131.9 207.906 131.98H204.806C205.006 131.833 205.106 131.64 205.106 131.4C205.106 131.28 205.059 131.147 204.966 131C204.779 130.707 203.186 128.693 200.186 124.96C200.092 125.067 199.979 125.193 199.846 125.34C199.726 125.473 199.652 125.56 199.626 125.6C199.626 126.4 199.619 127.313 199.606 128.34C199.606 129.353 199.606 129.867 199.606 129.88C199.606 130.187 199.659 130.513 199.766 130.86C199.886 131.207 200.006 131.48 200.126 131.68L200.306 131.98H197.206C197.739 131.38 198.006 130.667 198.006 129.84V119.44C198.006 119.173 197.952 118.92 197.846 118.68C197.752 118.44 197.652 118.267 197.546 118.16L197.406 118H200.306C199.866 118.413 199.646 118.827 199.646 119.24C199.646 121.04 199.639 122.733 199.626 124.32C202.079 121.52 203.626 119.787 204.266 119.12C204.466 118.88 204.566 118.64 204.566 118.4L204.466 118H207.366C207.339 118.013 207.252 118.04 207.106 118.08C206.972 118.12 206.859 118.16 206.766 118.2C206.672 118.24 206.546 118.307 206.386 118.4C206.226 118.48 206.052 118.593 205.866 118.74C205.692 118.873 205.506 119.033 205.306 119.22ZM221.243 117.68C221.883 117.68 222.449 117.74 222.943 117.86C223.436 117.967 223.796 118.087 224.023 118.22C224.249 118.353 224.449 118.48 224.622 118.6C224.809 118.707 224.943 118.76 225.023 118.76C225.169 118.76 225.363 118.587 225.603 118.24L225.663 121.52C225.303 120.32 224.789 119.533 224.123 119.16C223.469 118.773 222.549 118.58 221.363 118.58C220.029 118.58 218.936 119.127 218.083 120.22C217.243 121.3 216.823 122.887 216.823 124.98C216.823 126.78 217.269 128.28 218.163 129.48C219.056 130.68 220.203 131.28 221.603 131.28C222.216 131.28 222.776 131.213 223.283 131.08C223.803 130.947 224.209 130.78 224.503 130.58C224.809 130.38 225.063 130.187 225.263 130C225.476 129.8 225.623 129.633 225.703 129.5L225.803 129.3L225.963 129.44C225.936 129.52 225.889 129.627 225.822 129.76C225.756 129.88 225.603 130.107 225.362 130.44C225.123 130.76 224.856 131.047 224.563 131.3C224.269 131.54 223.869 131.767 223.363 131.98C222.856 132.18 222.316 132.28 221.743 132.28C219.809 132.28 218.183 131.627 216.863 130.32C215.556 129.013 214.903 127.233 214.903 124.98C214.903 123.753 215.089 122.66 215.463 121.7C215.849 120.727 216.356 119.96 216.983 119.4C217.609 118.827 218.283 118.4 219.003 118.12C219.736 117.827 220.483 117.68 221.243 117.68ZM227.557 118.02H230.357C229.984 118.38 229.797 118.873 229.797 119.5V131.16H233.777C233.897 131.16 234.071 131.06 234.297 130.86C234.537 130.66 234.744 130.467 234.917 130.28L235.177 129.98L234.497 131.98H227.557C228.011 131.26 228.237 130.56 228.237 129.88C228.237 129.507 228.231 127.713 228.217 124.5C228.204 121.273 228.197 119.533 228.197 119.28C228.197 119.04 228.144 118.82 228.037 118.62C227.931 118.407 227.824 118.253 227.717 118.16L227.557 118.02ZM242.476 131.72C243.396 131.72 244.189 131.387 244.856 130.72C245.522 130.053 245.862 129.14 245.876 127.98V124.88C245.876 124.88 245.876 123.093 245.876 119.52C245.876 119.24 245.822 118.973 245.716 118.72C245.622 118.467 245.522 118.28 245.416 118.16L245.256 118H247.596C247.129 118.44 246.896 118.873 246.896 119.3C246.882 123.473 246.876 126.347 246.876 127.92C246.876 129.253 246.422 130.38 245.516 131.3C244.622 132.207 243.516 132.66 242.196 132.66C240.849 132.66 239.722 132.207 238.816 131.3C237.922 130.38 237.476 129.2 237.476 127.76C237.476 127.48 237.476 126.973 237.476 126.24C237.489 125.493 237.496 124.913 237.496 124.5C237.496 123.593 237.489 122.513 237.476 121.26C237.476 119.993 237.476 119.34 237.476 119.3C237.476 119.113 237.416 118.913 237.296 118.7C237.189 118.473 237.082 118.3 236.976 118.18L236.796 118H239.796C239.396 118.373 239.196 118.88 239.196 119.52V127.88C239.196 129.133 239.522 130.087 240.176 130.74C240.829 131.393 241.596 131.72 242.476 131.72ZM255.978 121.18C255.978 120.66 255.845 120.22 255.578 119.86C255.312 119.5 254.965 119.247 254.538 119.1C254.112 118.94 253.732 118.833 253.398 118.78C253.078 118.713 252.758 118.68 252.438 118.68H251.478V124.1H252.598H252.798C253.078 124.1 253.325 124.093 253.538 124.08C253.752 124.053 254.025 123.987 254.358 123.88C254.692 123.773 254.965 123.627 255.178 123.44C255.392 123.24 255.578 122.947 255.738 122.56C255.898 122.173 255.978 121.713 255.978 121.18ZM251.558 131.3H252.918C254.078 131.3 254.965 131.027 255.578 130.48C256.205 129.92 256.518 129.087 256.518 127.98C256.518 127.447 256.418 126.987 256.218 126.6C256.018 126.213 255.778 125.92 255.498 125.72C255.232 125.507 254.885 125.347 254.458 125.24C254.045 125.12 253.678 125.047 253.358 125.02C253.052 124.993 252.705 124.98 252.318 124.98H251.518C251.518 125.113 251.525 125.893 251.538 127.32C251.552 128.733 251.558 129.62 251.558 129.98V131.3ZM257.418 121.2C257.418 122.8 256.832 123.873 255.658 124.42C257.338 124.927 258.178 126.107 258.178 127.96C258.178 128.68 258.045 129.32 257.778 129.88C257.512 130.427 257.172 130.847 256.758 131.14C256.345 131.433 255.918 131.653 255.478 131.8C255.052 131.933 254.632 132 254.218 132H249.298C249.632 131.587 249.825 130.913 249.878 129.98C249.905 129.367 249.918 128.38 249.918 127.02C249.918 125.967 249.912 124.533 249.898 122.72C249.885 120.907 249.878 119.927 249.878 119.78C249.878 119.38 249.818 119.033 249.698 118.74C249.578 118.447 249.465 118.253 249.358 118.16L249.178 118H252.758C253.478 118 254.125 118.087 254.698 118.26C255.272 118.42 255.718 118.627 256.038 118.88C256.372 119.12 256.645 119.393 256.858 119.7C257.085 120.007 257.232 120.287 257.298 120.54C257.378 120.78 257.418 121 257.418 121.2Z" fill="black"/>
</svg>
