<svg width="524" height="250" viewBox="0 0 524 250" fill="none" xmlns="http://www.w3.org/2000/svg">
<path d="M2.59906 84.0692L93.264 56.8119L114.839 22.5518L117.924 46.0523L124.489 38.2006L169.663 92.1492L157.327 112.237L195.14 112.806L211.643 215.617L184.858 210.543L199.486 223.782L169.534 214.983L80.5755 243.061L6.05035 197.416L2.59906 84.0692Z" fill="#AF8D67"/>
<path d="M93.264 56.8119L2.59906 84.0692L6.05035 197.416M93.264 56.8119L105.804 165.923M93.264 56.8119L114.839 22.5518L117.924 46.0523M6.05035 197.416L105.804 165.923M6.05035 197.416L80.5755 243.061L169.534 214.983M105.804 165.923L132.177 146.327L121.079 79.0946M105.804 165.923L169.534 214.983M105.804 165.923L140.973 170.825L170.23 197.304M117.924 46.0523L124.489 38.2006L169.663 92.1492L157.327 112.237M117.924 46.0523L121.079 79.0946M121.079 79.0946L157.327 112.237M169.534 214.983L199.486 223.782L184.858 210.543M170.23 197.304L157.327 112.237M170.23 197.304L184.858 210.543M184.858 210.543L211.643 215.617L195.14 112.806L157.327 112.237" stroke="#956F43" stroke-width="3"/>
<path d="M54.0001 75.9998H157L182 204L54.0001 190V75.9998Z" fill="#AF8D67"/>
<path d="M162.816 114.897L169.611 195.009L141.491 169.582L108.555 165.086L130.815 147.919L121.896 80.9742L162.816 114.897Z" fill="#74522A"/>
<path d="M477.598 132.086L479.35 131.395L502.805 90.0871L502.329 88.0959C494.79 83.103 481.372 79.3598 464.27 77.0915C447.105 74.8148 426.016 73.9985 402.955 75.0002C374.894 75.4733 351.69 79.8621 328.935 84.166C324.945 84.9208 320.968 85.673 316.981 86.4009C290.249 91.2823 262.957 95.1043 227.672 91.5073C197.833 88.4657 177.316 83.7401 159.221 79.5726C155.859 78.7985 152.581 78.0436 149.343 77.3223C128.631 72.709 109.591 69.4899 80.8949 71.5037C77.4342 71.7466 75.1971 71.9817 74.0544 72.2608C73.7718 72.3298 73.4382 72.4279 73.1475 72.5869C73.0041 72.6653 72.7713 72.8112 72.5713 73.0613C72.3446 73.3447 72.1479 73.7871 72.2288 74.3206C72.3011 74.7976 72.5622 75.111 72.7221 75.2676C72.8895 75.4315 73.0658 75.5415 73.1919 75.6112C73.4461 75.7518 73.7372 75.8588 74.002 75.9434C75.0497 76.278 76.915 76.6344 79.1634 77.0368C79.8653 77.1624 80.613 77.2938 81.4 77.4322C83.1957 77.7478 85.1961 78.0995 87.3236 78.4999C93.4476 79.6527 100.468 81.1826 106.17 83.305C109.023 84.3668 111.475 85.5516 113.302 86.8659C115.143 88.1901 116.2 89.536 116.548 90.8766C118.437 98.148 121.166 108.276 124.291 116.136C125.845 120.045 127.547 123.526 129.366 125.817C130.272 126.959 131.301 127.926 132.47 128.443C133.606 128.945 134.822 128.995 136.001 128.473C142.932 128.228 149.326 127.928 155.247 127.649C171.104 126.904 183.571 126.318 193.892 127.391C200.956 128.125 206.905 129.632 212.149 132.355C217.383 135.072 221.992 139.04 226.32 144.804C228.941 148.294 233.972 150.008 240.291 150.704C246.698 151.409 254.858 151.11 264.259 150.168C280.558 148.533 300.859 144.931 322.712 141.054C326.074 140.457 329.474 139.854 332.901 139.251C358.639 134.718 385.992 130.156 411.363 128.119C436.765 126.079 460.011 126.587 477.598 132.086Z" fill="#FFF537" stroke="white" stroke-width="3" stroke-linejoin="bevel"/>
<path d="M481.33 181.204C482.465 182.185 482.467 182.183 482.467 182.183L482.469 182.18L482.473 182.175L482.483 182.163C482.491 182.154 482.5 182.143 482.511 182.13C482.532 182.104 482.559 182.07 482.59 182.029C482.654 181.946 482.738 181.831 482.839 181.682C483.042 181.384 483.313 180.948 483.625 180.353C484.251 179.161 485.041 177.334 485.786 174.693C487.275 169.413 488.582 160.879 488.024 147.662C487.464 134.404 484.793 126.849 482.119 122.557C480.78 120.407 479.445 119.086 478.392 118.287C477.867 117.889 477.417 117.625 477.079 117.455C476.909 117.369 476.769 117.308 476.66 117.264C476.617 117.247 476.579 117.233 476.546 117.221C453.289 106.979 435.497 104.88 400.863 108.052C380.261 109.94 359.042 114.115 338.011 118.254C332.901 119.259 327.802 120.263 322.726 121.231C296.695 126.194 271.234 130.229 247.578 129.002C211.445 127.127 189.55 122.396 172.018 117.642C168.065 116.57 164.319 115.491 160.67 114.441C148.217 110.857 136.9 107.599 122.357 106.03C120.479 105.318 118.737 105.133 117.159 105.521C115.512 105.926 114.219 106.913 113.235 108.213C111.327 110.732 110.454 114.585 110.113 118.555C109.424 126.573 110.82 136.273 112.063 140.43L113.153 141.459C125.121 144.305 136.096 146.843 146.098 149.156C160.074 152.388 172.151 155.181 182.385 157.762C199.997 162.203 211.853 165.951 218.394 170.079C219.515 170.786 221.247 171.25 223.293 171.593C225.399 171.945 228.048 172.198 231.158 172.377C237.382 172.734 245.583 172.797 255.236 172.702C265.044 172.606 276.431 172.346 288.824 172.062C300.772 171.789 313.655 171.495 326.962 171.305C381.385 170.53 443.289 171.506 480.904 182.642L482.465 182.185L481.33 181.204Z" fill="#F68887" stroke="white" stroke-width="3" stroke-linejoin="bevel"/>
<path d="M121.574 141.502L120.595 141.801C113.922 146.837 109.023 151.247 105.577 155.118C102.142 158.978 100.086 162.375 99.2106 165.391C98.3199 168.46 98.6577 171.129 99.9764 173.362C101.263 175.542 103.39 177.147 105.792 178.343C110.578 180.725 116.992 181.741 122.076 182.182C124.644 182.405 126.921 182.484 128.558 182.508C129.377 182.52 130.037 182.518 130.495 182.513C130.724 182.51 130.902 182.507 131.024 182.504C131.085 182.503 131.132 182.502 131.165 182.501L131.179 182.5C149.852 182.786 166.136 186.879 184.554 191.508C186.38 191.967 188.226 192.431 190.097 192.897C210.845 198.064 234.549 203.437 266.955 204.5C283.243 205.034 301.619 202.618 320.836 199.166C330.451 197.438 340.298 195.447 350.216 193.429C350.852 193.299 351.488 193.17 352.124 193.04C361.419 191.148 370.768 189.244 380.063 187.518C399.932 183.828 419.483 180.961 437.58 180.75C455.68 180.54 472.221 182.989 486.126 189.845L488.254 188.814C491.241 174.696 491.262 165.497 490.494 159.765C490.109 156.897 489.527 154.894 489.018 153.579C488.764 152.921 488.528 152.437 488.346 152.102C488.255 151.935 488.177 151.806 488.118 151.712C488.088 151.665 488.062 151.626 488.042 151.596C488.032 151.581 488.023 151.568 488.015 151.558L488.004 151.543L488 151.537L487.998 151.534C487.998 151.534 487.996 151.531 486.787 152.416L487.996 151.531L487.649 151.19C475.392 142.549 459.426 139.936 441.363 140.598C423.29 141.26 402.901 145.213 381.643 149.914C376.232 151.111 370.765 152.355 365.264 153.608C327.389 162.231 287.876 171.228 253.659 167.508C214.253 163.225 188.58 157.117 169.136 151.893C165.745 150.982 162.535 150.095 159.468 149.248C145.001 145.25 133.707 142.129 121.574 141.502Z" fill="#91CCF4" stroke="white" stroke-width="3" stroke-linejoin="bevel"/>
<path d="M192.053 166.934C184.467 165.877 177.501 171.321 176.503 179.086C176.272 180.886 176.495 182.635 176.89 184.352L107.102 207.092C104.676 208.988 155.908 203.937 157.77 206.43C158.725 207.708 160.096 208.358 161.526 208.557C162.955 208.756 164.449 208.449 165.686 207.533L183.621 193.365C185.081 194.199 186.672 194.879 188.486 195.132C196.072 196.189 205.604 190.491 204.827 180.824L191.867 185.249L186.769 179.349L196.204 167.863C196.204 167.863 192.981 167.12 192.101 166.998L192.053 166.934Z" fill="#242E3F"/>
<path d="M110.684 138.091L112.326 147.37C111.828 147.935 111.47 148.586 111.113 149.238L101.774 150.645L100.189 157.841L108.009 163.33C108.097 164.14 108.168 164.788 108.319 165.56L102.955 173.173L106.931 179.378L116.271 177.971C116.915 178.44 117.481 178.784 118.187 179.215L119.83 188.494L127.14 190.234L132.504 182.621C133.219 182.529 133.973 182.498 134.75 182.367L142.57 187.856L148.748 184.067L147.106 174.788C147.502 174.199 147.961 173.571 148.318 172.92L157.658 171.513L159.243 164.317L151.423 158.828C151.312 158.117 151.223 157.307 151.113 156.597L156.476 148.985L152.5 142.78L143.161 144.187C142.618 143.742 141.911 143.311 141.245 142.942L139.602 133.663L132.292 131.924L126.928 139.536C126.213 139.629 125.396 139.698 124.681 139.791L116.861 134.301L110.684 138.091ZM123.712 151.709C128.84 148.564 135.643 150.182 138.943 155.332C142.243 160.483 140.767 167.179 135.64 170.325C130.512 173.47 123.71 171.851 120.41 166.701C117.11 161.551 118.585 154.854 123.712 151.709Z" fill="#242E3F"/>
<path d="M3.04053 84.1932L93.7055 56.9359L115.281 22.6758L118.365 46.1763L121.521 79.2186L132.618 146.451L106.246 166.047L141.414 170.949L170.671 197.428L185.299 210.667L199.928 223.906L169.975 215.107L81.017 243.185L6.49182 197.54L3.04053 84.1932Z" fill="#AF8D67"/>
<path d="M93.7055 56.9359L3.04053 84.1932L6.49182 197.54M93.7055 56.9359L106.246 166.047M93.7055 56.9359L115.281 22.6758L118.365 46.1763L121.521 79.2186L132.618 146.451L106.246 166.047M6.49182 197.54L106.246 166.047M6.49182 197.54L81.017 243.185L169.975 215.107M106.246 166.047L169.975 215.107M106.246 166.047L141.414 170.949L170.671 197.428L185.299 210.667L199.928 223.906L169.975 215.107" stroke="#956F43" stroke-width="3"/>
<path d="M183.035 112.18C183.307 115.554 182.862 118.463 181.7 120.904C180.562 123.318 178.857 125.346 176.585 126.987C174.338 128.599 171.603 129.846 168.382 130.725C165.163 131.63 161.632 132.234 157.789 132.535C156.05 132.672 154.232 132.644 152.335 132.453C150.441 132.289 148.556 131.927 146.683 131.369C144.807 130.784 142.994 130.012 141.244 129.052C139.495 128.093 137.896 126.899 136.449 125.471C135.025 124.016 133.779 122.324 132.709 120.397C131.665 118.468 130.912 116.254 130.45 113.757L147.402 112.075C147.409 112.806 147.442 113.548 147.503 114.3C147.563 115.053 147.626 115.832 147.691 116.636C147.873 118.894 148.137 121.198 148.483 123.548C150.029 123.61 151.571 123.619 153.11 123.577C154.648 123.535 156.183 123.454 157.715 123.334C159.246 123.214 160.762 123.056 162.262 122.86C163.761 122.664 165.283 122.414 166.826 122.11C166.885 121.217 166.92 120.353 166.931 119.516C166.939 118.653 166.908 117.781 166.837 116.898C166.722 115.471 166.515 114.037 166.217 112.598C165.918 111.159 165.567 109.723 165.165 108.292C163.33 108.227 161.221 108.157 158.838 108.083C156.454 108.009 153.996 107.823 151.464 107.525C148.956 107.199 146.474 106.715 144.018 106.071C141.587 105.4 139.381 104.45 137.401 103.221C135.418 101.966 133.775 100.371 132.469 98.4358C131.164 96.5008 130.395 94.0928 130.163 91.2117C130.002 89.2131 130.219 87.3676 130.814 85.6754C131.436 83.9811 132.318 82.4492 133.462 81.0796C134.63 79.6821 136.006 78.438 137.59 77.3473C139.2 76.2546 140.902 75.3245 142.695 74.557C144.515 73.7875 146.372 73.1718 148.269 72.7096C150.165 72.2475 152.009 71.9462 153.8 71.8057C157.721 71.4983 161.223 71.8374 164.307 72.8232C167.391 73.809 170.025 75.2089 172.209 77.0227C174.417 78.8086 176.178 80.8907 177.493 83.269C178.808 85.6472 179.656 88.0623 180.036 90.5138L162.392 93.8171C162.442 92.8206 162.441 91.8281 162.387 90.8398C162.358 89.8234 162.303 88.8221 162.224 87.8357C162.042 85.5776 161.702 83.3057 161.205 81.02C160.311 80.9594 159.421 80.9378 158.534 80.9551C157.674 80.9704 156.802 81.0127 155.919 81.082C152.414 81.3568 148.904 82.063 145.39 83.2004C145.391 83.8533 145.416 84.4913 145.466 85.1142C145.516 85.7372 145.565 86.3471 145.613 86.9441C145.76 88.7611 145.969 90.547 146.241 92.3019C146.537 94.0287 146.963 95.7582 147.521 97.4907C149.699 97.6072 152.061 97.7355 154.606 97.8754C157.15 97.9894 159.703 98.2202 162.265 98.5679C164.851 98.8874 167.345 99.3579 169.747 99.9793C172.172 100.573 174.329 101.396 176.216 102.45C178.128 103.475 179.697 104.789 180.923 106.39C182.147 107.966 182.851 109.896 183.035 112.18Z" fill="#242E3F"/>
<path d="M372.686 74.025C370.664 81.1548 368.676 87.2817 366.722 92.4055C364.768 97.5294 363.018 101.746 361.473 105.054C359.662 108.924 357.935 112.151 356.291 114.737C356.317 115.312 356.368 115.975 356.445 116.727C356.518 117.453 356.614 118.254 356.734 119.131C356.928 120.55 357.162 122.069 357.436 123.687C357.71 125.306 357.99 126.871 358.275 128.383C358.587 129.891 358.88 131.27 359.156 132.521C359.455 133.742 359.714 134.679 359.935 135.332L338.423 138.622C338.467 138.169 338.486 137.444 338.481 136.446C338.498 135.419 338.487 134.278 338.446 133.022C338.428 131.737 338.376 130.391 338.288 128.984C338.227 127.573 338.165 126.255 338.102 125.028C338.036 123.776 337.966 122.682 337.89 121.746C337.841 120.807 337.806 120.168 337.786 119.829C336.439 118.25 334.995 116.526 333.451 114.658C331.904 112.765 330.293 110.788 328.619 108.727C326.94 106.641 325.229 104.506 323.485 102.324C321.737 100.115 320.015 97.9037 318.319 95.6884C316.62 93.4473 314.949 91.2286 313.309 89.0321C311.693 86.8322 310.166 84.6993 308.727 82.6333L330.811 80.6463C331.593 82.3277 332.565 84.2463 333.728 86.4021C334.89 88.5579 336.189 90.8528 337.626 93.2869C339.059 95.6952 340.607 98.167 342.267 100.702C343.928 103.238 345.634 105.714 347.384 108.133C348.777 104.477 350.085 100.78 351.309 97.0419C351.827 95.4482 352.36 93.7736 352.909 92.0182C353.457 90.2628 353.976 88.4851 354.466 86.685C354.952 84.8591 355.404 83.0643 355.82 81.3004C356.232 79.5108 356.576 77.7961 356.851 76.1562L372.686 74.025Z" fill="#242E3F"/>
<path d="M480.593 113.876C481.185 111.514 481.658 109.032 482.013 106.428C482.392 103.803 482.659 101.125 482.816 98.3955C482.981 95.5066 483.032 92.6336 482.967 89.7766C482.904 86.8969 482.732 84.1248 482.451 81.4604C481.198 81.0207 479.828 80.6198 478.343 80.2576C477.06 79.9303 475.561 79.613 473.844 79.3055C472.149 78.9994 470.301 78.7869 468.299 78.668C467.913 78.645 467.515 78.6213 467.105 78.597C466.696 78.5727 466.285 78.5711 465.873 78.5923C465.851 78.979 465.813 79.6387 465.76 80.5713C465.706 81.504 465.64 82.6527 465.562 84.0176C465.508 85.3611 465.432 86.8858 465.334 88.5919C465.26 90.2766 465.181 92.0523 465.097 93.9189C465.013 95.7856 464.938 97.6984 464.871 99.6574C464.805 101.616 464.751 103.553 464.709 105.468C464.668 107.383 464.631 109.23 464.597 111.008C464.588 112.765 464.598 114.386 464.627 115.872C466.725 115.905 468.727 115.819 470.633 115.612C472.562 115.407 474.264 115.177 475.74 114.923C477.469 114.615 479.087 114.266 480.593 113.876ZM462.695 70.1179C465.379 70.2774 468.124 70.5774 470.929 71.018C473.757 71.4599 476.481 72.1125 479.102 72.9759C481.746 73.8405 484.227 74.958 486.545 76.3283C488.863 77.6986 490.856 79.3805 492.522 81.374C494.211 83.3689 495.502 85.7281 496.396 88.4518C497.291 91.1527 497.636 94.2888 497.432 97.8602C497.233 101.318 496.602 104.362 495.539 106.992C494.475 109.622 493.1 111.914 491.413 113.868C489.75 115.801 487.832 117.41 485.658 118.696C483.484 119.982 481.178 120.998 478.739 121.743C476.322 122.49 473.829 122.981 471.259 123.216C468.688 123.474 466.174 123.53 463.717 123.384C461.328 123.242 459.227 123.06 457.414 122.838C455.6 122.639 454.059 122.445 452.791 122.256C451.32 122.031 450.044 121.796 448.963 121.549C449.491 117.106 449.985 112.673 450.444 108.25C450.903 103.826 451.261 99.3737 451.518 94.8924C451.644 92.6859 451.731 90.5797 451.777 88.5738C451.846 86.5693 451.891 84.5862 451.913 82.6245C451.934 80.6628 451.933 78.6884 451.91 76.7012C451.911 74.6926 451.907 72.5697 451.898 70.3323C453.807 70.0805 455.674 69.9632 457.499 69.9803C459.325 69.9747 461.057 70.0206 462.695 70.1179Z" fill="#242E3F"/>
<path d="M254.404 120.773C253.931 122.221 253.259 123.49 252.389 124.581C251.525 125.654 250.487 126.566 249.275 127.319C248.069 128.053 246.708 128.633 245.192 129.059C243.676 129.486 242.036 129.758 240.271 129.876L247.594 149.156L234.245 146.335L230.787 129.469C230.176 129.391 229.549 129.297 228.906 129.189C228.264 129.08 227.612 128.968 226.951 128.853C226.474 130.814 225.998 132.868 225.523 135.014C225.066 137.167 224.582 139.465 224.071 141.908L210.608 138.494C212.538 133.845 214.375 129.197 216.12 124.549C217.89 119.888 219.558 115.163 221.123 110.374C221.529 109.13 221.89 107.994 222.205 106.967C222.539 105.946 222.845 104.947 223.123 103.97C223.42 102.998 223.708 101.993 223.986 100.953C224.264 99.9141 224.572 98.751 224.91 97.4642C227.38 97.5163 229.822 97.7754 232.239 98.2417C234.673 98.7141 237.134 99.3595 239.62 100.178C240.863 100.587 242.181 101.113 243.573 101.757C244.966 102.4 246.31 103.161 247.605 104.04C248.919 104.924 250.122 105.927 251.215 107.047C252.326 108.174 253.219 109.434 253.894 110.828C254.587 112.228 255.003 113.753 255.142 115.402C255.281 117.052 255.035 118.842 254.404 120.773ZM233.998 104.835C233.004 107.879 232.06 110.828 231.169 113.68C230.303 116.52 229.465 119.462 228.655 122.506L229.796 122.882C231.429 123.419 233.086 123.913 234.767 124.364C236.449 124.814 238.074 125.154 239.644 125.383C240.231 124.466 240.79 123.385 241.32 122.141C241.874 120.884 242.379 119.56 242.834 118.167C243.125 117.276 243.388 116.376 243.624 115.467C243.866 114.539 244.077 113.642 244.257 112.776C244.443 111.891 244.577 111.041 244.659 110.225C244.759 109.415 244.817 108.673 244.831 107.999C244.584 107.877 244.287 107.748 243.94 107.614C243.612 107.485 243.235 107.351 242.808 107.21C241.955 106.929 241.018 106.652 239.998 106.378C238.996 106.11 238.041 105.857 237.133 105.62C236.088 105.358 235.043 105.097 233.998 104.835Z" fill="#242E3F"/>
<path d="M439.979 86.3713C440.159 87.833 440.091 89.2198 439.776 90.5317C439.459 91.8249 438.925 93.0493 438.172 94.2048C437.418 95.3416 436.464 96.4073 435.311 97.4019C434.159 98.3964 432.834 99.3071 431.338 100.134L445.652 114.012L432.808 117.014L422.868 103.665C422.301 103.847 421.713 104.022 421.106 104.191C420.499 104.359 419.883 104.528 419.257 104.699C419.643 106.611 420.069 108.604 420.532 110.677C421.014 112.749 421.533 114.959 422.087 117.307L408.901 119.837C408.685 114.976 408.388 110.154 408.011 105.369C407.65 100.564 407.173 95.7436 406.58 90.909C406.426 89.6535 406.277 88.5116 406.132 87.4832C406.005 86.4526 405.864 85.4523 405.707 84.4824C405.568 83.5103 405.408 82.5123 405.225 81.4884C405.043 80.4646 404.836 79.32 404.605 78.0548C406.788 77.0882 409.033 76.3138 411.339 75.7317C413.664 75.1473 416.083 74.7037 418.595 74.4011C419.851 74.2497 421.22 74.1703 422.703 74.1628C424.186 74.1553 425.674 74.2707 427.168 74.509C428.681 74.7451 430.145 75.1296 431.561 75.6626C432.996 76.1933 434.294 76.9306 435.456 77.8744C436.637 78.8161 437.626 79.9804 438.424 81.3675C439.222 82.7546 439.74 84.4225 439.979 86.3713ZM415.582 80.7825C415.959 83.8556 416.342 86.8234 416.731 89.6859C417.137 92.5274 417.609 95.4465 418.147 98.4431L419.3 98.3042C420.95 98.1054 422.603 97.8587 424.26 97.564C425.917 97.2693 427.479 96.9004 428.947 96.4574C429.085 95.4138 429.131 94.2388 429.085 92.9323C429.055 91.6048 428.954 90.2383 428.782 88.8329C428.672 87.9335 428.533 87.0374 428.367 86.1447C428.198 85.2333 428.015 84.3616 427.818 83.5297C427.618 82.679 427.387 81.8797 427.124 81.1317C426.88 80.3815 426.626 79.7085 426.363 79.1127C426.096 79.1068 425.783 79.116 425.425 79.1402C425.085 79.1621 424.7 79.199 424.269 79.251C423.406 79.3549 422.472 79.4959 421.467 79.6741C420.48 79.85 419.541 80.0203 418.648 80.1849C417.626 80.3841 416.604 80.5833 415.582 80.7825Z" fill="#242E3F"/>
<path d="M272.829 151.687C272.871 151.141 272.903 150.595 272.926 150.047C272.951 149.481 272.984 148.925 273.025 148.379C271.959 149.204 270.861 149.809 269.734 150.194C268.626 150.561 267.612 150.822 266.691 150.977C265.617 151.158 264.561 151.226 263.522 151.182C261.64 151.034 259.846 150.599 258.14 149.878C256.452 149.177 254.974 148.199 253.706 146.944C252.439 145.689 251.447 144.172 250.732 142.392C250.036 140.595 249.728 138.554 249.809 136.269C249.984 133.973 250.455 131.908 251.22 130.074C251.987 128.222 253.043 126.667 254.389 125.409C255.736 124.152 257.359 123.229 259.26 122.64C261.162 122.032 263.328 121.814 265.758 121.986C265.833 121.992 266.114 122.033 266.601 122.109C267.107 122.168 267.722 122.302 268.445 122.51C269.169 122.7 269.951 122.988 270.793 123.377C271.636 123.746 272.46 124.237 273.265 124.849L273.079 121.341L284.29 121.456C283.651 126.841 283.126 132.206 282.717 137.552C282.617 138.851 282.523 140.084 282.434 141.251C282.364 142.401 282.295 143.55 282.226 144.7C282.177 145.833 282.127 146.984 282.075 148.154C282.044 149.306 282.008 150.525 281.966 151.81L272.829 151.687ZM260.167 143.817C262.414 143.899 264.628 143.921 266.808 143.885C268.989 143.848 271.149 143.705 273.289 143.457C273.411 141.119 273.48 138.852 273.497 136.656C273.532 134.462 273.515 132.217 273.445 129.92L271.835 129.793C270.009 129.649 268.169 129.571 266.314 129.558C264.48 129.527 262.62 129.579 260.735 129.715C260.358 131.674 260.093 133.651 259.94 135.646C259.882 136.399 259.847 137.107 259.834 137.768C259.823 138.411 259.821 139.055 259.828 139.699C259.855 140.345 259.89 141.002 259.933 141.668C259.996 142.335 260.074 143.052 260.167 143.817Z" fill="#242E3F"/>
<path d="M394.513 125.965C394.424 125.368 394.325 124.772 394.216 124.177C394.103 123.562 394.003 122.956 393.914 122.358C392.968 123.507 391.936 124.427 390.817 125.117C389.715 125.783 388.688 126.313 387.735 126.705C386.623 127.162 385.504 127.494 384.376 127.701C382.315 128.003 380.278 127.975 378.266 127.616C376.277 127.276 374.448 126.586 372.777 125.546C371.106 124.506 369.667 123.116 368.461 121.377C367.273 119.614 366.442 117.493 365.969 115.015C365.595 112.501 365.596 110.164 365.97 108.004C366.342 105.823 367.097 103.891 368.238 102.209C369.378 100.526 370.899 99.1348 372.8 98.0356C374.698 96.9157 376.975 96.1509 379.631 95.7412C379.713 95.7291 380.026 95.7045 380.568 95.6673C381.127 95.6064 381.822 95.5996 382.65 95.6468C383.475 95.6734 384.388 95.7925 385.389 96.004C386.386 96.195 387.393 96.5214 388.409 96.9832L387.35 93.2538L399.44 90.632C400.071 96.5822 400.821 102.483 401.69 108.335C401.901 109.757 402.101 111.107 402.291 112.385C402.498 113.639 402.705 114.893 402.913 116.146C403.137 117.377 403.365 118.628 403.596 119.899C403.845 121.147 404.104 122.467 404.374 123.859L394.513 125.965ZM378.962 120.598C381.399 120.136 383.787 119.619 386.124 119.045C388.461 118.472 390.75 117.789 392.992 116.998C392.551 114.452 392.07 111.996 391.55 109.63C391.051 107.26 390.483 104.849 389.844 102.395L388.082 102.652C386.082 102.945 384.083 103.311 382.084 103.751C380.103 104.167 378.115 104.679 376.12 105.287C376.193 107.487 376.392 109.679 376.717 111.863C376.839 112.687 376.974 113.457 377.123 114.172C377.268 114.867 377.424 115.56 377.589 116.252C377.776 116.94 377.974 117.637 378.184 118.344C378.415 119.047 378.674 119.798 378.962 120.598Z" fill="#242E3F"/>
<path d="M325.244 118.468C325.487 121.102 325.347 123.504 324.825 125.676C324.322 127.824 323.474 129.685 322.281 131.259C321.087 132.832 319.567 134.095 317.722 135.047C315.876 136 313.741 136.585 311.317 136.804C309.923 136.887 308.535 136.821 307.155 136.606C306.573 136.51 305.956 136.385 305.304 136.231C304.671 136.054 304.024 135.837 303.363 135.578C302.721 135.296 302.095 134.959 301.485 134.568C300.875 134.177 300.3 133.708 299.761 133.162C300.157 136.759 300.57 140.312 301 143.821C301.432 147.351 301.883 150.741 302.353 153.991L290.302 154.313C290.19 150.563 290.028 146.626 289.818 142.503C289.607 138.379 289.362 134.227 289.082 130.046C288.822 125.842 288.522 121.674 288.183 117.541C287.865 113.406 287.531 109.442 287.181 105.65L297.803 104.692C297.797 106.01 297.822 107.314 297.877 108.605C298.313 108.034 298.798 107.534 299.332 107.103C299.885 106.65 300.454 106.248 301.038 105.898C301.622 105.548 302.21 105.24 302.801 104.974C303.414 104.706 303.999 104.484 304.557 104.306C305.855 103.87 307.198 103.568 308.585 103.401C309.744 103.296 310.94 103.359 312.172 103.587C313.403 103.795 314.605 104.164 315.781 104.696C316.977 105.225 318.103 105.91 319.158 106.749C320.234 107.587 321.197 108.583 322.047 109.739C322.898 110.894 323.603 112.201 324.162 113.659C324.72 115.095 325.08 116.699 325.244 118.468ZM299.385 129.085C300.958 129.326 302.427 129.47 303.792 129.516C305.175 129.54 306.615 129.485 308.111 129.35C308.996 129.27 309.921 129.155 310.884 129.004C311.848 128.854 312.894 128.674 314.022 128.466C314.04 127.509 314.017 126.566 313.952 125.637C313.909 124.706 313.843 123.766 313.756 122.818C313.579 120.901 313.331 119.022 313.013 117.182C312.692 115.32 312.307 113.453 311.858 111.582C309.844 111.636 308.079 111.731 306.561 111.868C305.824 111.935 305.12 112.02 304.449 112.123C303.777 112.204 303.096 112.308 302.406 112.434C301.736 112.537 301.045 112.653 300.334 112.78C299.645 112.906 298.903 113.048 298.11 113.204C298.402 117.745 298.765 122.365 299.198 127.063L299.385 129.085Z" fill="#242E3F"/>
<path d="M198.987 98.713C190.362 98.5832 184.931 102.372 184.73 115.686C184.509 130.369 192.367 131.488 200.992 131.617C212.491 131.791 215.611 123.837 214.209 117.315L207.71 117.217C207.193 118.339 209.089 125.239 199.598 124.596C193.549 124.186 191.632 122.3 191.73 115.791C191.845 108.107 193.39 105.13 198.89 105.212C204.889 105.303 205.513 107.564 206.346 108.195L202.301 111.135L215.269 113.33L216.45 101.347L212.405 104.286C210.426 102.886 208.979 99.3635 198.987 98.713Z" fill="#242E3F"/>
<path d="M508.954 144.166C509.224 142.491 506.941 138.124 506.941 138.124L503.558 146.513L498.565 152.989L500.945 155.817C500.945 155.817 508.684 145.84 508.954 144.166Z" fill="#F3D24F"/>
<path d="M493.601 163.15C494.723 161.239 490.663 156.74 490.663 156.74L485.395 166.968L474.774 170.708C474.774 170.708 476.024 176.152 479.379 176.91C482.735 177.668 492.479 165.061 493.601 163.15Z" fill="#F3D24F"/>
<path d="M476.339 163.079C478.426 163.688 481.695 158.92 481.695 158.92L472.763 155.429L465.574 146.887C465.574 146.887 460.88 148.359 461.139 153.047C461.398 157.735 474.252 162.47 476.339 163.079Z" fill="#F3D24F"/>
<path d="M501.982 151.21L497.54 153.035L502.398 159.598L499.787 167.581C499.787 167.581 505.343 167.613 506.924 165.842C508.505 164.071 501.982 151.21 501.982 151.21Z" fill="#F3D24F"/>
<path d="M506.959 138.026C504.783 134.955 495.217 137.629 491.179 138.802C489.405 135.729 483.464 127.601 480.48 128.919C477.496 130.237 476.8 137.92 476.385 142.727C472.445 143.35 462.741 147.112 461.949 150.155C461.157 153.197 468.834 157.996 473.589 159.505C473.744 163.618 473.682 173.232 476.448 173.825C479.297 174.437 485.328 168.306 488.652 164.695C492.505 165.603 500.512 169.381 503.518 166.66C506.524 163.94 501.914 155.954 500.023 151.959C502.819 148.153 509.208 141.201 506.959 138.026Z" fill="#FFF537"/>
<path d="M477.663 46.7357C479.055 45.7674 480.612 41.0914 480.612 41.0914L472.226 44.4831L464.099 45.3864L463.716 49.063C463.716 49.063 476.27 47.7039 477.663 46.7357Z" fill="#5698C7"/>
<path d="M453.34 48.8702C455.494 48.3506 455.913 42.3047 455.913 42.3047L444.894 45.6162L434.829 40.5704C434.829 40.5704 431.779 45.2498 433.564 48.191C435.348 51.1322 451.186 49.3898 453.34 48.8702Z" fill="#5698C7"/>
<path d="M441.405 36.3991C442.416 38.3236 448.117 37.3651 448.117 37.3651L444.426 28.5136L445.581 17.4092C445.581 17.4092 441.262 15.0536 438.069 18.4954C434.876 21.9371 440.395 34.4745 441.405 36.3991Z" fill="#5698C7"/>
<path d="M467.752 46.6095L463.355 44.6812L462.005 52.7339L454.448 56.3987C454.448 56.3987 458.283 60.4185 460.655 60.3265C463.027 60.2345 467.752 46.6095 467.752 46.6095Z" fill="#5698C7"/>
<path d="M480.695 41.0369C481.394 37.3387 472.828 32.3116 469.179 30.2205C470.159 26.8098 471.882 16.8907 468.862 15.6587C465.841 14.4267 459.829 19.261 456.082 22.2997C452.898 19.8976 443.453 15.5268 440.713 17.0698C437.974 18.6127 439.852 27.4688 442.067 31.9389C439.216 34.9065 432.254 41.5372 433.747 43.9397C435.286 46.4147 443.885 46.497 448.792 46.3818C450.814 49.7852 453.655 58.1698 457.701 58.444C461.746 58.7182 464.291 49.8557 465.853 45.7206C470.533 45.0896 479.972 44.8601 480.695 41.0369Z" fill="#91CCF4"/>
<path d="M68.0331 82.751C64.5956 82.4209 61.1496 82.29 57.7178 81.8933C55.4879 81.6355 53.0532 81.5976 50.8625 81.1317C50.3739 81.0279 51.6555 81.297 51.7554 81.3122C52.3896 81.4085 53.0196 81.294 53.5264 81.6982" stroke="#956F43" stroke-width="3" stroke-linecap="round"/>
<path d="M60.399 82.8207C60.0638 84.4637 59.8646 86.1304 59.5162 87.769C59.4024 88.304 59.1491 88.7609 59.7483 88.2698" stroke="#956F43" stroke-width="3" stroke-linecap="round"/>
<path d="M65.7663 90.2266C62.0897 89.8211 58.3922 89.2824 54.7049 88.9845C53.9034 88.9198 53.1017 88.8576 52.2999 88.793C52.2241 88.7869 50.4587 88.8461 51.2009 88.6534" stroke="#956F43" stroke-width="3" stroke-linecap="round"/>
<path d="M50.3397 92.7032C53.0464 92.9178 55.1683 93.5512 57.6325 94.5926C59.0167 95.1775 59.8318 96.1942 59.6304 97.8487C59.1029 102.183 51.7047 101.68 49.1729 101.724" stroke="#956F43" stroke-width="3" stroke-linecap="round"/>
<path d="M54.7033 94.4777C54.2451 96.6325 53.9658 99.0519 53.939 101.257" stroke="#956F43" stroke-width="3" stroke-linecap="round"/>
<path d="M58.1513 110.247C59.2944 103.675 51.8601 105.082 49.762 106.126C46.0873 109.404 50.2724 112.68 51.7428 112.099" stroke="#956F43" stroke-width="3" stroke-linecap="round"/>
<path d="M61.5166 116.85C58.1337 117.146 54.6726 117.224 50.9138 116.37C49.9474 116.124 47.3891 115.614 46.4147 115.395M58.3341 122.755C57.1345 122.594 54.4491 124.971 52.4963 117.343M52.6682 117.507C51.4263 124.635 50.3187 122.693 46.7421 121.386" stroke="#956F43" stroke-width="3" stroke-linecap="round"/>
<path d="M54.269 140.003C57.357 139.834 58.4717 134.265 55.8296 131.906C54.5699 130.781 51.6172 128.13 45.5884 130.975C41.4057 133.695 43.1489 138.107 47.1975 138.887" stroke="#956F43" stroke-width="3" stroke-linecap="round"/>
<path d="M54.0426 145.023C51.9783 144.395 46.7737 143.01 44.7477 142.272C44.4758 142.173 43.5057 141.639 43.2216 141.929C42.402 142.763 42.0604 145.677 42.115 146.676" stroke="#956F43" stroke-width="3" stroke-linecap="round"/>
<path d="M47.9069 151.868C46.0646 149.236 41.9205 149.528 41.3745 151.452C39.6948 157.369 44.1584 156.579 46.6274 155.943" stroke="#956F43" stroke-width="3" stroke-linecap="round"/>
<path d="M48.1359 161.993C45.1656 161.362 36.2215 159.629 39.1919 160.261" stroke="#956F43" stroke-width="3" stroke-linecap="round"/>
<path d="M47.743 162.248C47.8852 163.877 48.7743 167.16 46.2448 167.348C44.3765 167.487 43.9079 166.163 43.4026 164.524C43.2853 164.143 42.8964 160.749 43.0077 162.709C43.1021 164.371 42.8192 165.663 41.3161 166.639C38.4192 168.52 35.9714 165.143 36.5662 162.346C36.7601 161.434 37.328 160.816 37.8614 160.147" stroke="#956F43" stroke-width="3" stroke-linecap="round"/>
<path d="M71.8719 77.6939C68.838 77.4806 50.339 78.5629 47.3051 78.3497C44.2712 78.1364 25.6745 169.736 28.7558 170.447C31.8372 171.158 52.0573 175.513 54.9963 174.731C57.9353 173.949 74.9057 77.9073 71.8719 77.6939Z" stroke="#956F43" stroke-width="2"/>
<path d="M332.665 189.776L318.771 192.895L313.761 170.57L316.977 169.848L321.258 188.926L331.937 186.529L332.665 189.776Z" fill="black"/>
<path d="M356.703 172.793C357.402 175.959 356.876 178.915 355.123 181.662C353.386 184.384 350.935 186.094 347.769 186.794C344.623 187.488 341.679 186.97 338.937 185.238C336.211 183.481 334.498 181.019 333.799 177.853C333.099 174.686 333.616 171.732 335.347 168.99C337.079 166.248 339.528 164.527 342.695 163.827C345.861 163.128 348.807 163.657 351.533 165.414C354.275 167.146 355.998 169.605 356.703 172.793ZM353.64 173.469C353.13 171.157 351.872 169.37 349.867 168.109C347.879 166.822 345.718 166.437 343.385 166.952C341.073 167.463 339.276 168.723 337.994 170.732C336.728 172.716 336.35 174.864 336.861 177.176C337.372 179.488 338.619 181.277 340.603 182.543C342.587 183.809 344.745 184.184 347.078 183.669C349.391 183.158 351.19 181.908 352.477 179.92C353.763 177.932 354.151 175.781 353.64 173.469Z" fill="black"/>
<path d="M382.76 179.121L379.402 179.789L362.511 165.235L365.938 182.466L362.674 183.115L358.211 160.674L361.601 160L378.498 174.585L375.065 157.323L378.298 156.68L382.76 179.121Z" fill="black"/>
<path d="M404.589 164.026C405.062 167.148 404.381 169.991 402.548 172.556C400.732 175.097 398.306 176.598 395.268 177.058L387.169 178.286L383.74 155.664L391.839 154.436C394.877 153.976 397.639 154.69 400.126 156.579C402.631 158.443 404.119 160.926 404.589 164.026ZM401.614 164.477C401.272 162.22 400.187 160.399 398.359 159.015C396.531 157.631 394.51 157.106 392.295 157.442C391.135 157.618 390.133 157.77 389.289 157.898C388.446 158.026 387.848 158.138 387.496 158.234L389.989 174.686L394.793 173.926C397.008 173.59 398.785 172.501 400.124 170.658C401.463 168.815 401.96 166.755 401.614 164.477Z" fill="black"/>
<path d="M432.022 162.676C432.123 165.917 431.057 168.725 428.826 171.1C426.615 173.452 423.889 174.679 420.648 174.779C417.429 174.879 414.632 173.824 412.258 171.614C409.905 169.382 408.678 166.646 408.577 163.405C408.477 160.164 409.531 157.356 411.741 154.982C413.951 152.609 416.677 151.371 419.918 151.271C423.159 151.17 425.956 152.236 428.309 154.468C430.683 156.678 431.921 159.414 432.022 162.676ZM428.887 162.774C428.814 160.407 427.909 158.418 426.173 156.807C424.457 155.174 422.405 154.395 420.017 154.469C417.65 154.543 415.651 155.448 414.019 157.185C412.407 158.9 411.638 160.941 411.712 163.307C411.785 165.674 412.679 167.663 414.394 169.275C416.109 170.886 418.161 171.655 420.549 171.581C422.916 171.507 424.916 170.613 426.549 168.897C428.181 167.182 428.961 165.14 428.887 162.774Z" fill="black"/>
<path d="M455.559 177.155L452.153 176.809L440.269 157.945L438.495 175.423L435.184 175.087L437.495 152.324L440.933 152.673L452.813 171.569L454.591 154.059L457.87 154.392L455.559 177.155Z" fill="black"/>
<path d="M47.3238 208.524C47.468 208.43 47.7329 208.108 47.7512 208.081L59.7647 196.726C60.1449 196.407 60.7137 196.375 61.0807 196.632C62.2341 197.44 62.0661 198.963 61.4053 199.907C61.3503 199.985 61.0225 200.342 60.9675 200.42L49.7694 211.057C52.5271 211.972 56.4934 212.835 56.8604 213.092C57.2798 213.386 57.2272 214.131 56.9703 214.498C56.5665 215.074 54.9725 215.286 54.422 215.291C53.3603 215.134 49.6928 214.793 48.7492 214.132C46.6259 212.645 45.7453 210.779 47.1586 208.76L47.3238 208.524ZM64.6496 206.046L64.7964 205.836C64.0519 205.783 63.6115 205.631 63.0872 205.264C62.7727 205.044 62.3824 203.091 62.5843 202.803C64.1444 200.574 70.7528 203.913 72.4567 205.106C75.4187 207.18 77.4394 210.821 75.0717 214.203C71.6945 219.026 62.49 220.511 56.8302 219.947C56.4108 219.653 55.5407 218.106 55.4935 217.839C55.4411 217.802 55.5565 217.414 56.3274 216.313C57.4103 214.767 59.7963 211.749 64.6496 206.046ZM68.3432 207.187L59.7641 217.04C64.0556 216.88 69.6082 215.924 72.343 212.019C73.7379 210.026 72.6553 209.229 70.7156 207.871L70.0865 207.431C69.5098 207.027 68.8073 206.691 68.3432 207.187ZM66.4473 225.235C67.1998 224.16 73.3847 219.233 76.3031 215.065C76.4683 214.829 76.6073 214.575 76.7725 214.339L76.9193 214.129C76.9481 214.032 77.0032 213.954 77.0766 213.849C77.664 213.01 79.119 212.661 79.9578 213.249C83.0509 215.415 75.4867 223.205 77.691 226.194C86.4142 216.246 87.0014 216.579 87.7878 217.13C88.6266 217.717 88.9803 218.941 88.3012 219.911C88.136 220.147 86.8173 221.138 86.6809 221.277C84.9033 222.923 78.9983 232.305 76.2459 230.377C73.9654 228.781 73.9319 224.812 74.7318 222.442C74.6059 222.51 74.1471 222.775 69.5143 226.992C68.8431 227.616 68.0985 227.954 67.3645 227.44L67.2597 227.367C66.5965 226.863 65.8049 226.153 66.4473 225.235Z" fill="#956F43"/>
</svg>
