<svg width="750" height="375" viewBox="0 0 750 375" fill="none" xmlns="http://www.w3.org/2000/svg">
<path d="M88 122.5L85.5 160.5L84 161V163.5H86V169L84 170V175H107.5L109 176.3V239L95.5 244.5L88 248.5L82 253.5V259L77.5 264L76 266.5V295.5L76.5 297.5L78 298L80.5 297L84 294.5L89.5 281.5L100.5 268.5L110.5 262L120 260H136.5L145.5 262L158 268.5L169.5 281.5L175 294.5V323H458.5V300L461.5 290.5L467.5 279L474 270L484 263.5L498.5 259.5H514L525.5 263.5L536 270L543.5 279L549 290.5L552 300V323H668.5L673.5 322.5L674.5 321.5L675 320L674.5 318.5L673 317.5L668 314V173H672L675.5 171V162.5L672 159.5V123L670 103L658 56.5L648 43L628.5 33L611 30H176L139 32L119.5 35L105.5 40L100 52L90.5 106.5L88 122.5Z" fill="#CA141A"/>
<path d="M101.321 48.3332L101.136 49.294C101.045 49.7636 101 50.2407 101 50.7189V51.6883C101 52.2221 101.124 52.7486 101.363 53.226L101.492 53.4839C101.817 54.1345 102.388 54.6292 103.078 54.8593C103.357 54.9525 103.65 55 103.945 55H104.415C105.132 55 105.842 54.8632 106.508 54.5969L107.208 54.3168C107.735 54.106 108.242 53.8487 108.723 53.548L112 51.5C118.294 48.5187 125.019 46.5489 131.927 45.6633L141 44.5L166.5 43H597.5L618.856 43.8717C620.947 43.957 623.026 44.2413 625.063 44.7207C628.662 45.5675 632.093 47.0137 635.212 48.9988L635.799 49.3721C639.569 51.7709 642.874 54.8314 645.554 58.4059L647.941 61.5882C648.645 62.5272 649.439 63.3954 650.312 64.1805L653.091 66.6815C653.686 67.2173 654.414 67.5829 655.2 67.7399L655.341 67.7683C656.097 67.9195 656.881 67.8475 657.597 67.5612L657.87 67.452C658.598 67.1608 659.194 66.6126 659.544 65.9114C659.841 65.3184 659.946 64.6481 659.845 63.9929L659.33 60.645C659.111 59.2237 658.673 57.8451 658.029 56.5589L656.676 53.8518C655.233 50.9661 653.377 48.3064 651.165 45.957L650.003 44.7221C647.675 42.2488 645.034 40.0227 642.208 38.1386C635.265 33.5097 627.098 30.7853 618.763 30.3787L611 30H168.5L143.5 31L122.247 32.8481C121.084 32.9492 119.93 33.1342 118.793 33.4016L114.734 34.3567C107.899 35.9649 102.647 41.438 101.321 48.3332Z" fill="#DE8A6E"/>
<path d="M671.42 316.613L669.755 315.503C668.347 314.565 667.504 312.982 667.51 311.29L667.993 175.5C667.997 174.397 667.103 173.5 666 173.5H654.5L633 174.5L603.5 177.5L593.549 179.216C590.543 179.734 587.664 180.817 585.061 182.407L582.339 184.071C580.802 185.01 579.516 186.306 578.59 187.85C577.55 189.584 577 191.568 577 193.59V316.5V317C577 318.105 577.895 319 579 319H670.697C671.417 319 672 318.417 672 317.697C672 317.262 671.782 316.855 671.42 316.613Z" fill="#2A0909"/>
<path d="M668.966 318H668H579C577.905 318 577.027 317.095 577.059 316.001L577.074 315.5L577.426 303.5C577.467 302.111 578.61 301.008 580 301.018L644.5 301.475L647.08 301.493C647.68 301.498 648.264 301.682 648.758 302.021L650 302.875L669.5 316.281C670.263 316.805 669.892 318 668.966 318Z" fill="#927550"/>
<path d="M102.45 73.8678L98.5889 91.7699C98.2184 93.4877 98.682 95.2794 99.8392 96.6019C100.895 97.8081 102.419 98.5 104.022 98.5H170.849C171.923 98.5 172.97 98.1646 173.843 97.5406C175.197 96.5738 176 95.0128 176 93.3494V68.0739C176 65.8681 174.804 63.8356 172.876 62.7644C171.974 62.2631 170.958 62 169.926 62H117.15C113.508 62 109.989 63.3222 107.248 65.7209C104.814 67.8501 103.132 70.707 102.45 73.8678Z" fill="#D9D9D9"/>
<path d="M185.5 93.7975V66.5549C185.5 65.2289 185.974 63.9466 186.837 62.9398C187.893 61.7086 189.433 61 191.055 61H261.945C263.567 61 265.107 61.7086 266.163 62.9398C267.026 63.9466 267.5 65.2289 267.5 66.5549V93.7975C267.5 95.1931 266.88 96.5166 265.808 97.4101C264.963 98.1143 263.898 98.5 262.797 98.5H190.203C189.102 98.5 188.037 98.1143 187.192 97.4101C186.12 96.5166 185.5 95.1931 185.5 93.7975Z" fill="#D9D9D9"/>
<path d="M278 93.7975V66.5549C278 65.2289 278.474 63.9466 279.337 62.9398C280.393 61.7086 281.933 61 283.555 61H353.445C355.067 61 356.607 61.7086 357.663 62.9398C358.526 63.9466 359 65.2289 359 66.5549V94.6493C359 95.5237 358.702 96.372 358.156 97.0548C357.425 97.9683 356.319 98.5 355.149 98.5H282.703C281.602 98.5 280.537 98.1143 279.692 97.4101C278.62 96.5166 278 95.1931 278 93.7975Z" fill="#D9D9D9"/>
<path d="M369 94.2323V66.1426C369 65.0743 369.334 64.0327 369.955 63.1634C370.924 61.807 372.492 61.0064 374.159 61.0171L447.74 61.4888C448.868 61.496 449.947 61.9471 450.744 62.7443C451.548 63.5483 452 64.6388 452 65.7758V93.3494C452 94.4229 451.665 95.4696 451.041 96.3432C450.074 97.6967 448.513 98.5 446.849 98.5H373.268C372.136 98.5 371.05 98.0504 370.25 97.25C369.45 96.4497 369 95.3641 369 94.2323Z" fill="#D9D9D9"/>
<path d="M461.5 93.7345V66.2187C461.5 65.4152 461.669 64.6206 461.995 63.8864C462.911 61.8248 464.95 60.4907 467.206 60.4761L538.869 60.0138C540.233 60.005 541.543 60.5427 542.507 61.5069C543.463 62.4629 544 63.7596 544 65.1117V93.7975C544 95.1931 543.38 96.5166 542.308 97.4101C541.463 98.1143 540.398 98.5 539.297 98.5H466.266C464.555 98.5 462.976 97.5837 462.128 96.0988C461.716 95.3788 461.5 94.5638 461.5 93.7345Z" fill="#D9D9D9"/>
<path d="M554 93.8787V64.2255C554 63.4409 554.312 62.6883 554.867 62.1335C555.28 61.7204 555.806 61.4389 556.378 61.3243L557.384 61.1233C557.794 61.0413 558.21 61 558.628 61H608.716C610.902 61 613.083 61.1806 615.239 61.5399L619.852 62.3086C622.583 62.7639 625.181 63.8175 627.458 65.3939C629.467 66.7846 631.185 68.5538 632.517 70.6024L633.094 71.4915C635.643 75.4129 637 79.9894 637 84.6663V94.7323C637 95.8641 636.55 96.9497 635.75 97.75C634.95 98.5504 633.864 99 632.732 99H559.121C557.763 99 556.46 98.4605 555.5 97.5C554.54 96.5396 554 95.237 554 93.8787Z" fill="#D9D9D9"/>
<path d="M115 218.542V181.555C115 179.933 115.709 178.393 116.94 177.337C117.947 176.474 119.229 176 120.555 176H153.527C154.837 176 156.142 176.166 157.41 176.495C164.234 178.265 169 184.423 169 191.473V217.297C169 218.693 168.38 220.017 167.308 220.91C166.463 221.614 165.398 222 164.297 222H118.458C117.243 222 116.118 221.363 115.493 220.321C115.17 219.784 115 219.169 115 218.542Z" fill="#D9D9D9"/>
<path d="M185 216.394V192.703C185 191.602 185.386 190.537 186.09 189.692C186.983 188.62 188.307 188 189.703 188H262.945C264.271 188 265.553 188.474 266.56 189.337C267.791 190.393 268.5 191.933 268.5 193.555V216.034C268.5 218.264 267.669 220.415 266.168 222.065C264.469 223.934 262.06 225 259.534 225H193.606C190.728 225 188.041 223.562 186.445 221.168C185.503 219.754 185 218.093 185 216.394Z" fill="#D9D9D9"/>
<path d="M277 216.447V194.454C277 192.296 278.079 190.281 279.874 189.084C280.934 188.377 282.18 188 283.454 188H352.546C353.82 188 355.066 188.377 356.126 189.084C357.922 190.281 359 192.296 359 194.454V216.447C359 218.421 358.317 220.335 357.067 221.863C355.442 223.849 353.012 225 350.447 225H285.553C282.988 225 280.558 223.849 278.933 221.863C277.683 220.335 277 218.421 277 216.447Z" fill="#D9D9D9"/>
<path d="M443.447 225H377.65C375.043 225 372.593 223.752 371.059 221.643C370.046 220.25 369.5 218.572 369.5 216.85V194C369.5 192.111 370.389 190.333 371.9 189.2C372.939 188.421 374.202 188 375.5 188H445.546C446.82 188 448.066 188.377 449.126 189.084C450.922 190.281 452 192.296 452 194.454V216.447C452 218.421 451.317 220.335 450.067 221.863C448.442 223.849 446.012 225 443.447 225Z" fill="#D9D9D9"/>
<path d="M461 217.24V193.555C461 191.933 461.709 190.393 462.94 189.337C463.947 188.474 465.229 188 466.555 188H537.546C538.82 188 540.066 188.377 541.126 189.084C542.922 190.281 544 192.296 544 194.454V216.447C544 218.421 543.317 220.335 542.067 221.863C540.442 223.849 538.012 225 535.447 225H468.76C466.107 225 463.637 223.645 462.213 221.406C461.421 220.161 461 218.716 461 217.24Z" fill="#D9D9D9"/>
<path d="M661.378 225.979L637.963 221.871C635.093 221.367 633 218.875 633 215.961V182.394C633 179.122 635.621 176.453 638.893 176.395L660.702 176.005C660.9 176.002 661.097 176.024 661.29 176.072L662.03 176.257C662.6 176.4 663 176.912 663 177.5V224.691C663 224.894 662.953 225.095 662.862 225.276C662.64 225.72 662.187 226 661.691 226H661.623C661.541 226 661.459 225.993 661.378 225.979Z" fill="#D9D9D9"/>
<rect x="124.75" y="109.75" width="448.5" height="47.5" fill="white" stroke="#EE4C51" stroke-width="2.5"/>
<path d="M188.253 132.496H184.829C184.808 131.877 184.573 131.419 184.125 131.12C183.698 130.8 183.122 130.64 182.397 130.64C181.778 130.64 181.277 130.747 180.893 130.96C180.53 131.173 180.349 131.483 180.349 131.888C180.349 132.293 180.498 132.613 180.797 132.848C181.117 133.083 181.608 133.275 182.269 133.424L185.437 134.128C186.482 134.341 187.293 134.747 187.869 135.344C188.466 135.941 188.765 136.773 188.765 137.84C188.765 139.141 188.221 140.24 187.133 141.136C186.045 142.032 184.605 142.48 182.813 142.48C181 142.48 179.506 142.032 178.333 141.136C177.181 140.219 176.573 139.045 176.509 137.616H179.997C180.082 138.384 180.381 138.949 180.893 139.312C181.426 139.675 182.109 139.856 182.941 139.856C183.666 139.856 184.232 139.717 184.637 139.44C185.042 139.141 185.245 138.757 185.245 138.288C185.245 137.904 185.096 137.595 184.797 137.36C184.498 137.125 184.082 136.955 183.549 136.848L180.797 136.208C179.645 135.931 178.706 135.472 177.981 134.832C177.277 134.192 176.925 133.307 176.925 132.176C176.925 130.917 177.416 129.915 178.397 129.168C179.378 128.4 180.733 128.016 182.461 128.016C184.146 128.016 185.512 128.4 186.557 129.168C187.602 129.915 188.168 131.024 188.253 132.496ZM194.47 135.248C194.47 136.635 194.79 137.701 195.43 138.448C196.092 139.195 196.913 139.568 197.894 139.568C198.662 139.568 199.313 139.355 199.846 138.928C200.401 138.48 200.796 137.829 201.03 136.976H204.646C204.284 138.853 203.473 140.24 202.214 141.136C200.956 142.032 199.548 142.48 197.99 142.48C197.03 142.48 196.113 142.32 195.238 142C194.385 141.659 193.638 141.189 192.998 140.592C192.358 139.973 191.846 139.216 191.462 138.32C191.1 137.403 190.918 136.379 190.918 135.248C190.918 134.117 191.1 133.104 191.462 132.208C191.846 131.312 192.358 130.555 192.998 129.936C193.638 129.317 194.385 128.848 195.238 128.528C196.113 128.187 197.03 128.016 197.99 128.016C199.569 128.016 200.988 128.475 202.246 129.392C203.505 130.288 204.305 131.696 204.646 133.616H201.03C200.817 132.741 200.433 132.08 199.878 131.632C199.345 131.163 198.684 130.928 197.894 130.928C196.913 130.928 196.092 131.301 195.43 132.048C194.79 132.795 194.47 133.861 194.47 135.248ZM207.625 142V128.496H211.113V131.312C211.583 130.224 212.233 129.403 213.065 128.848C213.897 128.293 214.836 128.016 215.881 128.016C216.095 128.016 216.297 128.037 216.489 128.08C216.703 128.101 216.884 128.123 217.033 128.144V131.824C216.671 131.76 216.308 131.707 215.945 131.664C215.583 131.621 215.22 131.6 214.857 131.6C213.492 131.6 212.521 131.963 211.945 132.688C211.391 133.392 211.113 134.501 211.113 136.016V142H207.625ZM218.45 135.248C218.45 134.096 218.621 133.072 218.962 132.176C219.325 131.259 219.794 130.501 220.37 129.904C220.968 129.285 221.64 128.816 222.386 128.496C223.133 128.176 223.89 128.016 224.658 128.016C225.576 128.016 226.461 128.24 227.314 128.688C228.168 129.136 228.861 129.819 229.394 130.736V128.496H232.882V142H229.394V139.76C228.861 140.677 228.168 141.36 227.314 141.808C226.461 142.256 225.576 142.48 224.658 142.48C223.89 142.48 223.133 142.32 222.386 142C221.64 141.68 220.968 141.221 220.37 140.624C219.794 140.005 219.325 139.248 218.962 138.352C218.621 137.435 218.45 136.4 218.45 135.248ZM225.618 131.056C224.509 131.056 223.624 131.461 222.962 132.272C222.322 133.083 222.002 134.075 222.002 135.248C222.002 136.421 222.322 137.413 222.962 138.224C223.624 139.035 224.509 139.44 225.618 139.44C226.706 139.44 227.613 139.077 228.338 138.352C229.085 137.605 229.458 136.571 229.458 135.248C229.458 133.925 229.085 132.901 228.338 132.176C227.613 131.429 226.706 131.056 225.618 131.056ZM236.907 147.6V128.496H240.427V130.768C240.96 129.851 241.653 129.168 242.507 128.72C243.381 128.251 244.288 128.016 245.227 128.016C245.995 128.016 246.741 128.176 247.467 128.496C248.213 128.816 248.864 129.285 249.419 129.904C249.995 130.501 250.453 131.259 250.795 132.176C251.157 133.072 251.339 134.096 251.339 135.248C251.339 136.4 251.157 137.435 250.795 138.352C250.453 139.248 249.995 140.005 249.419 140.624C248.864 141.221 248.213 141.68 247.467 142C246.741 142.32 245.995 142.48 245.227 142.48C244.288 142.48 243.381 142.256 242.507 141.808C241.653 141.339 240.96 140.645 240.427 139.728V147.6H236.907ZM244.171 139.44C245.28 139.44 246.165 139.035 246.827 138.224C247.488 137.413 247.819 136.421 247.819 135.248C247.819 134.075 247.488 133.083 246.827 132.272C246.165 131.461 245.28 131.056 244.171 131.056C243.083 131.056 242.176 131.429 241.451 132.176C240.725 132.901 240.363 133.925 240.363 135.248C240.363 136.571 240.725 137.605 241.451 138.352C242.176 139.077 243.083 139.44 244.171 139.44ZM262.882 128.496H266.498L258.85 147.6H255.394L257.858 141.392L253.026 128.496H256.674L259.714 137.52L262.882 128.496ZM268.138 135.248C268.138 134.096 268.309 133.072 268.65 132.176C269.013 131.259 269.482 130.501 270.058 129.904C270.655 129.285 271.327 128.816 272.074 128.496C272.821 128.176 273.578 128.016 274.346 128.016C275.263 128.016 276.149 128.24 277.002 128.688C277.855 129.136 278.549 129.819 279.082 130.736V128.496H282.57V142H279.082V139.76C278.549 140.677 277.855 141.36 277.002 141.808C276.149 142.256 275.263 142.48 274.346 142.48C273.578 142.48 272.821 142.32 272.074 142C271.327 141.68 270.655 141.221 270.058 140.624C269.482 140.005 269.013 139.248 268.65 138.352C268.309 137.435 268.138 136.4 268.138 135.248ZM275.306 131.056C274.197 131.056 273.311 131.461 272.65 132.272C272.01 133.083 271.69 134.075 271.69 135.248C271.69 136.421 272.01 137.413 272.65 138.224C273.311 139.035 274.197 139.44 275.306 139.44C276.394 139.44 277.301 139.077 278.026 138.352C278.773 137.605 279.146 136.571 279.146 135.248C279.146 133.925 278.773 132.901 278.026 132.176C277.301 131.429 276.394 131.056 275.306 131.056ZM286.594 142V128.496H290.082V131.312C290.551 130.224 291.202 129.403 292.034 128.848C292.866 128.293 293.805 128.016 294.85 128.016C295.063 128.016 295.266 128.037 295.458 128.08C295.671 128.101 295.853 128.123 296.002 128.144V131.824C295.639 131.76 295.277 131.707 294.914 131.664C294.551 131.621 294.189 131.6 293.826 131.6C292.461 131.6 291.49 131.963 290.914 132.688C290.359 133.392 290.082 134.501 290.082 136.016V142H286.594ZM297.419 135.248C297.419 134.096 297.59 133.072 297.931 132.176C298.294 131.259 298.752 130.501 299.307 129.904C299.883 129.285 300.534 128.816 301.259 128.496C302.006 128.176 302.763 128.016 303.531 128.016C304.47 128.016 305.376 128.251 306.251 128.72C307.126 129.168 307.83 129.851 308.363 130.768V120.24H311.851V142H308.363V139.728C307.83 140.645 307.126 141.339 306.251 141.808C305.376 142.256 304.47 142.48 303.531 142.48C302.763 142.48 302.006 142.32 301.259 142C300.534 141.68 299.883 141.221 299.307 140.624C298.752 140.005 298.294 139.248 297.931 138.352C297.59 137.435 297.419 136.4 297.419 135.248ZM304.587 131.056C303.478 131.056 302.592 131.461 301.931 132.272C301.291 133.083 300.971 134.075 300.971 135.248C300.971 136.421 301.291 137.413 301.931 138.224C302.592 139.035 303.478 139.44 304.587 139.44C305.675 139.44 306.582 139.077 307.307 138.352C308.054 137.605 308.427 136.571 308.427 135.248C308.427 133.925 308.054 132.901 307.307 132.176C306.582 131.429 305.675 131.056 304.587 131.056ZM317.891 142.384C317.23 142.384 316.654 142.149 316.163 141.68C315.673 141.189 315.427 140.603 315.427 139.92C315.427 139.237 315.673 138.661 316.163 138.192C316.654 137.701 317.23 137.456 317.891 137.456C318.574 137.456 319.15 137.691 319.619 138.16C320.11 138.629 320.355 139.216 320.355 139.92C320.355 140.603 320.11 141.189 319.619 141.68C319.15 142.149 318.574 142.384 317.891 142.384ZM323.938 142V120.24H327.458V130.896C327.927 129.936 328.557 129.221 329.346 128.752C330.157 128.261 331.053 128.016 332.034 128.016C333.549 128.016 334.754 128.549 335.65 129.616C336.567 130.661 337.026 132.144 337.026 134.064V142H333.538V134.64C333.538 133.488 333.314 132.603 332.866 131.984C332.439 131.365 331.757 131.056 330.818 131.056C329.815 131.056 329.005 131.397 328.386 132.08C327.767 132.741 327.458 133.776 327.458 135.184V142H323.938ZM340.044 135.248C340.044 134.096 340.215 133.072 340.556 132.176C340.919 131.259 341.388 130.501 341.964 129.904C342.561 129.285 343.233 128.816 343.98 128.496C344.727 128.176 345.484 128.016 346.252 128.016C347.169 128.016 348.055 128.24 348.908 128.688C349.761 129.136 350.455 129.819 350.988 130.736V128.496H354.476V142H350.988V139.76C350.455 140.677 349.761 141.36 348.908 141.808C348.055 142.256 347.169 142.48 346.252 142.48C345.484 142.48 344.727 142.32 343.98 142C343.233 141.68 342.561 141.221 341.964 140.624C341.388 140.005 340.919 139.248 340.556 138.352C340.215 137.435 340.044 136.4 340.044 135.248ZM347.212 131.056C346.103 131.056 345.217 131.461 344.556 132.272C343.916 133.083 343.596 134.075 343.596 135.248C343.596 136.421 343.916 137.413 344.556 138.224C345.217 139.035 346.103 139.44 347.212 139.44C348.3 139.44 349.207 139.077 349.932 138.352C350.679 137.605 351.052 136.571 351.052 135.248C351.052 133.925 350.679 132.901 349.932 132.176C349.207 131.429 348.3 131.056 347.212 131.056ZM361.22 135.248C361.22 136.635 361.54 137.701 362.18 138.448C362.842 139.195 363.663 139.568 364.644 139.568C365.412 139.568 366.063 139.355 366.596 138.928C367.151 138.48 367.546 137.829 367.78 136.976H371.396C371.034 138.853 370.223 140.24 368.964 141.136C367.706 142.032 366.298 142.48 364.74 142.48C363.78 142.48 362.863 142.32 361.988 142C361.135 141.659 360.388 141.189 359.748 140.592C359.108 139.973 358.596 139.216 358.212 138.32C357.85 137.403 357.668 136.379 357.668 135.248C357.668 134.117 357.85 133.104 358.212 132.208C358.596 131.312 359.108 130.555 359.748 129.936C360.388 129.317 361.135 128.848 361.988 128.528C362.863 128.187 363.78 128.016 364.74 128.016C366.319 128.016 367.738 128.475 368.996 129.392C370.255 130.288 371.055 131.696 371.396 133.616H367.78C367.567 132.741 367.183 132.08 366.628 131.632C366.095 131.163 365.434 130.928 364.644 130.928C363.663 130.928 362.842 131.301 362.18 132.048C361.54 132.795 361.22 133.861 361.22 135.248ZM374.375 142V120.24H377.895V133.936L383.239 128.496H387.367L381.223 134.896L387.847 142H383.335L377.895 135.92V142H374.375ZM391.97 135.248C391.97 136.635 392.29 137.701 392.93 138.448C393.592 139.195 394.413 139.568 395.394 139.568C396.162 139.568 396.813 139.355 397.346 138.928C397.901 138.48 398.296 137.829 398.53 136.976H402.146C401.784 138.853 400.973 140.24 399.714 141.136C398.456 142.032 397.048 142.48 395.49 142.48C394.53 142.48 393.613 142.32 392.738 142C391.885 141.659 391.138 141.189 390.498 140.592C389.858 139.973 389.346 139.216 388.962 138.32C388.6 137.403 388.418 136.379 388.418 135.248C388.418 134.117 388.6 133.104 388.962 132.208C389.346 131.312 389.858 130.555 390.498 129.936C391.138 129.317 391.885 128.848 392.738 128.528C393.613 128.187 394.53 128.016 395.49 128.016C397.069 128.016 398.488 128.475 399.746 129.392C401.005 130.288 401.805 131.696 402.146 133.616H398.53C398.317 132.741 397.933 132.08 397.378 131.632C396.845 131.163 396.184 130.928 395.394 130.928C394.413 130.928 393.592 131.301 392.93 132.048C392.29 132.795 391.97 133.861 391.97 135.248ZM405.125 142V120.24H408.645V142H405.125ZM415.984 128.496V136.208C415.984 137.253 416.187 138.043 416.592 138.576C416.997 139.109 417.616 139.376 418.448 139.376C419.323 139.376 420.048 139.024 420.624 138.32C421.2 137.616 421.488 136.539 421.488 135.088V128.496H424.976V142H421.488V139.632C421.019 140.592 420.389 141.307 419.6 141.776C418.832 142.245 418 142.48 417.104 142.48C415.717 142.48 414.597 142.021 413.744 141.104C412.891 140.165 412.464 138.853 412.464 137.168V128.496H415.984ZM443.432 135.248C443.432 136.4 443.251 137.435 442.888 138.352C442.547 139.248 442.088 140.005 441.512 140.624C440.958 141.221 440.307 141.68 439.56 142C438.835 142.32 438.088 142.48 437.32 142.48C436.382 142.48 435.475 142.256 434.6 141.808C433.747 141.339 433.054 140.645 432.52 139.728V142H429V120.24H432.52V130.768C433.054 129.851 433.747 129.168 434.6 128.72C435.475 128.251 436.382 128.016 437.32 128.016C438.088 128.016 438.835 128.176 439.56 128.496C440.307 128.816 440.958 129.285 441.512 129.904C442.088 130.501 442.547 131.259 442.888 132.176C443.251 133.072 443.432 134.096 443.432 135.248ZM436.264 131.056C435.176 131.056 434.27 131.429 433.544 132.176C432.819 132.901 432.456 133.925 432.456 135.248C432.456 136.571 432.819 137.605 433.544 138.352C434.27 139.077 435.176 139.44 436.264 139.44C437.374 139.44 438.259 139.035 438.92 138.224C439.582 137.413 439.912 136.421 439.912 135.248C439.912 134.075 439.582 133.083 438.92 132.272C438.259 131.461 437.374 131.056 436.264 131.056ZM448.673 142.384C448.011 142.384 447.435 142.149 446.945 141.68C446.454 141.189 446.209 140.603 446.209 139.92C446.209 139.237 446.454 138.661 446.945 138.192C447.435 137.701 448.011 137.456 448.673 137.456C449.355 137.456 449.931 137.691 450.401 138.16C450.891 138.629 451.137 139.216 451.137 139.92C451.137 140.603 450.891 141.189 450.401 141.68C449.931 142.149 449.355 142.384 448.673 142.384ZM457.439 135.248C457.439 136.635 457.759 137.701 458.399 138.448C459.06 139.195 459.882 139.568 460.863 139.568C461.631 139.568 462.282 139.355 462.815 138.928C463.37 138.48 463.764 137.829 463.999 136.976H467.615C467.252 138.853 466.442 140.24 465.183 141.136C463.924 142.032 462.516 142.48 460.959 142.48C459.999 142.48 459.082 142.32 458.207 142C457.354 141.659 456.607 141.189 455.967 140.592C455.327 139.973 454.815 139.216 454.431 138.32C454.068 137.403 453.887 136.379 453.887 135.248C453.887 134.117 454.068 133.104 454.431 132.208C454.815 131.312 455.327 130.555 455.967 129.936C456.607 129.317 457.354 128.848 458.207 128.528C459.082 128.187 459.999 128.016 460.959 128.016C462.538 128.016 463.956 128.475 465.215 129.392C466.474 130.288 467.274 131.696 467.615 133.616H463.999C463.786 132.741 463.402 132.08 462.847 131.632C462.314 131.163 461.652 130.928 460.863 130.928C459.882 130.928 459.06 131.301 458.399 132.048C457.759 132.795 457.439 133.861 457.439 135.248ZM477.058 142.48C476.055 142.48 475.106 142.309 474.21 141.968C473.314 141.605 472.535 141.115 471.874 140.496C471.213 139.856 470.69 139.088 470.306 138.192C469.922 137.296 469.73 136.315 469.73 135.248C469.73 134.181 469.922 133.2 470.306 132.304C470.711 131.408 471.245 130.651 471.906 130.032C472.567 129.392 473.335 128.901 474.21 128.56C475.106 128.197 476.055 128.016 477.058 128.016C478.061 128.016 479.01 128.197 479.906 128.56C480.802 128.901 481.581 129.392 482.242 130.032C482.903 130.651 483.426 131.408 483.81 132.304C484.215 133.2 484.418 134.181 484.418 135.248C484.418 136.315 484.226 137.296 483.842 138.192C483.458 139.088 482.935 139.856 482.274 140.496C481.613 141.115 480.823 141.605 479.906 141.968C479.01 142.309 478.061 142.48 477.058 142.48ZM477.058 139.44C478.21 139.44 479.127 139.067 479.81 138.32C480.514 137.552 480.866 136.528 480.866 135.248C480.866 133.968 480.503 132.955 479.778 132.208C479.074 131.44 478.167 131.056 477.058 131.056C475.949 131.056 475.042 131.44 474.338 132.208C473.634 132.955 473.282 133.968 473.282 135.248C473.282 136.528 473.623 137.552 474.306 138.32C475.01 139.067 475.927 139.44 477.058 139.44ZM487.594 142V128.496H491.114V130.8C491.562 129.883 492.159 129.189 492.906 128.72C493.674 128.251 494.527 128.016 495.466 128.016C496.533 128.016 497.461 128.293 498.25 128.848C499.039 129.403 499.615 130.203 499.978 131.248C500.405 130.203 501.034 129.403 501.866 128.848C502.719 128.293 503.701 128.016 504.81 128.016C506.282 128.016 507.477 128.549 508.394 129.616C509.311 130.661 509.77 132.144 509.77 134.064V142H506.25V134.64C506.25 133.488 506.026 132.603 505.578 131.984C505.151 131.365 504.479 131.056 503.562 131.056C502.645 131.056 501.887 131.387 501.29 132.048C500.714 132.709 500.426 133.776 500.426 135.248V142H496.938V134.64C496.938 133.488 496.714 132.603 496.266 131.984C495.818 131.365 495.135 131.056 494.218 131.056C493.301 131.056 492.554 131.387 491.978 132.048C491.402 132.709 491.114 133.776 491.114 135.248V142H487.594Z" fill="black"/>
<mask id="path-9-outside-1_41_1195" maskUnits="userSpaceOnUse" x="582" y="128" width="63" height="29" fill="black">
<rect fill="white" x="582" y="128" width="63" height="29"/>
<path d="M585 135C585 132.791 586.791 131 589 131H638C640.209 131 642 132.791 642 135V150C642 152.209 640.209 154 638 154H589C586.791 154 585 152.209 585 150V135Z"/>
<path d="M591.926 149.08H591.216V151H590.236V149.08H587.576V148.29L590.436 143.85H591.216V148.1H591.926V149.08ZM590.246 145.71L588.726 148.1H590.236L590.246 145.71Z"/>
<path d="M597.208 151.01H592.918C592.991 150.85 593.051 150.727 593.098 150.64C593.238 150.373 593.358 150.17 593.458 150.03L594.988 147.96C595.374 147.433 595.591 147.13 595.638 147.05C595.811 146.737 595.898 146.377 595.898 145.97C595.898 145.57 595.781 145.26 595.548 145.04C595.314 144.82 595.011 144.71 594.638 144.71C594.371 144.71 594.094 144.767 593.808 144.88C593.528 144.987 593.251 145.147 592.978 145.36V144.32C593.591 143.913 594.184 143.71 594.758 143.71C595.371 143.71 595.878 143.92 596.278 144.34C596.678 144.76 596.878 145.293 596.878 145.94C596.878 146.347 596.824 146.687 596.718 146.96C596.618 147.227 596.434 147.54 596.168 147.9L594.538 150.03H597.208V151.01Z"/>
<path d="M602.257 151.01H597.967C598.04 150.85 598.1 150.727 598.147 150.64C598.287 150.373 598.407 150.17 598.507 150.03L600.037 147.96C600.423 147.433 600.64 147.13 600.687 147.05C600.86 146.737 600.947 146.377 600.947 145.97C600.947 145.57 600.83 145.26 600.597 145.04C600.363 144.82 600.06 144.71 599.687 144.71C599.42 144.71 599.143 144.767 598.857 144.88C598.577 144.987 598.3 145.147 598.027 145.36V144.32C598.64 143.913 599.233 143.71 599.807 143.71C600.42 143.71 600.927 143.92 601.327 144.34C601.727 144.76 601.927 145.293 601.927 145.94C601.927 146.347 601.873 146.687 601.767 146.96C601.667 147.227 601.483 147.54 601.217 147.9L599.587 150.03H602.257V151.01Z"/>
<path d="M607.525 148.71C607.525 149.37 607.265 149.947 606.745 150.44C606.232 150.927 605.642 151.17 604.975 151.17C604.682 151.17 604.345 151.09 603.965 150.93C603.592 150.77 603.285 150.59 603.045 150.39L603.245 149.25C603.452 149.483 603.722 149.697 604.055 149.89C604.389 150.077 604.699 150.17 604.985 150.17C605.385 150.17 605.742 150.027 606.055 149.74C606.375 149.447 606.535 149.103 606.535 148.71C606.535 148.283 606.372 147.923 606.045 147.63C605.725 147.33 605.332 147.18 604.865 147.18C604.632 147.18 604.405 147.2 604.185 147.24C603.965 147.28 603.772 147.333 603.605 147.4L604.125 143.85H607.475V144.82H605.095L604.825 146.2C604.925 146.2 605.015 146.2 605.095 146.2C605.182 146.2 605.289 146.21 605.415 146.23C606.022 146.337 606.525 146.627 606.925 147.1C607.325 147.573 607.525 148.11 607.525 148.71Z"/>
<path d="M604.066 140H600.506V134.28H601.33V139.168H604.066V140Z"/>
<path d="M608.674 138.112C608.674 138.656 608.477 139.125 608.082 139.52C607.693 139.909 607.226 140.104 606.682 140.104C606.133 140.104 605.663 139.909 605.274 139.52C604.885 139.131 604.69 138.661 604.69 138.112C604.69 137.563 604.885 137.093 605.274 136.704C605.663 136.315 606.133 136.12 606.682 136.12C607.231 136.12 607.701 136.315 608.09 136.704C608.479 137.093 608.674 137.563 608.674 138.112ZM607.882 138.112C607.882 137.781 607.765 137.499 607.53 137.264C607.295 137.029 607.013 136.912 606.682 136.912C606.351 136.912 606.069 137.029 605.834 137.264C605.599 137.499 605.482 137.781 605.482 138.112C605.482 138.443 605.599 138.725 605.834 138.96C606.069 139.195 606.351 139.312 606.682 139.312C607.013 139.312 607.295 139.195 607.53 138.96C607.765 138.725 607.882 138.443 607.882 138.112Z"/>
<path d="M612.878 140H612.094V137.592C612.094 137.405 612.019 137.251 611.87 137.128C611.694 136.984 611.454 136.912 611.15 136.912C610.979 136.912 610.8 136.947 610.614 137.016C610.491 137.064 610.339 137.139 610.158 137.24V140H609.382V136.216H610.158V136.424C610.312 136.36 610.48 136.293 610.662 136.224C610.843 136.155 611.006 136.12 611.15 136.12C611.672 136.12 612.091 136.259 612.406 136.536C612.72 136.813 612.878 137.157 612.878 137.568V140Z"/>
<path d="M617.451 140.008H616.675V139.848C616.499 139.933 616.339 139.997 616.195 140.04C616.051 140.088 615.902 140.112 615.747 140.112C615.198 140.112 614.729 139.917 614.339 139.528C613.95 139.139 613.755 138.669 613.755 138.12C613.755 137.576 613.95 137.109 614.339 136.72C614.729 136.331 615.198 136.136 615.747 136.136C616.078 136.136 616.387 136.211 616.675 136.36V134.28H617.451V140.008ZM616.675 139.016V137.208C616.425 137.091 616.275 137.024 616.227 137.008C616.078 136.955 615.918 136.928 615.747 136.928C615.411 136.928 615.126 137.043 614.891 137.272C614.657 137.501 614.539 137.784 614.539 138.12C614.539 138.451 614.657 138.733 614.891 138.968C615.126 139.203 615.411 139.32 615.747 139.32C615.881 139.32 616.003 139.304 616.115 139.272C616.227 139.235 616.414 139.149 616.675 139.016Z"/>
<path d="M622.252 138.112C622.252 138.656 622.055 139.125 621.66 139.52C621.271 139.909 620.804 140.104 620.26 140.104C619.711 140.104 619.241 139.909 618.852 139.52C618.463 139.131 618.268 138.661 618.268 138.112C618.268 137.563 618.463 137.093 618.852 136.704C619.241 136.315 619.711 136.12 620.26 136.12C620.809 136.12 621.279 136.315 621.668 136.704C622.057 137.093 622.252 137.563 622.252 138.112ZM621.46 138.112C621.46 137.781 621.343 137.499 621.108 137.264C620.873 137.029 620.591 136.912 620.26 136.912C619.929 136.912 619.647 137.029 619.412 137.264C619.177 137.499 619.06 137.781 619.06 138.112C619.06 138.443 619.177 138.725 619.412 138.96C619.647 139.195 619.929 139.312 620.26 139.312C620.591 139.312 620.873 139.195 621.108 138.96C621.343 138.725 621.46 138.443 621.46 138.112Z"/>
<path d="M626.456 140H625.672V137.592C625.672 137.405 625.597 137.251 625.448 137.128C625.272 136.984 625.032 136.912 624.728 136.912C624.557 136.912 624.378 136.947 624.192 137.016C624.069 137.064 623.917 137.139 623.736 137.24V140H622.96V136.216H623.736V136.424C623.89 136.36 624.058 136.293 624.24 136.224C624.421 136.155 624.584 136.12 624.728 136.12C625.25 136.12 625.669 136.259 625.984 136.536C626.298 136.813 626.456 137.157 626.456 137.568V140Z"/>
</mask>
<path d="M585 135C585 132.791 586.791 131 589 131H638C640.209 131 642 132.791 642 135V150C642 152.209 640.209 154 638 154H589C586.791 154 585 152.209 585 150V135Z" fill="#010101"/>
<path d="M591.926 149.08H591.216V151H590.236V149.08H587.576V148.29L590.436 143.85H591.216V148.1H591.926V149.08ZM590.246 145.71L588.726 148.1H590.236L590.246 145.71Z" fill="white"/>
<path d="M597.208 151.01H592.918C592.991 150.85 593.051 150.727 593.098 150.64C593.238 150.373 593.358 150.17 593.458 150.03L594.988 147.96C595.374 147.433 595.591 147.13 595.638 147.05C595.811 146.737 595.898 146.377 595.898 145.97C595.898 145.57 595.781 145.26 595.548 145.04C595.314 144.82 595.011 144.71 594.638 144.71C594.371 144.71 594.094 144.767 593.808 144.88C593.528 144.987 593.251 145.147 592.978 145.36V144.32C593.591 143.913 594.184 143.71 594.758 143.71C595.371 143.71 595.878 143.92 596.278 144.34C596.678 144.76 596.878 145.293 596.878 145.94C596.878 146.347 596.824 146.687 596.718 146.96C596.618 147.227 596.434 147.54 596.168 147.9L594.538 150.03H597.208V151.01Z" fill="white"/>
<path d="M602.257 151.01H597.967C598.04 150.85 598.1 150.727 598.147 150.64C598.287 150.373 598.407 150.17 598.507 150.03L600.037 147.96C600.423 147.433 600.64 147.13 600.687 147.05C600.86 146.737 600.947 146.377 600.947 145.97C600.947 145.57 600.83 145.26 600.597 145.04C600.363 144.82 600.06 144.71 599.687 144.71C599.42 144.71 599.143 144.767 598.857 144.88C598.577 144.987 598.3 145.147 598.027 145.36V144.32C598.64 143.913 599.233 143.71 599.807 143.71C600.42 143.71 600.927 143.92 601.327 144.34C601.727 144.76 601.927 145.293 601.927 145.94C601.927 146.347 601.873 146.687 601.767 146.96C601.667 147.227 601.483 147.54 601.217 147.9L599.587 150.03H602.257V151.01Z" fill="white"/>
<path d="M607.525 148.71C607.525 149.37 607.265 149.947 606.745 150.44C606.232 150.927 605.642 151.17 604.975 151.17C604.682 151.17 604.345 151.09 603.965 150.93C603.592 150.77 603.285 150.59 603.045 150.39L603.245 149.25C603.452 149.483 603.722 149.697 604.055 149.89C604.389 150.077 604.699 150.17 604.985 150.17C605.385 150.17 605.742 150.027 606.055 149.74C606.375 149.447 606.535 149.103 606.535 148.71C606.535 148.283 606.372 147.923 606.045 147.63C605.725 147.33 605.332 147.18 604.865 147.18C604.632 147.18 604.405 147.2 604.185 147.24C603.965 147.28 603.772 147.333 603.605 147.4L604.125 143.85H607.475V144.82H605.095L604.825 146.2C604.925 146.2 605.015 146.2 605.095 146.2C605.182 146.2 605.289 146.21 605.415 146.23C606.022 146.337 606.525 146.627 606.925 147.1C607.325 147.573 607.525 148.11 607.525 148.71Z" fill="white"/>
<path d="M604.066 140H600.506V134.28H601.33V139.168H604.066V140Z" fill="white"/>
<path d="M608.674 138.112C608.674 138.656 608.477 139.125 608.082 139.52C607.693 139.909 607.226 140.104 606.682 140.104C606.133 140.104 605.663 139.909 605.274 139.52C604.885 139.131 604.69 138.661 604.69 138.112C604.69 137.563 604.885 137.093 605.274 136.704C605.663 136.315 606.133 136.12 606.682 136.12C607.231 136.12 607.701 136.315 608.09 136.704C608.479 137.093 608.674 137.563 608.674 138.112ZM607.882 138.112C607.882 137.781 607.765 137.499 607.53 137.264C607.295 137.029 607.013 136.912 606.682 136.912C606.351 136.912 606.069 137.029 605.834 137.264C605.599 137.499 605.482 137.781 605.482 138.112C605.482 138.443 605.599 138.725 605.834 138.96C606.069 139.195 606.351 139.312 606.682 139.312C607.013 139.312 607.295 139.195 607.53 138.96C607.765 138.725 607.882 138.443 607.882 138.112Z" fill="white"/>
<path d="M612.878 140H612.094V137.592C612.094 137.405 612.019 137.251 611.87 137.128C611.694 136.984 611.454 136.912 611.15 136.912C610.979 136.912 610.8 136.947 610.614 137.016C610.491 137.064 610.339 137.139 610.158 137.24V140H609.382V136.216H610.158V136.424C610.312 136.36 610.48 136.293 610.662 136.224C610.843 136.155 611.006 136.12 611.15 136.12C611.672 136.12 612.091 136.259 612.406 136.536C612.72 136.813 612.878 137.157 612.878 137.568V140Z" fill="white"/>
<path d="M617.451 140.008H616.675V139.848C616.499 139.933 616.339 139.997 616.195 140.04C616.051 140.088 615.902 140.112 615.747 140.112C615.198 140.112 614.729 139.917 614.339 139.528C613.95 139.139 613.755 138.669 613.755 138.12C613.755 137.576 613.95 137.109 614.339 136.72C614.729 136.331 615.198 136.136 615.747 136.136C616.078 136.136 616.387 136.211 616.675 136.36V134.28H617.451V140.008ZM616.675 139.016V137.208C616.425 137.091 616.275 137.024 616.227 137.008C616.078 136.955 615.918 136.928 615.747 136.928C615.411 136.928 615.126 137.043 614.891 137.272C614.657 137.501 614.539 137.784 614.539 138.12C614.539 138.451 614.657 138.733 614.891 138.968C615.126 139.203 615.411 139.32 615.747 139.32C615.881 139.32 616.003 139.304 616.115 139.272C616.227 139.235 616.414 139.149 616.675 139.016Z" fill="white"/>
<path d="M622.252 138.112C622.252 138.656 622.055 139.125 621.66 139.52C621.271 139.909 620.804 140.104 620.26 140.104C619.711 140.104 619.241 139.909 618.852 139.52C618.463 139.131 618.268 138.661 618.268 138.112C618.268 137.563 618.463 137.093 618.852 136.704C619.241 136.315 619.711 136.12 620.26 136.12C620.809 136.12 621.279 136.315 621.668 136.704C622.057 137.093 622.252 137.563 622.252 138.112ZM621.46 138.112C621.46 137.781 621.343 137.499 621.108 137.264C620.873 137.029 620.591 136.912 620.26 136.912C619.929 136.912 619.647 137.029 619.412 137.264C619.177 137.499 619.06 137.781 619.06 138.112C619.06 138.443 619.177 138.725 619.412 138.96C619.647 139.195 619.929 139.312 620.26 139.312C620.591 139.312 620.873 139.195 621.108 138.96C621.343 138.725 621.46 138.443 621.46 138.112Z" fill="white"/>
<path d="M626.456 140H625.672V137.592C625.672 137.405 625.597 137.251 625.448 137.128C625.272 136.984 625.032 136.912 624.728 136.912C624.557 136.912 624.378 136.947 624.192 137.016C624.069 137.064 623.917 137.139 623.736 137.24V140H622.96V136.216H623.736V136.424C623.89 136.36 624.058 136.293 624.24 136.224C624.421 136.155 624.584 136.12 624.728 136.12C625.25 136.12 625.669 136.259 625.984 136.536C626.298 136.813 626.456 137.157 626.456 137.568V140Z" fill="white"/>
<path d="M585 135C585 132.791 586.791 131 589 131H638C640.209 131 642 132.791 642 135V150C642 152.209 640.209 154 638 154H589C586.791 154 585 152.209 585 150V135Z" stroke="#EE4C51" stroke-width="5" mask="url(#path-9-outside-1_41_1195)"/>
<path d="M591.926 149.08H591.216V151H590.236V149.08H587.576V148.29L590.436 143.85H591.216V148.1H591.926V149.08ZM590.246 145.71L588.726 148.1H590.236L590.246 145.71Z" stroke="#EE4C51" stroke-width="5" mask="url(#path-9-outside-1_41_1195)"/>
<path d="M597.208 151.01H592.918C592.991 150.85 593.051 150.727 593.098 150.64C593.238 150.373 593.358 150.17 593.458 150.03L594.988 147.96C595.374 147.433 595.591 147.13 595.638 147.05C595.811 146.737 595.898 146.377 595.898 145.97C595.898 145.57 595.781 145.26 595.548 145.04C595.314 144.82 595.011 144.71 594.638 144.71C594.371 144.71 594.094 144.767 593.808 144.88C593.528 144.987 593.251 145.147 592.978 145.36V144.32C593.591 143.913 594.184 143.71 594.758 143.71C595.371 143.71 595.878 143.92 596.278 144.34C596.678 144.76 596.878 145.293 596.878 145.94C596.878 146.347 596.824 146.687 596.718 146.96C596.618 147.227 596.434 147.54 596.168 147.9L594.538 150.03H597.208V151.01Z" stroke="#EE4C51" stroke-width="5" mask="url(#path-9-outside-1_41_1195)"/>
<path d="M602.257 151.01H597.967C598.04 150.85 598.1 150.727 598.147 150.64C598.287 150.373 598.407 150.17 598.507 150.03L600.037 147.96C600.423 147.433 600.64 147.13 600.687 147.05C600.86 146.737 600.947 146.377 600.947 145.97C600.947 145.57 600.83 145.26 600.597 145.04C600.363 144.82 600.06 144.71 599.687 144.71C599.42 144.71 599.143 144.767 598.857 144.88C598.577 144.987 598.3 145.147 598.027 145.36V144.32C598.64 143.913 599.233 143.71 599.807 143.71C600.42 143.71 600.927 143.92 601.327 144.34C601.727 144.76 601.927 145.293 601.927 145.94C601.927 146.347 601.873 146.687 601.767 146.96C601.667 147.227 601.483 147.54 601.217 147.9L599.587 150.03H602.257V151.01Z" stroke="#EE4C51" stroke-width="5" mask="url(#path-9-outside-1_41_1195)"/>
<path d="M607.525 148.71C607.525 149.37 607.265 149.947 606.745 150.44C606.232 150.927 605.642 151.17 604.975 151.17C604.682 151.17 604.345 151.09 603.965 150.93C603.592 150.77 603.285 150.59 603.045 150.39L603.245 149.25C603.452 149.483 603.722 149.697 604.055 149.89C604.389 150.077 604.699 150.17 604.985 150.17C605.385 150.17 605.742 150.027 606.055 149.74C606.375 149.447 606.535 149.103 606.535 148.71C606.535 148.283 606.372 147.923 606.045 147.63C605.725 147.33 605.332 147.18 604.865 147.18C604.632 147.18 604.405 147.2 604.185 147.24C603.965 147.28 603.772 147.333 603.605 147.4L604.125 143.85H607.475V144.82H605.095L604.825 146.2C604.925 146.2 605.015 146.2 605.095 146.2C605.182 146.2 605.289 146.21 605.415 146.23C606.022 146.337 606.525 146.627 606.925 147.1C607.325 147.573 607.525 148.11 607.525 148.71Z" stroke="#EE4C51" stroke-width="5" mask="url(#path-9-outside-1_41_1195)"/>
<path d="M604.066 140H600.506V134.28H601.33V139.168H604.066V140Z" stroke="#EE4C51" stroke-width="5" mask="url(#path-9-outside-1_41_1195)"/>
<path d="M608.674 138.112C608.674 138.656 608.477 139.125 608.082 139.52C607.693 139.909 607.226 140.104 606.682 140.104C606.133 140.104 605.663 139.909 605.274 139.52C604.885 139.131 604.69 138.661 604.69 138.112C604.69 137.563 604.885 137.093 605.274 136.704C605.663 136.315 606.133 136.12 606.682 136.12C607.231 136.12 607.701 136.315 608.09 136.704C608.479 137.093 608.674 137.563 608.674 138.112ZM607.882 138.112C607.882 137.781 607.765 137.499 607.53 137.264C607.295 137.029 607.013 136.912 606.682 136.912C606.351 136.912 606.069 137.029 605.834 137.264C605.599 137.499 605.482 137.781 605.482 138.112C605.482 138.443 605.599 138.725 605.834 138.96C606.069 139.195 606.351 139.312 606.682 139.312C607.013 139.312 607.295 139.195 607.53 138.96C607.765 138.725 607.882 138.443 607.882 138.112Z" stroke="#EE4C51" stroke-width="5" mask="url(#path-9-outside-1_41_1195)"/>
<path d="M612.878 140H612.094V137.592C612.094 137.405 612.019 137.251 611.87 137.128C611.694 136.984 611.454 136.912 611.15 136.912C610.979 136.912 610.8 136.947 610.614 137.016C610.491 137.064 610.339 137.139 610.158 137.24V140H609.382V136.216H610.158V136.424C610.312 136.36 610.48 136.293 610.662 136.224C610.843 136.155 611.006 136.12 611.15 136.12C611.672 136.12 612.091 136.259 612.406 136.536C612.72 136.813 612.878 137.157 612.878 137.568V140Z" stroke="#EE4C51" stroke-width="5" mask="url(#path-9-outside-1_41_1195)"/>
<path d="M617.451 140.008H616.675V139.848C616.499 139.933 616.339 139.997 616.195 140.04C616.051 140.088 615.902 140.112 615.747 140.112C615.198 140.112 614.729 139.917 614.339 139.528C613.95 139.139 613.755 138.669 613.755 138.12C613.755 137.576 613.95 137.109 614.339 136.72C614.729 136.331 615.198 136.136 615.747 136.136C616.078 136.136 616.387 136.211 616.675 136.36V134.28H617.451V140.008ZM616.675 139.016V137.208C616.425 137.091 616.275 137.024 616.227 137.008C616.078 136.955 615.918 136.928 615.747 136.928C615.411 136.928 615.126 137.043 614.891 137.272C614.657 137.501 614.539 137.784 614.539 138.12C614.539 138.451 614.657 138.733 614.891 138.968C615.126 139.203 615.411 139.32 615.747 139.32C615.881 139.32 616.003 139.304 616.115 139.272C616.227 139.235 616.414 139.149 616.675 139.016Z" stroke="#EE4C51" stroke-width="5" mask="url(#path-9-outside-1_41_1195)"/>
<path d="M622.252 138.112C622.252 138.656 622.055 139.125 621.66 139.52C621.271 139.909 620.804 140.104 620.26 140.104C619.711 140.104 619.241 139.909 618.852 139.52C618.463 139.131 618.268 138.661 618.268 138.112C618.268 137.563 618.463 137.093 618.852 136.704C619.241 136.315 619.711 136.12 620.26 136.12C620.809 136.12 621.279 136.315 621.668 136.704C622.057 137.093 622.252 137.563 622.252 138.112ZM621.46 138.112C621.46 137.781 621.343 137.499 621.108 137.264C620.873 137.029 620.591 136.912 620.26 136.912C619.929 136.912 619.647 137.029 619.412 137.264C619.177 137.499 619.06 137.781 619.06 138.112C619.06 138.443 619.177 138.725 619.412 138.96C619.647 139.195 619.929 139.312 620.26 139.312C620.591 139.312 620.873 139.195 621.108 138.96C621.343 138.725 621.46 138.443 621.46 138.112Z" stroke="#EE4C51" stroke-width="5" mask="url(#path-9-outside-1_41_1195)"/>
<path d="M626.456 140H625.672V137.592C625.672 137.405 625.597 137.251 625.448 137.128C625.272 136.984 625.032 136.912 624.728 136.912C624.557 136.912 624.378 136.947 624.192 137.016C624.069 137.064 623.917 137.139 623.736 137.24V140H622.96V136.216H623.736V136.424C623.89 136.36 624.058 136.293 624.24 136.224C624.421 136.155 624.584 136.12 624.728 136.12C625.25 136.12 625.669 136.259 625.984 136.536C626.298 136.813 626.456 137.157 626.456 137.568V140Z" stroke="#EE4C51" stroke-width="5" mask="url(#path-9-outside-1_41_1195)"/>
<path d="M78.3101 303.771L78.0248 298.922C78.0114 298.693 78.1936 298.5 78.4232 298.5C78.4739 298.5 78.5242 298.49 78.5713 298.471L80.038 297.885C80.677 297.629 81.283 297.298 81.8431 296.898L83.5902 295.65C84.1877 295.223 84.6717 294.657 85 294L86.5004 290.399C88.8196 284.833 91.9824 279.657 95.8774 275.054L97.9925 272.554C99.9884 270.195 102.292 268.116 104.843 266.371L105.241 266.098C108.713 263.723 112.619 262.054 116.735 261.187C118.906 260.73 121.118 260.5 123.337 260.5H132.305C135.094 260.5 137.876 260.79 140.605 261.364C144.185 262.118 147.646 263.356 150.892 265.044L151.305 265.259C156.061 267.732 160.321 271.059 163.873 275.074L166.144 277.642C168.699 280.53 170.791 283.797 172.344 287.326C174.425 292.057 175.5 297.169 175.5 302.337V322.5C175.5 323.052 175.948 323.5 176.5 323.5H177H458C458.552 323.5 459 323.052 459 322.5V307.41C459 302.505 459.828 297.636 461.448 293.006C462.148 291.005 462.994 289.057 463.978 287.179L466.652 282.074C467.549 280.36 468.578 278.7 469.711 277.131C472.854 272.778 476.863 269.062 481.449 266.27C484.47 264.431 487.72 262.998 491.115 262.008L491.769 261.817C495.902 260.612 500.185 260 504.491 260H508.229C512.711 260 517.16 260.756 521.39 262.237C523.791 263.077 526.106 264.145 528.303 265.427L531.73 267.426C535.215 269.459 538.303 272.104 540.847 275.235C542.609 277.403 544.092 279.783 545.263 282.319L549.5 291.5C551.157 296.803 552 302.326 552 307.882V322C552 322.828 552.672 323.5 553.5 323.5H554H613.93C622.189 323.5 630.326 325.487 637.656 329.292L651.846 336.66C652.271 336.881 652.615 337.231 652.83 337.659C653.447 338.895 652.828 340.391 651.518 340.827L651.37 340.877C651.125 340.958 650.868 341 650.61 341H649H552L533.5 342.5L523.503 343.587C514.847 344.527 506.132 344.806 497.433 344.419L488 344L464 341H163.5L149.122 342.568C140.387 343.521 131.591 343.8 122.813 343.401L114 343L81.5002 341.06C80.8494 341.021 80.2267 340.781 79.7176 340.374L78.8673 339.694C78.3462 339.277 78.1402 338.579 78.3512 337.946C78.4483 337.655 78.6276 337.398 78.8673 337.206L81 335.5L91.5148 328.038C94.3835 326.002 95.3393 322.179 93.7662 319.032L92.088 315.676C91.4637 314.427 90.0163 313.828 88.6921 314.269C86.8757 314.875 85 313.523 85 311.608V311.051C85 309.558 83.9693 308.262 82.5144 307.926L81.6513 307.727C79.7832 307.296 78.4227 305.685 78.3101 303.771Z" fill="black"/>
<path d="M108.5 324C111.624 326.538 112.991 328.528 116.5 330.5C120.107 332.527 122.403 333.426 126.5 334C129.401 334.407 131.109 334.472 134 334C137.722 333.392 139.73 332.379 143 330.5C146.49 328.495 148.323 327.006 151 324" stroke="#434345" stroke-width="3" stroke-linecap="round"/>
<path d="M484 323C487.124 325.538 488.491 327.528 492 329.5C495.607 331.527 497.903 332.426 502 333C504.901 333.407 506.609 333.472 509.5 333C513.222 332.392 515.23 331.379 518.5 329.5C521.99 327.495 523.823 326.006 526.5 323" stroke="#434345" stroke-width="3" stroke-linecap="round"/>
<circle cx="504.5" cy="306.5" r="21" fill="#5F5E60" stroke="#7D7373" stroke-width="5"/>
<circle cx="129.5" cy="306.5" r="21" fill="#5F5E60" stroke="#7D7373" stroke-width="5"/>
<circle cx="129.5" cy="306.5" r="5.5" fill="black"/>
<circle cx="129.5" cy="306.5" r="5.5" fill="#575757"/>
<path d="M510 306.5C510 309.538 507.538 312 504.5 312C501.462 312 499 309.538 499 306.5C499 303.462 501.462 301 504.5 301C507.538 301 510 303.462 510 306.5Z" fill="black"/>
<path d="M510 306.5C510 309.538 507.538 312 504.5 312C501.462 312 499 309.538 499 306.5C499 303.462 501.462 301 504.5 301C507.538 301 510 303.462 510 306.5Z" fill="#575757"/>
<path d="M482 277.5C479.909 279.163 477.478 282.035 476.268 283.531C475.949 283.924 476.231 284.5 476.737 284.5C476.905 284.5 477.063 284.434 477.18 284.313C478.076 283.391 482.147 279.295 485.5 277.5C488.766 275.751 490.857 275.175 494.5 274.5C496.048 274.213 496.933 274.148 498.5 274C503.36 273.542 506.135 273.604 511 274C512.762 274.144 513.763 274.171 515.5 274.5C517.377 274.855 519.719 275.708 521.47 276.414C523.169 277.099 524.743 278.048 526.218 279.134L533.338 284.38C533.443 284.458 533.571 284.5 533.702 284.5C534.22 284.5 534.501 283.904 534.162 283.513C532.707 281.833 529.62 278.415 527 276.5C523.615 274.027 521.472 272.84 517.5 271.5C515.032 270.667 513.577 270.384 511 270C506.172 269.28 503.299 269.105 498.5 270C496.917 270.295 496.037 270.519 494.5 271C492.077 271.758 490.767 272.357 488.5 273.5C485.839 274.842 484.333 275.645 482 277.5Z" fill="#434345"/>
<path d="M106.5 277.107C104.409 278.771 101.978 281.643 100.768 283.138C100.449 283.532 100.731 284.107 101.237 284.107C101.405 284.107 101.563 284.041 101.68 283.921C102.576 282.998 106.647 278.903 110 277.107C113.266 275.359 115.357 274.782 119 274.107C120.548 273.821 121.433 273.755 123 273.607C127.86 273.149 130.635 273.211 135.5 273.607C137.262 273.751 138.263 273.779 140 274.107C141.877 274.462 144.219 275.316 145.97 276.022C147.669 276.707 149.243 277.655 150.718 278.742L157.838 283.988C157.943 284.066 158.071 284.107 158.202 284.107C158.72 284.107 159.001 283.512 158.662 283.12C157.207 281.44 154.12 278.022 151.5 276.107C148.115 273.634 145.972 272.448 142 271.107C139.532 270.275 138.077 269.992 135.5 269.607C130.672 268.888 127.799 268.712 123 269.607C121.417 269.903 120.537 270.127 119 270.607C116.577 271.365 115.267 271.965 113 273.107C110.339 274.449 108.833 275.252 106.5 277.107Z" fill="#434345"/>
</svg>
