<svg width="1075" height="512" viewBox="0 0 1075 512" fill="none" xmlns="http://www.w3.org/2000/svg">
    <path d="M5.32843 172.174L191.203 116.351L235.435 46.1859L241.76 94.3149L255.219 78.2346L347.831 188.721L322.541 229.861L400.063 231.027L433.896 441.584L378.983 431.192L408.973 458.306L347.567 440.285L165.19 497.789L12.404 404.308L5.32843 172.174Z" fill="#AF8D67"/>
    <path d="M191.203 116.351L5.32843 172.174L12.404 404.308M191.203 116.351L216.912 339.81M191.203 116.351L235.435 46.1859L241.76 94.3149M12.404 404.308L216.912 339.81M12.404 404.308L165.19 497.789L347.567 440.285M216.912 339.81L270.98 299.678L248.228 161.986M216.912 339.81L347.567 440.285M216.912 339.81L289.013 349.85L348.994 404.079M241.76 94.3149L255.219 78.2346L347.831 188.721L322.541 229.861M241.76 94.3149L248.228 161.986M248.228 161.986L322.541 229.861M347.567 440.285L408.973 458.306L378.983 431.192M348.994 404.079L322.541 229.861M348.994 404.079L378.983 431.192M378.983 431.192L433.896 441.584L400.063 231.027L322.541 229.861" stroke="#956F43" stroke-width="3"/>
    <path d="M110.707 155.648H321.871L373.124 417.792L110.707 389.12V155.648Z" fill="#AF8D67"/>
    <path d="M333.794 235.309L347.725 399.378L290.075 347.304L222.552 338.096L268.188 302.938L249.903 165.835L333.794 235.309Z" fill="#74522A"/>
    <path d="M979.139 270.512L982.731 269.097L1030.82 184.498L1029.84 180.42C1014.38 170.195 986.876 162.529 951.815 157.883C916.624 153.221 873.389 151.549 826.111 153.6C768.582 154.569 721.011 163.558 674.36 172.372C666.18 173.918 658.027 175.458 649.853 176.949C595.049 186.946 539.096 194.774 466.758 187.407C405.584 181.178 363.521 171.5 326.424 162.965C319.531 161.379 312.811 159.833 306.173 158.356C263.71 148.908 224.676 142.315 165.845 146.44C158.75 146.937 154.164 147.419 151.821 147.99C151.242 148.131 150.558 148.332 149.962 148.658C149.668 148.819 149.191 149.117 148.781 149.63C148.316 150.21 147.913 151.116 148.079 152.209C148.227 153.186 148.762 153.827 149.09 154.148C149.433 154.484 149.794 154.709 150.053 154.852C150.574 155.14 151.171 155.359 151.714 155.532C153.862 156.217 157.686 156.947 162.295 157.771C163.734 158.029 165.267 158.298 166.881 158.581C170.562 159.228 174.663 159.948 179.025 160.768C191.58 163.129 205.973 166.262 217.662 170.609C223.511 172.783 228.538 175.21 232.284 177.901C236.058 180.613 238.225 183.37 238.939 186.115C242.811 201.007 248.406 221.749 254.813 237.847C257.999 245.852 261.488 252.981 265.217 257.673C267.075 260.012 269.184 261.992 271.581 263.051C273.91 264.079 276.403 264.182 278.82 263.113C293.029 262.611 306.138 261.997 318.277 261.425C350.786 259.899 376.345 258.699 397.504 260.897C411.986 262.4 424.182 265.486 434.933 271.063C445.664 276.627 455.113 284.754 463.986 296.559C469.359 303.706 479.673 307.216 492.628 308.642C505.763 310.086 522.492 309.473 541.766 307.544C575.181 304.196 616.801 296.819 661.602 288.879C668.495 287.656 675.465 286.421 682.491 285.186C735.257 275.902 791.334 266.56 843.348 262.388C895.426 258.21 943.083 259.25 979.139 270.512Z" fill="#FFF537" stroke="white" stroke-width="3" stroke-linejoin="bevel"/>
    <path d="M986.79 371.106C989.117 373.115 989.121 373.111 989.121 373.111L989.125 373.105L989.133 373.094L989.154 373.07C989.17 373.051 989.189 373.029 989.211 373.002C989.254 372.949 989.31 372.879 989.373 372.795C989.504 372.625 989.677 372.39 989.884 372.085C990.3 371.474 990.855 370.581 991.495 369.363C992.778 366.922 994.398 363.18 995.925 357.771C998.978 346.958 1001.66 329.48 1000.51 302.412C999.365 275.259 993.89 259.787 988.408 250.997C985.662 246.594 982.925 243.888 980.767 242.252C979.69 241.437 978.768 240.896 978.075 240.548C977.726 240.372 977.439 240.247 977.216 240.157C977.128 240.122 977.05 240.093 976.982 240.069C929.302 219.093 892.826 214.794 821.822 221.291C779.585 225.157 736.083 233.708 692.967 242.184C682.491 244.242 672.037 246.299 661.631 248.281C608.264 258.445 556.065 266.709 507.568 264.196C433.49 260.356 388.602 250.667 352.66 240.931C344.555 238.735 336.876 236.526 329.395 234.375C303.864 227.035 280.663 220.363 250.848 217.149C246.998 215.691 243.426 215.312 240.191 216.107C236.815 216.936 234.164 218.958 232.147 221.62C228.235 226.779 226.445 234.67 225.746 242.801C224.334 259.222 227.196 279.087 229.744 287.601L231.979 289.708C256.515 295.537 279.015 300.734 299.52 305.472C328.173 312.091 352.932 317.811 373.913 323.097C410.02 332.192 434.327 339.868 447.736 348.322C450.035 349.77 453.586 350.72 457.78 351.422C462.098 352.143 467.528 352.661 473.904 353.028C486.664 353.759 503.478 353.888 523.267 353.694C543.375 353.497 566.72 352.965 592.127 352.383C616.622 351.824 643.034 351.222 670.315 350.833C781.89 349.245 908.801 351.244 985.917 374.051L989.117 373.115L986.79 371.106Z" fill="#F68887" stroke="white" stroke-width="3" stroke-linejoin="bevel"/>
    <path d="M249.243 289.796L247.236 290.408C233.555 300.722 223.512 309.754 216.447 317.682C209.405 325.587 205.189 332.544 203.395 338.721C201.569 345.006 202.261 350.472 204.965 355.045C207.602 359.51 211.963 362.797 216.888 365.246C226.699 370.125 239.849 372.206 250.272 373.109C255.537 373.565 260.205 373.727 263.561 373.776C265.24 373.801 266.593 373.797 267.532 373.787C268.001 373.78 268.366 373.774 268.616 373.768C268.742 373.766 268.838 373.764 268.906 373.762L268.934 373.76C307.216 374.346 340.601 382.728 378.36 392.208C382.104 393.148 385.888 394.099 389.724 395.053C432.26 405.635 480.856 416.639 547.293 418.816C580.685 419.91 618.359 414.962 657.756 407.892C677.468 404.353 697.656 400.275 717.989 396.143C719.293 395.876 720.597 395.612 721.901 395.346C740.957 391.471 760.123 387.572 779.179 384.037C819.913 376.48 859.995 370.608 897.097 370.176C934.204 369.746 968.115 374.761 996.622 388.803L1000.99 386.691C1007.11 357.777 1007.15 338.938 1005.58 327.199C1004.79 321.325 1003.59 317.223 1002.55 314.53C1002.03 313.182 1001.55 312.191 1001.17 311.505C1000.99 311.163 1000.83 310.899 1000.71 310.706C1000.64 310.61 1000.59 310.53 1000.55 310.469C1000.53 310.438 1000.51 310.411 1000.5 310.391L1000.47 310.36L1000.46 310.348L1000.46 310.342C1000.46 310.342 1000.46 310.335 997.977 312.148L1000.46 310.335L999.745 309.637C974.616 291.94 941.884 286.589 904.852 287.945C867.8 289.3 826 297.396 782.418 307.024C771.325 309.475 760.117 312.023 748.839 314.589C671.191 332.249 590.184 350.675 520.034 343.056C439.247 334.285 386.614 321.776 346.751 311.077C339.799 309.211 333.218 307.395 326.93 305.66C297.271 297.472 274.117 291.08 249.243 289.796Z" fill="#91CCF4" stroke="white" stroke-width="3" stroke-linejoin="bevel"/>
    <path d="M393.734 341.881C378.182 339.716 363.9 350.865 361.854 366.768C361.381 370.455 361.838 374.037 362.648 377.553L219.573 424.124C214.6 428.007 319.632 417.663 323.449 422.769C325.407 425.386 328.218 426.717 331.15 427.125C334.079 427.532 337.142 426.904 339.678 425.028L376.447 396.012C379.44 397.72 382.702 399.112 386.421 399.63C401.973 401.795 421.515 390.126 419.922 370.328L393.353 379.39L382.901 367.307L402.244 343.783C402.244 343.783 395.636 342.262 393.832 342.012L393.734 341.881Z" fill="#242E3F"/>
    <path d="M226.917 282.81L230.283 301.814C229.262 302.971 228.528 304.304 227.796 305.639L208.65 308.521L205.401 323.258L221.433 334.5C221.613 336.159 221.759 337.486 222.068 339.067L211.071 354.658L219.223 367.366L238.371 364.485C239.691 365.445 240.851 366.15 242.299 367.032L245.667 386.036L260.654 389.599L271.651 374.008C273.116 373.819 274.662 373.756 276.255 373.488L292.287 384.729L304.953 376.969L301.587 357.966C302.399 356.76 303.34 355.473 304.071 354.14L323.22 351.259L326.469 336.521L310.437 325.28C310.21 323.824 310.027 322.165 309.802 320.711L320.796 305.121L312.645 292.413L293.499 295.295C292.386 294.384 290.936 293.501 289.571 292.745L286.202 273.742L271.216 270.18L260.219 285.77C258.753 285.96 257.078 286.102 255.612 286.292L239.58 275.048L226.917 282.81ZM253.626 310.7C264.139 304.259 278.086 307.573 284.851 318.12C291.617 328.669 288.591 342.383 278.08 348.826C267.567 355.267 253.622 351.951 246.856 341.404C240.091 330.856 243.115 317.141 253.626 310.7Z" fill="#242E3F"/>
    <path d="M6.23352 172.428L192.109 116.605L236.341 46.44L242.664 94.5691L249.134 162.24L271.884 299.932L217.818 340.064L289.917 350.104L349.898 404.333L379.887 431.446L409.879 458.559L348.471 440.539L166.096 498.043L13.3091 404.562L6.23352 172.428Z" fill="#AF8D67"/>
    <path d="M192.109 116.605L6.23352 172.428L13.3091 404.562M192.109 116.605L217.818 340.064M192.109 116.605L236.341 46.44L242.664 94.5691L249.134 162.24L271.884 299.932L217.818 340.064M13.3091 404.562L217.818 340.064M13.3091 404.562L166.096 498.043L348.471 440.539M217.818 340.064L348.471 440.539M217.818 340.064L289.917 350.104L349.898 404.333L379.887 431.446L409.879 458.559L348.471 440.539" stroke="#956F43" stroke-width="3"/>
    <path d="M375.246 229.745C375.804 236.655 374.891 242.612 372.509 247.611C370.176 252.555 366.68 256.709 362.023 260.069C357.416 263.371 351.809 265.925 345.205 267.725C338.606 269.578 331.367 270.815 323.488 271.432C319.923 271.712 316.196 271.655 312.307 271.264C308.424 270.928 304.559 270.186 300.719 269.044C296.873 267.846 293.157 266.265 289.569 264.298C285.983 262.334 282.705 259.889 279.738 256.965C276.819 253.985 274.265 250.52 272.071 246.573C269.931 242.622 268.387 238.088 267.44 232.974L302.194 229.53C302.208 231.027 302.276 232.546 302.401 234.086C302.524 235.629 302.653 237.224 302.786 238.871C303.159 243.495 303.7 248.213 304.41 253.026C307.579 253.153 310.741 253.172 313.896 253.086C317.049 253 320.196 252.834 323.337 252.588C326.475 252.342 329.583 252.019 332.658 251.617C335.732 251.216 338.852 250.704 342.015 250.081C342.136 248.252 342.208 246.483 342.231 244.769C342.247 243.001 342.183 241.215 342.038 239.407C341.802 236.485 341.378 233.548 340.767 230.601C340.154 227.654 339.434 224.713 338.61 221.782C334.848 221.649 330.524 221.506 325.639 221.354C320.751 221.202 315.712 220.821 310.521 220.211C305.379 219.544 300.291 218.552 295.256 217.233C290.272 215.859 285.749 213.914 281.69 211.397C277.625 208.826 274.256 205.56 271.579 201.596C268.903 197.634 267.327 192.702 266.851 186.802C266.521 182.708 266.966 178.929 268.186 175.463C269.461 171.993 271.269 168.856 273.615 166.051C276.009 163.189 278.83 160.641 282.078 158.407C285.378 156.169 288.868 154.265 292.544 152.693C296.275 151.117 300.082 149.856 303.971 148.909C307.858 147.963 311.638 147.346 315.31 147.058C323.349 146.428 330.528 147.123 336.851 149.142C343.174 151.161 348.574 154.028 353.051 157.742C357.578 161.4 361.188 165.664 363.884 170.535C366.58 175.405 368.318 180.351 369.098 185.372L332.925 192.137C333.028 190.097 333.025 188.064 332.915 186.04C332.855 183.958 332.743 181.908 332.581 179.887C332.207 175.263 331.51 170.61 330.492 165.929C328.659 165.805 326.834 165.761 325.016 165.796C323.252 165.827 321.465 165.914 319.655 166.056C312.469 166.618 305.273 168.065 298.069 170.394C298.071 171.732 298.122 173.038 298.224 174.314C298.327 175.59 298.427 176.839 298.526 178.061C298.827 181.783 299.256 185.44 299.813 189.034C300.42 192.571 301.294 196.113 302.437 199.661C306.903 199.9 311.745 200.162 316.963 200.449C322.178 200.682 327.412 201.155 332.665 201.867C337.966 202.521 343.079 203.485 348.004 204.758C352.975 205.973 357.397 207.659 361.266 209.818C365.186 211.917 368.403 214.608 370.916 217.887C373.425 221.114 374.869 225.067 375.246 229.745Z" fill="#242E3F"/>
    <path d="M764.055 151.603C759.91 166.205 755.834 178.753 751.828 189.246C747.822 199.74 744.235 208.376 741.067 215.151C737.354 223.076 733.814 229.685 730.443 234.981C730.497 236.159 730.601 237.517 730.759 239.057C730.909 240.544 731.106 242.184 731.352 243.98C731.749 246.886 732.229 249.997 732.791 253.311C733.353 256.627 733.927 259.832 734.511 262.928C735.151 266.017 735.751 268.841 736.317 271.403C736.93 273.904 737.461 275.823 737.914 277.16L693.812 283.898C693.902 282.97 693.941 281.485 693.931 279.441C693.965 277.338 693.943 275.001 693.859 272.429C693.822 269.797 693.715 267.041 693.535 264.159C693.41 261.269 693.283 258.57 693.154 256.057C693.018 253.493 692.875 251.253 692.719 249.336C692.619 247.413 692.547 246.104 692.506 245.41C689.744 242.176 686.784 238.645 683.618 234.82C680.447 230.943 677.144 226.894 673.712 222.673C670.27 218.401 666.762 214.028 663.187 209.56C659.603 205.036 656.073 200.507 652.596 195.97C649.113 191.38 645.687 186.836 642.325 182.338C639.012 177.832 635.881 173.464 632.931 169.233L678.206 165.164C679.809 168.607 681.802 172.536 684.186 176.952C686.569 181.367 689.232 186.067 692.178 191.052C695.116 195.984 698.289 201.046 701.692 206.238C705.098 211.431 708.595 216.502 712.183 221.456C715.039 213.969 717.72 206.397 720.23 198.742C721.292 195.478 722.384 192.048 723.51 188.453C724.633 184.858 725.697 181.217 726.702 177.531C727.698 173.791 728.625 170.116 729.478 166.503C730.323 162.838 731.028 159.326 731.592 155.968L764.055 151.603Z" fill="#242E3F"/>
    <path d="M985.279 233.218C986.493 228.381 987.462 223.298 988.19 217.965C988.967 212.589 989.515 207.104 989.836 201.514C990.175 195.598 990.279 189.714 990.146 183.862C990.017 177.965 989.664 172.288 989.088 166.831C986.519 165.93 983.711 165.109 980.666 164.368C978.036 163.697 974.963 163.047 971.443 162.418C967.968 161.791 964.179 161.356 960.075 161.112C959.283 161.065 958.467 161.016 957.627 160.967C956.788 160.917 955.946 160.914 955.101 160.957C955.056 161.749 954.978 163.1 954.869 165.01C954.759 166.92 954.623 169.273 954.463 172.068C954.353 174.82 954.197 177.942 953.996 181.436C953.844 184.886 953.682 188.523 953.51 192.346C953.338 196.169 953.184 200.086 953.047 204.098C952.912 208.11 952.801 212.077 952.715 215.998C952.631 219.92 952.555 223.703 952.485 227.344C952.467 230.943 952.487 234.263 952.547 237.306C956.848 237.373 960.952 237.197 964.86 236.773C968.814 236.354 972.304 235.883 975.33 235.362C978.874 234.732 982.191 234.017 985.279 233.218ZM948.586 143.601C954.088 143.928 959.716 144.543 965.466 145.445C971.264 146.35 976.849 147.686 982.222 149.455C987.643 151.225 992.729 153.514 997.481 156.32C1002.23 159.127 1006.32 162.571 1009.74 166.654C1013.2 170.74 1015.84 175.571 1017.68 181.149C1019.51 186.681 1020.22 193.103 1019.8 200.418C1019.39 207.499 1018.1 213.733 1015.92 219.12C1013.74 224.506 1010.92 229.2 1007.46 233.202C1004.05 237.16 1000.12 240.456 995.663 243.089C991.206 245.723 986.478 247.804 981.478 249.33C976.523 250.86 971.412 251.865 966.143 252.346C960.872 252.875 955.718 252.989 950.681 252.69C945.783 252.4 941.476 252.027 937.759 251.572C934.04 251.165 930.881 250.767 928.281 250.38C925.265 249.92 922.65 249.438 920.433 248.932C921.516 239.833 922.529 230.754 923.47 221.696C924.411 212.636 925.145 203.517 925.671 194.34C925.93 189.821 926.108 185.507 926.202 181.399C926.344 177.294 926.436 173.233 926.481 169.215C926.524 165.197 926.522 161.154 926.475 157.084C926.477 152.97 926.469 148.623 926.45 144.041C930.364 143.525 934.192 143.285 937.933 143.32C941.677 143.308 945.228 143.402 948.586 143.601Z" fill="#242E3F"/>
    <path d="M521.562 247.343C520.592 250.309 519.214 252.908 517.431 255.142C515.659 257.339 513.531 259.207 511.047 260.749C508.574 262.253 505.784 263.44 502.676 264.313C499.568 265.187 496.206 265.744 492.587 265.986L507.6 305.471L480.233 299.694L473.144 265.152C471.891 264.993 470.606 264.8 469.288 264.579C467.971 264.356 466.635 264.126 465.28 263.891C464.302 267.907 463.326 272.114 462.352 276.509C461.415 280.918 460.423 285.624 459.375 290.628L431.774 283.636C435.731 274.115 439.497 264.595 443.075 255.076C446.703 245.531 450.123 235.854 453.331 226.046C454.164 223.498 454.904 221.172 455.55 219.068C456.234 216.977 456.862 214.931 457.432 212.931C458.04 210.94 458.631 208.882 459.201 206.752C459.771 204.624 460.402 202.242 461.095 199.607C466.159 199.713 471.165 200.244 476.121 201.199C481.111 202.166 486.156 203.488 491.253 205.165C493.801 206.002 496.503 207.079 499.357 208.398C502.213 209.715 504.968 211.274 507.623 213.074C510.317 214.884 512.783 216.938 515.024 219.232C517.302 221.54 519.132 224.121 520.516 226.976C521.937 229.843 522.79 232.966 523.075 236.343C523.36 239.722 522.855 243.388 521.562 247.343ZM479.727 214.702C477.689 220.936 475.754 226.976 473.927 232.817C472.152 238.633 470.434 244.658 468.773 250.892L471.112 251.662C474.46 252.762 477.857 253.774 481.303 254.697C484.752 255.619 488.083 256.315 491.302 256.784C492.505 254.906 493.651 252.692 494.738 250.145C495.874 247.57 496.909 244.859 497.842 242.006C498.438 240.181 498.978 238.338 499.461 236.476C499.957 234.576 500.39 232.739 500.759 230.965C501.14 229.153 501.415 227.412 501.583 225.741C501.788 224.082 501.907 222.562 501.936 221.182C501.429 220.932 500.821 220.668 500.109 220.393C499.437 220.129 498.664 219.855 497.788 219.566C496.04 218.991 494.119 218.423 492.028 217.862C489.973 217.313 488.015 216.795 486.154 216.31C484.012 215.773 481.869 215.239 479.727 214.702Z" fill="#242E3F"/>
    <path d="M902.015 176.888C902.384 179.882 902.245 182.722 901.599 185.409C900.949 188.057 899.854 190.565 898.31 192.931C896.765 195.26 894.809 197.442 892.445 199.479C890.083 201.516 887.367 203.381 884.3 205.074L913.645 233.497L887.313 239.645L866.935 212.306C865.773 212.679 864.567 213.037 863.323 213.383C862.078 213.727 860.815 214.073 859.532 214.424C860.323 218.339 861.197 222.421 862.146 226.666C863.134 230.91 864.198 235.436 865.334 240.245L838.301 245.426C837.858 235.471 837.249 225.595 836.476 215.796C835.736 205.955 834.758 196.083 833.543 186.182C833.227 183.61 832.921 181.272 832.624 179.166C832.364 177.055 832.075 175.006 831.753 173.02C831.468 171.029 831.14 168.985 830.765 166.888C830.392 164.791 829.967 162.447 829.494 159.856C833.969 157.877 838.572 156.291 843.299 155.099C848.066 153.902 853.025 152.993 858.175 152.373C860.75 152.063 863.557 151.901 866.597 151.885C869.637 151.87 872.688 152.106 875.751 152.594C878.853 153.078 881.854 153.865 884.757 154.957C887.699 156.044 890.36 157.554 892.742 159.487C895.163 161.415 897.191 163.8 898.827 166.641C900.463 169.481 901.525 172.897 902.015 176.888ZM851.998 165.443C852.771 171.736 853.556 177.814 854.353 183.677C855.186 189.496 856.153 195.474 857.256 201.611L859.62 201.327C863.003 200.92 866.392 200.415 869.789 199.811C873.186 199.208 876.388 198.452 879.398 197.545C879.681 195.407 879.775 193.001 879.681 190.325C879.619 187.607 879.412 184.808 879.06 181.93C878.834 180.088 878.549 178.253 878.209 176.424C877.862 174.558 877.487 172.773 877.083 171.069C876.673 169.327 876.2 167.69 875.66 166.158C875.16 164.621 874.64 163.243 874.1 162.023C873.553 162.011 872.911 162.03 872.177 162.079C871.48 162.124 870.691 162.2 869.807 162.306C868.038 162.519 866.123 162.808 864.063 163.173C862.039 163.533 860.114 163.882 858.284 164.219C856.188 164.627 854.093 165.035 851.998 165.443Z" fill="#242E3F"/>
    <path d="M559.335 310.655C559.422 309.537 559.487 308.419 559.534 307.296C559.585 306.137 559.653 304.998 559.737 303.88C557.552 305.57 555.301 306.809 552.99 307.597C550.719 308.349 548.64 308.883 546.752 309.201C544.55 309.572 542.385 309.711 540.255 309.621C536.396 309.318 532.719 308.427 529.221 306.95C525.76 305.514 522.73 303.512 520.131 300.941C517.533 298.371 515.499 295.264 514.034 291.619C512.607 287.939 511.975 283.759 512.141 279.079C512.5 274.377 513.466 270.148 515.034 266.392C516.607 262.599 518.771 259.414 521.531 256.838C524.292 254.263 527.62 252.373 531.517 251.167C535.417 249.922 539.857 249.475 544.839 249.827C544.993 249.84 545.569 249.924 546.567 250.079C547.605 250.2 548.865 250.474 550.348 250.9C551.832 251.29 553.435 251.879 555.161 252.676C556.89 253.432 558.579 254.437 560.229 255.691L559.848 248.506L582.832 248.742C581.522 259.77 580.446 270.758 579.607 281.706C579.402 284.367 579.209 286.892 579.027 289.282C578.883 291.637 578.742 293.99 578.6 296.346C578.5 298.666 578.398 301.023 578.291 303.419C578.227 305.779 578.154 308.275 578.067 310.907L559.335 310.655ZM533.377 294.537C537.983 294.705 542.522 294.75 546.992 294.676C551.463 294.601 555.891 294.308 560.278 293.8C560.529 289.012 560.67 284.369 560.705 279.871C560.777 275.378 560.742 270.78 560.598 266.076L557.298 265.816C553.554 265.521 549.782 265.361 545.979 265.335C542.219 265.271 538.406 265.378 534.541 265.656C533.768 269.668 533.225 273.717 532.911 277.803C532.792 279.345 532.721 280.795 532.694 282.149C532.671 283.466 532.667 284.785 532.682 286.104C532.737 287.427 532.809 288.772 532.897 290.136C533.026 291.502 533.186 292.97 533.377 294.537Z" fill="#242E3F"/>
    <path d="M808.804 257.976C808.621 256.754 808.418 255.533 808.195 254.315C807.963 253.055 807.758 251.814 807.575 250.589C805.636 252.942 803.52 254.827 801.226 256.24C798.967 257.604 796.861 258.689 794.908 259.492C792.628 260.428 790.334 261.108 788.021 261.532C783.796 262.15 779.62 262.093 775.495 261.358C771.417 260.661 767.668 259.248 764.242 257.118C760.816 254.988 757.866 252.142 755.393 248.58C752.958 244.97 751.254 240.626 750.285 235.551C749.518 230.402 749.52 225.616 750.287 221.192C751.049 216.726 752.597 212.769 754.936 209.324C757.273 205.877 760.392 203.028 764.289 200.777C768.18 198.483 772.848 196.917 778.293 196.078C778.462 196.053 779.103 196.003 780.214 195.927C781.36 195.802 782.785 195.788 784.483 195.885C786.174 195.939 788.046 196.183 790.098 196.616C792.142 197.007 794.207 197.676 796.29 198.622L794.118 190.984L818.905 185.614C820.198 197.8 821.736 209.885 823.517 221.87C823.95 224.782 824.36 227.547 824.749 230.165C825.174 232.733 825.598 235.301 826.025 237.867C826.484 240.388 826.951 242.95 827.425 245.553C827.935 248.109 828.466 250.812 829.02 253.663L808.804 257.976ZM776.922 246.985C781.918 246.039 786.814 244.98 791.605 243.804C796.396 242.631 801.089 241.232 805.685 239.612C804.781 234.398 803.795 229.368 802.729 224.522C801.706 219.669 800.541 214.731 799.231 209.705L795.619 210.231C791.519 210.831 787.421 211.581 783.322 212.482C779.261 213.334 775.185 214.383 771.095 215.628C771.245 220.133 771.653 224.623 772.319 229.095C772.57 230.783 772.846 232.36 773.152 233.824C773.449 235.248 773.769 236.667 774.107 238.084C774.49 239.493 774.896 240.921 775.327 242.369C775.8 243.808 776.331 245.346 776.922 246.985Z" fill="#242E3F"/>
    <path d="M666.793 242.622C667.291 248.017 667.004 252.936 665.934 257.384C664.903 261.784 663.164 265.595 660.718 268.818C658.271 272.04 655.154 274.627 651.372 276.576C647.587 278.528 643.21 279.726 638.241 280.175C635.383 280.345 632.537 280.209 629.708 279.769C628.515 279.572 627.25 279.316 625.913 279.001C624.616 278.639 623.289 278.194 621.934 277.664C620.618 277.086 619.334 276.396 618.084 275.595C616.833 274.794 615.655 273.834 614.549 272.716C615.361 280.082 616.208 287.359 617.09 294.545C617.975 301.775 618.9 308.718 619.863 315.374L595.157 316.033C594.928 308.353 594.596 300.29 594.165 291.846C593.732 283.4 593.23 274.897 592.656 266.334C592.123 257.724 591.508 249.188 590.813 240.724C590.161 232.255 589.476 224.137 588.759 216.371L610.535 214.409C610.523 217.108 610.574 219.779 610.687 222.423C611.581 221.254 612.575 220.23 613.67 219.347C614.804 218.419 615.97 217.596 617.168 216.879C618.365 216.162 619.57 215.532 620.782 214.987C622.039 214.438 623.238 213.983 624.382 213.619C627.043 212.726 629.796 212.107 632.64 211.765C635.016 211.55 637.468 211.679 639.994 212.146C642.517 212.572 644.982 213.328 647.393 214.417C649.845 215.501 652.153 216.904 654.316 218.622C656.522 220.338 658.496 222.378 660.239 224.745C661.983 227.111 663.429 229.788 664.575 232.774C665.719 235.715 666.457 239 666.793 242.622ZM613.779 264.366C617.004 264.86 620.015 265.155 622.814 265.249C625.649 265.298 628.601 265.185 631.668 264.909C633.482 264.745 635.379 264.509 637.353 264.2C639.329 263.893 641.474 263.524 643.786 263.098C643.823 261.138 643.776 259.207 643.643 257.305C643.555 255.398 643.419 253.473 643.241 251.531C642.878 247.605 642.37 243.757 641.718 239.989C641.06 236.175 640.27 232.352 639.35 228.52C635.221 228.631 631.603 228.825 628.49 229.106C626.979 229.243 625.536 229.417 624.161 229.628C622.783 229.794 621.387 230.007 619.972 230.265C618.599 230.476 617.182 230.713 615.724 230.973C614.312 231.231 612.79 231.522 611.165 231.842C611.763 241.142 612.508 250.604 613.395 260.225L613.779 264.366Z" fill="#242E3F"/>
    <path d="M407.95 202.164C390.267 201.898 379.133 209.658 378.721 236.925C378.268 266.996 394.378 269.287 412.06 269.552C435.635 269.908 442.031 253.618 439.157 240.261L425.833 240.06C424.773 242.358 428.66 256.489 409.202 255.173C396.801 254.333 392.871 250.47 393.072 237.14C393.307 221.403 396.475 215.306 407.751 215.474C420.049 215.661 421.329 220.291 423.036 221.583L414.744 227.604L441.33 232.1L443.751 207.559L435.458 213.578C431.401 210.711 428.434 203.496 407.95 202.164Z" fill="#242E3F"/>
    <path d="M1043.42 295.252C1043.98 291.822 1039.3 282.878 1039.3 282.878L1032.36 300.059L1022.12 313.321L1027 319.113C1027 319.113 1042.87 298.68 1043.42 295.252Z" fill="#F3D24F"/>
    <path d="M1011.95 334.131C1014.25 330.217 1005.92 321.004 1005.92 321.004L995.124 341.95L973.349 349.61C973.349 349.61 975.912 360.759 982.79 362.312C989.67 363.864 1009.65 338.045 1011.95 334.131Z" fill="#F3D24F"/>
    <path d="M976.558 333.986C980.836 335.233 987.538 325.468 987.538 325.468L969.226 318.319L954.488 300.825C954.488 300.825 944.865 303.839 945.396 313.44C945.927 323.041 972.279 332.739 976.558 333.986Z" fill="#F3D24F"/>
    <path d="M1029.13 309.678L1020.02 313.416L1029.98 326.857L1024.63 343.206C1024.63 343.206 1036.02 343.271 1039.26 339.644C1042.5 336.017 1029.13 309.678 1029.13 309.678Z" fill="#F3D24F"/>
    <path d="M1039.33 282.677C1034.87 276.388 1015.26 281.864 1006.98 284.267C1003.34 277.973 991.165 261.327 985.047 264.026C978.93 266.725 977.503 282.46 976.652 292.305C968.575 293.581 948.68 301.285 947.056 307.517C945.433 313.747 961.171 323.576 970.92 326.666C971.238 335.09 971.111 354.779 976.781 355.994C982.622 357.247 994.986 344.691 1001.8 337.295C1009.7 339.155 1026.12 346.892 1032.28 341.32C1038.44 335.749 1028.99 319.394 1025.11 311.212C1030.85 303.417 1043.94 289.18 1039.33 282.677Z" fill="#FFF537"/>
    <path d="M835.763 402.915C838.617 400.933 841.809 391.356 841.809 391.356L824.616 398.301L807.955 400.153L807.17 407.681C807.17 407.681 832.907 404.898 835.763 402.915Z" fill="#DB7372"/>
    <path d="M785.897 407.286C790.313 406.223 791.172 393.841 791.172 393.841L768.582 400.622L747.947 390.289C747.947 390.289 741.695 399.872 745.354 405.895C749.011 411.918 781.481 408.351 785.897 407.286Z" fill="#DB7372"/>
    <path d="M761.429 381.745C763.502 385.688 775.19 383.724 775.19 383.724L767.623 365.597L769.99 342.854C769.99 342.854 761.136 338.031 754.59 345.078C748.044 352.127 759.358 377.805 761.429 381.745Z" fill="#DB7372"/>
    <path d="M815.444 402.657L806.43 398.707L803.662 415.199L788.169 422.705C788.169 422.705 796.031 430.938 800.894 430.75C805.757 430.561 815.444 402.657 815.444 402.657Z" fill="#DB7372"/>
    <path d="M841.979 391.244C843.412 383.67 825.85 373.375 818.37 369.091C820.379 362.107 823.911 341.793 817.72 339.27C811.526 336.746 799.201 346.647 791.519 352.87C784.991 347.951 765.628 338.999 760.011 342.159C754.395 345.319 758.245 363.457 762.786 372.611C756.941 378.69 742.668 392.268 745.729 397.189C748.884 402.258 766.514 402.426 776.574 402.19C780.719 409.16 786.543 426.332 794.838 426.893C803.131 427.454 808.349 409.305 811.551 400.837C821.145 399.544 840.497 399.073 841.979 391.244Z" fill="#F68887"/>
    <path d="M979.272 95.7147C982.126 93.7316 985.318 84.1552 985.318 84.1552L968.126 91.1014L951.464 92.9513L950.679 100.481C950.679 100.481 976.416 97.6976 979.272 95.7147Z" fill="#5698C7"/>
    <path d="M929.407 100.086C933.823 99.022 934.682 86.64 934.682 86.64L912.091 93.422L891.457 83.0882C891.457 83.0882 885.204 92.6716 888.863 98.6952C892.521 104.719 924.991 101.15 929.407 100.086Z" fill="#5698C7"/>
    <path d="M904.938 74.5454C907.011 78.4867 918.699 76.5237 918.699 76.5237L911.132 58.3959L913.5 35.6541C913.5 35.6541 904.645 30.8298 898.099 37.8786C891.553 44.9272 902.868 70.6038 904.938 74.5454Z" fill="#5698C7"/>
    <path d="M958.953 95.4562L949.939 91.5071L947.171 107.999L931.678 115.505C931.678 115.505 939.541 123.737 944.403 123.549C949.266 123.36 958.953 95.4562 958.953 95.4562Z" fill="#5698C7"/>
    <path d="M985.488 84.0436C986.921 76.4697 969.36 66.1742 961.879 61.8916C963.888 54.9065 967.42 34.5922 961.229 32.069C955.035 29.5459 942.71 39.4465 935.028 45.6698C928.501 40.7503 909.137 31.7989 903.52 34.959C897.904 38.1188 901.755 56.2561 906.296 65.4109C900.451 71.4885 886.178 85.0682 889.239 89.9885C892.394 95.0573 910.023 95.2259 920.083 94.9899C924.228 101.96 930.053 119.132 938.347 119.693C946.64 120.255 951.858 102.104 955.06 93.6358C964.655 92.3435 984.006 91.8735 985.488 84.0436Z" fill="#91CCF4"/>
    <path d="M139.477 169.474C132.43 168.798 125.365 168.53 118.329 167.717C113.758 167.189 108.766 167.112 104.275 166.158C103.273 165.945 105.901 166.496 106.105 166.527C107.406 166.724 108.697 166.49 109.736 167.318" stroke="#956F43" stroke-width="3" stroke-linecap="round"/>
    <path d="M123.826 169.617C123.139 172.982 122.73 176.395 122.016 179.751C121.783 180.847 121.263 181.782 122.492 180.777" stroke="#956F43" stroke-width="3" stroke-linecap="round"/>
    <path d="M134.83 184.784C127.292 183.954 119.712 182.85 112.152 182.24C110.509 182.108 108.865 181.98 107.222 181.848C107.066 181.836 103.447 181.957 104.969 181.562" stroke="#956F43" stroke-width="3" stroke-linecap="round"/>
    <path d="M103.203 189.856C108.752 190.296 113.102 191.593 118.154 193.726C120.992 194.924 122.663 197.006 122.25 200.394C121.169 209.271 106.001 208.241 100.811 208.331" stroke="#956F43" stroke-width="3" stroke-linecap="round"/>
    <path d="M112.149 193.49C111.21 197.903 110.637 202.858 110.582 207.374" stroke="#956F43" stroke-width="3" stroke-linecap="round"/>
    <path d="M119.218 225.786C121.561 212.326 106.32 215.208 102.019 217.346C94.485 224.059 103.065 230.769 106.08 229.579" stroke="#956F43" stroke-width="3" stroke-linecap="round"/>
    <path d="M126.117 239.309C119.182 239.915 112.086 240.075 104.38 238.326C102.399 237.822 97.1539 236.777 95.1562 236.329M119.593 251.402C117.133 251.073 111.628 255.941 107.624 240.318M107.977 240.654C105.431 255.252 103.16 251.275 95.8275 248.599" stroke="#956F43" stroke-width="3" stroke-linecap="round"/>
    <path d="M111.259 286.726C117.589 286.38 119.875 274.975 114.458 270.143C111.875 267.839 105.822 262.41 93.4622 268.237C84.8871 273.807 88.4609 282.843 96.7611 284.441" stroke="#956F43" stroke-width="3" stroke-linecap="round"/>
    <path d="M110.794 297.007C106.562 295.721 95.8922 292.884 91.7387 291.373C91.1812 291.17 89.1924 290.077 88.61 290.671C86.9297 292.379 86.2294 298.346 86.3413 300.392" stroke="#956F43" stroke-width="3" stroke-linecap="round"/>
    <path d="M98.2155 311.026C94.4385 305.635 85.9426 306.233 84.8232 310.174C81.3796 322.292 90.5305 320.674 95.5923 319.371" stroke="#956F43" stroke-width="3" stroke-linecap="round"/>
    <path d="M98.6849 331.762C92.5954 330.469 74.2588 326.92 80.3485 328.215" stroke="#956F43" stroke-width="3" stroke-linecap="round"/>
    <path d="M97.8794 332.284C98.171 335.62 99.9937 342.344 94.8079 342.729C90.9777 343.013 90.017 340.302 88.981 336.945C88.7406 336.165 87.9433 329.214 88.1715 333.228C88.365 336.632 87.785 339.278 84.7034 341.277C78.7644 345.129 73.7461 338.213 74.9655 332.485C75.363 330.617 76.5273 329.351 77.6209 327.981" stroke="#956F43" stroke-width="3" stroke-linecap="round"/>
    <path d="M118.772 432.562C118.68 432.558 116.946 431.651 113.569 429.844C112.456 431.364 111.429 432.652 110.49 433.707C109.586 434.784 108.758 435.646 108.008 436.294C107.451 436.443 106.785 436.294 106.009 435.845C104.562 435.012 103.93 434.153 104.11 433.271C104.905 431.897 106.429 429.908 108.684 427.309C107.414 426.576 106.532 426.068 106.039 425.783C105.565 425.464 105.17 425.212 104.852 425.028C104.57 424.866 104.199 424.653 103.741 424.387C103.338 424.108 102.554 423.633 101.39 422.961C101.002 422.738 100.538 422.4 99.9999 421.947C99.5169 421.482 99.0265 420.987 98.5285 420.465C98.0863 419.928 97.6617 419.402 97.2548 418.886C96.8831 418.388 96.6524 417.974 96.563 417.64C96.6405 417.262 96.8015 416.86 97.0459 416.438C97.6773 415.347 98.7456 414.269 100.251 413.213C101.43 412.717 103.43 411.333 106.25 409.059L114.552 404.826C115.088 404.711 115.656 404.828 116.256 405.174C117.738 406.028 118.122 407.073 117.409 408.306C117.389 408.343 117.168 408.521 116.747 408.84C116.327 409.162 115.736 409.573 114.976 410.075C114.251 410.597 113.377 411.173 112.354 411.804C111.35 412.402 110.257 412.991 109.072 413.577L102.996 418.107C103.04 418.275 103.169 418.419 103.38 418.542C103.662 418.703 103.895 418.791 104.076 418.802C104.279 418.777 104.37 418.783 104.349 418.818C104.546 418.884 104.732 418.968 104.909 419.07C105.141 419.156 105.363 419.26 105.574 419.383C105.962 419.606 106.348 419.877 106.73 420.19C107.169 420.491 107.632 420.829 108.12 421.204C109.108 421.773 110.303 422.392 111.705 423.059L114.375 419.172C114.523 418.834 114.671 418.499 114.819 418.161C115.002 417.843 115.185 417.526 115.369 417.208C115.817 416.434 116.297 415.723 116.811 415.08C117.359 414.456 117.868 413.739 118.336 412.928C118.458 412.717 118.654 412.338 118.925 411.789C119.215 411.204 119.498 410.591 119.774 409.952C120.085 409.334 120.365 408.766 120.615 408.252C120.865 407.738 121.011 407.448 121.051 407.376C121.913 406.698 122.768 406.604 123.614 407.093C123.735 407.21 123.866 407.308 124.007 407.39C124.128 407.507 124.294 407.626 124.506 407.747C124.718 407.869 124.954 408.029 125.216 408.228C125.24 408.431 125.17 408.836 125.006 409.446C124.897 410.04 124.72 410.714 124.474 411.466C124.248 412.18 123.985 412.922 123.683 413.688C123.402 414.417 123.119 415.029 122.834 415.523C122.529 416.051 122.154 416.657 121.712 417.343C121.269 418.028 120.704 418.922 120.017 420.03C119.971 420.192 119.795 420.536 119.49 421.065C119.205 421.558 118.82 422.183 118.337 422.939C117.853 423.692 117.271 424.579 116.589 425.595L117.119 425.9C117.613 426.185 118.139 426.537 118.698 426.953C119.313 427.354 120.005 427.823 120.776 428.362C121.394 429.001 121.368 429.902 120.696 431.065C120.207 431.911 119.565 432.411 118.772 432.562ZM134.599 449.092C134.381 449.061 134.164 449.03 133.947 448.997C133.75 448.932 133.546 448.838 133.334 448.715L133.123 448.594L131.8 447.83C131.553 447.689 131.306 447.545 131.059 447.404C130.868 447.246 130.631 447.087 130.349 446.923C130.067 446.761 129.774 446.616 129.472 446.487C129.189 446.325 128.89 446.153 128.572 445.968C128.184 445.745 127.706 445.352 127.137 444.789C126.589 444.191 125.803 443.597 124.78 443.007C124.569 442.884 124.347 442.78 124.115 442.694C123.903 442.571 123.674 442.44 123.427 442.296C123.18 442.155 121.884 441.1 119.538 439.136C119.245 437.934 119.313 436.963 119.74 436.224C120.086 435.624 120.566 435.079 121.18 434.586C122.364 434.33 123.337 434.069 124.101 433.805C124.866 433.541 125.455 433.293 125.871 433.062C127.187 432.413 128.443 431.868 129.637 431.43C130.887 430.975 132.099 430.547 133.273 430.143C133.475 430.119 133.774 430.008 134.169 429.814C134.62 429.605 135.098 429.386 135.605 429.162C136.111 428.937 136.617 428.712 137.123 428.487C137.65 428.227 138.09 428.034 138.445 427.909C139.952 427.418 141.063 426.553 141.776 425.32C142.468 424.122 142.197 423.166 140.963 422.455C140.539 422.21 140.022 422.007 139.411 421.843C138.821 421.642 138.218 421.507 137.602 421.433C137.021 421.38 136.438 421.372 135.851 421.409C135.265 421.448 134.774 421.564 134.379 421.759C134.075 421.96 133.657 422.236 133.125 422.586C132.628 422.957 132.068 423.315 131.445 423.662C130.843 423.971 130.235 424.208 129.623 424.372C129.031 424.501 128.506 424.434 128.048 424.169C127.377 423.782 126.92 423.191 126.676 422.392C126.432 421.593 126.524 420.823 126.952 420.084C127.155 419.731 127.592 419.301 128.261 418.793C128.966 418.308 129.723 417.851 130.533 417.425C131.399 416.985 132.242 416.627 133.062 416.348C133.917 416.088 134.607 415.994 135.132 416.061C138.199 416.045 141.179 416.87 144.072 418.54C145.201 419.191 146.034 419.906 146.571 420.686C147.144 421.485 147.496 422.3 147.629 423.127C147.762 423.956 147.703 424.792 147.451 425.634C147.235 426.496 146.903 427.313 146.455 428.089C145.172 430.309 143.432 431.774 141.236 432.48C140.604 432.679 139.996 432.916 139.414 433.191C138.832 433.465 138.277 433.734 137.751 433.994C137.279 434.239 136.836 434.477 136.421 434.706C136.026 434.903 135.735 435.04 135.548 435.12C135.037 435.108 132.934 435.939 129.238 437.613L127.068 438.194C128.268 438.886 129.232 439.536 129.962 440.146C130.748 440.74 131.161 441 131.202 440.93C131.801 441.276 132.525 441.694 133.371 442.182C134.274 442.655 135.289 443.218 136.418 443.869C136.912 444.154 137.134 444.705 137.085 445.522C137.092 446.325 136.891 447.078 136.484 447.783C135.934 448.735 135.306 449.171 134.599 449.092ZM156.425 461.681C156.208 461.65 155.991 461.617 155.774 461.586C155.577 461.521 155.373 461.427 155.161 461.304L154.949 461.181L153.626 460.419C153.379 460.276 153.133 460.134 152.886 459.991C152.694 459.833 152.457 459.674 152.175 459.512C151.893 459.348 151.601 459.203 151.298 459.076C151.016 458.914 150.716 458.74 150.398 458.557C150.01 458.334 149.532 457.941 148.964 457.378C148.416 456.78 147.63 456.186 146.607 455.596C146.395 455.473 146.173 455.369 145.941 455.281C145.73 455.16 145.5 455.027 145.253 454.885C145.006 454.742 143.71 453.689 141.364 451.725C141.071 450.523 141.139 449.552 141.567 448.811C141.913 448.213 142.393 447.666 143.007 447.175C144.19 446.919 145.164 446.656 145.928 446.392C146.692 446.128 147.282 445.882 147.697 445.651C149.014 445.002 150.269 444.457 151.464 444.017C152.714 443.564 153.926 443.136 155.1 442.73C155.302 442.708 155.6 442.597 155.996 442.403C156.446 442.192 156.925 441.975 157.431 441.749C157.937 441.524 158.443 441.301 158.95 441.076C159.476 440.816 159.917 440.623 160.271 440.498C161.779 440.005 162.889 439.142 163.602 437.909C164.295 436.709 164.024 435.755 162.789 435.042C162.366 434.799 161.849 434.594 161.238 434.43C160.648 434.231 160.045 434.094 159.428 434.02C158.847 433.967 158.264 433.961 157.678 433.998C157.091 434.037 156.601 434.151 156.206 434.348C155.902 434.549 155.484 434.823 154.952 435.175C154.455 435.546 153.895 435.904 153.272 436.251C152.669 436.56 152.062 436.797 151.45 436.961C150.858 437.09 150.333 437.023 149.874 436.756C149.204 436.371 148.747 435.778 148.503 434.979C148.259 434.18 148.35 433.412 148.778 432.671C148.982 432.318 149.418 431.89 150.087 431.383C150.792 430.897 151.549 430.44 152.36 430.014C153.226 429.574 154.069 429.216 154.888 428.935C155.743 428.677 156.434 428.581 156.959 428.65C160.026 428.632 163.006 429.459 165.899 431.127C167.028 431.778 167.861 432.495 168.398 433.273C168.97 434.074 169.323 434.889 169.455 435.716C169.588 436.546 169.529 437.379 169.278 438.221C169.062 439.083 168.73 439.902 168.281 440.678C166.998 442.898 165.259 444.361 163.063 445.069C162.43 445.268 161.823 445.506 161.24 445.78C160.658 446.054 160.104 446.323 159.577 446.583C159.106 446.829 158.663 447.066 158.247 447.295C157.853 447.49 157.561 447.629 157.374 447.709C156.864 447.697 154.761 448.526 151.065 450.202L148.895 450.783C150.094 451.473 151.059 452.125 151.789 452.733C152.574 453.327 152.987 453.589 153.028 453.519C153.628 453.865 154.351 454.281 155.198 454.771C156.1 455.244 157.116 455.805 158.245 456.456C158.738 456.741 158.961 457.294 158.912 458.111C158.918 458.914 158.718 459.667 158.311 460.372C157.761 461.322 157.132 461.758 156.425 461.681ZM178.233 470.028C177.715 470.436 177.155 470.794 176.553 471.103C175.985 471.435 175.292 471.74 174.472 472.019C173.673 472.263 172.691 472.496 171.528 472.717C170.365 472.938 168.919 473.162 167.19 473.387C163.032 473.338 160.282 472.926 158.942 472.154C158.236 471.747 157.96 471.329 158.114 470.901C158.302 470.493 158.59 469.955 158.977 469.285C159.303 468.722 159.754 468.347 160.331 468.163C160.908 467.978 161.581 467.874 162.349 467.845C163.117 467.818 163.973 467.843 164.918 467.919C165.862 467.993 166.883 468.017 167.979 467.993C168.176 468.058 168.505 468.06 168.965 467.997C169.46 467.954 170.09 467.8 170.854 467.536L174.156 466.338C175.458 465.633 176.384 464.804 176.934 463.854C177.443 462.971 177.679 462.074 177.643 461.16C177.662 460.233 177.505 459.366 177.17 458.562C176.835 457.757 176.375 457.046 175.792 456.428C175.264 455.795 174.718 455.315 174.154 454.99C173.766 454.767 173.347 454.595 172.898 454.476C172.504 454.345 172.114 454.164 171.726 453.941C171.514 453.82 171.217 453.601 170.834 453.286C170.487 452.993 170.17 452.645 169.884 452.245C169.598 451.844 169.377 451.412 169.223 450.947C169.103 450.503 169.166 450.068 169.41 449.647C169.573 449.364 169.713 449.163 169.83 449.042L170.813 447.707C171.038 447.318 171.426 446.767 171.98 446.054C172.57 445.36 173.159 444.666 173.748 443.972C174.337 443.277 174.848 442.679 175.279 442.175C175.747 441.694 175.97 441.471 175.949 441.506C176.866 439.921 177.621 438.899 178.214 438.442C178.843 438.006 179.457 437.961 180.057 438.307C180.868 438.774 181.608 439.366 182.277 440.08C182.946 440.795 183.545 441.305 184.074 441.61C184.18 441.672 184.25 441.713 184.286 441.731C184.376 441.737 184.475 441.77 184.581 441.831C184.651 441.872 184.984 442.112 185.578 442.548C186.172 442.984 186.819 443.451 187.519 443.949C188.22 444.447 188.831 444.895 189.355 445.29C189.914 445.706 190.194 445.915 190.194 445.915C191.024 446.675 191.052 447.726 190.278 449.065C189.463 450.474 188.464 450.861 187.279 450.224C186.932 449.931 186.423 449.591 185.753 449.204C185.103 448.782 184.329 448.289 183.433 447.726C183.115 447.541 182.634 447.193 181.99 446.681C181.401 446.153 180.948 445.798 180.63 445.614C180.313 445.432 180.018 445.331 179.745 445.315C179.257 445.833 178.681 446.464 178.016 447.207C177.371 447.918 176.665 448.731 175.898 449.653C176.674 450.099 177.49 450.64 178.346 451.275C179.238 451.93 180.038 452.745 180.746 453.716C181.474 454.654 182.045 455.782 182.459 457.101C182.872 458.42 183.035 459.971 182.946 461.752C182.79 463.731 182.387 465.283 181.735 466.409C181.144 467.431 179.977 468.638 178.233 470.028Z" fill="#956F43"/>
    <path d="M147.347 159.117C141.127 158.68 103.202 160.897 96.9817 160.46C90.7618 160.023 52.6361 347.619 58.9532 349.075C65.2704 350.532 106.724 359.451 112.75 357.849C118.775 356.248 153.567 159.554 147.347 159.117Z" stroke="#956F43" stroke-width="2"/>
    <path d="M665.5 313.956C661.879 330.417 658.724 346.943 656.035 363.532C653.387 380.117 651.143 396.542 649.304 412.806C645.416 413.313 641.322 413.839 637.019 414.383C633.336 414.83 629.194 415.297 624.594 415.783C619.998 416.311 615.313 416.784 610.539 417.201L578.44 324.96L608.095 320.421C611.264 330.349 614.354 340.096 617.366 349.662C618.643 353.733 619.956 357.988 621.307 362.429C622.653 366.829 623.978 371.209 625.28 375.571C626.578 379.891 627.823 384.09 629.017 388.168C630.206 392.204 631.265 395.939 632.193 399.371C633.024 394.53 633.871 389.395 634.735 383.966C635.598 378.537 636.418 373.09 637.195 367.627C638.01 362.118 638.773 356.74 639.485 351.491C640.235 346.197 640.912 341.265 641.516 336.695C642.12 332.125 642.62 328.045 643.017 324.455C643.452 320.82 643.786 317.947 644.02 315.835L665.5 313.956Z" fill="#242E3F"/>
    <path d="M738.625 414.5C735.542 414.083 732.833 413.708 730.5 413.375C728.208 413.083 726.042 412.833 724 412.625C722 412.458 720.042 412.333 718.125 412.25C716.208 412.167 714.125 412.125 711.875 412.125C712.958 408.5 713.875 404.792 714.625 401C715.417 397.208 716.042 393.312 716.5 389.312C714 389.229 711.438 389.167 708.812 389.125C706.188 389.083 703.583 389.062 701 389.062C695.708 389.062 690.625 389.188 685.75 389.438C685.958 393.188 686.25 396.938 686.625 400.688C687 404.396 687.479 408.104 688.062 411.812C685.104 412.021 682.458 412.208 680.125 412.375C677.792 412.542 675.729 412.688 673.938 412.812C672.146 412.979 670.604 413.125 669.312 413.25C668.021 413.417 666.917 413.562 666 413.688C663.875 413.979 662.438 414.25 661.688 414.5C661.146 411.792 660.688 408.938 660.312 405.938C659.979 402.938 659.708 399.958 659.5 397C659.333 394 659.208 391.083 659.125 388.25C659.042 385.417 659 382.792 659 380.375C659 375.333 659.188 370.271 659.562 365.188C659.979 360.104 660.729 355.208 661.812 350.5C662.938 345.792 664.479 341.417 666.438 337.375C668.396 333.292 670.958 329.75 674.125 326.75C677.292 323.708 681.125 321.333 685.625 319.625C690.125 317.875 695.458 317 701.625 317C707.958 317 713.771 317.979 719.062 319.938C724.354 321.854 728.896 324.833 732.688 328.875C736.521 332.917 739.479 338.062 741.562 344.312C743.688 350.521 744.75 357.917 744.75 366.5C744.75 368.708 744.688 371.458 744.562 374.75C744.479 378.042 744.229 381.75 743.812 385.875C743.396 390 742.771 394.5 741.938 399.375C741.146 404.208 740.042 409.25 738.625 414.5ZM696.625 373.188C700.25 373.188 703.854 373.125 707.438 373C711.062 372.833 714.5 372.562 717.75 372.188C717.833 371.229 717.875 370.271 717.875 369.312C717.875 368.312 717.875 367.292 717.875 366.25C717.875 359.917 717.583 353.812 717 347.938C716.458 342.062 715.646 336.604 714.562 331.562C713.604 331.479 712.542 331.417 711.375 331.375C710.25 331.333 709.042 331.312 707.75 331.312C706.042 331.312 704.271 331.354 702.438 331.438C700.646 331.479 698.875 331.562 697.125 331.688C695.417 331.771 693.771 331.896 692.188 332.062C690.604 332.229 689.229 332.417 688.062 332.625C687.146 339.25 686.458 345.917 686 352.625C685.583 359.292 685.375 366.062 685.375 372.938C687.167 373.062 689 373.146 690.875 373.188C692.792 373.188 694.708 373.188 696.625 373.188Z" fill="#242E3F"/>
    <path d="M578.165 404.745C577.796 401.214 577.364 397.799 576.867 394.502C576.411 391.198 575.901 387.945 575.337 384.745C574.751 381.421 574.114 378.17 573.427 374.991C572.773 371.764 572.019 368.448 571.165 365.045C569.734 365.086 568.317 365.209 566.915 365.413C565.546 365.57 564.164 365.772 562.769 366.018C557.024 367.03 551.597 368.643 546.487 370.856C546.754 373.093 547.018 375.31 547.279 377.507C547.58 379.696 547.923 381.878 548.306 384.053C549.073 388.403 550.004 392.723 551.099 397.015C552.228 401.258 553.558 405.678 555.087 410.274C556.046 410.189 556.997 410.064 557.94 409.898C558.925 409.724 559.93 409.547 560.956 409.366C563.788 408.867 566.638 408.237 569.508 407.477C572.419 406.71 575.305 405.799 578.165 404.745ZM597.582 381.33C598.443 386.213 598.289 390.979 597.12 395.627C595.985 400.228 594.058 404.418 591.34 408.197C588.622 411.977 585.209 415.18 581.103 417.808C577.046 420.47 572.514 422.242 567.508 423.125C562.542 424 557.801 423.863 553.283 422.714C548.813 421.598 544.777 419.707 541.176 417.042C537.616 414.37 534.619 411.048 532.184 407.077C529.742 403.065 528.091 398.618 527.23 393.735C526.166 387.703 526.085 382.323 526.986 377.595C527.887 372.866 529.578 368.781 532.06 365.34C534.583 361.891 537.793 359.104 541.692 356.978C545.624 354.804 550.072 353.279 555.037 352.403C560.044 351.521 564.883 351.492 569.556 352.318C574.27 353.137 578.536 354.776 582.354 357.233C586.172 359.691 589.412 362.949 592.073 367.006C594.769 371.016 596.605 375.79 597.582 381.33Z" fill="#242E3F"/>
    <path d="M531.562 315.625C530.146 328.125 528.896 340.375 527.812 352.375C527.354 357.5 526.896 362.813 526.438 368.313C525.979 373.813 525.562 379.25 525.188 384.625C524.812 390 524.5 395.208 524.25 400.25C524 405.25 523.875 409.813 523.875 413.938C520.75 414.271 517.792 414.5 515 414.625C512.25 414.75 509.458 414.813 506.625 414.813C505.167 414.813 503.646 414.792 502.062 414.75C500.479 414.708 498.833 414.646 497.125 414.563L461.688 341.75C461.729 344.625 461.771 347.854 461.812 351.438C461.896 355.021 461.979 358.771 462.062 362.688C462.146 366.563 462.229 370.521 462.312 374.563C462.438 378.604 462.542 382.5 462.625 386.25C462.792 395.083 463 404.146 463.25 413.438C460.708 413.438 458.083 413.479 455.375 413.563C453.042 413.646 450.438 413.75 447.562 413.875C444.729 414.042 441.896 414.271 439.062 414.563C439.354 410.396 439.604 405.688 439.812 400.438C440.021 395.146 440.188 389.604 440.312 383.813C440.479 377.979 440.604 372.063 440.688 366.063C440.771 360.063 440.812 354.25 440.812 348.625C440.812 342.792 440.75 337.354 440.625 332.313C440.542 327.271 440.438 322.979 440.312 319.438C443.688 319.688 446.917 319.875 450 320C453.083 320.083 456.167 320.125 459.25 320.125C462.375 320.125 465.5 320.083 468.625 320C471.792 319.875 475.104 319.688 478.562 319.438C480.438 324.729 482.521 329.813 484.812 334.688C487.104 339.563 489.458 344.396 491.875 349.188C494.333 353.938 496.792 358.729 499.25 363.563C501.708 368.354 504.083 373.313 506.375 378.438C506.375 375.688 506.396 372.688 506.438 369.438C506.521 366.188 506.604 362.833 506.688 359.375C506.771 355.917 506.854 352.438 506.938 348.938C507.021 345.438 507.125 342.063 507.25 338.813C507.458 331.229 507.729 323.5 508.062 315.625C510.354 315.833 512.375 316 514.125 316.125C515.917 316.208 517.688 316.25 519.438 316.25C521.188 316.25 523 316.208 524.875 316.125C526.75 316 528.979 315.833 531.562 315.625Z" fill="#242E3F"/>
</svg>
