<svg width="449" height="214" viewBox="0 0 449 214" fill="none" xmlns="http://www.w3.org/2000/svg">
<path d="M2.22607 71.9632L79.9141 48.6309L98.4011 19.3043L101.045 39.4207L106.67 32.6997L145.378 78.8797L134.808 96.0749L167.209 96.562L181.35 184.568L158.398 180.225L170.933 191.557L145.268 184.025L69.0417 208.06L5.18338 168.988L2.22607 71.9632Z" fill="#AF8D67"/>
<path d="M79.9141 48.6309L2.22607 71.9632L5.18338 168.988M79.9141 48.6309L90.6593 142.03M79.9141 48.6309L98.4011 19.3043L101.045 39.4207M5.18338 168.988L90.6593 142.03M5.18338 168.988L69.0417 208.06L145.268 184.025M90.6593 142.03L113.258 125.256L103.748 67.7049M90.6593 142.03L145.268 184.025M90.6593 142.03L120.795 146.226L145.864 168.892M101.045 39.4207L106.67 32.6997L145.378 78.8797L134.808 96.0749M101.045 39.4207L103.748 67.7049M103.748 67.7049L134.808 96.0749M145.268 184.025L170.933 191.557L158.398 180.225M145.864 168.892L134.808 96.0749M145.864 168.892L158.398 180.225M158.398 180.225L181.35 184.568L167.209 96.562L134.808 96.0749" stroke="#956F43" stroke-width="3"/>
<path d="M46.2694 65.0559H134.527L155.949 174.624L46.2694 162.64V65.0559Z" fill="#AF8D67"/>
<path d="M139.512 98.3518L145.335 166.928L121.239 145.162L93.0176 141.314L112.092 126.619L104.449 69.314L139.512 98.3518Z" fill="#74522A"/>
<path d="M409.24 113.066L410.742 112.474L430.84 77.1146L430.432 75.4102C423.972 71.1363 412.474 67.9321 397.82 65.9904C383.112 64.0416 365.041 63.3428 345.281 64.2003C321.236 64.6052 301.354 68.362 281.856 72.0462C278.437 72.6923 275.029 73.3362 271.612 73.9593C248.707 78.1377 225.321 81.4094 195.086 78.3303C169.518 75.7267 151.938 71.6816 136.433 68.1142C133.552 67.4516 130.743 66.8054 127.968 66.188C110.221 62.239 93.9062 59.4834 69.3173 61.2073C66.352 61.4152 64.4351 61.6164 63.4559 61.8553C63.2138 61.9144 62.9279 61.9984 62.6788 62.1345C62.5559 62.2016 62.3565 62.3265 62.1851 62.5406C61.9908 62.7832 61.8223 63.1618 61.8916 63.6185C61.9536 64.0268 62.1773 64.2951 62.3143 64.4292C62.4577 64.5695 62.6088 64.6636 62.7169 64.7233C62.9347 64.8436 63.1841 64.9352 63.411 65.0076C64.3088 65.2941 65.9071 65.5991 67.8337 65.9436C68.4351 66.0511 69.0758 66.1636 69.7501 66.282C71.2888 66.5522 73.0029 66.8533 74.8259 67.196C80.0734 68.1828 86.0889 69.4924 90.9748 71.3092C93.4195 72.2181 95.5205 73.2323 97.086 74.3573C98.6635 75.4908 99.5692 76.6429 99.8674 77.7905C101.486 84.0148 103.824 92.6843 106.502 99.4125C107.834 102.759 109.292 105.738 110.851 107.699C111.627 108.677 112.509 109.505 113.511 109.947C114.484 110.377 115.526 110.42 116.536 109.973C122.475 109.763 127.954 109.506 133.027 109.268C146.615 108.63 157.297 108.128 166.141 109.047C172.194 109.675 177.292 110.965 181.785 113.296C186.27 115.622 190.219 119.018 193.928 123.952C196.174 126.94 200.485 128.407 205.899 129.003C211.389 129.606 218.381 129.35 226.437 128.544C240.403 127.144 257.798 124.061 276.523 120.742C279.404 120.231 282.317 119.715 285.254 119.199C307.308 115.319 330.746 111.414 352.486 109.67C374.252 107.924 394.171 108.359 409.24 113.066Z" fill="#FFF537" stroke="white" stroke-width="3" stroke-linejoin="bevel"/>
<path d="M412.436 155.111C413.409 155.95 413.41 155.949 413.41 155.949L413.412 155.946L413.416 155.942L413.424 155.931C413.431 155.924 413.439 155.914 413.448 155.903C413.466 155.881 413.489 155.852 413.516 155.817C413.571 155.746 413.643 155.647 413.729 155.52C413.903 155.265 414.135 154.891 414.403 154.382C414.939 153.362 415.616 151.798 416.254 149.537C417.53 145.017 418.65 137.712 418.172 126.399C417.692 115.05 415.403 108.583 413.112 104.909C411.965 103.068 410.821 101.938 409.919 101.254C409.469 100.913 409.083 100.687 408.794 100.541C408.648 100.468 408.528 100.416 408.435 100.378C408.398 100.363 408.365 100.351 408.337 100.341C388.409 91.574 373.163 89.7772 343.486 92.4925C325.833 94.1086 307.651 97.6824 289.63 101.225C285.252 102.086 280.883 102.945 276.533 103.774C254.228 108.022 232.411 111.476 212.141 110.426C181.18 108.821 162.419 104.771 147.396 100.702C144.009 99.7839 140.799 98.8603 137.672 97.9615C127.002 94.8935 117.304 92.1047 104.843 90.7616C103.234 90.1522 101.741 89.9938 100.389 90.3259C98.9776 90.6726 97.8696 91.5175 97.0265 92.6303C95.3916 94.7865 94.6435 98.0847 94.3513 101.483C93.7609 108.346 94.9571 116.65 96.0222 120.208L96.9562 121.089C107.211 123.525 116.615 125.698 125.186 127.677C137.161 130.444 147.51 132.835 156.279 135.044C171.37 138.846 181.529 142.054 187.134 145.588C188.095 146.193 189.579 146.59 191.332 146.884C193.136 147.185 195.406 147.401 198.071 147.555C203.404 147.86 210.432 147.914 218.703 147.833C227.107 147.751 236.864 147.528 247.483 147.285C257.721 147.051 268.76 146.8 280.163 146.637C326.796 145.974 379.84 146.809 412.071 156.342L413.409 155.95L412.436 155.111Z" fill="#F68887" stroke="white" stroke-width="3" stroke-linejoin="bevel"/>
<path d="M104.174 121.126L103.335 121.382C97.6169 125.692 93.4191 129.467 90.4663 132.781C87.523 136.085 85.7613 138.993 85.0112 141.575C84.248 144.202 84.5374 146.486 85.6674 148.398C86.7698 150.264 88.5924 151.638 90.6506 152.662C94.7516 154.701 100.248 155.57 104.604 155.948C106.804 156.139 108.755 156.206 110.158 156.227C110.86 156.237 111.425 156.235 111.818 156.231C112.014 156.228 112.167 156.226 112.271 156.223C112.323 156.222 112.364 156.222 112.392 156.221L112.404 156.22C128.404 156.465 142.358 159.968 158.139 163.931C159.704 164.324 161.286 164.721 162.889 165.12C180.667 169.543 200.979 174.142 228.746 175.052C242.703 175.509 258.449 173.441 274.915 170.486C283.154 169.007 291.592 167.303 300.09 165.575C300.635 165.464 301.18 165.353 301.725 165.242C309.69 163.623 317.701 161.993 325.665 160.515C342.69 157.357 359.443 154.903 374.95 154.722C390.459 154.542 404.633 156.639 416.547 162.507L418.371 161.625C420.93 149.54 420.948 141.665 420.29 136.759C419.96 134.304 419.462 132.589 419.026 131.464C418.808 130.9 418.606 130.486 418.45 130.199C418.372 130.056 418.305 129.946 418.254 129.865C418.229 129.825 418.206 129.792 418.189 129.766C418.181 129.753 418.173 129.742 418.166 129.734L418.157 129.721L418.153 129.716L418.151 129.713C418.151 129.713 418.15 129.71 417.114 130.468L418.15 129.71L417.852 129.419C407.35 122.022 393.669 119.785 378.191 120.352C362.705 120.918 345.234 124.302 327.019 128.326C322.383 129.351 317.698 130.416 312.984 131.488C280.53 138.87 246.673 146.571 217.353 143.387C183.588 139.721 161.589 134.492 144.928 130.02C142.023 129.241 139.272 128.481 136.644 127.756C124.248 124.334 114.57 121.662 104.174 121.126Z" fill="#91CCF4" stroke="white" stroke-width="3" stroke-linejoin="bevel"/>
<path d="M164.566 142.895C158.066 141.991 152.097 146.651 151.241 153.298C151.044 154.838 151.235 156.335 151.573 157.805L91.7738 177.271C89.695 178.894 133.594 174.57 135.19 176.704C136.008 177.798 137.183 178.354 138.408 178.525C139.633 178.695 140.913 178.432 141.973 177.648L157.341 165.52C158.592 166.234 159.955 166.816 161.509 167.033C168.01 167.938 176.177 163.06 175.511 154.785L164.406 158.573L160.038 153.523L168.123 143.691C168.123 143.691 165.361 143.055 164.607 142.95L164.566 142.895Z" fill="#242E3F"/>
<path d="M94.8432 118.206L96.2502 126.149C95.8234 126.632 95.5167 127.19 95.2108 127.748L87.2085 128.952L85.8503 135.112L92.5511 139.811C92.6265 140.504 92.6873 141.059 92.8167 141.719L88.2204 148.236L91.6274 153.548L99.6305 152.343C100.182 152.745 100.667 153.039 101.272 153.408L102.68 161.351L108.944 162.84L113.54 156.324C114.153 156.245 114.799 156.218 115.465 156.106L122.165 160.805L127.459 157.561L126.052 149.619C126.391 149.114 126.785 148.577 127.091 148.02L135.094 146.815L136.452 140.655L129.751 135.957C129.656 135.348 129.58 134.655 129.486 134.047L134.081 127.531L130.674 122.22L122.672 123.424C122.206 123.043 121.601 122.674 121.03 122.358L119.622 114.416L113.358 112.927L108.762 119.443C108.15 119.522 107.449 119.582 106.837 119.661L100.136 114.962L94.8432 118.206ZM106.006 129.863C110.401 127.171 116.23 128.556 119.057 132.964C121.885 137.373 120.62 143.105 116.227 145.798C111.833 148.49 106.005 147.104 103.177 142.696C100.349 138.288 101.613 132.555 106.006 129.863Z" fill="#242E3F"/>
<path d="M2.60388 72.0694L80.292 48.7371L98.7794 19.4105L101.422 39.5269L104.126 67.8111L113.635 125.362L91.0376 142.136L121.172 146.332L146.241 168.998L158.776 180.331L171.311 191.664L145.645 184.132L69.4196 208.166L5.56119 169.094L2.60388 72.0694Z" fill="#AF8D67"/>
<path d="M80.292 48.7371L2.60388 72.0694L5.56119 169.094M80.292 48.7371L91.0376 142.136M80.292 48.7371L98.7794 19.4105L101.422 39.5269L104.126 67.8111L113.635 125.362L91.0376 142.136M5.56119 169.094L91.0376 142.136M5.56119 169.094L69.4196 208.166L145.645 184.132M91.0376 142.136L145.645 184.132M91.0376 142.136L121.172 146.332L146.241 168.998L158.776 180.331L171.311 191.664L145.645 184.132" stroke="#956F43" stroke-width="3"/>
<path d="M156.836 96.026C157.069 98.9141 156.688 101.404 155.692 103.494C154.717 105.56 153.256 107.296 151.309 108.701C149.384 110.081 147.04 111.148 144.28 111.901C141.522 112.675 138.497 113.192 135.204 113.45C133.714 113.567 132.156 113.543 130.53 113.38C128.907 113.239 127.292 112.929 125.687 112.452C124.08 111.951 122.526 111.29 121.027 110.468C119.528 109.648 118.158 108.625 116.918 107.403C115.698 106.158 114.63 104.709 113.713 103.06C112.819 101.409 112.174 99.5133 111.778 97.3759L126.303 95.9361C126.309 96.5618 126.338 97.197 126.39 97.8407C126.441 98.4853 126.495 99.1521 126.551 99.8403C126.707 101.773 126.933 103.745 127.23 105.757C128.554 105.81 129.876 105.818 131.194 105.782C132.512 105.746 133.828 105.677 135.14 105.574C136.452 105.471 137.751 105.336 139.036 105.168C140.321 105 141.625 104.786 142.947 104.526C142.998 103.762 143.028 103.022 143.037 102.306C143.044 101.567 143.017 100.82 142.957 100.065C142.858 98.8431 142.681 97.6156 142.425 96.3838C142.169 95.152 141.868 93.9228 141.524 92.6979C139.952 92.6422 138.144 92.5823 136.102 92.5189C134.06 92.4556 131.954 92.2964 129.784 92.0413C127.635 91.7622 125.508 91.3479 123.404 90.7967C121.321 90.2223 119.43 89.4091 117.734 88.3571C116.035 87.2828 114.627 85.9175 113.508 84.2609C112.389 82.6046 111.731 80.5433 111.532 78.0771C111.394 76.3663 111.58 74.7866 112.09 73.338C112.623 71.8877 113.378 70.5764 114.359 69.404C115.359 68.2078 116.538 67.1428 117.896 66.2092C119.275 65.2738 120.734 64.4777 122.27 63.8207C123.83 63.162 125.421 62.6349 127.046 62.2392C128.671 61.8437 130.251 61.5858 131.786 61.4655C135.145 61.2024 138.146 61.4927 140.789 62.3366C143.431 63.1804 145.688 64.3787 147.56 65.9313C149.452 67.4601 150.961 69.2423 152.087 71.2782C153.214 73.3139 153.941 75.3811 154.266 77.4796L139.148 80.3073C139.191 79.4543 139.19 78.6048 139.144 77.7588C139.119 76.8887 139.072 76.0316 139.004 75.1873C138.848 73.2543 138.557 71.3096 138.131 69.353C137.365 69.3011 136.602 69.2827 135.842 69.2975C135.105 69.3106 134.358 69.3467 133.601 69.406C130.598 69.6412 127.59 70.2457 124.579 71.2194C124.58 71.7783 124.602 72.3245 124.644 72.8577C124.687 73.3909 124.729 73.913 124.77 74.4241C124.896 75.9794 125.075 77.508 125.309 79.0102C125.562 80.4884 125.927 81.9689 126.405 83.4519C128.272 83.5517 130.295 83.6615 132.476 83.7812C134.656 83.8788 136.844 84.0764 139.039 84.3739C141.255 84.6475 143.392 85.0503 145.45 85.5822C147.528 86.0904 149.376 86.7949 150.993 87.6971C152.632 88.5745 153.976 89.6993 155.026 91.0697C156.075 92.4188 156.679 94.0709 156.836 96.026Z" fill="#242E3F"/>
<path d="M319.344 63.3654C317.612 69.4686 315.908 74.7132 314.234 79.0992C312.56 83.4852 311.06 87.0946 309.736 89.9263C308.184 93.239 306.705 96.0013 305.296 98.2149C305.318 98.7071 305.362 99.2746 305.428 99.9184C305.49 100.54 305.573 101.225 305.675 101.976C305.842 103.191 306.042 104.491 306.277 105.876C306.512 107.262 306.752 108.602 306.996 109.896C307.263 111.187 307.514 112.367 307.751 113.438C308.007 114.483 308.229 115.285 308.418 115.844L289.985 118.66C290.023 118.273 290.039 117.652 290.035 116.798C290.05 115.919 290.04 114.942 290.005 113.867C289.99 112.767 289.945 111.615 289.87 110.41C289.817 109.203 289.764 108.074 289.71 107.024C289.654 105.952 289.594 105.016 289.529 104.215C289.487 103.411 289.457 102.864 289.439 102.574C288.285 101.222 287.048 99.7463 285.725 98.1473C284.399 96.5269 283.019 94.8346 281.585 93.0704C280.146 91.2847 278.68 89.4572 277.185 87.5894C275.688 85.6985 274.212 83.8056 272.759 81.9093C271.303 79.9909 269.871 78.0917 268.466 76.2115C267.081 74.3284 265.773 72.5026 264.54 70.7342L283.463 69.0333C284.133 70.4726 284.966 72.1149 285.962 73.9602C286.958 75.8056 288.071 77.77 289.302 79.8536C290.53 81.9151 291.857 84.031 293.279 86.201C294.702 88.3718 296.164 90.4912 297.664 92.5619C298.857 89.4324 299.978 86.2677 301.027 83.0679C301.471 81.7037 301.927 80.2703 302.398 78.7676C302.867 77.265 303.312 75.7433 303.732 74.2024C304.149 72.6394 304.536 71.1031 304.892 69.5932C305.245 68.0613 305.54 66.5935 305.776 65.1898L319.344 63.3654Z" fill="#242E3F"/>
<path d="M411.805 97.4779C412.313 95.4561 412.718 93.3315 413.022 91.1025C413.347 88.8555 413.576 86.5631 413.71 84.2266C413.852 81.7537 413.895 79.2945 413.84 76.8489C413.786 74.3838 413.638 72.0109 413.397 69.7302C412.324 69.3538 411.15 69.0106 409.877 68.7006C408.778 68.4204 407.494 68.1488 406.022 67.8856C404.57 67.6236 402.986 67.4417 401.271 67.3399C400.94 67.3202 400.599 67.2999 400.248 67.2791C399.897 67.2583 399.545 67.2569 399.192 67.2751C399.173 67.6061 399.141 68.1708 399.095 68.9691C399.049 69.7675 398.993 70.7508 398.926 71.9192C398.879 73.0692 398.814 74.3743 398.73 75.8348C398.667 77.2769 398.599 78.7969 398.527 80.3947C398.455 81.9926 398.391 83.6299 398.334 85.3068C398.277 86.9834 398.231 88.6415 398.195 90.2807C398.16 91.9199 398.128 93.501 398.099 95.0229C398.091 96.5269 398.1 97.9145 398.125 99.1865C399.922 99.2148 401.638 99.1411 403.271 98.964C404.924 98.7885 406.382 98.5916 407.647 98.3742C409.128 98.1105 410.515 97.8118 411.805 97.4779ZM396.469 60.021C398.769 60.1575 401.121 60.4143 403.525 60.7915C405.948 61.1698 408.282 61.7284 410.528 62.4675C412.793 63.2076 414.919 64.1641 416.905 65.3371C418.892 66.5101 420.599 67.9498 422.027 69.6562C423.474 71.3639 424.58 73.3833 425.346 75.7148C426.113 78.0268 426.409 80.7113 426.234 83.7684C426.064 86.7283 425.523 89.334 424.612 91.5852C423.7 93.8365 422.522 95.7985 421.077 97.4711C419.652 99.1257 418.008 100.503 416.145 101.604C414.283 102.705 412.307 103.574 410.217 104.212C408.146 104.852 406.009 105.272 403.807 105.473C401.604 105.694 399.45 105.742 397.345 105.617C395.298 105.495 393.497 105.339 391.944 105.149C390.39 104.979 389.069 104.813 387.983 104.651C386.722 104.459 385.629 104.257 384.703 104.046C385.155 100.243 385.578 96.4482 385.972 92.6621C386.365 88.8751 386.672 85.064 386.892 81.228C387 79.3392 387.074 77.5363 387.114 75.8193C387.173 74.1034 387.211 72.4059 387.23 70.7267C387.248 69.0474 387.247 67.3574 387.228 65.6563C387.229 63.937 387.225 62.1197 387.217 60.2045C388.853 59.989 390.453 59.8886 392.017 59.9032C393.581 59.8984 395.065 59.9377 396.469 60.021Z" fill="#242E3F"/>
<path d="M213.657 172.113C214.137 170.17 214.52 168.128 214.808 165.986C215.116 163.826 198.759 161.791 198.886 159.546C199.02 157.169 215.635 154.638 215.582 152.287C215.531 149.918 215.392 147.638 215.164 145.446C214.147 145.084 213.036 144.754 211.832 144.456C210.791 144.187 209.575 143.926 208.182 143.673C206.807 143.421 205.308 143.246 203.684 143.148C203.371 143.13 203.048 143.11 202.716 143.09C202.384 143.07 202.051 143.069 201.716 143.086C201.699 143.404 201.668 143.947 201.625 144.714C201.581 145.482 201.528 146.427 201.464 147.549C201.42 148.655 201.359 149.909 201.279 151.313C201.219 152.698 201.155 154.159 201.087 155.695C201.019 157.231 200.958 158.804 200.904 160.416C200.85 162.027 200.806 163.621 200.772 165.196C200.739 166.771 200.709 168.291 200.681 169.754C200.674 171.199 200.682 172.533 200.706 173.755C202.408 173.782 204.032 173.711 205.578 173.541C207.142 173.372 208.523 173.183 209.72 172.974C211.123 172.721 212.435 172.434 213.657 172.113ZM199.139 136.115C201.316 136.246 203.542 136.493 205.818 136.855C208.112 137.219 210.321 137.755 212.447 138.466C214.592 139.177 216.604 140.096 218.485 141.224C220.365 142.351 221.981 143.735 223.333 145.375C224.703 147.016 223.247 149.617 223.972 151.858C224.698 154.079 210.885 156.608 210.719 159.546C210.558 162.391 224.195 163.822 223.333 165.986C222.47 168.149 223.802 170.499 222.433 172.106C221.084 173.697 219.529 175.02 217.765 176.078C216.002 177.136 214.131 177.972 212.153 178.585C210.192 179.199 208.17 179.603 206.085 179.797C204 180.009 201.961 180.055 199.968 179.935C198.03 179.818 196.326 179.668 194.855 179.486C193.384 179.322 192.134 179.162 191.105 179.007C189.912 178.822 188.877 178.628 188 178.425C188.428 174.77 188.829 171.123 189.201 167.485C189.574 163.845 189.864 160.182 190.072 156.496C190.175 154.681 190.245 152.948 190.283 151.298C190.339 149.649 190.375 148.017 190.393 146.403C190.41 144.789 190.409 143.165 190.39 141.53C190.391 139.878 190.388 138.132 190.381 136.291C191.929 136.084 193.444 135.987 194.924 136.001C196.405 135.997 197.81 136.034 199.139 136.115Z" fill="#242E3F"/>
<path d="M217.991 103.382C217.586 104.621 217.01 105.707 216.265 106.641C215.524 107.56 214.635 108.34 213.596 108.985C212.563 109.613 211.397 110.11 210.098 110.475C208.799 110.84 207.393 111.073 205.881 111.174L212.156 127.678L200.718 125.263L197.755 110.825C197.231 110.759 196.694 110.678 196.143 110.586C195.593 110.492 195.034 110.397 194.468 110.298C194.059 111.977 193.651 113.735 193.244 115.572C192.852 117.415 192.438 119.382 192 121.473L180.464 118.551C182.118 114.571 183.692 110.593 185.187 106.614C186.703 102.624 188.133 98.5795 189.474 94.4801C189.822 93.4153 190.131 92.4429 190.401 91.5637C190.687 90.6898 190.949 89.8346 191.187 88.9983C191.442 88.1663 191.689 87.306 191.927 86.4158C192.165 85.5265 192.429 84.5309 192.719 83.4294C194.835 83.4739 196.928 83.6957 198.999 84.0949C201.084 84.4993 203.193 85.0517 205.323 85.7524C206.388 86.1025 207.518 86.5527 208.71 87.104C209.904 87.6544 211.056 88.3058 212.165 89.0582C213.291 89.8149 214.322 90.6735 215.259 91.6322C216.211 92.5969 216.976 93.6755 217.554 94.8688C218.148 96.0672 218.504 97.3726 218.624 98.7841C218.743 100.197 218.532 101.729 217.991 103.382ZM200.506 89.7388C199.654 92.3444 198.845 94.8688 198.082 97.3101C197.34 99.7411 196.622 102.259 195.928 104.865L196.905 105.187C198.305 105.647 199.724 106.07 201.165 106.456C202.606 106.841 203.999 107.132 205.344 107.328C205.847 106.543 206.326 105.618 206.78 104.553C207.255 103.477 207.687 102.343 208.077 101.151C208.327 100.388 208.552 99.6179 208.754 98.8397C208.962 98.0454 209.142 97.2775 209.297 96.5363C209.456 95.7787 209.571 95.0511 209.641 94.3526C209.727 93.6592 209.776 93.0241 209.788 92.4471C209.577 92.3427 209.322 92.2323 209.025 92.1176C208.744 92.0072 208.421 91.8924 208.055 91.7718C207.324 91.5312 206.521 91.2941 205.647 91.0596C204.789 90.8302 203.97 90.6136 203.192 90.4107C202.297 90.1864 201.401 89.963 200.506 89.7388Z" fill="#242E3F"/>
<path d="M377.004 73.9338C377.159 75.185 377.1 76.3721 376.83 77.4951C376.559 78.6021 376.101 79.6501 375.456 80.6392C374.81 81.6123 373.992 82.5246 373.004 83.376C372.017 84.2273 370.882 85.0068 369.6 85.7146L381.865 97.5942L370.86 100.164L362.342 88.7372C361.857 88.893 361.353 89.0428 360.833 89.1874C360.312 89.3312 359.785 89.4759 359.248 89.6223C359.579 91.2589 359.944 92.965 360.341 94.7395C360.754 96.5131 361.198 98.4048 361.673 100.415L350.374 102.58C350.189 98.4194 349.935 94.2918 349.612 90.1958C349.303 86.0827 348.894 81.9565 348.386 77.818C348.254 76.7433 348.126 75.7659 348.002 74.8856C347.893 74.0034 347.772 73.1471 347.638 72.3169C347.519 71.4848 347.381 70.6305 347.225 69.754C347.069 68.8776 346.891 67.8979 346.693 66.8148C348.564 65.9874 350.488 65.3245 352.464 64.8263C354.456 64.326 356.529 63.9463 358.681 63.6873C359.757 63.5577 360.93 63.4897 362.201 63.4833C363.472 63.4769 364.747 63.5757 366.027 63.7796C367.323 63.9817 368.578 64.3109 369.791 64.7671C371.021 65.2214 372.133 65.8525 373.129 66.6604C374.141 67.4665 374.988 68.4632 375.672 69.6505C376.356 70.8379 376.799 72.2656 377.004 73.9338ZM356.099 69.1498C356.422 71.7803 356.75 74.3208 357.084 76.7711C357.432 79.2034 357.836 81.7021 358.297 84.2672L359.285 84.1483C360.699 83.9782 362.115 83.767 363.535 83.5147C364.955 83.2625 366.293 82.9467 367.551 82.5675C367.67 81.6741 367.709 80.6683 367.67 79.55C367.644 78.4136 367.557 77.2439 367.41 76.0409C367.316 75.271 367.197 74.5039 367.054 73.7398C366.909 72.9596 366.753 72.2135 366.584 71.5014C366.412 70.7732 366.215 70.089 365.989 69.4487C365.78 68.8065 365.562 68.2304 365.337 67.7204C365.108 67.7154 364.84 67.7232 364.533 67.7439C364.242 67.7627 363.912 67.7943 363.543 67.8388C362.803 67.9277 362.003 68.0484 361.142 68.201C360.296 68.3515 359.492 68.4973 358.726 68.6382C357.851 68.8087 356.975 68.9792 356.099 69.1498Z" fill="#242E3F"/>
<path d="M233.78 129.844C233.816 129.377 233.843 128.909 233.863 128.44C233.885 127.956 233.913 127.48 233.948 127.013C233.035 127.719 232.094 128.237 231.128 128.566C230.179 128.88 229.31 129.104 228.521 129.236C227.6 129.391 226.695 129.45 225.805 129.412C224.193 129.285 222.655 128.913 221.194 128.296C219.747 127.696 218.481 126.858 217.394 125.784C216.308 124.71 215.458 123.411 214.846 121.888C214.249 120.349 213.986 118.602 214.055 116.646C214.205 114.681 214.608 112.913 215.264 111.343C215.921 109.758 216.826 108.427 217.979 107.35C219.134 106.274 220.524 105.484 222.153 104.98C223.783 104.459 225.639 104.273 227.721 104.42C227.785 104.425 228.026 104.46 228.443 104.525C228.877 104.576 229.404 104.691 230.024 104.869C230.644 105.031 231.314 105.278 232.035 105.611C232.758 105.927 233.464 106.347 234.154 106.871L233.994 103.868L243.601 103.966C243.053 108.576 242.603 113.168 242.253 117.745C242.167 118.857 242.087 119.912 242.01 120.911C241.95 121.895 241.891 122.879 241.832 123.863C241.79 124.833 241.747 125.818 241.703 126.82C241.676 127.806 241.645 128.849 241.609 129.949L233.78 129.844ZM222.93 123.107C224.856 123.178 226.753 123.196 228.621 123.166C230.49 123.134 232.341 123.012 234.174 122.799C234.279 120.798 234.338 118.857 234.352 116.978C234.382 115.1 234.368 113.178 234.308 111.212L232.928 111.103C231.364 110.98 229.787 110.913 228.198 110.902C226.626 110.875 225.032 110.92 223.417 111.036C223.094 112.713 222.867 114.405 222.736 116.113C222.686 116.758 222.656 117.364 222.645 117.929C222.636 118.48 222.634 119.031 222.64 119.582C222.663 120.135 222.693 120.698 222.73 121.268C222.784 121.839 222.851 122.453 222.93 123.107Z" fill="#242E3F"/>
<path d="M338.047 107.826C337.971 107.315 337.886 106.805 337.793 106.296C337.696 105.769 337.61 105.25 337.534 104.738C336.723 105.722 335.839 106.51 334.88 107.1C333.936 107.67 333.056 108.124 332.239 108.46C331.287 108.851 330.328 109.135 329.361 109.312C327.595 109.571 325.85 109.547 324.126 109.239C322.421 108.948 320.854 108.358 319.422 107.467C317.991 106.577 316.758 105.387 315.724 103.899C314.706 102.39 313.994 100.574 313.589 98.4529C313.268 96.3009 313.269 94.3004 313.59 92.4515C313.908 90.5845 314.555 88.9307 315.533 87.4909C316.51 86.0503 317.813 84.8594 319.442 83.9185C321.068 82.9599 323.02 82.3052 325.295 81.9545C325.366 81.9441 325.634 81.9231 326.098 81.8912C326.577 81.8391 327.173 81.8333 327.882 81.8737C328.589 81.8965 329.372 81.9984 330.229 82.1795C331.084 82.3429 331.946 82.6223 332.817 83.0176L331.91 79.8253L342.269 77.581C342.81 82.6744 343.452 87.7255 344.197 92.7348C344.378 93.952 344.549 95.1076 344.712 96.2016C344.889 97.275 345.067 98.3484 345.245 99.421C345.437 100.475 345.632 101.546 345.83 102.634C346.044 103.702 346.266 104.832 346.497 106.023L338.047 107.826ZM324.722 103.232C326.81 102.836 328.857 102.394 330.859 101.903C332.862 101.412 334.823 100.827 336.744 100.15C336.366 97.9709 335.954 95.8686 335.508 93.8433C335.081 91.8146 334.594 89.7508 334.047 87.6501L332.537 87.8701C330.823 88.1209 329.11 88.4342 327.397 88.8109C325.7 89.167 323.996 89.6053 322.287 90.1257C322.349 92.0089 322.52 93.8853 322.798 95.7548C322.903 96.4601 323.019 97.1192 323.146 97.7313C323.271 98.3262 323.404 98.9194 323.546 99.5117C323.706 100.101 323.876 100.697 324.055 101.302C324.253 101.904 324.475 102.547 324.722 103.232Z" fill="#242E3F"/>
<path d="M278.691 101.409C278.9 103.663 278.78 105.719 278.332 107.579C277.901 109.417 277.175 111.01 276.153 112.358C275.129 113.704 273.827 114.785 272.246 115.6C270.664 116.416 268.835 116.917 266.758 117.104C265.563 117.175 264.374 117.119 263.192 116.935C262.693 116.853 262.164 116.746 261.605 116.614C261.063 116.462 260.509 116.277 259.942 116.055C259.392 115.813 258.856 115.525 258.333 115.19C257.81 114.856 257.318 114.454 256.856 113.987C257.195 117.066 257.549 120.107 257.918 123.111C258.288 126.132 258.674 129.034 259.077 131.816L248.751 132.092C248.655 128.882 248.516 125.512 248.336 121.983C248.155 118.452 247.945 114.898 247.705 111.319C247.483 107.721 247.225 104.153 246.935 100.615C246.663 97.0756 246.376 93.6824 246.076 90.4364L255.178 89.6164C255.173 90.7446 255.194 91.8608 255.242 92.9659C255.615 92.4771 256.031 92.0491 256.488 91.6802C256.962 91.2924 257.45 90.9483 257.95 90.6487C258.45 90.3491 258.954 90.0855 259.461 89.8578C259.986 89.6284 260.487 89.4383 260.965 89.286C262.078 88.9127 263.228 88.6542 264.417 88.5113C265.41 88.4214 266.435 88.4753 267.49 88.6705C268.545 88.8485 269.575 89.1644 270.583 89.6198C271.608 90.0726 272.573 90.659 273.477 91.3772C274.399 92.0945 275.224 92.9471 275.952 93.9366C276.681 94.9253 277.285 96.0441 277.764 97.2921C278.242 98.5213 278.551 99.8944 278.691 101.409ZM256.534 110.497C257.882 110.703 259.14 110.826 260.31 110.866C261.495 110.886 262.729 110.839 264.011 110.724C264.769 110.655 265.562 110.557 266.387 110.427C267.213 110.299 268.109 110.145 269.076 109.967C269.091 109.148 269.071 108.341 269.016 107.545C268.979 106.748 268.922 105.944 268.848 105.132C268.696 103.491 268.484 101.883 268.211 100.308C267.936 98.7139 267.606 97.1158 267.221 95.5142C265.496 95.5604 263.983 95.6418 262.683 95.759C262.051 95.8164 261.448 95.8891 260.873 95.9773C260.297 96.0466 259.714 96.1357 259.122 96.2435C258.548 96.3317 257.956 96.431 257.347 96.5397C256.756 96.6476 256.121 96.7691 255.441 96.9027C255.691 100.79 256.002 104.744 256.373 108.766L256.534 110.497Z" fill="#242E3F"/>
<path d="M170.507 84.4984C163.116 84.3873 158.463 87.6305 158.291 99.0273C158.101 111.596 164.834 112.554 172.225 112.664C182.078 112.813 184.752 106.005 183.55 100.422L177.981 100.338C177.538 101.298 179.163 107.205 171.03 106.654C165.847 106.303 164.205 104.689 164.289 99.1171C164.387 92.5396 165.711 89.9913 170.424 90.0615C175.564 90.1394 176.099 92.0748 176.813 92.615L173.347 95.1316L184.458 97.0105L185.47 86.7531L182.004 89.2689C180.309 88.0705 179.069 85.0552 170.507 84.4984Z" fill="#242E3F"/>
<path d="M436.106 123.406C436.338 121.972 434.381 118.234 434.381 118.234L431.483 125.415L427.204 130.959L429.244 133.379C429.244 133.379 435.875 124.839 436.106 123.406Z" fill="#F3D24F"/>
<path d="M422.951 139.656C423.912 138.021 420.433 134.169 420.433 134.169L415.919 142.925L406.819 146.126C406.819 146.126 407.89 150.786 410.765 151.435C413.64 152.084 421.99 141.292 422.951 139.656Z" fill="#F3D24F"/>
<path d="M408.161 139.596C409.95 140.117 412.751 136.036 412.751 136.036L405.097 133.047L398.937 125.735C398.937 125.735 394.915 126.995 395.137 131.008C395.359 135.021 406.373 139.074 408.161 139.596Z" fill="#F3D24F"/>
<path d="M430.133 129.436L426.327 130.998L430.49 136.616L428.253 143.449C428.253 143.449 433.013 143.477 434.368 141.961C435.723 140.445 430.133 129.436 430.133 129.436Z" fill="#F3D24F"/>
<path d="M434.399 118.15C432.534 115.522 424.337 117.811 420.877 118.815C419.357 116.184 414.267 109.227 411.71 110.355C409.153 111.483 408.557 118.06 408.201 122.174C404.825 122.708 396.51 125.928 395.831 128.533C395.152 131.137 401.731 135.245 405.805 136.536C405.938 140.057 405.885 148.287 408.255 148.794C410.696 149.318 415.864 144.07 418.712 140.979C422.014 141.756 428.875 144.99 431.45 142.661C434.026 140.333 430.076 133.497 428.456 130.077C430.851 126.819 436.326 120.868 434.399 118.15Z" fill="#FFF537"/>
<path d="M349.314 168.406C350.507 167.577 351.841 163.575 351.841 163.575L344.655 166.477L337.692 167.251L337.364 170.398C337.364 170.398 348.121 169.235 349.314 168.406Z" fill="#DB7372"/>
<path d="M328.474 170.233C330.32 169.788 330.679 164.613 330.679 164.613L321.237 167.447L312.613 163.129C312.613 163.129 309.999 167.134 311.529 169.651C313.057 172.169 326.629 170.678 328.474 170.233Z" fill="#DB7372"/>
<path d="M318.247 159.557C319.114 161.205 323.999 160.384 323.999 160.384L320.836 152.808L321.826 143.302C321.826 143.302 318.125 141.286 315.389 144.232C312.653 147.178 317.382 157.91 318.247 159.557Z" fill="#DB7372"/>
<path d="M340.82 168.298L337.053 166.647L335.896 173.54L329.421 176.678C329.421 176.678 332.707 180.119 334.739 180.04C336.772 179.961 340.82 168.298 340.82 168.298Z" fill="#DB7372"/>
<path d="M351.913 163.528C352.512 160.362 345.172 156.059 342.045 154.268C342.885 151.349 344.362 142.859 341.774 141.804C339.185 140.749 334.034 144.887 330.823 147.489C328.095 145.433 320.002 141.691 317.654 143.012C315.307 144.333 316.916 151.913 318.814 155.74C316.371 158.28 310.406 163.956 311.685 166.013C313.004 168.131 320.372 168.201 324.576 168.103C326.309 171.016 328.743 178.193 332.21 178.428C335.676 178.663 337.857 171.077 339.196 167.537C343.206 166.997 351.294 166.8 351.913 163.528Z" fill="#F68887"/>
<path d="M409.295 40.0058C410.488 39.1769 411.822 35.1742 411.822 35.1742L404.636 38.0775L397.673 38.8508L397.344 41.9979C397.344 41.9979 408.102 40.8345 409.295 40.0058Z" fill="#5698C7"/>
<path d="M388.454 41.8329C390.3 41.3881 390.659 36.2128 390.659 36.2128L381.217 39.0475L372.593 34.7283C372.593 34.7283 369.979 38.7338 371.509 41.2515C373.038 43.7692 386.609 42.2777 388.454 41.8329Z" fill="#5698C7"/>
<path d="M378.227 31.1577C379.094 32.8051 383.979 31.9846 383.979 31.9846L380.816 24.4077L381.806 14.9024C381.806 14.9024 378.105 12.886 375.369 15.8321C372.633 18.7782 377.362 29.5103 378.227 31.1577Z" fill="#5698C7"/>
<path d="M400.804 39.8977L397.036 38.2471L395.88 45.1402L389.404 48.2773C389.404 48.2773 392.69 51.7182 394.723 51.6395C396.755 51.5607 400.804 39.8977 400.804 39.8977Z" fill="#5698C7"/>
<path d="M411.893 35.1276C412.492 31.9619 405.152 27.6587 402.025 25.8687C402.865 22.9492 404.342 14.4584 401.754 13.4038C399.165 12.3492 394.014 16.4874 390.803 19.0885C388.075 17.0323 379.982 13.2909 377.634 14.6117C375.287 15.9325 376.896 23.5133 378.794 27.3397C376.351 29.8799 370.386 35.5558 371.665 37.6124C372.984 39.731 380.352 39.8014 384.556 39.7028C386.289 42.6161 388.723 49.7933 392.19 50.028C395.656 50.2628 397.837 42.6765 399.176 39.1368C403.186 38.5967 411.274 38.4002 411.893 35.1276Z" fill="#91CCF4"/>
<path d="M58.2946 70.8348C55.3491 70.5522 52.3964 70.4402 49.4558 70.1006C47.545 69.8799 45.4588 69.8475 43.5816 69.4486C43.163 69.3598 44.2611 69.5901 44.3467 69.6032C44.8902 69.6856 45.43 69.5876 45.8643 69.9336" stroke="#956F43" stroke-width="3" stroke-linecap="round"/>
<path d="M51.7529 70.8946C51.4656 72.301 51.2949 73.7277 50.9964 75.1303C50.8989 75.5883 50.6819 75.9794 51.1953 75.559" stroke="#956F43" stroke-width="3" stroke-linecap="round"/>
<path d="M56.3525 77.2339C53.2021 76.8868 50.0338 76.4257 46.8743 76.1707C46.1875 76.1153 45.5006 76.062 44.8135 76.0067C44.7486 76.0015 43.2359 76.0522 43.8718 75.8872" stroke="#956F43" stroke-width="3" stroke-linecap="round"/>
<path d="M43.1341 79.354C45.4534 79.5377 47.2716 80.0799 49.3831 80.9713C50.5691 81.472 51.2676 82.3423 51.095 83.7586C50.643 87.4687 44.3037 87.0382 42.1343 87.0758" stroke="#956F43" stroke-width="3" stroke-linecap="round"/>
<path d="M46.8737 80.8729C46.481 82.7174 46.2417 84.7884 46.2188 86.676" stroke="#956F43" stroke-width="3" stroke-linecap="round"/>
<path d="M49.8282 94.3714C50.8076 88.7458 44.4374 89.9502 42.6396 90.8439C39.4909 93.6498 43.077 96.4541 44.3369 95.9567" stroke="#956F43" stroke-width="3" stroke-linecap="round"/>
<path d="M52.7101 100.024C49.8114 100.277 46.8457 100.344 43.6249 99.6128C42.7968 99.4022 40.6047 98.9656 39.7698 98.7782M49.9832 105.078C48.9553 104.941 46.6542 106.975 44.9809 100.446M45.1282 100.586C44.0641 106.688 43.115 105.025 40.0503 103.906" stroke="#956F43" stroke-width="3" stroke-linecap="round"/>
<path d="M46.501 119.843C49.147 119.698 50.1022 114.931 47.8383 112.912C46.7589 111.949 44.2288 109.679 39.0629 112.115C35.4788 114.443 36.9725 118.22 40.4417 118.887" stroke="#956F43" stroke-width="3" stroke-linecap="round"/>
<path d="M46.3085 124.14C44.5396 123.602 40.08 122.417 38.3439 121.785C38.111 121.7 37.2797 121.243 37.0363 121.491C36.334 122.205 36.0413 124.7 36.0881 125.555" stroke="#956F43" stroke-width="3" stroke-linecap="round"/>
<path d="M41.0489 129.999C39.4702 127.746 35.9193 127.996 35.4514 129.643C34.0122 134.708 37.8369 134.032 39.9525 133.487" stroke="#956F43" stroke-width="3" stroke-linecap="round"/>
<path d="M41.2462 138.666C38.701 138.126 31.0371 136.642 33.5823 137.183" stroke="#956F43" stroke-width="3" stroke-linecap="round"/>
<path d="M40.9106 138.884C41.0325 140.279 41.7943 143.089 39.6268 143.25C38.0259 143.369 37.6244 142.235 37.1914 140.832C37.0909 140.506 36.7577 137.601 36.8531 139.279C36.934 140.701 36.6915 141.807 35.4036 142.643C32.9213 144.253 30.8239 141.362 31.3335 138.968C31.4997 138.187 31.9863 137.658 32.4434 137.086" stroke="#956F43" stroke-width="3" stroke-linecap="round"/>
<path d="M49.6423 180.797C49.6043 180.796 48.8795 180.416 47.4679 179.661C47.0027 180.297 46.5736 180.835 46.181 181.276C45.8031 181.726 45.4573 182.087 45.1435 182.357C44.9109 182.42 44.6325 182.357 44.3081 182.17C43.7035 181.821 43.439 181.462 43.5146 181.094C43.8465 180.519 44.4838 179.688 45.4264 178.602C44.8955 178.295 44.5269 178.083 44.3205 177.964C44.1225 177.83 43.9573 177.725 43.8245 177.648C43.7065 177.581 43.5517 177.492 43.36 177.38C43.1916 177.264 42.8641 177.065 42.3775 176.784C42.2153 176.691 42.0217 176.55 41.7966 176.361C41.5947 176.166 41.3897 175.959 41.1816 175.741C40.9968 175.517 40.8193 175.297 40.6492 175.081C40.4939 174.873 40.3975 174.7 40.3601 174.561C40.3925 174.402 40.4598 174.234 40.5619 174.058C40.8258 173.602 41.2723 173.152 41.9015 172.71C42.3945 172.503 43.2302 171.924 44.4086 170.974L47.8789 169.205C48.103 169.157 48.3403 169.205 48.5909 169.35C49.2102 169.707 49.3709 170.144 49.0729 170.659C49.0645 170.674 48.9723 170.749 48.7963 170.882C48.6205 171.017 48.3736 171.189 48.056 171.399C47.753 171.617 47.3876 171.857 46.9599 172.121C46.5406 172.371 46.0834 172.617 45.5881 172.862L43.0486 174.756C43.0673 174.826 43.1209 174.886 43.2094 174.937C43.3274 175.005 43.4244 175.042 43.5004 175.046C43.5849 175.036 43.6229 175.038 43.6143 175.053C43.6966 175.08 43.7746 175.115 43.8483 175.158C43.9453 175.194 44.038 175.238 44.1265 175.289C44.2887 175.382 44.4497 175.495 44.6096 175.626C44.7928 175.752 44.9864 175.893 45.1906 176.05C45.6035 176.288 46.1029 176.546 46.6887 176.826L47.8046 175.201C47.8665 175.06 47.9283 174.919 47.9902 174.778C48.0669 174.645 48.1435 174.513 48.2201 174.38C48.4074 174.056 48.6083 173.759 48.8227 173.491C49.052 173.229 49.2645 172.93 49.4603 172.591C49.5114 172.503 49.5934 172.344 49.7063 172.115C49.8278 171.87 49.9462 171.614 50.0614 171.347C50.1913 171.089 50.3085 170.852 50.413 170.637C50.5174 170.422 50.5782 170.3 50.5952 170.27C50.9555 169.987 51.3125 169.948 51.6664 170.152C51.7169 170.201 51.7716 170.242 51.8306 170.276C51.8811 170.325 51.9506 170.375 52.039 170.425C52.1275 170.477 52.2264 170.543 52.3359 170.626C52.3461 170.711 52.3168 170.881 52.2481 171.136C52.2027 171.384 52.1285 171.666 52.0257 171.98C51.9315 172.278 51.8213 172.588 51.6953 172.908C51.5778 173.213 51.4595 173.469 51.3403 173.675C51.2126 173.896 51.0562 174.15 50.8713 174.436C50.6863 174.722 50.4502 175.096 50.163 175.56C50.1437 175.627 50.0702 175.771 49.9425 175.992C49.8233 176.198 49.6627 176.459 49.4607 176.775C49.2586 177.09 49.0152 177.461 48.7303 177.885L48.9515 178.013C49.1579 178.132 49.3779 178.279 49.6116 178.453C49.8685 178.621 50.158 178.817 50.4801 179.042C50.7386 179.309 50.7275 179.685 50.4465 180.172C50.2422 180.525 49.9741 180.734 49.6423 180.797ZM56.2574 187.706C56.1666 187.693 56.0759 187.68 55.9851 187.667C55.9029 187.639 55.8175 187.6 55.729 187.549L55.6406 187.498L55.0876 187.179C54.9845 187.12 54.8812 187.06 54.778 187.001C54.698 186.935 54.5991 186.868 54.4812 186.8C54.3632 186.732 54.241 186.671 54.1145 186.617C53.9965 186.55 53.8712 186.478 53.7385 186.401C53.5763 186.307 53.3764 186.143 53.1388 185.908C52.9097 185.658 52.5814 185.41 52.1538 185.163C52.0653 185.112 51.9726 185.068 51.8756 185.032C51.7872 184.981 51.6913 184.926 51.5881 184.866C51.4849 184.807 50.9431 184.366 49.9626 183.545C49.8403 183.043 49.8685 182.637 50.0472 182.328C50.1919 182.077 50.3925 181.849 50.649 181.643C51.1436 181.536 51.5507 181.427 51.87 181.317C52.1894 181.207 52.4359 181.103 52.6095 181.006C53.1598 180.735 53.6845 180.507 54.1837 180.324C54.7062 180.134 55.2128 179.955 55.7035 179.786C55.788 179.776 55.9128 179.73 56.0779 179.649C56.2662 179.561 56.4662 179.47 56.6778 179.376C56.8894 179.282 57.101 179.188 57.3126 179.094C57.5327 178.985 57.7168 178.905 57.8649 178.853C58.4951 178.647 58.9593 178.286 59.2572 177.771C59.5466 177.27 59.4333 176.87 58.9173 176.573C58.7403 176.47 58.5242 176.386 58.269 176.317C58.0223 176.233 57.7702 176.177 57.5127 176.146C57.2698 176.124 57.026 176.12 56.7809 176.136C56.5359 176.152 56.3308 176.201 56.1658 176.282C56.0387 176.366 55.8639 176.481 55.6415 176.628C55.4339 176.783 55.1998 176.933 54.9394 177.077C54.6876 177.206 54.4337 177.306 54.1778 177.374C53.9305 177.428 53.711 177.4 53.5193 177.289C53.2392 177.128 53.0481 176.88 52.9462 176.546C52.8441 176.213 52.8825 175.891 53.0613 175.582C53.1464 175.435 53.3288 175.255 53.6085 175.042C53.903 174.84 54.2196 174.649 54.5583 174.471C54.9202 174.287 55.2725 174.137 55.6151 174.02C55.9725 173.912 56.261 173.872 56.4805 173.901C57.7624 173.894 59.0079 174.239 60.217 174.936C60.6888 175.209 61.037 175.507 61.2615 175.833C61.5007 176.167 61.6481 176.508 61.7035 176.854C61.7591 177.2 61.7343 177.55 61.6293 177.902C61.5389 178.262 61.4001 178.603 61.2128 178.928C60.6765 179.856 59.9494 180.468 59.0316 180.763C58.7672 180.846 58.5134 180.945 58.27 181.06C58.0266 181.175 57.7949 181.287 57.5748 181.396C57.3779 181.498 57.1927 181.598 57.0191 181.694C56.854 181.776 56.7323 181.833 56.654 181.867C56.4407 181.861 55.5618 182.209 54.017 182.908L53.1099 183.151C53.6113 183.441 54.0144 183.712 54.3196 183.967C54.6479 184.215 54.8206 184.324 54.8376 184.295C55.0883 184.44 55.3906 184.614 55.7444 184.818C56.1216 185.016 56.546 185.251 57.0178 185.523C57.2243 185.642 57.3172 185.873 57.2967 186.214C57.2994 186.55 57.2157 186.865 57.0454 187.159C56.8155 187.557 56.5529 187.74 56.2574 187.706ZM65.38 192.968C65.2892 192.955 65.1985 192.941 65.1077 192.929C65.0255 192.901 64.9401 192.862 64.8516 192.81L64.7632 192.759L64.2102 192.441C64.107 192.381 64.0038 192.322 63.9006 192.262C63.8206 192.196 63.7216 192.129 63.6037 192.061C63.4857 191.993 63.3636 191.932 63.2371 191.879C63.1191 191.812 62.9937 191.739 62.8611 191.663C62.6989 191.569 62.499 191.405 62.2614 191.17C62.0323 190.92 61.704 190.671 61.2764 190.425C61.1879 190.373 61.0952 190.33 60.9982 190.293C60.9097 190.242 60.8139 190.187 60.7107 190.128C60.6074 190.068 60.0656 189.628 59.0851 188.807C58.9628 188.305 58.991 187.899 59.1698 187.589C59.3145 187.339 59.5151 187.11 59.7716 186.905C60.2661 186.798 60.6732 186.688 60.9926 186.578C61.312 186.468 61.5585 186.365 61.732 186.268C62.2824 185.997 62.8071 185.769 63.3063 185.585C63.8288 185.396 64.3353 185.217 64.8261 185.047C64.9106 185.038 65.0353 184.992 65.2004 184.91C65.3888 184.822 65.5888 184.732 65.8003 184.637C66.012 184.543 66.2235 184.45 66.4352 184.356C66.6553 184.247 66.8394 184.167 66.9874 184.114C67.6177 183.908 68.0817 183.548 68.3798 183.032C68.6691 182.531 68.5559 182.132 68.0398 181.834C67.8628 181.732 67.6468 181.647 67.3915 181.578C67.1448 181.495 66.8928 181.438 66.6352 181.407C66.3924 181.385 66.1486 181.382 65.9035 181.397C65.6584 181.414 65.4534 181.462 65.2883 181.544C65.1612 181.628 64.9865 181.742 64.7641 181.89C64.5564 182.045 64.3224 182.194 64.062 182.339C63.8102 182.468 63.5563 182.568 63.3004 182.636C63.0531 182.69 62.8336 182.662 62.6419 182.55C62.3618 182.39 62.1707 182.141 62.0687 181.807C61.9667 181.474 62.0051 181.153 62.1838 180.843C62.269 180.696 62.4514 180.517 62.7311 180.304C63.0255 180.101 63.3421 179.911 63.6809 179.733C64.0428 179.548 64.3951 179.399 64.7377 179.281C65.095 179.174 65.3835 179.133 65.603 179.162C66.885 179.155 68.1304 179.501 69.3395 180.197C69.8113 180.47 70.1596 180.769 70.3841 181.094C70.6233 181.429 70.7707 181.77 70.8261 182.116C70.8817 182.462 70.8568 182.811 70.7518 183.163C70.6615 183.523 70.5227 183.865 70.3354 184.19C69.7991 185.118 69.072 185.729 68.1542 186.025C67.8898 186.108 67.6359 186.207 67.3926 186.322C67.1492 186.437 66.9174 186.549 66.6973 186.658C66.5005 186.76 66.3152 186.86 66.1416 186.955C65.9766 187.037 65.8549 187.095 65.7766 187.128C65.5633 187.123 64.6843 187.47 63.1396 188.17L62.2325 188.413C62.7338 188.702 63.137 188.974 63.4421 189.228C63.7704 189.476 63.9431 189.586 63.9601 189.557C64.2108 189.702 64.5131 189.875 64.8669 190.08C65.2441 190.278 65.6685 190.512 66.1404 190.784C66.3468 190.903 66.4398 191.134 66.4192 191.476C66.422 191.812 66.3383 192.127 66.168 192.421C65.9381 192.818 65.6754 193.001 65.38 192.968ZM74.4946 196.457C74.2784 196.627 74.0444 196.777 73.7924 196.906C73.5553 197.045 73.2655 197.173 72.9228 197.289C72.5887 197.391 72.1785 197.489 71.6924 197.581C71.2063 197.673 70.6019 197.767 69.8792 197.861C68.1413 197.84 66.9922 197.668 66.4318 197.346C66.1369 197.175 66.0216 197.001 66.0858 196.822C66.1646 196.651 66.285 196.426 66.4467 196.146C66.5829 195.911 66.7715 195.754 67.0126 195.677C67.2537 195.6 67.5348 195.557 67.8559 195.545C68.1769 195.533 68.5348 195.544 68.9296 195.575C69.3244 195.606 69.7509 195.616 70.2092 195.606C70.2914 195.634 70.4287 195.634 70.621 195.608C70.828 195.59 71.0912 195.526 71.4106 195.415L72.7908 194.915C73.3349 194.62 73.7218 194.273 73.9517 193.876C74.1645 193.507 74.2634 193.132 74.2481 192.751C74.2562 192.363 74.1903 192.001 74.0503 191.664C73.9103 191.328 73.7183 191.031 73.4745 190.772C73.254 190.508 73.0257 190.308 72.7898 190.171C72.6276 190.078 72.4526 190.006 72.2649 189.957C72.1005 189.902 71.9371 189.826 71.7749 189.733C71.6864 189.683 71.5623 189.591 71.4024 189.459C71.2571 189.337 71.1247 189.191 71.0051 189.024C70.8855 188.857 70.7934 188.676 70.7288 188.482C70.6789 188.296 70.7051 188.114 70.8073 187.938C70.8753 187.82 70.9338 187.736 70.9826 187.686L71.3937 187.128C71.4874 186.965 71.6499 186.735 71.8814 186.437C72.1277 186.147 72.374 185.856 72.6202 185.566C72.8665 185.276 73.0799 185.026 73.2603 184.815C73.4555 184.614 73.5488 184.521 73.5404 184.536C73.9235 183.873 74.239 183.446 74.4869 183.255C74.7496 183.073 75.0062 183.054 75.2569 183.198C75.596 183.394 75.9054 183.641 76.1849 183.94C76.4644 184.239 76.7148 184.452 76.936 184.579C76.9802 184.605 77.0097 184.622 77.0245 184.63C77.0624 184.632 77.1036 184.646 77.1478 184.672C77.1773 184.689 77.3162 184.789 77.5646 184.971C77.813 185.154 78.0835 185.349 78.3761 185.557C78.6687 185.765 78.9245 185.952 79.1433 186.117C79.377 186.291 79.4938 186.378 79.4938 186.378C79.8408 186.696 79.8527 187.135 79.5291 187.695C79.1886 188.284 78.7708 188.446 78.2758 188.18C78.1305 188.057 77.9179 187.915 77.6377 187.753C77.3661 187.577 77.0428 187.371 76.668 187.135C76.5353 187.058 76.3343 186.913 76.0649 186.699C75.8188 186.478 75.6294 186.33 75.4967 186.253C75.364 186.176 75.2406 186.135 75.1266 186.128C74.9229 186.344 74.682 186.608 74.404 186.919C74.1345 187.216 73.8394 187.556 73.5188 187.941C73.8433 188.127 74.1843 188.353 74.5421 188.619C74.9148 188.893 75.249 189.233 75.5449 189.639C75.8494 190.031 76.0881 190.503 76.2609 191.054C76.4337 191.605 76.5016 192.253 76.4645 192.998C76.3996 193.825 76.2308 194.474 75.9584 194.944C75.7116 195.372 75.2236 195.876 74.4946 196.457Z" fill="#956F43"/>
<path d="M61.5849 66.506C58.9852 66.3234 43.1339 67.2498 40.5343 67.0673C37.9346 66.8848 21.9997 145.294 24.6399 145.903C27.2803 146.511 44.6063 150.239 47.1246 149.57C49.643 148.9 64.1844 66.6886 61.5849 66.506Z" stroke="#956F43" stroke-width="2"/>
<path fill-rule="evenodd" clip-rule="evenodd" d="M303.783 170.26L291.807 157.442L289.057 154.438L289.112 154.497C287.801 154.823 287.166 154.689 285.695 154.876C284.226 155.063 282.761 155.208 281.301 155.311L280.127 154.441C279.786 151.784 279.653 150.14 279.421 147.625C279.206 145.093 279 142.467 278.804 139.751L278.816 137.267L279.088 134.525C277.796 134.68 276.532 134.881 275.296 135.127C273.241 135.539 271.233 136.121 269.27 136.876C269.418 137.998 269.55 139.013 269.665 139.92C269.781 140.829 269.877 141.713 269.956 142.573C270.051 143.432 270.132 144.317 270.197 145.228C270.279 146.138 270.361 147.149 270.441 148.259C270.749 152.533 270.956 156.79 271.061 161.03C271.182 165.251 271.23 169.502 271.206 173.783L282.914 172.133C282.53 170.045 282.172 168.08 281.839 166.238C281.522 164.396 281.236 162.626 280.981 160.928C281.539 160.806 282.089 160.684 282.63 160.563C283.171 160.441 283.696 160.313 284.202 160.177L292.356 172.34L303.783 170.26Z" fill="#242E3F"/>
<path d="M280.127 154.441L281.301 155.311C282.761 155.208 284.226 155.063 285.695 154.876C287.166 154.689 287.801 154.823 289.112 154.497C289.279 153.586 290.127 152.165 290.144 151.015C290.176 149.847 290.148 148.642 290.058 147.399C290 146.604 289.918 145.81 289.811 145.019C289.703 144.21 289.581 143.436 289.444 142.696C289.306 141.94 289.138 141.228 288.94 140.559C288.888 140.369 288.836 140.185 288.783 140.007L282.312 151.71L280.127 154.441Z" fill="#242E3F"/>
<path d="M293.083 135.945C292.527 135.704 291.961 135.489 291.384 135.301L288.783 140.007C288.836 140.185 288.888 140.369 288.94 140.559C289.138 141.228 289.306 141.94 289.444 142.696C289.581 143.436 289.703 144.21 289.811 145.019C289.918 145.81 290 146.604 290.058 147.399C290.148 148.642 290.176 149.847 290.144 151.015C290.127 152.165 289.279 153.586 289.112 154.497L298.371 140.381C297.821 139.499 297.167 138.725 296.411 138.058C295.43 137.178 294.321 136.474 293.083 135.945Z" fill="#242E3F"/>
<path d="M293.083 135.945C294.321 136.474 295.43 137.178 296.411 138.058C297.167 138.725 297.821 139.499 298.371 140.381L303.847 131.544L292.402 133.46L291.384 135.301C291.961 135.489 292.527 135.704 293.083 135.945Z" fill="#242E3F"/>
<path fill-rule="evenodd" clip-rule="evenodd" d="M264.783 175.26L252.807 162.442L250.057 159.438L250.112 159.497C248.801 159.823 248.166 159.689 246.695 159.876C245.226 160.063 243.761 160.208 242.301 160.311L241.127 159.441C240.786 156.784 240.653 155.14 240.421 152.625C240.206 150.093 240 147.467 239.804 144.751L239.816 142.267L240.088 139.525C238.796 139.68 237.532 139.881 236.296 140.127C234.241 140.539 232.233 141.121 230.27 141.876C230.418 142.998 230.55 144.013 230.665 144.92C230.781 145.829 230.877 146.713 230.956 147.573C231.051 148.432 231.132 149.317 231.197 150.228C231.279 151.138 231.361 152.149 231.441 153.259C231.749 157.533 231.956 161.79 232.061 166.03C232.182 170.251 232.23 174.502 232.206 178.783L243.914 177.133C243.53 175.045 243.172 173.08 242.839 171.238C242.522 169.396 242.236 167.626 241.981 165.928C242.539 165.806 243.089 165.684 243.63 165.563C244.171 165.441 244.696 165.313 245.202 165.177L253.356 177.34L264.783 175.26Z" fill="#242E3F"/>
<path d="M241.127 159.441L242.301 160.311C243.761 160.208 245.226 160.063 246.695 159.876C248.166 159.689 248.801 159.823 250.112 159.497C250.279 158.586 251.127 157.165 251.144 156.015C251.176 154.847 251.148 153.642 251.058 152.399C251 151.604 250.918 150.81 250.811 150.019C250.703 149.21 250.581 148.436 250.444 147.696C250.306 146.94 250.138 146.228 249.94 145.559C249.888 145.369 249.836 145.185 249.783 145.007L243.312 156.71L241.127 159.441Z" fill="#242E3F"/>
<path d="M254.083 140.945C253.527 140.704 252.961 140.489 252.384 140.301L249.783 145.007C249.836 145.185 249.888 145.369 249.94 145.559C250.138 146.228 250.306 146.94 250.444 147.696C250.581 148.436 250.703 149.21 250.811 150.019C250.918 150.81 251 151.604 251.058 152.399C251.148 153.642 251.176 154.847 251.144 156.015C251.127 157.165 250.279 158.586 250.112 159.497L259.371 145.381C258.821 144.499 258.167 143.725 257.411 143.058C256.43 142.178 255.321 141.474 254.083 140.945Z" fill="#242E3F"/>
<path d="M254.083 140.945C255.321 141.474 256.43 142.178 257.411 143.058C258.167 143.725 258.821 144.499 259.371 145.381L264.847 136.544L253.402 138.46L252.384 140.301C252.961 140.489 253.527 140.704 254.083 140.945Z" fill="#242E3F"/>
</svg>
