<svg width="553" height="312" viewBox="0 0 553 312" fill="none" xmlns="http://www.w3.org/2000/svg">
<mask id="mask0_222_312" style="mask-type:luminance" maskUnits="userSpaceOnUse" x="0" y="0" width="553" height="312">
<path d="M0 0H553V311.013H0V0Z" fill="white"/>
</mask>
<g mask="url(#mask0_222_312)">
<path fill-rule="evenodd" clip-rule="evenodd" d="M-71.1 157.456C-71.1 157.456 -67.7474 161.656 -62.0995 168.403C-41.9782 192.441 -15.0686 234.294 15.5223 248.192C54.7002 265.99 95.3761 264.679 95.3761 264.679C95.3761 264.679 122.796 122.769 124.195 125C125.594 127.232 76.1586 105.519 50.1024 98.8975C24.046 92.2761 -5.46789 67.1994 -13.428 59.2405" fill="white"/>
<path d="M-71.1 157.747C-71.1 157.747 -23.4286 230.459 15.8134 248.192C55.0557 265.927 95.8663 264.201 95.8663 264.201L129.941 126.067C129.941 126.067 47.7213 110.168 -13.1369 59.2405" stroke="#17171D" stroke-width="5" stroke-linecap="square" stroke-linejoin="round"/>
<path fill-rule="evenodd" clip-rule="evenodd" d="M126.392 124.591C117.339 123.94 98.0422 121.659 81.1445 186.586C64.2466 251.513 87.01 264.779 94.9701 263.243C102.93 261.707 118.292 255.564 143.15 196.64C168.008 137.716 135.445 125.242 126.392 124.591Z" fill="white" stroke="#17171D" stroke-width="5" stroke-linecap="round" stroke-linejoin="round"/>
<mask id="mask1_222_312" style="mask-type:luminance" maskUnits="userSpaceOnUse" x="154" y="45" width="399" height="132">
<path fill-rule="evenodd" clip-rule="evenodd" d="M187.218 53.9209C190.052 52.0155 231.407 26.6931 328.47 73.7428C420.154 118.187 513.016 67.0413 529.709 56.8081C530.262 56.4674 531.184 57.3519 530.884 57.9261L514.012 90.419C513.745 90.9312 514.104 91.5429 514.681 91.5526C519.032 91.632 534.206 91.8725 551.197 91.7213C551.9 91.7134 552.297 92.518 551.781 92.9993C540.324 103.717 459.466 177.172 396.234 176.9C328.026 176.605 291.156 160.515 247.592 148.281C204.693 136.235 180.348 132.004 154.05 136.253C154.05 136.253 180.142 72.7384 185.929 57.3169C186.736 55.1624 187.205 53.9304 187.218 53.9209Z" fill="white"/>
</mask>
<g mask="url(#mask1_222_312)">
<path fill-rule="evenodd" clip-rule="evenodd" d="M187.218 53.9209C190.052 52.0155 231.407 26.6931 328.47 73.7428C420.154 118.187 513.016 67.0413 529.709 56.8081C530.262 56.4674 531.184 57.3519 530.884 57.9261L514.012 90.419C513.745 90.9312 514.104 91.5429 514.681 91.5526C519.032 91.632 534.206 91.8725 551.197 91.7213C551.9 91.7134 552.297 92.518 551.781 92.9993C540.324 103.717 459.466 177.172 396.234 176.9C328.026 176.605 291.156 160.515 247.592 148.281C204.693 136.235 180.348 132.004 154.05 136.253C154.05 136.253 180.142 72.7384 185.929 57.3169C186.736 55.1624 187.205 53.9304 187.218 53.9209Z" fill="#FE8791" stroke="#17171D" stroke-width="9"/>
</g>
<path fill-rule="evenodd" clip-rule="evenodd" d="M211.497 70.68C210.436 76.5269 208.406 86.5701 204.174 99.5412C195.411 120.22 210.219 116.904 214.491 108.316C217.023 103.574 219.628 98.4275 219.628 98.4275L232.898 103.581C232.898 103.581 231.802 109.629 230.686 114.631C226.455 127.602 238.635 126.096 242.044 116.515C243.565 111.587 250.635 91.0133 252.608 80.1261C255.541 73.1663 245.633 66.7571 241.086 78.0045C238.665 82.1417 234.725 91.2076 234.725 91.2076C234.725 91.2076 223.767 87.1068 223.639 86.6667C223.215 85.5474 224.573 82.6715 224.642 79.9766C224.056 61.3263 212.923 62.817 211.497 70.68Z" fill="white"/>
<path fill-rule="evenodd" clip-rule="evenodd" d="M271.152 84.5747C274.565 77.8541 278.453 76.7419 281.341 77.0615C282.589 77.1693 284.272 79.7109 285.557 82.1512C289.731 98.202 281.998 127.656 280.646 129.631C275.987 137.085 267.871 135.636 270.992 127.575C272.453 122.675 274.015 118.223 274.015 118.223L263.508 117.005C255.18 133.013 247.784 126.262 252.093 119.35C256.705 111.251 266.536 93.5171 271.152 84.5747ZM267.589 105.18L277.944 106.993C277.944 106.993 280.9 88.7622 277.655 90.6733L267.589 105.18Z" fill="white"/>
<path fill-rule="evenodd" clip-rule="evenodd" d="M324.013 100.207C325.399 96.3494 322.587 87.5996 312.619 89.0137C298.189 89.0557 293.088 114.31 293.088 114.31C293.088 114.31 290.635 126.542 294.384 134.902C297.788 142.961 306.133 143.023 307.752 143.234C317.234 140.428 314.019 134.105 312.4 133.895C310.34 133.78 307.541 134.107 305.292 132.255C301.474 129.152 302.191 121.322 303.042 117.112C305.029 110.035 309.402 95.9825 316.261 99.4552C320.363 104.744 323.268 102.335 324.013 100.207Z" fill="white"/>
<path fill-rule="evenodd" clip-rule="evenodd" d="M332.428 99.6141C329.857 107.349 333.001 115.522 326.596 130.241C325.065 133.836 321.329 140.425 320.884 141.361C317.343 148.002 324.461 151.955 332.371 140.359C334.288 137.707 336.416 130.907 336.416 130.907L339.836 130.537C339.836 130.537 342.767 143.696 343.431 149.331C344.142 154.769 353.758 157.901 353.942 147.236C353.614 143.579 352.362 138.631 349.994 132.342C349.994 132.342 348.447 127.736 346.934 127.132C346.934 127.132 357.724 116.496 358.765 112.355C359.857 108.017 357.913 104.989 349.48 112.039C341.051 119.088 340.065 121.352 340.065 121.352C340.065 121.352 342.102 112.428 341.934 105.66C342.692 98.5059 334.65 93.2598 332.428 99.6141Z" fill="white"/>
<path fill-rule="evenodd" clip-rule="evenodd" d="M386.897 113.641C383.276 117.199 380.979 123.895 381.189 134.044C381.625 149.194 387.864 157.924 398.589 156.238C409.315 154.55 406.824 146.807 405.839 146.548C405.049 146.339 404.853 145.43 400.453 147.063C396.049 148.696 392.748 146.753 390.005 140.017C388.196 135.461 387.242 126.619 390.57 121.697C391.564 120.239 392.502 119.843 392.997 119.543C394.978 118.346 396.999 119.524 397.344 119.827C402.86 123.857 403.963 119.424 402.003 115.471C398.122 109.938 392.94 108.79 386.897 113.641Z" fill="white"/>
<path fill-rule="evenodd" clip-rule="evenodd" d="M410.8 114.249C410.772 108.498 416.729 104.091 418.759 116.958C421.303 125.277 420.576 141.338 421.807 142.831C423.039 144.323 432.256 142.287 434.753 141.459C437.247 140.632 441.835 141.753 440.788 144.244C439.935 146.789 437.557 147.02 437.062 147.316C436.568 147.613 415.73 153.69 414.973 149.581C414.219 145.47 414.177 143.581 413.429 136.585C412.68 129.585 410.828 119.999 410.8 114.249Z" fill="white"/>
<path fill-rule="evenodd" clip-rule="evenodd" d="M436.507 108.915C436.072 104.757 440.322 102.236 442.801 106.709C444.681 110.177 446.822 125.213 449.891 131.544C451.576 134.109 455.066 134.586 456.723 132.246C458.682 128.705 457.317 119.834 456.146 112.716C455.311 109.306 454.341 106.697 454.4 104.794C455.172 98.392 460.303 99.9333 462.673 106.508C464.642 113.832 466.673 125.661 465.61 129.859C464.597 133.856 463.531 138.905 458.338 140.118C456.989 140.409 445.761 141.977 441.867 129.683C438.122 116.787 436.941 113.074 436.507 108.915Z" fill="white"/>
<path fill-rule="evenodd" clip-rule="evenodd" d="M471.385 95.4768C478.306 91.3357 483.488 89.9271 487.527 91.4058C489.887 92.8692 491.402 96.8737 490.748 100.311C489.998 103.302 488.753 105.737 488.753 105.737C492.847 106.167 495.828 110.266 496.582 115.616C497.339 120.966 492.279 125.976 482.897 129.051C479.737 129.926 476.386 129.901 476.24 128.802C476.149 126.654 468.306 101.044 468.306 101.044C468.065 99.4941 467.234 97.7927 471.385 95.4768ZM474.227 100.04L477.65 108.15C477.65 108.15 486.046 104.818 485.078 100.319C484.106 95.8204 478.821 98.4767 474.227 100.04ZM478.809 114.397C478.809 114.397 481.14 124.346 481.043 123.897C480.995 123.247 493.278 120.857 490.687 114.448C488.096 108.041 478.809 114.397 478.809 114.397Z" fill="white"/>
<path d="M186.637 55.291L114.55 233.658H121.855L191.481 59.2404L186.637 55.291Z" fill="#17171D"/>
<path fill-rule="evenodd" clip-rule="evenodd" d="M128.375 170.065C131.727 171.461 150.859 171.601 147.088 178.163C143.318 184.726 157.004 194.779 164.545 181.933C172.086 169.087 161.891 152.471 146.53 156.66C131.168 160.849 128.375 170.065 128.375 170.065Z" fill="white" stroke="#252429" stroke-width="5" stroke-linecap="round" stroke-linejoin="round"/>
<path fill-rule="evenodd" clip-rule="evenodd" d="M116.525 201.659C119.877 203.055 139.009 203.195 135.238 209.759C131.468 216.321 145.154 226.374 152.695 213.529C160.236 200.681 150.041 184.066 134.68 188.255C119.318 192.444 116.525 201.659 116.525 201.659Z" fill="white" stroke="#252429" stroke-width="5" stroke-linecap="round" stroke-linejoin="round"/>
<path fill-rule="evenodd" clip-rule="evenodd" d="M108.625 235.228C111.977 236.624 131.109 236.765 127.338 243.328C123.568 249.89 137.253 259.943 144.795 247.098C152.336 234.251 142.141 217.636 126.779 221.824C111.418 226.012 108.625 235.228 108.625 235.228Z" fill="white" stroke="#252429" stroke-width="5" stroke-linecap="round" stroke-linejoin="round"/>
</g>
</svg>
