<svg width="524" height="250" viewBox="0 0 524 250" fill="none" xmlns="http://www.w3.org/2000/svg">
<path d="M2.59908 84.0691L93.264 56.8118L114.839 22.5517L117.924 46.0522L124.489 38.2005L169.663 92.1491L157.327 112.237L195.14 112.806L211.643 215.617L184.858 210.543L199.486 223.782L169.534 214.983L80.5755 243.061L6.05037 197.416L2.59908 84.0691Z" fill="#AF8D67"/>
<path d="M93.264 56.8118L2.59908 84.0691L6.05037 197.416M93.264 56.8118L105.804 165.923M93.264 56.8118L114.839 22.5517L117.924 46.0522M105.804 165.923L6.05037 197.416M105.804 165.923L132.177 146.327L121.079 79.0945M105.804 165.923L169.534 214.983M105.804 165.923L140.973 170.825L170.23 197.304M6.05037 197.416L80.5755 243.061L169.534 214.983M169.534 214.983L199.486 223.782L184.858 210.543M157.327 112.237L170.23 197.304M157.327 112.237L195.14 112.806L211.643 215.617L184.858 210.543M157.327 112.237L121.079 79.0945M157.327 112.237L169.663 92.1491L124.489 38.2005L117.924 46.0522M170.23 197.304L184.858 210.543M121.079 79.0945L117.924 46.0522" stroke="#956F43" stroke-width="3"/>
<path d="M54.0001 75.9998L157 75.9998L182 204L54.0001 190L54.0001 75.9998Z" fill="#AF8D67"/>
<path d="M162.816 114.897L169.611 195.009L141.491 169.582L108.555 165.086L130.815 147.919L121.896 80.9743L162.816 114.897Z" fill="#74522A"/>
<path d="M477.598 132.086L479.35 131.395L502.805 90.0871L502.329 88.0959C494.79 83.103 481.372 79.3598 464.27 77.0915C447.105 74.8148 426.016 73.9985 402.955 75.0002C374.894 75.4733 351.69 79.8621 328.935 84.166C324.945 84.9208 320.968 85.673 316.981 86.4009C290.249 91.2823 262.957 95.1043 227.672 91.5073C197.833 88.4657 177.316 83.7401 159.221 79.5726C155.859 78.7985 152.581 78.0436 149.343 77.3223C128.631 72.709 109.591 69.4899 80.8949 71.5037C77.4342 71.7466 75.1971 71.9817 74.0544 72.2608C73.7718 72.3298 73.4382 72.4279 73.1475 72.5869C73.0041 72.6653 72.7713 72.8112 72.5713 73.0613C72.3446 73.3447 72.1479 73.7871 72.2288 74.3206C72.3011 74.7976 72.5622 75.111 72.7221 75.2676C72.8895 75.4315 73.0658 75.5415 73.1919 75.6112C73.4461 75.7518 73.7372 75.8588 74.002 75.9434C75.0497 76.278 76.915 76.6344 79.1634 77.0368C79.8653 77.1624 80.613 77.2938 81.4 77.4322C83.1957 77.7478 85.1961 78.0995 87.3236 78.4999C93.4476 79.6527 100.468 81.1826 106.17 83.305C109.023 84.3668 111.475 85.5516 113.302 86.8659C115.143 88.1901 116.2 89.536 116.548 90.8766C118.437 98.148 121.166 108.276 124.291 116.136C125.845 120.045 127.547 123.526 129.366 125.817C130.272 126.959 131.301 127.926 132.47 128.443C133.606 128.945 134.822 128.995 136.001 128.473C142.932 128.228 149.326 127.928 155.247 127.649C171.104 126.904 183.571 126.318 193.892 127.391C200.956 128.125 206.905 129.632 212.149 132.355C217.383 135.072 221.992 139.04 226.32 144.804C228.941 148.294 233.972 150.008 240.291 150.704C246.698 151.409 254.858 151.11 264.259 150.168C280.558 148.533 300.859 144.931 322.712 141.054C326.074 140.457 329.474 139.854 332.901 139.251C358.639 134.718 385.992 130.156 411.363 128.119C436.765 126.079 460.011 126.587 477.598 132.086Z" fill="#FFF537" stroke="white" stroke-width="3" stroke-linejoin="bevel"/>
<path d="M481.33 181.204C482.465 182.185 482.466 182.184 482.467 182.183L482.469 182.18L482.473 182.175L482.483 182.163C482.491 182.154 482.5 182.143 482.511 182.13C482.532 182.104 482.559 182.07 482.59 182.029C482.654 181.946 482.738 181.831 482.839 181.682C483.042 181.384 483.313 180.948 483.625 180.353C484.251 179.161 485.041 177.334 485.786 174.693C487.275 169.413 488.582 160.879 488.024 147.662C487.464 134.404 484.793 126.849 482.119 122.557C480.78 120.407 479.445 119.086 478.392 118.287C477.867 117.889 477.417 117.625 477.079 117.455C476.909 117.369 476.769 117.308 476.66 117.264C476.617 117.247 476.579 117.233 476.546 117.221C453.289 106.979 435.497 104.88 400.863 108.052C380.261 109.94 359.042 114.115 338.011 118.254C332.901 119.259 327.802 120.263 322.726 121.231C296.695 126.194 271.234 130.229 247.578 129.002C211.445 127.127 189.55 122.396 172.018 117.642C168.065 116.57 164.319 115.491 160.67 114.441C148.217 110.857 136.9 107.599 122.357 106.03C120.479 105.318 118.737 105.133 117.159 105.521C115.512 105.926 114.219 106.913 113.235 108.213C111.327 110.732 110.454 114.585 110.113 118.555C109.424 126.573 110.82 136.273 112.063 140.43L113.153 141.459C125.121 144.305 136.096 146.843 146.098 149.156C160.074 152.388 172.151 155.181 182.385 157.762C199.997 162.203 211.853 165.951 218.394 170.079C219.515 170.786 221.247 171.25 223.293 171.593C225.399 171.945 228.048 172.198 231.158 172.377C237.382 172.734 245.583 172.797 255.236 172.702C265.044 172.606 276.431 172.346 288.824 172.062C300.772 171.789 313.655 171.495 326.962 171.305C381.385 170.53 443.289 171.506 480.904 182.642L482.465 182.185L481.33 181.204Z" fill="#F68887" stroke="white" stroke-width="3" stroke-linejoin="bevel"/>
<path d="M121.574 141.502L120.595 141.801C113.922 146.837 109.023 151.247 105.577 155.118C102.142 158.978 100.086 162.375 99.2106 165.391C98.3199 168.46 98.6577 171.129 99.9764 173.362C101.263 175.542 103.39 177.147 105.792 178.343C110.578 180.725 116.992 181.741 122.076 182.182C124.644 182.405 126.921 182.484 128.558 182.508C129.377 182.52 130.037 182.518 130.495 182.513C130.724 182.51 130.902 182.507 131.024 182.504C131.085 182.503 131.132 182.502 131.165 182.501L131.179 182.5C149.852 182.786 166.136 186.879 184.554 191.508C186.38 191.967 188.226 192.431 190.097 192.897C210.845 198.064 234.549 203.437 266.955 204.5C283.243 205.034 301.619 202.618 320.836 199.166C330.451 197.438 340.298 195.447 350.216 193.429C350.852 193.299 351.488 193.17 352.124 193.04C361.419 191.148 370.768 189.244 380.063 187.518C399.932 183.828 419.483 180.961 437.58 180.75C455.68 180.54 472.221 182.989 486.126 189.845L488.254 188.814C491.241 174.696 491.262 165.497 490.494 159.765C490.109 156.897 489.527 154.894 489.018 153.579C488.764 152.921 488.528 152.437 488.346 152.102C488.255 151.935 488.177 151.806 488.118 151.712C488.088 151.665 488.062 151.626 488.042 151.596C488.032 151.581 488.023 151.568 488.015 151.558L488.004 151.543L488 151.537L487.998 151.534C487.997 151.533 487.996 151.531 486.787 152.416L487.996 151.531L487.649 151.19C475.392 142.549 459.426 139.936 441.363 140.598C423.29 141.26 402.901 145.213 381.643 149.914C376.232 151.111 370.765 152.355 365.264 153.608C327.389 162.231 287.876 171.228 253.659 167.508C214.253 163.225 188.58 157.117 169.136 151.893C165.745 150.982 162.535 150.095 159.468 149.248C145.001 145.25 133.707 142.129 121.574 141.502Z" fill="#91CCF4" stroke="white" stroke-width="3" stroke-linejoin="bevel"/>
<path d="M192.053 166.934C184.467 165.877 177.501 171.321 176.503 179.086C176.272 180.886 176.495 182.635 176.89 184.352L107.102 207.092C104.676 208.988 155.908 203.937 157.77 206.43C158.725 207.708 160.096 208.358 161.526 208.557C162.955 208.756 164.449 208.449 165.686 207.533L183.621 193.365C185.081 194.199 186.672 194.879 188.486 195.132C196.072 196.189 205.604 190.491 204.827 180.824L191.867 185.249L186.769 179.349L196.204 167.863C196.204 167.863 192.981 167.12 192.101 166.998L192.053 166.934Z" fill="#242E3F"/>
<path d="M110.684 138.091L112.326 147.37C111.828 147.935 111.47 148.586 111.113 149.238L101.774 150.645L100.189 157.841L108.009 163.33C108.097 164.14 108.168 164.788 108.319 165.56L102.955 173.173L106.931 179.378L116.271 177.971C116.915 178.44 117.481 178.784 118.187 179.215L119.83 188.494L127.14 190.234L132.504 182.621C133.219 182.529 133.973 182.498 134.75 182.367L142.57 187.856L148.748 184.067L147.106 174.788C147.502 174.199 147.961 173.571 148.318 172.92L157.658 171.513L159.243 164.317L151.423 158.828C151.312 158.117 151.223 157.307 151.113 156.597L156.476 148.985L152.5 142.78L143.161 144.187C142.618 143.742 141.911 143.311 141.245 142.942L139.602 133.663L132.292 131.924L126.928 139.536C126.213 139.629 125.396 139.698 124.681 139.791L116.861 134.301L110.684 138.091ZM123.712 151.709C128.84 148.564 135.643 150.182 138.943 155.332C142.243 160.483 140.767 167.179 135.64 170.325C130.512 173.47 123.71 171.851 120.41 166.701C117.11 161.551 118.585 154.854 123.712 151.709Z" fill="#242E3F"/>
<path d="M3.04055 84.1932L93.7055 56.9359L115.281 22.6758L118.365 46.1763L121.521 79.2186L132.618 146.451L106.246 166.047L141.414 170.949L170.671 197.428L185.299 210.667L199.928 223.906L169.975 215.107L81.017 243.185L6.49184 197.54L3.04055 84.1932Z" fill="#AF8D67"/>
<path d="M93.7055 56.9359L3.04055 84.1932L6.49184 197.54M93.7055 56.9359L106.246 166.047M93.7055 56.9359L115.281 22.6758L118.365 46.1763L121.521 79.2186L132.618 146.451L106.246 166.047M106.246 166.047L6.49184 197.54M106.246 166.047L169.975 215.107M106.246 166.047L141.414 170.949L170.671 197.428L185.299 210.667L199.928 223.906L169.975 215.107M6.49184 197.54L81.017 243.185L169.975 215.107" stroke="#956F43" stroke-width="3"/>
<path d="M183.035 112.18C183.307 115.554 182.862 118.463 181.7 120.904C180.562 123.318 178.857 125.346 176.585 126.987C174.338 128.599 171.603 129.846 168.382 130.725C165.163 131.63 161.632 132.234 157.789 132.535C156.05 132.672 154.232 132.644 152.335 132.453C150.441 132.289 148.556 131.927 146.683 131.369C144.807 130.784 142.994 130.012 141.244 129.052C139.495 128.093 137.896 126.899 136.449 125.471C135.025 124.016 133.779 122.324 132.709 120.397C131.665 118.468 130.912 116.254 130.45 113.757L147.402 112.075C147.409 112.806 147.442 113.548 147.503 114.3C147.563 115.053 147.626 115.832 147.691 116.636C147.873 118.894 148.137 121.198 148.483 123.548C150.029 123.61 151.571 123.619 153.11 123.577C154.648 123.535 156.183 123.454 157.715 123.334C159.246 123.214 160.762 123.056 162.262 122.86C163.761 122.664 165.283 122.414 166.826 122.11C166.885 121.217 166.92 120.353 166.931 119.516C166.939 118.653 166.908 117.781 166.837 116.898C166.722 115.471 166.515 114.037 166.217 112.598C165.918 111.159 165.567 109.723 165.165 108.292C163.33 108.227 161.221 108.157 158.838 108.083C156.454 108.009 153.996 107.823 151.464 107.525C148.956 107.199 146.474 106.715 144.018 106.071C141.587 105.4 139.381 104.45 137.401 103.221C135.418 101.966 133.775 100.371 132.469 98.4358C131.164 96.5008 130.395 94.0928 130.163 91.2117C130.002 89.2131 130.219 87.3676 130.814 85.6754C131.436 83.9811 132.318 82.4492 133.462 81.0796C134.63 79.6821 136.006 78.438 137.59 77.3473C139.2 76.2546 140.902 75.3245 142.695 74.557C144.515 73.7875 146.372 73.1717 148.269 72.7095C150.165 72.2474 152.009 71.9461 153.8 71.8056C157.721 71.4982 161.223 71.8374 164.307 72.8232C167.391 73.809 170.025 75.2089 172.209 77.0227C174.417 78.8086 176.178 80.8907 177.493 83.269C178.808 85.6472 179.656 88.0622 180.036 90.5137L162.392 93.8171C162.442 92.8206 162.441 91.8281 162.387 90.8398C162.358 89.8234 162.303 88.8221 162.224 87.8357C162.042 85.5776 161.702 83.3057 161.205 81.02C160.311 80.9594 159.421 80.9378 158.534 80.9551C157.674 80.9704 156.802 81.0126 155.919 81.0819C152.414 81.3567 148.904 82.0629 145.39 83.2004C145.391 83.8533 145.416 84.4913 145.466 85.1142C145.516 85.7372 145.565 86.3471 145.613 86.9441C145.76 88.7611 145.969 90.5469 146.241 92.3018C146.537 94.0286 146.963 95.7582 147.521 97.4907C149.699 97.6072 152.061 97.7355 154.606 97.8754C157.15 97.9894 159.703 98.2202 162.265 98.5678C164.851 98.8874 167.345 99.3579 169.747 99.9793C172.172 100.573 174.329 101.396 176.216 102.45C178.128 103.475 179.697 104.789 180.923 106.39C182.147 107.966 182.851 109.896 183.035 112.18Z" fill="#242E3F"/>
<path d="M372.686 74.025C370.664 81.1548 368.676 87.2817 366.722 92.4055C364.768 97.5294 363.018 101.746 361.473 105.054C359.662 108.924 357.935 112.151 356.291 114.737C356.317 115.312 356.368 115.975 356.445 116.727C356.518 117.453 356.614 118.254 356.734 119.131C356.928 120.55 357.162 122.069 357.436 123.687C357.71 125.306 357.99 126.871 358.275 128.383C358.587 129.891 358.88 131.27 359.156 132.521C359.455 133.742 359.714 134.679 359.935 135.332L338.423 138.622C338.467 138.169 338.486 137.444 338.481 136.446C338.498 135.419 338.487 134.278 338.446 133.022C338.428 131.737 338.376 130.391 338.288 128.984C338.227 127.573 338.165 126.255 338.102 125.028C338.036 123.776 337.966 122.682 337.89 121.746C337.841 120.807 337.806 120.168 337.786 119.829C336.439 118.25 334.995 116.526 333.451 114.658C331.904 112.765 330.293 110.788 328.619 108.727C326.94 106.641 325.229 104.506 323.485 102.324C321.737 100.115 320.015 97.9037 318.319 95.6884C316.62 93.4473 314.949 91.2286 313.309 89.0321C311.693 86.8322 310.166 84.6993 308.727 82.6333L330.811 80.6463C331.593 82.3277 332.565 84.2463 333.728 86.4021C334.89 88.5579 336.189 90.8528 337.626 93.2869C339.059 95.6952 340.607 98.167 342.267 100.702C343.928 103.238 345.634 105.714 347.384 108.133C348.777 104.477 350.085 100.78 351.309 97.0419C351.827 95.4482 352.36 93.7736 352.909 92.0182C353.457 90.2628 353.976 88.4851 354.466 86.685C354.952 84.8591 355.404 83.0643 355.82 81.3004C356.232 79.5108 356.576 77.7961 356.851 76.1562L372.686 74.025Z" fill="#242E3F"/>
<path d="M480.593 113.876C481.185 111.514 481.658 109.032 482.013 106.428C482.392 103.803 482.659 101.125 482.816 98.3955C482.981 95.5066 483.032 92.6336 482.967 89.7766C482.904 86.8969 482.732 84.1248 482.451 81.4604C481.198 81.0207 479.828 80.6198 478.343 80.2576C477.06 79.9303 475.561 79.613 473.844 79.3055C472.149 78.9994 470.301 78.7869 468.299 78.668C467.913 78.645 467.515 78.6213 467.105 78.597C466.696 78.5727 466.285 78.5711 465.873 78.5923C465.851 78.979 465.813 79.6387 465.76 80.5713C465.706 81.504 465.64 82.6527 465.562 84.0176C465.508 85.3611 465.432 86.8858 465.334 88.5919C465.26 90.2766 465.181 92.0523 465.097 93.9189C465.013 95.7856 464.938 97.6984 464.871 99.6574C464.805 101.616 464.751 103.553 464.709 105.468C464.668 107.383 464.631 109.23 464.597 111.008C464.588 112.765 464.598 114.386 464.627 115.872C466.725 115.905 468.727 115.819 470.633 115.612C472.562 115.407 474.264 115.177 475.74 114.923C477.469 114.615 479.087 114.266 480.593 113.876ZM462.695 70.1179C465.379 70.2774 468.124 70.5774 470.929 71.018C473.757 71.4599 476.481 72.1125 479.102 72.9759C481.746 73.8405 484.227 74.958 486.545 76.3283C488.863 77.6986 490.856 79.3805 492.522 81.374C494.211 83.3689 495.502 85.7281 496.396 88.4518C497.291 91.1527 497.636 94.2888 497.432 97.8602C497.233 101.318 496.602 104.362 495.539 106.992C494.475 109.622 493.1 111.914 491.413 113.868C489.75 115.801 487.832 117.41 485.658 118.696C483.484 119.982 481.178 120.998 478.739 121.743C476.322 122.49 473.829 122.981 471.259 123.216C468.688 123.474 466.174 123.53 463.717 123.384C461.328 123.242 459.227 123.06 457.414 122.838C455.6 122.639 454.059 122.445 452.791 122.256C451.32 122.031 450.044 121.796 448.963 121.549C449.491 117.106 449.985 112.673 450.444 108.25C450.903 103.826 451.261 99.3737 451.518 94.8924C451.644 92.6859 451.731 90.5797 451.777 88.5738C451.846 86.5693 451.891 84.5862 451.913 82.6245C451.934 80.6628 451.933 78.6884 451.91 76.7012C451.911 74.6926 451.907 72.5697 451.898 70.3323C453.807 70.0805 455.674 69.9632 457.499 69.9803C459.325 69.9747 461.057 70.0206 462.695 70.1179Z" fill="#242E3F"/>
<path d="M254.404 120.773C253.931 122.221 253.259 123.49 252.389 124.581C251.525 125.654 250.487 126.566 249.275 127.319C248.069 128.053 246.708 128.633 245.192 129.059C243.676 129.486 242.036 129.758 240.271 129.876L247.594 149.156L234.245 146.335L230.787 129.469C230.176 129.391 229.549 129.297 228.906 129.189C228.264 129.08 227.612 128.968 226.951 128.853C226.474 130.814 225.998 132.868 225.523 135.014C225.066 137.167 224.582 139.465 224.071 141.908L210.608 138.494C212.538 133.845 214.375 129.197 216.12 124.549C217.89 119.888 219.558 115.163 221.123 110.374C221.529 109.13 221.89 107.994 222.205 106.967C222.539 105.946 222.845 104.947 223.123 103.97C223.42 102.998 223.708 101.993 223.986 100.953C224.264 99.9141 224.572 98.751 224.91 97.4642C227.38 97.5163 229.822 97.7754 232.239 98.2417C234.673 98.7141 237.134 99.3595 239.62 100.178C240.863 100.587 242.181 101.113 243.573 101.757C244.966 102.4 246.31 103.161 247.605 104.04C248.919 104.924 250.122 105.927 251.215 107.047C252.326 108.174 253.219 109.434 253.894 110.828C254.587 112.228 255.003 113.753 255.142 115.402C255.281 117.052 255.035 118.842 254.404 120.773ZM233.998 104.835C233.004 107.879 232.06 110.828 231.169 113.68C230.303 116.52 229.465 119.462 228.655 122.506L229.796 122.882C231.429 123.419 233.086 123.913 234.767 124.364C236.449 124.814 238.074 125.154 239.644 125.383C240.231 124.466 240.79 123.385 241.32 122.141C241.874 120.884 242.379 119.56 242.834 118.167C243.125 117.276 243.388 116.376 243.624 115.467C243.866 114.539 244.077 113.642 244.257 112.776C244.443 111.891 244.577 111.041 244.659 110.225C244.759 109.415 244.817 108.673 244.831 107.999C244.584 107.877 244.287 107.748 243.94 107.614C243.612 107.485 243.235 107.351 242.808 107.21C241.955 106.929 241.018 106.652 239.998 106.378C238.996 106.11 238.041 105.857 237.133 105.62C236.088 105.358 235.043 105.097 233.998 104.835Z" fill="#242E3F"/>
<path d="M439.979 86.3713C440.159 87.833 440.091 89.2198 439.776 90.5317C439.459 91.8249 438.925 93.0493 438.172 94.2048C437.418 95.3416 436.464 96.4073 435.311 97.4019C434.159 98.3964 432.834 99.3071 431.338 100.134L445.652 114.012L432.808 117.014L422.868 103.665C422.301 103.847 421.713 104.022 421.106 104.191C420.499 104.359 419.883 104.528 419.257 104.699C419.643 106.611 420.069 108.604 420.532 110.677C421.014 112.749 421.533 114.959 422.087 117.307L408.901 119.837C408.685 114.976 408.388 110.154 408.011 105.369C407.65 100.564 407.173 95.7436 406.58 90.909C406.426 89.6535 406.277 88.5116 406.132 87.4832C406.005 86.4526 405.864 85.4523 405.707 84.4824C405.568 83.5103 405.408 82.5123 405.225 81.4884C405.043 80.4646 404.836 79.32 404.605 78.0548C406.788 77.0882 409.033 76.3138 411.339 75.7317C413.664 75.1473 416.083 74.7037 418.595 74.4011C419.851 74.2497 421.22 74.1703 422.703 74.1628C424.186 74.1553 425.674 74.2707 427.168 74.509C428.681 74.7451 430.145 75.1296 431.561 75.6626C432.996 76.1933 434.294 76.9306 435.456 77.8744C436.637 78.8161 437.626 79.9804 438.424 81.3675C439.222 82.7546 439.74 84.4225 439.979 86.3713ZM415.582 80.7825C415.959 83.8556 416.342 86.8234 416.731 89.6859C417.137 92.5274 417.609 95.4465 418.147 98.4431L419.3 98.3042C420.95 98.1054 422.603 97.8587 424.26 97.564C425.917 97.2693 427.479 96.9004 428.947 96.4574C429.085 95.4138 429.131 94.2388 429.085 92.9323C429.055 91.6048 428.954 90.2383 428.782 88.8329C428.672 87.9335 428.533 87.0374 428.367 86.1447C428.198 85.2333 428.015 84.3616 427.818 83.5297C427.618 82.679 427.387 81.8797 427.124 81.1317C426.88 80.3815 426.626 79.7085 426.363 79.1127C426.096 79.1068 425.783 79.116 425.425 79.1402C425.085 79.1621 424.7 79.199 424.269 79.251C423.406 79.3549 422.472 79.4959 421.467 79.6741C420.48 79.85 419.541 80.0203 418.648 80.1849C417.626 80.3841 416.604 80.5833 415.582 80.7825Z" fill="#242E3F"/>
<path d="M272.829 151.687C272.871 151.141 272.903 150.595 272.926 150.047C272.951 149.481 272.984 148.925 273.025 148.379C271.959 149.204 270.861 149.809 269.734 150.194C268.626 150.561 267.612 150.822 266.691 150.977C265.617 151.158 264.561 151.226 263.522 151.182C261.64 151.034 259.846 150.599 258.14 149.878C256.452 149.177 254.974 148.199 253.706 146.944C252.439 145.689 251.447 144.172 250.732 142.392C250.036 140.595 249.728 138.554 249.809 136.269C249.984 133.973 250.455 131.908 251.22 130.074C251.987 128.222 253.043 126.667 254.389 125.409C255.736 124.152 257.359 123.229 259.26 122.64C261.162 122.032 263.328 121.814 265.758 121.986C265.833 121.992 266.114 122.033 266.601 122.109C267.107 122.168 267.722 122.302 268.445 122.51C269.169 122.7 269.951 122.988 270.793 123.377C271.636 123.746 272.46 124.237 273.265 124.849L273.079 121.341L284.29 121.456C283.651 126.841 283.126 132.206 282.717 137.552C282.617 138.851 282.523 140.084 282.434 141.251C282.364 142.401 282.295 143.55 282.226 144.7C282.177 145.833 282.127 146.984 282.075 148.154C282.044 149.306 282.008 150.525 281.966 151.81L272.829 151.687ZM260.167 143.817C262.414 143.899 264.628 143.921 266.808 143.885C268.989 143.848 271.149 143.705 273.289 143.457C273.411 141.119 273.48 138.852 273.497 136.656C273.532 134.462 273.515 132.217 273.445 129.92L271.835 129.793C270.009 129.649 268.169 129.571 266.314 129.558C264.48 129.527 262.62 129.579 260.735 129.715C260.358 131.674 260.093 133.651 259.94 135.646C259.882 136.399 259.847 137.107 259.834 137.768C259.823 138.411 259.821 139.055 259.828 139.699C259.855 140.345 259.89 141.002 259.933 141.668C259.996 142.335 260.074 143.052 260.167 143.817Z" fill="#242E3F"/>
<path d="M394.513 125.965C394.424 125.368 394.325 124.772 394.216 124.177C394.103 123.562 394.003 122.956 393.914 122.358C392.968 123.507 391.936 124.427 390.817 125.117C389.715 125.783 388.688 126.313 387.735 126.705C386.623 127.162 385.504 127.494 384.376 127.701C382.315 128.003 380.278 127.975 378.266 127.616C376.277 127.276 374.448 126.586 372.777 125.546C371.106 124.506 369.667 123.116 368.461 121.377C367.273 119.614 366.442 117.493 365.969 115.015C365.595 112.501 365.596 110.164 365.97 108.004C366.342 105.823 367.097 103.891 368.238 102.209C369.378 100.526 370.899 99.1348 372.8 98.0356C374.698 96.9157 376.975 96.1509 379.631 95.7412C379.713 95.7291 380.026 95.7045 380.568 95.6673C381.127 95.6064 381.822 95.5996 382.65 95.6468C383.475 95.6734 384.388 95.7925 385.389 96.004C386.386 96.195 387.393 96.5214 388.409 96.9832L387.35 93.2538L399.44 90.632C400.071 96.5822 400.821 102.483 401.69 108.335C401.901 109.757 402.101 111.107 402.291 112.385C402.498 113.639 402.705 114.893 402.913 116.146C403.137 117.377 403.365 118.628 403.596 119.899C403.845 121.147 404.104 122.467 404.374 123.859L394.513 125.965ZM378.962 120.598C381.399 120.136 383.787 119.619 386.124 119.045C388.461 118.472 390.75 117.789 392.992 116.998C392.551 114.452 392.07 111.996 391.55 109.63C391.051 107.26 390.483 104.849 389.844 102.395L388.082 102.652C386.082 102.945 384.083 103.311 382.084 103.751C380.103 104.167 378.115 104.679 376.12 105.287C376.193 107.487 376.392 109.679 376.717 111.863C376.839 112.687 376.974 113.457 377.123 114.172C377.268 114.867 377.424 115.56 377.589 116.252C377.776 116.94 377.974 117.637 378.184 118.344C378.415 119.047 378.674 119.798 378.962 120.598Z" fill="#242E3F"/>
<path d="M325.244 118.468C325.487 121.102 325.347 123.504 324.825 125.676C324.322 127.824 323.474 129.685 322.281 131.259C321.087 132.832 319.567 134.095 317.722 135.047C315.876 136 313.741 136.585 311.317 136.804C309.923 136.887 308.535 136.821 307.155 136.606C306.573 136.51 305.956 136.385 305.304 136.231C304.671 136.054 304.024 135.837 303.363 135.578C302.721 135.296 302.095 134.959 301.485 134.568C300.875 134.177 300.3 133.708 299.761 133.162C300.157 136.759 300.57 140.312 301 143.821C301.432 147.351 301.883 150.741 302.353 153.991L290.302 154.313C290.19 150.563 290.028 146.626 289.818 142.503C289.607 138.379 289.362 134.227 289.082 130.046C288.822 125.842 288.522 121.674 288.183 117.541C287.865 113.406 287.531 109.442 287.181 105.65L297.803 104.692C297.797 106.01 297.822 107.314 297.877 108.605C298.313 108.034 298.798 107.534 299.332 107.103C299.885 106.65 300.454 106.248 301.038 105.898C301.622 105.548 302.21 105.24 302.801 104.974C303.414 104.706 303.999 104.484 304.557 104.306C305.855 103.87 307.198 103.568 308.585 103.401C309.744 103.296 310.94 103.359 312.172 103.587C313.403 103.795 314.605 104.164 315.781 104.696C316.977 105.225 318.103 105.91 319.158 106.749C320.234 107.587 321.197 108.583 322.047 109.739C322.898 110.894 323.603 112.201 324.162 113.659C324.72 115.095 325.08 116.699 325.244 118.468ZM299.385 129.085C300.958 129.326 302.427 129.47 303.792 129.516C305.175 129.54 306.615 129.485 308.111 129.35C308.996 129.27 309.921 129.155 310.884 129.004C311.848 128.854 312.894 128.674 314.022 128.466C314.04 127.509 314.017 126.566 313.952 125.637C313.909 124.706 313.843 123.766 313.756 122.818C313.579 120.901 313.331 119.022 313.013 117.182C312.692 115.32 312.307 113.453 311.858 111.582C309.844 111.636 308.079 111.731 306.561 111.868C305.824 111.935 305.12 112.02 304.449 112.123C303.777 112.204 303.096 112.308 302.406 112.434C301.736 112.537 301.045 112.653 300.334 112.78C299.645 112.906 298.903 113.048 298.11 113.204C298.402 117.745 298.765 122.365 299.198 127.063L299.385 129.085Z" fill="#242E3F"/>
<path d="M198.987 98.713C190.362 98.5832 184.931 102.372 184.73 115.686C184.509 130.369 192.367 131.488 200.992 131.617C212.491 131.791 215.611 123.837 214.209 117.315L207.71 117.217C207.193 118.339 209.089 125.239 199.598 124.596C193.549 124.186 191.632 122.3 191.73 115.791C191.845 108.107 193.39 105.13 198.89 105.212C204.889 105.303 205.513 107.564 206.346 108.195L202.301 111.135L215.269 113.33L216.45 101.347L212.405 104.286C210.426 102.886 208.979 99.3635 198.987 98.713Z" fill="#242E3F"/>
<path d="M508.954 144.166C509.224 142.491 506.941 138.124 506.941 138.124L503.558 146.513L498.565 152.989L500.945 155.817C500.945 155.817 508.684 145.84 508.954 144.166Z" fill="#F3D24F"/>
<path d="M493.601 163.15C494.723 161.239 490.663 156.74 490.663 156.74L485.395 166.968L474.774 170.708C474.774 170.708 476.024 176.152 479.379 176.91C482.735 177.668 492.479 165.061 493.601 163.15Z" fill="#F3D24F"/>
<path d="M476.339 163.079C478.426 163.688 481.695 158.92 481.695 158.92L472.763 155.429L465.574 146.887C465.574 146.887 460.88 148.359 461.139 153.047C461.398 157.735 474.252 162.47 476.339 163.079Z" fill="#F3D24F"/>
<path d="M501.982 151.21L497.54 153.035L502.398 159.598L499.787 167.581C499.787 167.581 505.343 167.613 506.924 165.842C508.505 164.071 501.982 151.21 501.982 151.21Z" fill="#F3D24F"/>
<path d="M506.959 138.026C504.783 134.955 495.217 137.629 491.179 138.802C489.405 135.729 483.464 127.601 480.48 128.919C477.496 130.237 476.8 137.92 476.385 142.727C472.445 143.35 462.741 147.112 461.949 150.155C461.157 153.197 468.834 157.996 473.589 159.505C473.744 163.618 473.682 173.232 476.448 173.825C479.297 174.437 485.328 168.306 488.652 164.695C492.505 165.603 500.512 169.381 503.518 166.66C506.524 163.94 501.914 155.954 500.023 151.959C502.819 148.153 509.208 141.201 506.959 138.026Z" fill="#FFF537"/>
<path d="M407.663 196.736C409.055 195.768 410.612 191.092 410.612 191.092L402.226 194.483L394.099 195.387L393.716 199.063C393.716 199.063 406.27 197.704 407.663 196.736Z" fill="#DB7372"/>
<path d="M383.34 198.87C385.494 198.351 385.913 192.305 385.913 192.305L374.894 195.616L364.829 190.571C364.829 190.571 361.779 195.25 363.564 198.191C365.348 201.132 381.186 199.39 383.34 198.87Z" fill="#DB7372"/>
<path d="M371.405 186.399C372.416 188.324 378.117 187.365 378.117 187.365L374.426 178.514L375.581 167.409C375.581 167.409 371.262 165.054 368.069 168.495C364.876 171.937 370.395 184.475 371.405 186.399Z" fill="#DB7372"/>
<path d="M397.752 196.61L393.355 194.681L392.005 202.734L384.448 206.399C384.448 206.399 388.283 210.419 390.655 210.327C393.027 210.235 397.752 196.61 397.752 196.61Z" fill="#DB7372"/>
<path d="M410.695 191.037C411.394 187.339 402.828 182.312 399.179 180.22C400.159 176.81 401.882 166.891 398.862 165.659C395.841 164.427 389.829 169.261 386.082 172.3C382.898 169.898 373.453 165.527 370.713 167.07C367.974 168.613 369.852 177.469 372.067 181.939C369.216 184.907 362.254 191.537 363.747 193.94C365.286 196.415 373.885 196.497 378.792 196.382C380.814 199.785 383.655 208.17 387.701 208.444C391.746 208.718 394.291 199.856 395.853 195.721C400.533 195.09 409.972 194.86 410.695 191.037Z" fill="#F68887"/>
<path d="M477.663 46.7357C479.055 45.7674 480.612 41.0914 480.612 41.0914L472.226 44.4831L464.099 45.3864L463.716 49.063C463.716 49.063 476.27 47.7039 477.663 46.7357Z" fill="#5698C7"/>
<path d="M453.34 48.8702C455.494 48.3506 455.913 42.3047 455.913 42.3047L444.894 45.6162L434.829 40.5704C434.829 40.5704 431.779 45.2498 433.564 48.191C435.348 51.1322 451.186 49.3898 453.34 48.8702Z" fill="#5698C7"/>
<path d="M441.405 36.3991C442.416 38.3236 448.117 37.3651 448.117 37.3651L444.426 28.5136L445.581 17.4092C445.581 17.4092 441.262 15.0536 438.069 18.4954C434.876 21.9371 440.395 34.4745 441.405 36.3991Z" fill="#5698C7"/>
<path d="M467.752 46.6095L463.355 44.6812L462.005 52.7339L454.448 56.3987C454.448 56.3987 458.283 60.4185 460.655 60.3265C463.027 60.2345 467.752 46.6095 467.752 46.6095Z" fill="#5698C7"/>
<path d="M480.695 41.0369C481.394 37.3387 472.828 32.3116 469.179 30.2205C470.159 26.8098 471.882 16.8907 468.862 15.6587C465.841 14.4267 459.829 19.261 456.082 22.2997C452.898 19.8976 443.453 15.5268 440.713 17.0698C437.974 18.6127 439.852 27.4688 442.067 31.9389C439.216 34.9065 432.254 41.5372 433.747 43.9397C435.286 46.4147 443.885 46.497 448.792 46.3818C450.814 49.7852 453.655 58.1698 457.701 58.444C461.746 58.7182 464.291 49.8557 465.853 45.7206C470.533 45.0896 479.972 44.8601 480.695 41.0369Z" fill="#91CCF4"/>
<path d="M68.0331 82.7509C64.5956 82.4208 61.1496 82.2899 57.7178 81.8932C55.4879 81.6354 53.0532 81.5975 50.8625 81.1316C50.3739 81.0278 51.6555 81.2969 51.7554 81.3121C52.3896 81.4084 53.0196 81.2939 53.5264 81.6981" stroke="#956F43" stroke-width="3" stroke-linecap="round"/>
<path d="M60.399 82.8207C60.0638 84.4637 59.8646 86.1304 59.5162 87.769C59.4024 88.304 59.1491 88.7609 59.7483 88.2698" stroke="#956F43" stroke-width="3" stroke-linecap="round"/>
<path d="M65.7663 90.2266C62.0897 89.8211 58.3922 89.2824 54.7049 88.9845C53.9034 88.9198 53.1017 88.8576 52.2999 88.793C52.2241 88.7869 50.4587 88.8461 51.2009 88.6534" stroke="#956F43" stroke-width="3" stroke-linecap="round"/>
<path d="M50.3397 92.7032C53.0464 92.9178 55.1683 93.5512 57.6325 94.5926C59.0167 95.1775 59.8318 96.1942 59.6304 97.8487C59.1029 102.183 51.7047 101.68 49.1729 101.724" stroke="#956F43" stroke-width="3" stroke-linecap="round"/>
<path d="M54.7033 94.4777C54.2451 96.6325 53.9658 99.0519 53.939 101.257" stroke="#956F43" stroke-width="3" stroke-linecap="round"/>
<path d="M58.1513 110.247C59.2944 103.675 51.8601 105.082 49.762 106.126C46.0873 109.404 50.2724 112.68 51.7428 112.099" stroke="#956F43" stroke-width="3" stroke-linecap="round"/>
<path d="M61.5166 116.85C58.1337 117.146 54.6726 117.224 50.9138 116.37C49.9474 116.124 47.3891 115.614 46.4147 115.395M58.3341 122.755C57.1345 122.594 54.4491 124.971 52.4963 117.343M52.6682 117.507C51.4263 124.635 50.3187 122.693 46.7421 121.386" stroke="#956F43" stroke-width="3" stroke-linecap="round"/>
<path d="M54.269 140.003C57.357 139.834 58.4717 134.265 55.8296 131.906C54.5699 130.781 51.6172 128.13 45.5884 130.975C41.4057 133.695 43.1489 138.107 47.1975 138.887" stroke="#956F43" stroke-width="3" stroke-linecap="round"/>
<path d="M54.0426 145.023C51.9783 144.395 46.7737 143.01 44.7477 142.272C44.4758 142.173 43.5057 141.639 43.2216 141.929C42.402 142.763 42.0604 145.677 42.115 146.676" stroke="#956F43" stroke-width="3" stroke-linecap="round"/>
<path d="M47.9069 151.868C46.0646 149.236 41.9205 149.528 41.3745 151.452C39.6948 157.369 44.1584 156.579 46.6274 155.943" stroke="#956F43" stroke-width="3" stroke-linecap="round"/>
<path d="M48.1359 161.993C45.1656 161.362 36.2215 159.629 39.1919 160.261" stroke="#956F43" stroke-width="3" stroke-linecap="round"/>
<path d="M47.743 162.248C47.8852 163.877 48.7743 167.16 46.2448 167.348C44.3765 167.487 43.9079 166.163 43.4026 164.524C43.2853 164.143 42.8964 160.749 43.0077 162.709C43.1021 164.371 42.8192 165.663 41.3161 166.639C38.4192 168.52 35.9714 165.143 36.5662 162.346C36.7601 161.434 37.328 160.816 37.8614 160.147" stroke="#956F43" stroke-width="3" stroke-linecap="round"/>
<path d="M57.9336 211.212C57.8892 211.21 57.0434 210.767 55.396 209.885C54.853 210.627 54.3523 211.256 53.8941 211.771C53.4531 212.297 53.0495 212.718 52.6833 213.034C52.4119 213.107 52.0869 213.034 51.7083 212.815C51.0028 212.408 50.6941 211.989 50.7823 211.558C51.1697 210.887 51.9134 209.916 53.0134 208.647C52.3939 208.289 51.9637 208.041 51.7228 207.902C51.4918 207.746 51.2989 207.623 51.144 207.533C51.0063 207.454 50.8256 207.35 50.6019 207.22C50.4054 207.084 50.0232 206.852 49.4553 206.524C49.266 206.415 49.04 206.25 48.7773 206.029C48.5417 205.802 48.3025 205.56 48.0596 205.305C47.8439 205.043 47.6368 204.786 47.4383 204.534C47.257 204.291 47.1445 204.089 47.1009 203.926C47.1387 203.741 47.2172 203.545 47.3364 203.339C47.6444 202.806 48.1655 202.28 48.8998 201.764C49.4751 201.522 50.4504 200.846 51.8257 199.736L55.8756 197.669C56.1371 197.613 56.4141 197.67 56.7066 197.839C57.4293 198.256 57.6168 198.766 57.2691 199.368C57.2592 199.386 57.1516 199.473 56.9463 199.629C56.7411 199.786 56.453 199.987 56.0823 200.232C55.7287 200.487 55.3023 200.768 54.8031 201.076C54.3138 201.368 53.7802 201.656 53.2022 201.942L50.2385 204.154C50.2603 204.236 50.3229 204.306 50.4261 204.366C50.5638 204.445 50.677 204.488 50.7657 204.493C50.8643 204.481 50.9087 204.484 50.8987 204.501C50.9947 204.533 51.0857 204.574 51.1717 204.624C51.2849 204.666 51.3931 204.717 51.4964 204.777C51.6857 204.886 51.8736 205.018 52.0602 205.171C52.274 205.318 52.5 205.483 52.7383 205.666C53.2201 205.944 53.8029 206.246 54.4866 206.572L55.7889 204.674C55.8611 204.509 55.9333 204.345 56.0055 204.18C56.095 204.025 56.1844 203.87 56.2738 203.715C56.4924 203.337 56.7268 202.99 56.9771 202.676C57.2447 202.371 57.4927 202.021 57.7212 201.625C57.7808 201.522 57.8765 201.337 58.0083 201.069C58.1501 200.783 58.2882 200.484 58.4227 200.172C58.5743 199.87 58.7111 199.593 58.833 199.342C58.9549 199.091 59.0258 198.949 59.0456 198.914C59.4661 198.583 59.8828 198.537 60.2958 198.776C60.3547 198.833 60.4186 198.881 60.4874 198.921C60.5463 198.978 60.6274 199.036 60.7306 199.095C60.8339 199.155 60.9493 199.233 61.0771 199.33C61.089 199.429 61.0548 199.627 60.9746 199.925C60.9216 200.215 60.8351 200.544 60.7151 200.911C60.6051 201.26 60.4766 201.622 60.3295 201.996C60.1924 202.352 60.0543 202.651 59.9152 202.892C59.7662 203.15 59.5837 203.446 59.3678 203.781C59.1519 204.115 58.8764 204.552 58.5412 205.093C58.5187 205.172 58.4329 205.34 58.2839 205.598C58.1448 205.839 57.9574 206.144 57.7216 206.513C57.4858 206.881 57.2017 207.314 56.8692 207.81L57.1274 207.959C57.3683 208.098 57.625 208.27 57.8977 208.473C58.1975 208.669 58.5354 208.898 58.9113 209.161C59.213 209.473 59.2 209.913 58.8721 210.481C58.6337 210.894 58.3208 211.138 57.9336 211.212ZM65.6536 219.283C65.5477 219.268 65.4418 219.253 65.3359 219.237C65.2399 219.205 65.1403 219.159 65.037 219.099L64.9338 219.04L64.2885 218.667C64.1681 218.598 64.0476 218.528 63.9271 218.459C63.8338 218.382 63.7183 218.304 63.5807 218.224C63.443 218.145 63.3004 218.074 63.1528 218.011C63.0151 217.932 62.8689 217.848 62.714 217.758C62.5247 217.649 62.2914 217.457 62.0141 217.182C61.7468 216.89 61.3636 216.6 60.8646 216.312C60.7613 216.252 60.6531 216.201 60.5399 216.159C60.4367 216.099 60.3248 216.035 60.2044 215.965C60.0839 215.896 59.4516 215.381 58.3074 214.422C58.1646 213.835 58.1975 213.361 58.4061 213C58.575 212.707 58.8091 212.441 59.1084 212.2C59.6857 212.075 60.1607 211.948 60.5334 211.819C60.9061 211.69 61.1938 211.569 61.3964 211.456C62.0386 211.139 62.651 210.873 63.2336 210.659C63.8433 210.437 64.4345 210.228 65.0072 210.031C65.1058 210.019 65.2515 209.965 65.4441 209.87C65.6639 209.768 65.8973 209.661 66.1443 209.552C66.3912 209.442 66.6382 209.332 66.8851 209.222C67.142 209.095 67.3568 209.001 67.5296 208.94C68.2651 208.7 68.8068 208.278 69.1545 207.676C69.4923 207.091 69.36 206.624 68.7578 206.277C68.5513 206.157 68.2991 206.058 68.0012 205.978C67.7133 205.88 67.4191 205.814 67.1186 205.778C66.8352 205.752 66.5506 205.748 66.2646 205.766C65.9787 205.785 65.7393 205.842 65.5467 205.937C65.3984 206.035 65.1944 206.17 64.9349 206.341C64.6926 206.522 64.4194 206.697 64.1155 206.866C63.8216 207.017 63.5253 207.133 63.2267 207.213C62.9381 207.276 62.6819 207.243 62.4582 207.114C62.1313 206.925 61.9083 206.636 61.7893 206.246C61.6702 205.856 61.715 205.48 61.9237 205.119C62.023 204.947 62.2359 204.737 62.5623 204.489C62.906 204.252 63.2754 204.029 63.6707 203.821C64.0931 203.606 64.5042 203.431 64.9041 203.295C65.3212 203.168 65.6578 203.122 65.914 203.155C67.41 203.147 68.8636 203.55 70.2746 204.365C70.8252 204.683 71.2316 205.032 71.4936 205.413C71.7728 205.803 71.9448 206.201 72.0095 206.605C72.0743 207.01 72.0454 207.418 71.9228 207.829C71.8174 208.25 71.6554 208.649 71.4368 209.028C70.8109 210.112 69.9624 210.827 68.8912 211.172C68.5827 211.269 68.2865 211.385 68.0024 211.519C67.7184 211.653 67.448 211.784 67.1911 211.911C66.9613 212.031 66.7452 212.147 66.5426 212.259C66.3499 212.355 66.2079 212.422 66.1165 212.461C65.8676 212.455 64.8418 212.861 63.039 213.678L61.9804 213.962C62.5655 214.3 63.036 214.617 63.3921 214.915C63.7753 215.205 63.9768 215.332 63.9967 215.298C64.2892 215.467 64.642 215.671 65.055 215.909C65.4951 216.14 65.9905 216.415 66.5411 216.733C66.782 216.872 66.8905 217.141 66.8666 217.54C66.8697 217.932 66.772 218.3 66.5733 218.644C66.305 219.109 65.9985 219.322 65.6536 219.283ZM76.3 225.43C76.1941 225.415 76.0882 225.399 75.9823 225.384C75.8863 225.352 75.7867 225.306 75.6834 225.246L75.5802 225.186L74.9349 224.814C74.8144 224.744 74.694 224.675 74.5735 224.605C74.4802 224.528 74.3647 224.45 74.227 224.371C74.0894 224.291 73.9468 224.22 73.7992 224.158C73.6615 224.079 73.5152 223.994 73.3604 223.905C73.1711 223.796 72.9378 223.604 72.6605 223.329C72.3932 223.037 72.01 222.747 71.511 222.459C71.4077 222.399 71.2995 222.348 71.1863 222.305C71.0831 222.246 70.9712 222.181 70.8508 222.112C70.7303 222.042 70.098 221.528 68.9537 220.569C68.8109 219.982 68.8439 219.508 69.0525 219.146C69.2214 218.854 69.4555 218.587 69.7548 218.347C70.332 218.222 70.807 218.094 71.1798 217.965C71.5525 217.836 71.8402 217.716 72.0427 217.603C72.685 217.286 73.2974 217.02 73.88 216.805C74.4897 216.584 75.0809 216.375 75.6536 216.177C75.7522 216.166 75.8978 216.112 76.0905 216.017C76.3103 215.914 76.5437 215.808 76.7906 215.698C77.0376 215.588 77.2845 215.479 77.5315 215.369C77.7884 215.242 78.0032 215.148 78.176 215.087C78.9115 214.846 79.4531 214.425 79.8009 213.823C80.1386 213.237 80.0064 212.771 79.4041 212.423C79.1976 212.304 78.9455 212.204 78.6476 212.124C78.3597 212.027 78.0655 211.96 77.7649 211.924C77.4816 211.898 77.197 211.895 76.911 211.913C76.625 211.932 76.3857 211.988 76.193 212.084C76.0447 212.182 75.8408 212.316 75.5813 212.488C75.3389 212.669 75.0658 212.844 74.7619 213.013C74.468 213.164 74.1717 213.28 73.8731 213.36C73.5845 213.423 73.3283 213.39 73.1046 213.26C72.7777 213.072 72.5547 212.782 72.4356 212.392C72.3166 212.002 72.3614 211.627 72.57 211.265C72.6694 211.093 72.8823 210.884 73.2087 210.636C73.5523 210.399 73.9218 210.176 74.3171 209.968C74.7395 209.753 75.1506 209.578 75.5505 209.441C75.9675 209.315 76.3042 209.268 76.5603 209.302C78.0564 209.293 79.5099 209.697 80.921 210.511C81.4716 210.829 81.878 211.179 82.14 211.559C82.4192 211.95 82.5912 212.348 82.6559 212.752C82.7207 213.157 82.6917 213.564 82.5691 213.975C82.4638 214.396 82.3018 214.796 82.0832 215.175C81.4573 216.259 80.6088 216.973 79.5376 217.319C79.2291 217.416 78.9328 217.532 78.6488 217.666C78.3648 217.8 78.0943 217.931 77.8374 218.058C77.6077 218.178 77.3915 218.294 77.1889 218.406C76.9963 218.501 76.8543 218.569 76.7629 218.608C76.514 218.602 75.4882 219.007 73.6854 219.825L72.6268 220.109C73.2119 220.446 73.6824 220.764 74.0385 221.061C74.4216 221.351 74.6232 221.479 74.643 221.445C74.9356 221.614 75.2883 221.817 75.7013 222.056C76.1415 222.287 76.6368 222.561 77.1875 222.879C77.4284 223.018 77.5369 223.288 77.5129 223.687C77.5161 224.079 77.4184 224.447 77.2197 224.791C76.9514 225.255 76.6448 225.468 76.3 225.43ZM86.9371 229.506C86.6848 229.705 86.4117 229.88 86.1177 230.031C85.841 230.193 85.5027 230.342 85.1028 230.478C84.7129 230.597 84.2342 230.711 83.6669 230.819C83.0996 230.927 82.3942 231.036 81.5508 231.146C79.5226 231.122 78.1815 230.921 77.5276 230.544C77.1834 230.345 77.0488 230.141 77.1237 229.932C77.2157 229.733 77.3562 229.47 77.5449 229.143C77.7039 228.868 77.924 228.685 78.2054 228.595C78.4868 228.505 78.8148 228.454 79.1895 228.44C79.5641 228.427 79.9818 228.439 80.4426 228.476C80.9033 228.512 81.4011 228.524 81.9359 228.512C82.0319 228.544 82.1921 228.545 82.4165 228.514C82.6581 228.493 82.9653 228.418 83.338 228.289L84.9488 227.704C85.5837 227.36 86.0353 226.955 86.3036 226.491C86.5519 226.06 86.6673 225.622 86.6495 225.176C86.6589 224.723 86.582 224.3 86.4186 223.907C86.2552 223.514 86.0312 223.167 85.7467 222.865C85.4893 222.556 85.2229 222.322 84.9476 222.163C84.7583 222.054 84.5541 221.97 84.335 221.912C84.1431 221.848 83.9525 221.76 83.7632 221.651C83.6599 221.592 83.515 221.485 83.3284 221.331C83.1589 221.188 83.0044 221.018 82.8648 220.823C82.7252 220.627 82.6177 220.416 82.5423 220.189C82.4841 219.972 82.5146 219.76 82.6339 219.554C82.7133 219.416 82.7816 219.318 82.8385 219.259L83.3183 218.607C83.4276 218.417 83.6173 218.148 83.8875 217.8C84.1749 217.461 84.4623 217.122 84.7497 216.783C85.0371 216.444 85.2861 216.152 85.4967 215.906C85.7245 215.671 85.8334 215.562 85.8235 215.579C86.2706 214.805 86.6388 214.306 86.9281 214.083C87.2347 213.87 87.5342 213.848 87.8268 214.017C88.2225 214.245 88.5836 214.534 88.9098 214.883C89.236 215.232 89.5282 215.481 89.7863 215.63C89.8379 215.66 89.8724 215.68 89.8896 215.689C89.9339 215.692 89.9819 215.708 90.0335 215.738C90.0679 215.758 90.2301 215.875 90.52 216.088C90.8098 216.301 91.1255 216.529 91.467 216.772C91.8085 217.015 92.107 217.234 92.3624 217.427C92.6351 217.63 92.7714 217.732 92.7714 217.732C93.1764 218.103 93.1902 218.616 92.8126 219.27C92.4152 219.958 91.9276 220.147 91.3499 219.836C91.1804 219.693 90.9323 219.527 90.6053 219.338C90.2883 219.132 89.911 218.891 89.4736 218.616C89.3187 218.526 89.0841 218.356 88.7697 218.106C88.4825 217.848 88.2615 217.675 88.1066 217.585C87.9518 217.496 87.8078 217.447 87.6747 217.439C87.437 217.692 87.1559 218 86.8314 218.363C86.5169 218.71 86.1725 219.107 85.7984 219.557C86.177 219.775 86.575 220.039 86.9926 220.349C87.4275 220.669 87.8176 221.067 88.1629 221.541C88.5183 221.999 88.7968 222.55 88.9985 223.194C89.2002 223.838 89.2794 224.595 89.2361 225.465C89.1603 226.431 88.9634 227.189 88.6455 227.739C88.3574 228.238 87.7879 228.827 86.9371 229.506Z" fill="#956F43"/>
<path d="M71.8719 77.6939C68.838 77.4806 50.339 78.5629 47.3051 78.3497C44.2712 78.1364 25.6745 169.736 28.7558 170.447C31.8372 171.158 52.0573 175.513 54.9963 174.731C57.9353 173.949 74.9057 77.9073 71.8719 77.6939Z" stroke="#956F43" stroke-width="2"/>
</svg>
