<svg width="525" height="238" viewBox="0 0 525 238" fill="none" xmlns="http://www.w3.org/2000/svg">
<path d="M2 71.5799L96.4527 43.4025L118.946 8L122.175 32.2553L129.048 24.1014L176.118 79.7338L163.309 100.48L202.673 101.099L219.856 207.203L191.947 201.939L207.151 215.564L175.91 206.481L83.2273 235.484L5.64481 188.522L2 71.5799Z" fill="#AF8D67"/>
<path d="M96.4527 43.4025L2 71.5799L5.64481 188.522M96.4527 43.4025L109.47 156.009M96.4527 43.4025L118.946 8L122.175 32.2553M5.64481 188.522L109.47 156.009M5.64481 188.522L83.2273 235.587L175.91 206.584M109.47 156.009L136.962 135.779L125.403 66.4192M109.47 156.009L175.806 206.687L207.047 215.77L191.843 202.146M109.47 156.009L146.126 161.067L176.639 188.418M125.403 66.4192L163.101 100.583M125.403 66.4192L122.071 32.3585M163.101 100.583L176.534 188.418L191.739 202.043L219.647 207.307L202.465 101.202L163.101 100.583ZM163.101 100.583L175.91 79.8371L128.839 24.2046L121.966 32.3585" stroke="#956F43" stroke-width="3"/>
<path d="M55.5267 63.2195H162.788L188.823 195.334L55.5267 180.884V63.2195Z" fill="#AF8D67"/>
<path d="M168.828 103.37L175.91 186.044L146.647 159.828L112.386 155.183L135.608 137.431L126.34 68.3803L168.932 103.37H168.828Z" fill="#74522A"/>
<path d="M496.653 121.123L498.528 120.4L523 77.7727L522.479 75.7085C514.669 70.5478 500.61 66.7288 482.803 64.3549C464.891 61.981 442.918 61.1553 418.967 62.1874C389.704 62.7035 365.544 67.2449 341.905 71.6831C337.739 72.5088 333.574 73.2313 329.408 73.9538C301.604 79.0113 273.174 82.9335 236.414 79.2177C205.381 76.1213 183.928 71.167 165.079 66.9353C161.539 66.1095 158.206 65.3871 154.77 64.5613C133.213 59.8135 113.323 56.5106 83.5397 58.5749C79.8949 58.7813 77.6038 59.091 76.4583 59.4006C76.1459 59.4006 75.8335 59.6071 75.5211 59.7103C75.4169 59.7103 75.1045 59.9167 74.8963 60.2263C74.688 60.536 74.4797 60.9488 74.5839 61.5681C74.5839 62.0842 74.8963 62.3938 75.1045 62.4971C75.3128 62.7035 75.417 62.8067 75.6252 62.8067C75.9376 62.9099 76.1459 63.0131 76.4583 63.1163C77.4997 63.426 79.4783 63.8388 81.8735 64.2517C82.6024 64.3549 83.3314 64.5613 84.1645 64.6646C86.039 64.9742 88.1217 65.3871 90.3086 65.7999C96.661 67.0385 103.951 68.5867 109.886 70.7542C112.906 71.8895 115.406 73.0249 117.28 74.4699C119.155 75.8117 120.3 77.2567 120.613 78.5985C122.591 86.1331 125.403 96.5577 128.631 104.712C130.297 108.737 132.068 112.349 133.942 114.723C134.879 115.859 135.921 116.891 137.17 117.407C138.316 117.923 139.67 118.026 140.815 117.407C148.001 117.201 154.666 116.891 160.81 116.581C177.368 115.859 190.281 115.239 201.007 116.272C208.401 116.994 214.545 118.542 220.064 121.432C225.479 124.219 230.269 128.348 234.851 134.231C237.559 137.843 242.87 139.598 249.431 140.321C256.096 141.043 264.635 140.733 274.424 139.804C291.398 138.153 312.538 134.437 335.344 130.412C338.885 129.793 342.426 129.173 345.966 128.554C372.73 123.909 401.263 119.162 427.714 117.097C454.165 115.033 478.325 115.549 496.653 121.226V121.123Z" fill="#FFF537" stroke="white" stroke-width="3" stroke-linejoin="bevel"/>
<path d="M500.506 171.801C501.27 172.489 501.652 172.833 501.652 172.833C501.652 172.833 501.652 172.833 501.652 172.73C501.652 172.73 501.756 172.523 501.86 172.42C502.068 172.111 502.381 171.698 502.693 171.078C503.318 169.84 504.151 167.982 504.984 165.195C506.546 159.725 507.9 150.952 507.275 137.327C506.65 123.6 503.943 115.859 501.131 111.421C499.777 109.15 498.319 107.808 497.278 106.982C496.757 106.57 496.237 106.26 495.924 106.157C495.716 106.157 495.612 106.053 495.508 105.95C495.508 105.95 495.508 105.95 495.404 105.95C471.139 95.4224 452.707 93.2549 416.571 96.4545C395.119 98.4156 373.042 102.751 351.069 106.982C345.758 108.015 340.447 109.047 335.136 110.079C308.06 115.24 281.505 119.368 256.929 118.13C219.335 116.168 196.529 111.317 178.201 106.363C174.035 105.228 170.182 104.092 166.433 103.06C153.416 99.3445 141.648 96.0417 126.548 94.3902C124.57 93.6677 122.799 93.4613 121.133 93.8742C119.467 94.287 118.113 95.3192 117.072 96.661C115.093 99.2413 114.156 103.267 113.844 107.292C113.115 115.549 114.573 125.561 115.926 129.896L117.072 130.928C129.568 133.818 140.919 136.502 151.333 138.876C165.912 142.178 178.513 145.068 189.135 147.752C207.463 152.293 219.856 156.216 226.625 160.447C227.77 161.17 229.645 161.686 231.727 161.996C233.914 162.408 236.726 162.615 239.954 162.821C246.411 163.234 254.95 163.234 265.051 163.131C275.257 163.131 287.128 162.718 300.042 162.512C312.434 162.202 325.868 161.892 339.718 161.686C396.369 160.86 460.83 161.892 499.986 173.349L501.652 172.833L500.506 171.801Z" fill="#F68887"/>
<path d="M501.652 172.833C501.652 172.833 501.27 172.489 500.506 171.801L501.652 172.833ZM501.652 172.833C501.652 172.833 501.652 172.833 501.652 172.73C501.652 172.73 501.756 172.523 501.86 172.42C502.068 172.111 502.381 171.698 502.693 171.078C503.318 169.84 504.151 167.982 504.984 165.195C506.546 159.725 507.9 150.952 507.275 137.327C506.65 123.6 503.943 115.859 501.131 111.421C499.777 109.15 498.319 107.808 497.278 106.982C496.757 106.57 496.237 106.26 495.924 106.157C495.716 106.157 495.612 106.053 495.508 105.95C495.508 105.95 495.508 105.95 495.404 105.95C471.139 95.4224 452.707 93.2549 416.571 96.4545C395.119 98.4156 373.042 102.751 351.069 106.982C345.758 108.015 340.447 109.047 335.136 110.079C308.06 115.24 281.505 119.368 256.929 118.13C219.335 116.168 196.529 111.317 178.201 106.363C174.035 105.228 170.182 104.092 166.433 103.06C153.416 99.3445 141.648 96.0417 126.548 94.3902C124.57 93.6677 122.799 93.4613 121.133 93.8742C119.467 94.287 118.113 95.3192 117.072 96.661C115.093 99.2413 114.156 103.267 113.844 107.292C113.115 115.549 114.573 125.561 115.926 129.896L117.072 130.928C129.568 133.818 140.919 136.502 151.333 138.876C165.912 142.178 178.513 145.068 189.135 147.752C207.463 152.293 219.856 156.216 226.625 160.447C227.77 161.17 229.645 161.686 231.727 161.996C233.914 162.408 236.726 162.615 239.954 162.821C246.411 163.234 254.95 163.234 265.051 163.131C275.257 163.131 287.128 162.718 300.042 162.512C312.434 162.202 325.868 161.892 339.718 161.686C396.369 160.86 460.83 161.892 499.986 173.349L501.652 172.833Z" stroke="white" stroke-width="3" stroke-linejoin="bevel"/>
<path d="M125.924 130.825L124.882 131.135C117.905 136.295 112.802 140.837 109.262 144.862C105.721 148.887 103.534 152.397 102.597 155.493C101.66 158.693 101.972 161.376 103.43 163.75C104.784 166.021 106.971 167.672 109.47 168.911C114.469 171.388 121.133 172.42 126.444 172.833C129.152 173.04 131.443 173.143 133.213 173.143C134.046 173.143 134.775 173.143 135.192 173.143C135.4 173.143 135.609 173.143 135.713 173.143H135.817C155.291 173.452 172.265 177.684 191.426 182.432C193.301 182.948 195.279 183.361 197.154 183.877C218.71 189.244 243.495 194.714 277.236 195.85C294.21 196.366 313.371 193.889 333.366 190.379C343.363 188.625 353.673 186.561 363.982 184.496C364.607 184.393 365.336 184.187 365.961 184.083C375.646 182.122 385.33 180.161 395.015 178.407C415.738 174.588 436.045 171.595 454.894 171.388C473.743 171.182 490.926 173.659 505.401 180.781L507.588 179.748C510.712 165.195 510.712 155.7 509.879 149.816C509.462 146.823 508.837 144.759 508.317 143.417C508.004 142.695 507.796 142.282 507.588 141.869C507.588 141.662 507.379 141.559 507.379 141.456C507.379 141.456 507.379 141.456 507.379 141.353C507.379 141.353 507.379 141.353 506.13 142.282L507.379 141.353L507.067 141.043C494.258 132.167 477.7 129.38 458.851 130.102C440.002 130.825 418.758 134.85 396.681 139.701C391.058 140.94 385.33 142.178 379.603 143.52C340.135 152.397 299 161.686 263.385 157.867C222.355 153.429 195.592 147.133 175.389 141.766C171.848 140.837 168.516 139.908 165.288 139.082C150.188 134.953 138.42 131.754 125.82 131.135L125.924 130.825Z" fill="#91CCF4"/>
<path d="M507.379 141.353C507.379 141.456 507.379 141.456 507.379 141.456C507.379 141.559 507.588 141.662 507.588 141.869C507.796 142.282 508.004 142.695 508.317 143.417C508.837 144.759 509.462 146.823 509.879 149.816C510.712 155.7 510.712 165.195 507.588 179.748L505.401 180.781C490.926 173.659 473.743 171.182 454.894 171.388C436.045 171.595 415.738 174.588 395.015 178.407C385.33 180.161 375.645 182.122 365.961 184.083C365.336 184.187 364.607 184.393 363.982 184.496C353.672 186.561 343.363 188.625 333.366 190.379C313.371 193.889 294.21 196.366 277.236 195.85C243.495 194.714 218.71 189.244 197.154 183.877C195.279 183.361 193.301 182.948 191.426 182.432C172.265 177.684 155.291 173.452 135.817 173.143H135.713C135.609 173.143 135.4 173.143 135.192 173.143C134.775 173.143 134.046 173.143 133.213 173.143C131.443 173.143 129.152 173.04 126.444 172.833C121.133 172.42 114.469 171.388 109.47 168.911C106.971 167.672 104.784 166.021 103.43 163.75C101.972 161.376 101.66 158.693 102.597 155.493C103.534 152.397 105.721 148.887 109.262 144.862C112.802 140.837 117.905 136.295 124.882 131.135L125.924 130.825L125.82 131.135C138.42 131.754 150.188 134.953 165.288 139.082C168.516 139.908 171.848 140.837 175.389 141.766C195.592 147.133 222.355 153.429 263.385 157.867C299 161.686 340.135 152.397 379.603 143.52C385.33 142.178 391.058 140.94 396.681 139.701C418.758 134.85 440.002 130.825 458.851 130.102C477.7 129.38 494.258 132.167 507.067 141.043L507.379 141.353ZM507.379 141.353C507.379 141.353 507.379 141.353 506.13 142.282L507.379 141.353Z" stroke="white" stroke-width="3" stroke-linejoin="bevel"/>
<path d="M209.025 176.239C203.09 170.975 193.925 171.698 188.51 177.787C187.261 179.232 186.428 180.781 185.803 182.535L162.476 185.219C159.248 185.425 156.332 187.386 156.436 190.586C156.436 192.237 157.373 193.579 158.415 194.611C159.56 195.643 161.018 196.159 162.58 196.159L186.323 194.198C187.157 195.747 188.094 197.295 189.552 198.533C195.488 203.797 207.047 204.313 211.941 195.54L198.195 191.928L197.154 183.98L211.941 179.542C211.941 179.542 209.546 177.065 208.921 176.446L209.025 176.239Z" fill="#242E3F"/>
<path d="M114.573 127.316L116.239 136.915C115.718 137.534 115.302 138.153 114.989 138.876L105.304 140.321L103.638 147.752L111.761 153.429C111.761 154.254 111.969 154.977 112.073 155.7L106.45 163.544L110.615 169.943L120.3 168.498C120.925 169.014 121.55 169.324 122.279 169.737L123.945 179.336L131.547 181.09L137.17 173.246C137.899 173.246 138.733 173.143 139.461 172.936L147.584 178.613L154.041 174.691L152.375 165.092C152.791 164.473 153.312 163.853 153.624 163.131L163.309 161.686L164.975 154.254L156.852 148.578C156.748 147.855 156.644 147.03 156.54 146.307L162.163 138.463L157.998 132.063L148.313 133.508C147.792 133.096 147.064 132.58 146.335 132.27L144.668 122.671L137.066 120.916L131.443 128.761C130.714 128.761 129.881 128.967 129.152 129.07L121.029 123.393L114.573 127.316ZM128.111 141.353C133.422 138.153 140.503 139.805 143.939 145.068C147.376 150.436 145.814 157.248 140.503 160.551C135.192 163.75 128.111 162.099 124.674 156.835C121.237 151.468 122.799 144.656 128.111 141.353Z" fill="#242E3F"/>
<path d="M2.41656 71.6831L96.8693 43.5057L119.363 8.10321L122.591 32.3585L125.924 66.4192L137.483 135.779L109.991 156.009L146.647 161.067L177.159 188.418L192.363 202.043L207.567 215.667L176.326 206.584L83.6438 235.587L6.06138 188.625L2.41656 71.6831Z" fill="#AF8D67"/>
<path d="M96.8693 43.5057L2.41656 71.6831L6.06138 188.625M96.8693 43.5057L109.886 156.112M96.8693 43.5057L119.363 8.10321L122.591 32.3585L125.924 66.4192L137.483 135.779L109.991 156.009M6.06138 188.625L109.886 156.112M6.06138 188.625L83.6438 235.69L176.326 206.687M109.886 156.112L176.222 206.79M109.886 156.112L146.543 161.17L177.055 188.522L192.259 202.146L207.463 215.77L176.222 206.687" stroke="#956F43" stroke-width="3"/>
<path d="M185.594 95.8352C185.907 99.3445 185.386 102.338 184.241 104.815C183.095 107.292 181.325 109.356 178.93 111.111C176.639 112.762 173.723 114.104 170.39 114.93C167.058 115.859 163.309 116.478 159.352 116.788C157.581 116.891 155.603 116.891 153.624 116.788C151.646 116.581 149.667 116.272 147.688 115.652C145.71 115.033 143.835 114.207 142.065 113.278C140.295 112.246 138.628 111.008 137.066 109.563C135.608 108.015 134.255 106.363 133.213 104.299C132.172 102.338 131.339 100.067 130.818 97.4867L148.522 95.732C148.522 96.4545 148.522 97.2802 148.626 98.0027C148.626 98.8284 148.73 99.5509 148.834 100.377C149.042 102.751 149.25 105.125 149.667 107.498C151.229 107.498 152.895 107.498 154.457 107.498C156.019 107.498 157.686 107.395 159.248 107.292C160.81 107.189 162.372 106.982 163.934 106.776C165.496 106.569 167.058 106.363 168.724 105.95C168.724 105.021 168.724 104.092 168.828 103.267C168.828 102.338 168.828 101.512 168.828 100.583C168.724 99.1381 168.516 97.5899 168.204 96.1449C167.891 94.6999 167.579 93.1517 167.058 91.7067C165.184 91.7067 162.997 91.6035 160.497 91.5002C157.998 91.5002 155.499 91.1906 152.791 90.881C150.188 90.5713 147.584 90.0552 145.085 89.3327C142.586 88.6102 140.295 87.6813 138.212 86.4427C136.129 85.101 134.463 83.5527 133.109 81.4885C131.755 79.5274 130.922 77.0503 130.714 74.057C130.506 71.9928 130.714 70.1349 131.443 68.3803C132.068 66.6256 133.005 65.0774 134.151 63.6324C135.4 62.1874 136.754 60.9488 138.42 59.8135C140.086 58.6781 141.857 57.7492 143.731 56.9235C145.606 56.0978 147.584 55.4785 149.563 55.0656C151.542 54.5496 153.416 54.2399 155.29 54.1367C159.352 53.8271 162.997 54.1367 166.225 55.1688C169.453 56.201 172.161 57.646 174.452 59.5038C176.743 61.3617 178.617 63.5292 179.971 65.9031C181.325 68.3803 182.262 70.8574 182.574 73.3345L164.246 76.7406C164.246 75.7085 164.246 74.6763 164.246 73.6442C164.246 72.612 164.246 71.5799 164.038 70.5478C163.83 68.1738 163.517 65.9031 162.997 63.5292C162.059 63.5292 161.122 63.5292 160.185 63.5292C159.248 63.5292 158.415 63.5292 157.477 63.6324C153.833 63.9421 150.188 64.6646 146.543 65.7999C146.543 66.5224 146.543 67.1417 146.543 67.761C146.543 68.3803 146.543 68.9995 146.647 69.6188C146.751 71.4767 147.064 73.3345 147.272 75.1924C147.584 76.947 148.001 78.8049 148.626 80.5595C150.917 80.6628 153.312 80.766 156.019 80.9724C158.623 81.0756 161.33 81.282 164.038 81.6949C166.746 82.0045 169.349 82.5206 171.848 83.1399C174.348 83.7592 176.639 84.5849 178.617 85.7202C180.596 86.7524 182.262 88.0942 183.512 89.7456C184.761 91.397 185.49 93.3581 185.699 95.732L185.594 95.8352Z" fill="#242E3F"/>
<path d="M388.454 52.4854C386.371 59.8136 384.289 66.2128 382.206 71.4768C380.123 76.7407 378.353 81.0757 376.791 84.4817C374.916 88.5071 373.146 91.81 371.376 94.4935C371.376 95.1128 371.376 95.7321 371.584 96.5578C371.584 97.2803 371.792 98.106 371.896 99.0349C372.105 100.48 372.313 102.028 372.625 103.783C372.938 105.434 373.25 107.086 373.458 108.634C373.771 110.182 374.083 111.627 374.396 112.866C374.708 114.104 375.02 115.136 375.229 115.756L352.839 119.162C352.839 118.646 352.839 117.923 352.839 116.891C352.839 115.859 352.839 114.62 352.839 113.382C352.839 112.04 352.839 110.698 352.631 109.253C352.631 107.808 352.527 106.466 352.423 105.125C352.423 103.783 352.319 102.751 352.214 101.719C352.214 100.79 352.214 100.067 352.11 99.7574C350.756 98.106 349.194 96.3514 347.632 94.3903C346.07 92.4292 344.3 90.365 342.634 88.3007C340.863 86.1332 339.093 83.9657 337.323 81.695C335.552 79.4242 333.678 77.1535 331.908 74.8828C330.137 72.6121 328.367 70.2382 326.701 67.9675C325.034 65.6968 323.472 63.5293 321.91 61.3618L344.925 59.2975C345.758 61.0521 346.799 63.0132 347.945 65.2839C349.194 67.5546 350.548 69.9285 352.006 72.4057C353.464 74.8828 355.13 77.4632 356.796 80.0435C358.567 82.6239 360.337 85.2042 362.107 87.6814C363.565 83.8625 364.919 80.0435 366.169 76.2246C366.689 74.5732 367.314 72.8185 367.835 71.0639C368.356 69.206 368.981 67.4514 369.501 65.5936C370.022 63.7357 370.438 61.8778 370.959 60.02C371.376 58.1621 371.792 56.4075 372 54.7561L388.454 52.5886V52.4854Z" fill="#242E3F"/>
<path d="M497.903 107.499C498.528 105.021 499.048 102.544 499.361 99.8607C499.777 97.1771 499.986 94.3903 500.194 91.6035C500.402 88.6103 500.402 85.6171 500.402 82.7271C500.402 79.7339 500.194 76.8439 499.882 74.1603C498.528 73.7475 497.174 73.3346 495.612 72.9218C494.258 72.6121 492.696 72.3025 490.926 71.8896C489.155 71.58 487.281 71.3736 485.198 71.2703C484.782 71.2703 484.365 71.2703 483.948 71.2703C483.532 71.2703 483.115 71.2703 482.699 71.2703C482.699 71.6832 482.699 72.3025 482.595 73.3346C482.595 74.2636 482.491 75.5021 482.386 76.8439C482.386 78.1857 482.282 79.8371 482.178 81.5918C482.178 83.3464 481.97 85.2043 481.97 87.0621C481.97 89.0232 481.762 90.9843 481.762 92.9453C481.762 95.0096 481.657 96.9707 481.553 98.9317C481.553 100.893 481.553 102.854 481.449 104.609C481.449 106.466 481.449 108.118 481.449 109.666C483.636 109.666 485.719 109.666 487.697 109.356C489.676 109.15 491.446 108.944 493.008 108.634C494.779 108.324 496.445 107.911 498.111 107.602L497.903 107.499ZM479.262 62.2907C482.074 62.4971 484.886 62.8068 487.802 63.2196C490.717 63.6325 493.633 64.355 496.341 65.2839C499.048 66.2129 501.652 67.3482 504.047 68.7932C506.442 70.2382 508.525 71.9928 510.295 73.9539C512.066 76.0182 513.419 78.4953 514.357 81.2821C515.294 84.0689 515.606 87.2685 515.398 90.9843C515.19 94.5967 514.565 97.6932 513.419 100.377C512.274 103.06 510.92 105.434 509.15 107.499C507.379 109.46 505.401 111.111 503.11 112.453C500.819 113.795 498.424 114.827 495.924 115.549C493.425 116.272 490.822 116.788 488.114 117.097C485.406 117.407 482.803 117.407 480.304 117.304C477.804 117.201 475.618 116.994 473.743 116.788C471.869 116.581 470.202 116.375 468.953 116.169C467.391 115.962 466.141 115.652 464.995 115.446C465.516 110.905 466.037 106.26 466.558 101.719C467.078 97.1771 467.391 92.5325 467.703 87.8878C467.807 85.6171 467.911 83.4496 468.015 81.3853C468.015 79.321 468.12 77.2568 468.12 75.2957C468.12 73.2314 468.12 71.2703 468.12 69.2061C468.12 67.1418 468.12 64.9743 468.12 62.6004C470.098 62.2907 472.077 62.1875 473.951 62.1875C475.826 62.1875 477.7 62.1875 479.366 62.2907H479.262Z" fill="#242E3F"/>
<path d="M261.823 94.3903C261.302 95.8353 260.678 97.177 259.74 98.3124C258.803 99.4478 257.762 100.377 256.512 101.099C255.262 101.822 253.804 102.441 252.242 102.854C250.68 103.267 248.91 103.576 247.14 103.68L254.742 123.6L240.891 120.71L237.247 103.267C236.622 103.267 235.997 103.06 235.268 102.957C234.643 102.854 233.914 102.751 233.185 102.647C232.665 104.712 232.144 106.776 231.727 109.047C231.207 111.317 230.79 113.691 230.165 116.168L216.107 112.659C218.085 107.911 220.064 103.06 221.834 98.3124C223.709 93.4613 225.375 88.6103 227.041 83.656C227.458 82.4174 227.874 81.1789 228.187 80.1467C228.499 79.1146 228.811 78.0824 229.124 77.0503C229.436 76.0181 229.749 74.986 230.061 73.9539C230.374 72.9217 230.686 71.6832 230.998 70.3414C233.602 70.3414 236.101 70.651 238.6 71.1671C241.1 71.6831 243.703 72.3024 246.307 73.1281C247.556 73.541 249.014 74.0571 250.472 74.7796C251.93 75.3989 253.284 76.2246 254.638 77.1535C255.991 78.0824 257.241 79.1146 258.387 80.2499C259.532 81.3853 260.469 82.7271 261.198 84.1721C261.927 85.6171 262.344 87.1653 262.448 88.9199C262.552 90.6746 262.344 92.4292 261.719 94.4935L261.823 94.3903ZM240.579 77.876C239.538 80.9724 238.6 84.0688 237.663 86.9588C236.726 89.8488 235.893 92.9453 235.06 96.0417L236.205 96.4545C237.871 96.9706 239.642 97.4867 241.412 98.0028C243.182 98.5188 244.849 98.8285 246.515 99.0349C247.14 98.106 247.66 96.9706 248.285 95.732C248.91 94.3903 249.431 93.0485 249.847 91.6035C250.16 90.6746 250.472 89.7456 250.68 88.8167C250.889 87.8878 251.201 86.9588 251.305 86.0299C251.513 85.101 251.618 84.2753 251.722 83.3464C251.826 82.5206 251.93 81.6949 251.93 81.0756C251.722 80.9724 251.409 80.766 250.993 80.6628C250.68 80.5596 250.264 80.3531 249.847 80.2499C248.91 79.9403 247.973 79.6306 246.931 79.4242C245.89 79.1146 244.849 78.9081 243.911 78.5985C242.87 78.2889 241.725 78.0824 240.683 77.7728L240.579 77.876Z" fill="#242E3F"/>
<path d="M459.684 78.805C459.893 80.3532 459.788 81.695 459.476 83.1399C459.164 84.4817 458.539 85.7203 457.81 86.9589C456.977 88.0942 456.04 89.2296 454.79 90.2617C453.54 91.2939 452.186 92.2228 450.624 93.0485L465.516 107.395L452.186 110.492L441.877 96.7642C441.252 96.9706 440.627 97.1771 440.002 97.2803C439.378 97.4867 438.753 97.5899 438.128 97.7964C438.544 99.7574 438.961 101.822 439.482 103.989C440.002 106.157 440.523 108.427 441.148 110.801L427.402 113.382C427.193 108.324 426.881 103.37 426.465 98.4156C426.048 93.4614 425.631 88.5071 425.007 83.4496C424.798 82.1078 424.694 80.9724 424.59 79.9403C424.486 78.9082 424.278 77.876 424.173 76.8439C424.069 75.8117 423.861 74.7796 423.653 73.7475C423.445 72.7153 423.236 71.4768 423.028 70.2382C425.319 69.206 427.61 68.4835 430.005 67.8643C432.4 67.245 434.9 66.8321 437.607 66.5225C438.961 66.316 440.315 66.316 441.877 66.316C443.439 66.316 445.001 66.4193 446.563 66.6257C448.125 66.8321 449.687 67.245 451.145 67.8643C452.603 68.3803 453.957 69.206 455.206 70.135C456.456 71.0639 457.497 72.3025 458.331 73.7475C459.164 75.1925 459.684 76.9471 459.997 78.9082L459.684 78.805ZM434.275 73.025C434.691 76.2246 435.108 79.2178 435.42 82.211C435.837 85.101 436.358 88.1974 436.878 91.2939H438.128C439.898 90.9842 441.564 90.6746 443.335 90.3649C445.105 90.0553 446.667 89.6424 448.229 89.2296C448.333 88.1974 448.438 86.9589 448.333 85.6171C448.333 84.2753 448.229 82.8303 448.021 81.3853C447.917 80.4564 447.813 79.5275 447.604 78.5985C447.396 77.6696 447.188 76.7407 447.084 75.915C446.875 74.986 446.667 74.1603 446.355 73.4378C446.146 72.6121 445.834 71.9928 445.522 71.3735C445.209 71.3735 444.897 71.3735 444.584 71.3735C444.272 71.3735 443.855 71.3735 443.335 71.4767C442.398 71.58 441.46 71.6832 440.419 71.8896C439.378 72.096 438.44 72.1992 437.503 72.4057C436.462 72.6121 435.42 72.8185 434.275 73.025Z" fill="#242E3F"/>
<path d="M282.963 127.316C282.963 126.8 282.963 126.18 282.963 125.664C282.963 125.045 282.963 124.529 282.963 123.91C281.818 124.735 280.672 125.355 279.527 125.767C278.381 126.18 277.34 126.387 276.402 126.593C275.257 126.8 274.216 126.8 273.07 126.8C271.091 126.696 269.217 126.18 267.447 125.458C265.676 124.735 264.114 123.703 262.865 122.465C261.511 121.123 260.469 119.575 259.74 117.717C259.012 115.859 258.699 113.795 258.803 111.421C259.011 109.047 259.428 106.879 260.261 105.021C261.094 103.06 262.136 101.512 263.594 100.17C264.947 98.8285 266.718 97.8995 268.696 97.2803C270.675 96.661 272.966 96.4546 275.465 96.5578C275.465 96.5578 275.882 96.5578 276.298 96.661C276.819 96.661 277.444 96.8674 278.173 97.0738C278.902 97.2803 279.735 97.5899 280.568 98.0028C281.401 98.4156 282.338 98.9317 283.171 99.551L282.963 95.9385H294.627C294.002 101.615 293.377 107.189 292.96 112.659C292.856 114.001 292.752 115.24 292.648 116.478C292.648 117.613 292.544 118.852 292.44 119.987C292.44 121.123 292.44 122.361 292.231 123.6C292.231 124.838 292.231 126.077 292.127 127.419H282.651L282.963 127.316ZM269.738 119.162C272.029 119.162 274.424 119.265 276.611 119.162C278.902 119.162 281.089 118.955 283.38 118.749C283.484 116.375 283.588 114.001 283.588 111.73C283.588 109.46 283.588 107.189 283.588 104.815H281.922C280.047 104.505 278.069 104.505 276.194 104.402C274.32 104.402 272.341 104.402 270.362 104.608C269.946 106.673 269.738 108.634 269.529 110.698C269.529 111.524 269.529 112.246 269.425 112.866C269.425 113.485 269.425 114.207 269.425 114.827C269.425 115.446 269.425 116.168 269.529 116.891C269.529 117.613 269.634 118.336 269.738 119.058V119.162Z" fill="#242E3F"/>
<path d="M410.011 110.698C410.011 110.079 409.803 109.46 409.698 108.84C409.594 108.221 409.49 107.602 409.386 106.982C408.449 108.118 407.303 109.15 406.158 109.872C405.012 110.595 403.971 111.111 402.929 111.524C401.784 112.04 400.638 112.35 399.389 112.556C397.202 112.866 395.119 112.866 393.036 112.556C390.954 112.246 389.079 111.524 387.309 110.388C385.538 109.356 384.081 107.911 382.831 106.053C381.581 104.196 380.748 102.028 380.227 99.4477C379.811 96.8674 379.811 94.3902 380.227 92.2227C380.644 89.952 381.373 87.991 382.623 86.2363C383.768 84.4817 385.434 83.0367 387.413 81.9013C389.392 80.766 391.787 79.9403 394.494 79.5274C394.494 79.5274 394.911 79.5274 395.432 79.5274C396.056 79.5274 396.785 79.5274 397.618 79.5274C398.452 79.5274 399.389 79.6306 400.43 79.9403C401.472 80.1467 402.513 80.4563 403.554 80.9724L402.409 77.1535L415.009 74.4699C415.634 80.6628 416.467 86.7524 417.3 92.7388C417.509 94.1838 417.717 95.6288 417.925 96.9706C418.134 98.3124 418.342 99.5509 418.55 100.893C418.758 102.131 419.071 103.473 419.279 104.815C419.487 106.053 419.8 107.498 420.112 108.943L409.803 111.111L410.011 110.698ZM393.765 105.228C396.265 104.712 398.764 104.196 401.263 103.576C403.658 102.957 406.054 102.235 408.449 101.512C408.032 98.9317 407.511 96.3513 406.991 93.8742C406.47 91.397 405.845 88.9199 405.22 86.4428L403.346 86.7524C401.263 87.062 399.18 87.4749 397.098 87.8878C395.015 88.3006 392.932 88.8167 390.849 89.436C390.849 91.7067 391.162 93.9774 391.474 96.2481C391.578 97.0738 391.787 97.8995 391.891 98.622C391.995 99.3445 392.203 100.067 392.412 100.79C392.62 101.512 392.828 102.235 393.036 102.957C393.245 103.68 393.557 104.505 393.869 105.331L393.765 105.228Z" fill="#242E3F"/>
<path d="M337.114 89.8489C337.323 92.5324 337.219 95.0096 336.698 97.2803C336.177 99.4478 335.24 101.409 334.094 103.06C332.845 104.712 331.283 105.95 329.304 106.982C327.43 108.015 325.139 108.531 322.639 108.84C321.181 108.84 319.723 108.84 318.265 108.634C317.641 108.634 317.016 108.427 316.287 108.221C315.662 108.015 314.933 107.808 314.308 107.498C313.683 107.189 312.954 106.879 312.33 106.466C311.705 106.053 311.08 105.537 310.559 105.021C310.976 108.737 311.392 112.35 311.809 116.065C312.226 119.678 312.746 123.187 313.267 126.593L300.666 126.903C300.562 122.981 300.354 118.955 300.146 114.723C299.937 110.492 299.625 106.157 299.417 101.822C299.104 97.4867 298.792 93.1517 298.479 88.9199C298.167 84.6881 297.75 80.5596 297.438 76.6374L308.477 75.6053C308.477 76.9471 308.477 78.2889 308.477 79.6307C308.893 79.0114 309.414 78.4953 310.039 78.0824C310.663 77.5664 311.184 77.1535 311.809 76.8439C312.434 76.431 313.059 76.1214 313.683 75.9149C314.308 75.6053 314.933 75.3989 315.558 75.1924C316.912 74.7796 318.266 74.4699 319.723 74.2635C320.973 74.1603 322.223 74.2635 323.472 74.4699C324.722 74.6764 325.972 75.0892 327.221 75.6053C328.471 76.1214 329.616 76.8439 330.762 77.7728C331.908 78.5985 332.845 79.6307 333.782 80.8692C334.719 82.1078 335.448 83.4496 335.969 84.8946C336.594 86.3396 336.906 87.991 337.114 89.8489ZM310.143 100.79C311.809 100.996 313.267 101.202 314.725 101.202C316.183 101.202 317.641 101.202 319.203 100.996C320.14 100.996 321.077 100.79 322.119 100.686C323.16 100.583 324.201 100.377 325.347 100.17C325.347 99.1381 325.347 98.2092 325.347 97.2803C325.347 96.3513 325.243 95.3192 325.139 94.3903C324.93 92.4292 324.722 90.4681 324.41 88.6103C324.097 86.6492 323.681 84.7914 323.16 82.8303C321.077 82.8303 319.203 82.9335 317.641 83.1399C316.912 83.1399 316.183 83.3464 315.454 83.4496C314.725 83.4496 313.996 83.656 313.371 83.7592C312.642 83.8624 311.913 83.9656 311.184 84.0689C310.455 84.1721 309.726 84.3785 308.893 84.4817C309.206 89.1264 309.622 93.9774 310.039 98.8285L310.247 100.893L310.143 100.79Z" fill="#242E3F"/>
<path d="M201.527 79.9403C192.572 79.8371 186.844 83.7592 186.636 97.4867C186.427 112.659 194.55 113.795 203.61 113.898C215.586 114.104 218.814 105.847 217.356 99.1381H210.587C210.067 100.17 212.045 107.292 202.152 106.673C195.904 106.26 193.821 104.299 193.925 97.5899C194.03 89.6424 195.696 86.546 201.423 86.6492C207.672 86.6492 208.296 89.1264 209.234 89.7457L205.068 92.7389L218.606 95.0096L219.856 82.6239L215.69 85.6171C213.607 84.1721 212.149 80.5596 201.736 79.8371L201.527 79.9403Z" fill="#242E3F"/>
<path d="M70.1059 70.2382C66.5652 69.9285 62.9204 69.7221 59.3798 69.3092C57.0887 68.9996 54.4853 68.9996 52.1943 68.4835C51.6736 68.3803 53.0274 68.69 53.1315 68.69C53.7563 68.69 54.4853 68.69 55.006 69.1028" stroke="#956F43" stroke-width="3" stroke-linecap="round"/>
<path d="M62.1915 70.2382C61.8791 71.8896 61.6708 73.6442 61.2542 75.2956C61.1501 75.8117 60.8377 76.3278 61.4625 75.8117" stroke="#956F43" stroke-width="3" stroke-linecap="round"/>
<path d="M67.8149 77.876C63.9618 77.4632 60.1087 76.9471 56.2557 76.6375C55.4226 76.6375 54.5895 76.5343 53.7564 76.431C53.7564 76.431 51.8819 76.431 52.6108 76.3278" stroke="#956F43" stroke-width="3" stroke-linecap="round"/>
<path d="M51.6736 80.4564C54.4853 80.6628 56.6722 81.2821 59.2756 82.4174C60.7336 83.0367 61.5667 84.0689 61.3584 85.8235C60.8377 90.2617 53.1315 89.7456 50.424 89.8489" stroke="#956F43" stroke-width="3" stroke-linecap="round"/>
<path d="M56.2556 82.3142C55.7349 84.5849 55.5266 87.0621 55.4225 89.3328" stroke="#956F43" stroke-width="3" stroke-linecap="round"/>
<path d="M59.9005 98.5189C61.046 91.7067 53.3398 93.1517 51.153 94.2871C47.2999 97.6932 51.6736 101.099 53.2357 100.48" stroke="#956F43" stroke-width="3" stroke-linecap="round"/>
<path d="M63.3369 105.331C59.7963 105.641 56.2556 105.744 52.2984 104.815C51.257 104.608 48.6536 103.989 47.6122 103.783M60.0045 111.524C58.7549 111.317 55.9432 113.795 53.9646 105.95M54.1728 106.053C52.9232 113.382 51.7777 111.421 48.0287 110.079" stroke="#956F43" stroke-width="3" stroke-linecap="round"/>
<path d="M55.8391 129.277C59.0673 129.07 60.2129 123.393 57.5053 120.916C56.1515 119.781 53.1315 116.994 46.8833 119.987C42.5095 122.774 44.384 127.316 48.5495 128.141" stroke="#956F43" stroke-width="3" stroke-linecap="round"/>
<path d="M55.5267 134.437C53.3398 133.818 47.9246 132.373 45.8419 131.547C45.5295 131.547 44.5922 130.928 44.2798 131.238C43.4467 132.063 43.0302 135.057 43.1343 136.089" stroke="#956F43" stroke-width="3" stroke-linecap="round"/>
<path d="M49.1743 141.559C47.2998 138.876 42.926 139.185 42.4053 141.146C40.635 147.236 45.3212 146.41 47.9246 145.791" stroke="#956F43" stroke-width="3" stroke-linecap="round"/>
<path d="M49.3826 151.984C46.2584 151.365 36.9902 149.507 40.1143 150.229" stroke="#956F43" stroke-width="3" stroke-linecap="round"/>
<path d="M48.966 152.19C49.0702 153.842 50.0074 157.248 47.404 157.454C45.4253 157.557 45.0088 156.216 44.4881 154.564C44.384 154.151 43.9674 150.642 44.0715 152.706C44.0715 154.461 43.8633 155.803 42.3012 156.732C39.2812 158.693 36.7819 155.183 37.4067 152.293C37.615 151.364 38.2398 150.745 38.7605 150.023" stroke="#956F43" stroke-width="3" stroke-linecap="round"/>
<path d="M59.588 202.765C59.588 202.765 58.6508 202.352 56.9846 201.423C56.4639 202.146 55.9432 202.868 55.4225 203.384C55.006 203.9 54.5894 204.313 54.1729 204.726C53.8605 204.726 53.5481 204.726 53.1315 204.52C52.4025 204.107 52.0901 203.694 52.1943 203.178C52.6108 202.455 53.3398 201.527 54.4853 200.185C53.8605 199.772 53.4439 199.565 53.1315 199.462C52.9232 199.256 52.7149 199.153 52.5067 199.049C52.4025 199.049 52.1943 198.843 51.986 198.74C51.7777 198.637 51.3612 198.327 50.8405 198.017C50.6322 197.914 50.4239 197.708 50.1115 197.501C49.9032 197.295 49.5908 196.985 49.3825 196.779C49.1743 196.469 48.966 196.263 48.7577 195.953C48.5494 195.747 48.4453 195.54 48.4453 195.334C48.4453 195.127 48.5495 194.921 48.6536 194.714C48.966 194.198 49.4867 193.579 50.3198 193.063C50.9446 192.857 51.986 192.134 53.3398 190.999L57.5053 188.831C57.8177 188.831 58.026 188.831 58.3384 189.038C59.0673 189.45 59.2756 189.967 58.9632 190.586C58.9632 190.586 58.8591 190.689 58.6508 190.895C58.4425 191.102 58.1301 191.308 57.7135 191.515C57.297 191.824 56.8804 192.031 56.3598 192.34C55.8391 192.65 55.3184 192.96 54.6936 193.269L51.5694 195.54C51.5694 195.54 51.5694 195.747 51.7777 195.747C51.8819 195.747 52.0901 195.85 52.0901 195.85H52.1943C52.1943 195.85 52.4025 195.85 52.5067 195.953C52.6108 195.953 52.715 195.953 52.8191 196.159C53.0274 196.263 53.2356 196.366 53.4439 196.572C53.6522 196.675 53.8605 196.882 54.1729 197.088C54.6936 197.398 55.3184 197.708 55.9432 198.017L57.297 196.056C57.297 195.85 57.4011 195.747 57.5053 195.54C57.5053 195.334 57.7136 195.23 57.8177 195.024C58.026 194.611 58.3384 194.302 58.5467 193.992C58.8591 193.682 59.0673 193.269 59.2756 192.857C59.2756 192.753 59.4839 192.547 59.588 192.237C59.6922 191.928 59.9004 191.618 60.0046 191.308C60.2129 190.999 60.317 190.689 60.4211 190.483C60.5253 190.173 60.6294 190.07 60.6294 190.07C61.046 189.76 61.4625 189.657 61.9832 189.967C61.9832 189.967 62.0873 190.07 62.1915 190.07C62.1915 190.07 62.2956 190.173 62.3997 190.276C62.5039 190.276 62.608 190.379 62.7122 190.483C62.7122 190.483 62.7122 190.792 62.608 191.102C62.608 191.412 62.5039 191.721 62.2956 192.134C62.1915 192.444 62.0873 192.857 61.879 193.269C61.7749 193.682 61.5666 193.992 61.4625 194.198C61.3584 194.508 61.1501 194.818 60.9418 195.127C60.7335 195.437 60.4211 195.953 60.1087 196.469C60.1087 196.469 60.0046 196.675 59.7963 196.985C59.6922 197.192 59.4839 197.501 59.1715 197.914C58.9632 198.327 58.6508 198.74 58.2342 199.256H58.5467C58.7549 199.565 59.0673 199.772 59.3798 199.978C59.6922 200.185 60.0046 200.391 60.4211 200.701C60.7335 201.01 60.7335 201.527 60.4211 202.043C60.2129 202.455 59.7963 202.765 59.4839 202.765H59.588ZM67.7107 211.125C67.6066 211.125 67.5025 211.125 67.3983 211.125C67.3983 211.125 67.1901 211.125 67.0859 211.022H66.9818L66.357 210.609C66.2528 210.609 66.1487 210.506 65.9404 210.403C65.9404 210.403 65.7321 210.197 65.628 210.197C65.5239 210.197 65.3156 210.093 65.2115 209.99C65.1073 209.99 64.899 209.784 64.7949 209.68C64.5866 209.577 64.3784 209.371 64.0659 209.061C63.7535 208.752 63.337 208.442 62.9204 208.132C62.8163 208.132 62.7122 208.029 62.608 207.926C62.5039 207.926 62.3997 207.823 62.2956 207.719C62.1915 207.719 61.4625 207.1 60.317 206.171C60.2128 205.552 60.2128 205.036 60.317 204.726C60.5253 204.417 60.7335 204.107 61.0459 203.9C61.6708 203.797 62.1915 203.591 62.5039 203.488C62.8163 203.384 63.2328 203.281 63.4411 203.075C64.0659 202.765 64.7949 202.455 65.3156 202.249C65.9404 202.043 66.5652 201.836 67.1901 201.63C67.1901 201.63 67.3983 201.63 67.6066 201.423C67.8149 201.32 68.1273 201.217 68.3356 201.114C68.5439 201.01 68.8563 200.907 69.0645 200.804C69.377 200.701 69.5852 200.598 69.6894 200.494C70.4183 200.288 71.0431 199.772 71.3556 199.153C71.668 198.533 71.5638 198.017 70.939 197.708C70.7307 197.604 70.4183 197.501 70.1059 197.398C69.7935 197.398 69.4811 197.192 69.1687 197.192C68.8563 197.192 68.5438 197.192 68.2314 197.192C67.919 197.192 67.7108 197.192 67.5025 197.398C67.3983 197.398 67.0859 197.604 66.8777 197.811C66.6694 198.017 66.357 198.224 66.0445 198.327C65.7321 198.533 65.4197 198.637 65.1073 198.637C64.7949 198.637 64.5866 198.637 64.2742 198.637C63.9618 198.43 63.7535 198.12 63.5453 197.708C63.4411 197.295 63.5453 196.882 63.6494 196.572C63.6494 196.366 63.9618 196.159 64.2742 195.953C64.5866 195.747 65.0032 195.437 65.4197 195.23C65.8363 195.024 66.2528 194.818 66.6694 194.714C67.0859 194.611 67.5025 194.508 67.7107 194.611C69.2728 194.611 70.7307 195.024 72.2928 195.85C72.9176 196.159 73.3342 196.572 73.5425 196.882C73.8549 197.295 74.0631 197.708 74.0631 198.12C74.0631 198.533 74.0631 198.946 74.0631 199.359C73.959 199.772 73.7507 200.185 73.5425 200.598C72.9176 201.733 71.9804 202.455 70.939 202.765C70.6266 202.765 70.3142 202.972 70.0018 203.075C69.6894 203.178 69.377 203.384 69.1687 203.488C68.9604 203.591 68.7521 203.694 68.5439 203.797C68.3356 203.797 68.2314 204.004 68.1273 204.004C67.919 204.004 66.7735 204.417 64.899 205.242L63.7535 205.552C64.3784 205.862 64.899 206.274 65.2115 206.584C65.628 206.894 65.8363 206.997 65.8363 206.997C66.1487 207.203 66.4611 207.41 66.9818 207.616C67.3983 207.823 67.919 208.132 68.5439 208.442C68.7521 208.545 68.8563 208.855 68.8563 209.268C68.8563 209.68 68.8563 210.093 68.5439 210.403C68.2314 210.919 67.919 211.125 67.6066 211.022L67.7107 211.125ZM78.7493 217.421C78.6452 217.421 78.5411 217.421 78.4369 217.421C78.4369 217.421 78.2286 217.422 78.1245 217.318H78.0204L77.3955 216.905C77.2914 216.905 77.1873 216.802 76.979 216.699C76.979 216.699 76.7707 216.493 76.6666 216.493C76.5624 216.493 76.3542 216.286 76.25 216.286C76.1459 216.286 75.9376 216.08 75.8335 215.977C75.6252 215.873 75.4169 215.667 75.1045 215.357C74.7921 215.048 74.3755 214.738 73.959 214.428C73.8549 214.428 73.7507 214.325 73.6466 214.222C73.5425 214.222 73.4383 214.119 73.3342 214.015C73.23 214.015 72.5011 213.396 71.3556 212.467C71.2514 211.848 71.2514 211.332 71.3556 211.022C71.5638 210.713 71.7721 210.403 72.0845 210.197C72.7094 210.093 73.23 209.887 73.5425 209.784C73.959 209.68 74.2714 209.577 74.4797 209.371C75.1045 209.061 75.8335 208.752 76.3542 208.545C76.979 208.339 77.6038 208.132 78.2286 207.926C78.2286 207.926 78.4369 207.926 78.6452 207.719C78.8535 207.616 79.1659 207.513 79.3742 207.41C79.5824 207.307 79.8948 207.203 80.1031 207.1C80.4155 206.997 80.6238 206.894 80.7279 206.79C81.4569 206.584 82.0817 206.068 82.3941 205.449C82.7066 204.829 82.6024 204.313 81.9776 204.004C81.7693 203.9 81.4569 203.797 81.1445 203.694C80.8321 203.694 80.5197 203.488 80.2073 203.488C79.8948 203.488 79.5824 203.488 79.27 203.488C78.9576 203.488 78.7493 203.488 78.5411 203.694C78.4369 203.694 78.1245 203.9 77.9162 204.107C77.708 204.313 77.3955 204.52 77.0831 204.623C76.7707 204.829 76.4583 204.933 76.1459 204.933C75.8335 204.933 75.6252 204.933 75.3128 204.829C75.0004 204.623 74.7921 204.313 74.5838 203.9C74.4797 203.488 74.5838 203.075 74.688 202.765C74.688 202.559 75.0004 202.352 75.3128 202.146C75.6252 201.939 76.0418 201.63 76.4583 201.423C76.8749 201.217 77.2914 201.01 77.708 200.907C78.1245 200.804 78.5411 200.701 78.7493 200.804C80.3114 200.804 81.7693 201.217 83.3314 202.043C83.9562 202.352 84.3728 202.765 84.581 203.075C84.8934 203.488 85.1017 203.9 85.1017 204.313C85.1017 204.726 85.1017 205.139 85.1017 205.552C84.9976 205.965 84.7893 206.378 84.581 206.79C83.9562 207.926 83.019 208.648 81.9776 208.958C81.6652 208.958 81.3528 209.164 81.0404 209.268C80.7279 209.371 80.4155 209.577 80.2073 209.68C79.999 209.784 79.7907 209.887 79.5824 209.99C79.3742 209.99 79.27 210.197 79.1659 210.197C78.9576 210.197 77.8121 210.609 75.9376 211.435L74.7921 211.745C75.4169 212.054 75.9376 212.467 76.25 212.777C76.6666 213.087 76.8749 213.19 76.8749 213.19C77.1873 213.396 77.4997 213.603 78.0204 213.809C78.4369 214.015 78.9576 214.325 79.5824 214.635C79.7907 214.738 79.8948 215.048 79.8948 215.46C79.8948 215.873 79.8948 216.286 79.5824 216.596C79.27 217.112 78.9576 217.318 78.6452 217.215L78.7493 217.421ZM89.7879 221.653C89.4755 221.86 89.2672 222.066 88.9548 222.169C88.6424 222.376 88.33 222.479 87.9134 222.582C87.4969 222.685 86.9762 222.789 86.4555 222.892C85.9348 222.995 85.1017 223.098 84.2686 223.201C82.1859 223.201 80.7279 222.995 80.1031 222.582C79.7907 222.376 79.5824 222.169 79.6866 221.963C79.6866 221.757 79.8948 221.447 80.1031 221.137C80.3114 220.828 80.5197 220.621 80.8321 220.621C81.1445 220.621 81.4569 220.518 81.8735 220.415C82.29 220.415 82.7066 220.415 83.2272 220.415C83.7479 220.415 84.2686 220.415 84.7893 220.415C84.7893 220.415 85.1017 220.415 85.31 220.415C85.5183 220.415 85.8307 220.415 86.2472 220.208L87.9134 219.589C88.5383 219.279 89.0589 218.867 89.3714 218.35C89.5796 217.938 89.7879 217.422 89.6838 217.009C89.6838 216.493 89.6838 216.08 89.4755 215.667C89.2672 215.254 89.0589 214.944 88.7465 214.635C88.4341 214.325 88.2258 214.119 87.9134 213.912C87.7052 213.809 87.4969 213.706 87.2886 213.603C87.0803 213.603 86.8721 213.396 86.6638 213.293C86.5596 213.293 86.4555 213.087 86.2472 212.983C86.039 212.88 85.9348 212.674 85.7265 212.467C85.6224 212.261 85.5183 212.054 85.4141 211.848C85.4141 211.642 85.4141 211.435 85.4141 211.229C85.4141 211.125 85.5183 211.022 85.6224 210.919L86.1431 210.197C86.2472 209.99 86.4555 209.68 86.7679 209.371C87.0803 209.061 87.3927 208.648 87.7052 208.339C88.0176 208.029 88.2258 207.719 88.4341 207.41C88.6424 207.203 88.7465 207.1 88.7465 207.1C89.1631 206.274 89.5796 205.758 89.892 205.552C90.2045 205.345 90.5169 205.345 90.8293 205.552C91.2458 205.758 91.6624 206.068 91.9748 206.481C92.2872 206.79 92.5996 207.1 92.912 207.203C92.912 207.203 92.912 207.203 93.0162 207.203C93.0162 207.203 93.0162 207.203 93.1203 207.203C93.1203 207.203 93.3286 207.307 93.641 207.513C93.9534 207.719 94.2658 207.926 94.5782 208.235C94.8906 208.545 95.2031 208.752 95.5155 208.958C95.8279 209.164 95.932 209.268 95.932 209.268C96.3486 209.68 96.3486 210.197 95.932 210.816C95.5155 211.538 94.9948 211.745 94.37 211.435C94.1617 211.332 93.9534 211.125 93.641 210.919C93.3286 210.713 92.912 210.506 92.4955 210.197C92.2872 210.197 92.0789 209.887 91.7665 209.68C91.4541 209.371 91.2458 209.268 91.0376 209.164C90.8293 209.164 90.7251 209.061 90.621 209.061C90.4127 209.371 90.1003 209.68 89.7879 209.99C89.4755 210.3 89.0589 210.713 88.7465 211.229C89.1631 211.435 89.5796 211.745 89.9962 212.054C90.4127 212.364 90.8293 212.777 91.2458 213.293C91.6624 213.809 91.8707 214.325 92.0789 215.048C92.2872 215.667 92.3913 216.493 92.2872 217.421C92.2872 218.454 91.9748 219.176 91.6624 219.795C91.35 220.311 90.7251 220.931 89.892 221.653H89.7879Z" fill="#956F43"/>
<path d="M74.1674 64.9743C71.0432 64.7679 51.7778 65.9032 48.5495 65.6968C45.4254 65.4904 26.0558 160.035 29.2841 160.757C32.5123 161.48 53.5481 166.021 56.5681 165.195C59.5881 164.37 77.2915 65.284 74.1674 65.0775V64.9743Z" stroke="#956F43" stroke-width="2"/>
<path d="M229.543 132.202C226.245 131.45 222.959 130.781 219.685 130.194L219.453 130.152C219.259 131.235 218.973 132.754 218.596 134.709C218.249 136.642 217.858 138.821 217.423 141.244C216.993 143.642 216.525 146.179 216.018 148.855C215.512 151.532 215.032 154.134 214.578 156.66C214.125 159.187 213.689 161.543 213.27 163.73C212.882 165.896 212.558 167.7 212.299 169.144L220.768 170.663L219.02 180.409L187 174.665L188.748 164.92L195.632 166.154C195.924 164.823 196.267 163.208 196.66 161.31C197.08 159.416 197.527 157.367 198.002 155.164C198.477 152.96 198.971 150.654 199.483 148.244C200.021 145.839 200.53 143.443 201.012 141.054C201.524 138.645 202.009 136.31 202.468 134.051C202.926 131.791 203.327 129.708 203.669 127.8C202.422 127.63 201.186 127.474 199.961 127.334C198.74 127.168 197.503 127.013 196.252 126.869C196.528 125.774 196.778 124.754 197 123.81C197.253 122.844 197.466 121.884 197.637 120.93C197.771 120.182 197.879 119.43 197.962 118.673C198.075 117.895 198.148 117.043 198.18 116.118C200.014 116.58 202.099 117.047 204.435 117.519C206.777 117.966 209.185 118.411 211.66 118.855C214.135 119.299 216.535 119.716 218.86 120.107C221.211 120.502 223.319 120.84 225.184 121.121C227.359 121.458 229.418 121.774 231.361 122.07L229.543 132.202Z" fill="#242E3E"/>
<path d="M269.715 154.945C269.715 156.367 269.487 157.689 269.031 158.91C268.576 160.113 267.919 161.225 267.062 162.246C266.206 163.249 265.167 164.16 263.945 164.98C262.724 165.801 261.348 166.521 259.816 167.141L271.902 182.098L259.242 183.492L251.285 169.547C250.72 169.656 250.137 169.757 249.535 169.848C248.934 169.939 248.323 170.03 247.703 170.121C247.849 171.999 248.022 173.958 248.223 176C248.441 178.042 248.678 180.22 248.934 182.535L236 183.438C236.365 178.753 236.647 174.095 236.848 169.465C237.066 164.816 237.176 160.141 237.176 155.438C237.176 154.216 237.167 153.104 237.148 152.102C237.148 151.099 237.13 150.124 237.094 149.176C237.076 148.228 237.039 147.253 236.984 146.25C236.93 145.247 236.866 144.126 236.793 142.887C238.999 142.212 241.241 141.729 243.52 141.438C245.816 141.146 248.186 141 250.629 141C251.85 141 253.172 141.082 254.594 141.246C256.016 141.41 257.428 141.693 258.832 142.094C260.254 142.495 261.612 143.033 262.906 143.707C264.219 144.382 265.376 145.238 266.379 146.277C267.4 147.316 268.211 148.547 268.812 149.969C269.414 151.391 269.715 153.049 269.715 154.945ZM246.992 146.77C246.992 149.759 247.01 152.648 247.047 155.438C247.102 158.208 247.211 161.061 247.375 163.996H248.496C250.1 163.996 251.714 163.951 253.336 163.859C254.958 163.768 256.499 163.595 257.957 163.34C258.212 162.355 258.395 161.234 258.504 159.977C258.632 158.701 258.695 157.379 258.695 156.012C258.695 155.137 258.668 154.262 258.613 153.387C258.559 152.493 258.486 151.637 258.395 150.816C258.303 149.978 258.176 149.185 258.012 148.438C257.866 147.69 257.702 147.016 257.52 146.414C257.264 146.378 256.964 146.35 256.617 146.332C256.289 146.314 255.915 146.305 255.496 146.305C254.658 146.305 253.746 146.332 252.762 146.387C251.796 146.441 250.875 146.496 250 146.551C248.997 146.624 247.995 146.697 246.992 146.77Z" fill="#242E3E"/>
<path d="M314.363 142C312.158 149.036 310.152 156.118 308.348 163.246C306.561 170.374 304.957 177.447 303.535 184.465C301.822 184.538 300.017 184.611 298.121 184.684C296.499 184.738 294.676 184.784 292.652 184.82C290.629 184.875 288.569 184.902 286.473 184.902L276 143.477L289.098 142.629C290.1 147.077 291.076 151.443 292.023 155.727C292.424 157.549 292.835 159.454 293.254 161.441C293.673 163.41 294.083 165.37 294.484 167.32C294.885 169.253 295.268 171.13 295.633 172.953C295.997 174.758 296.316 176.426 296.59 177.957C297.137 175.879 297.702 173.673 298.285 171.34C298.868 169.007 299.434 166.664 299.98 164.312C300.546 161.943 301.083 159.628 301.594 157.367C302.122 155.089 302.605 152.965 303.043 150.996C303.48 149.027 303.854 147.268 304.164 145.719C304.492 144.151 304.747 142.911 304.93 142H314.363Z" fill="#242E3E"/>
<path d="M344.808 140.558C342.466 140.794 340.15 141.082 337.859 141.421L337.697 141.445C337.809 142.203 337.958 143.268 338.143 144.641C338.343 145.993 338.569 147.517 338.82 149.212C339.068 150.889 339.322 152.667 339.582 154.545C339.841 156.423 340.102 158.246 340.364 160.013C340.626 161.78 340.861 163.431 341.07 164.967C341.294 166.481 341.481 167.744 341.631 168.753L347.554 167.876L348.564 174.692L326.167 178.009L325.158 171.193L329.973 170.48C329.87 169.537 329.738 168.395 329.576 167.056C329.433 165.713 329.273 164.263 329.097 162.704C328.922 161.145 328.736 159.514 328.539 157.811C328.36 156.105 328.164 154.411 327.952 152.729C327.755 151.026 327.557 149.378 327.358 147.786C327.159 146.194 326.961 144.731 326.763 143.396C325.903 143.56 325.053 143.732 324.214 143.912C323.372 144.073 322.522 144.245 321.664 144.428C321.603 143.644 321.542 142.916 321.479 142.244C321.432 141.551 321.358 140.87 321.26 140.203C321.182 139.68 321.087 139.16 320.973 138.642C320.875 138.104 320.734 137.526 320.551 136.908C321.862 136.806 323.341 136.651 324.988 136.445C326.631 136.22 328.319 135.979 330.05 135.723C331.781 135.466 333.457 135.209 335.077 134.95C336.715 134.689 338.181 134.445 339.474 134.216C340.983 133.956 342.411 133.708 343.758 133.471L344.808 140.558Z" fill="#242E3E"/>
<path d="M394.021 123.578C394.442 129.066 394.914 134.432 395.437 139.677C395.663 141.917 395.903 144.238 396.16 146.639C396.416 149.04 396.685 151.41 396.966 153.751C397.248 156.091 397.543 158.355 397.851 160.542C398.155 162.71 398.477 164.681 398.817 166.454C397.502 166.854 396.25 167.196 395.06 167.48C393.889 167.76 392.695 168.017 391.477 168.251C390.851 168.371 390.196 168.487 389.512 168.6C388.828 168.712 388.116 168.821 387.375 168.926L366.15 140.56C366.405 141.792 366.689 143.176 367.002 144.712C367.333 146.245 367.677 147.849 368.036 149.525C368.391 151.183 368.753 152.877 369.122 154.607C369.508 156.333 369.874 157.998 370.219 159.603C371.018 163.385 371.854 167.261 372.727 171.233C371.635 171.443 370.51 171.677 369.354 171.936C368.358 172.164 367.248 172.423 366.023 172.713C364.819 173.019 363.62 173.35 362.427 173.709C362.209 171.895 361.929 169.851 361.586 167.578C361.239 165.287 360.854 162.893 360.431 160.394C360.022 157.874 359.588 155.321 359.13 152.736C358.671 150.151 358.21 147.65 357.747 145.233C357.266 142.727 356.791 140.396 356.322 138.24C355.871 136.08 355.473 134.245 355.128 132.733C356.598 132.563 358.001 132.377 359.336 132.177C360.668 131.959 361.996 131.723 363.321 131.469C364.664 131.211 366.003 130.936 367.339 130.643C368.689 130.328 370.097 129.975 371.563 129.582C372.804 131.702 374.118 133.714 375.504 135.62C376.891 137.526 378.3 139.409 379.733 141.268C381.181 143.107 382.632 144.963 384.086 146.837C385.538 148.694 386.966 150.629 388.373 152.642C388.147 151.46 387.909 150.17 387.659 148.77C387.427 147.366 387.186 145.918 386.937 144.425C386.688 142.933 386.437 141.431 386.185 139.92C385.932 138.409 385.699 136.951 385.485 135.544C384.95 132.268 384.429 128.925 383.924 125.514C384.926 125.415 385.808 125.32 386.57 125.229C387.347 125.118 388.111 124.99 388.863 124.845C389.615 124.701 390.39 124.534 391.189 124.344C391.984 124.136 392.928 123.88 394.021 123.578Z" fill="#242E3E"/>
<path d="M438.324 145.939C437.136 145.932 435.95 145.953 434.765 146.001C433.579 146.031 432.396 146.088 431.214 146.173C430.068 146.254 428.925 146.363 427.783 146.5C426.64 146.618 425.481 146.765 424.305 146.94L424.633 151.522C424.711 152.613 424.795 153.667 424.886 154.684C424.975 155.683 425.07 156.617 425.168 157.487C426.348 157.367 427.601 157.259 428.928 157.164C430.274 157.068 431.628 156.971 432.992 156.874C434.356 156.776 435.666 156.692 436.922 156.621C438.176 156.531 439.294 156.451 440.276 156.381C441.405 156.319 442.478 156.251 443.497 156.179C443.497 156.434 443.499 156.718 443.502 157.028C443.502 157.284 443.506 157.594 443.514 157.959C443.54 158.323 443.569 158.723 443.6 159.159C443.64 159.723 443.693 160.331 443.758 160.985C443.841 161.637 443.934 162.306 444.038 162.993C443.326 163.008 442.598 163.041 441.852 163.095C441.125 163.146 440.416 163.197 439.725 163.246C435.379 163.557 431.074 163.928 426.81 164.361C422.566 164.81 418.29 165.334 413.984 165.934C413.945 165.389 413.899 164.625 413.847 163.641C413.795 162.658 413.732 161.511 413.657 160.201C413.598 158.871 413.531 157.423 413.456 155.857C413.398 154.271 413.326 152.622 413.24 150.91C413.154 149.198 413.066 147.45 412.975 145.666C412.902 143.88 412.813 142.123 412.708 140.394C412.62 138.646 412.528 136.971 412.432 135.37C412.334 133.75 412.236 132.249 412.138 130.867C412.043 129.54 411.95 128.368 411.859 127.351C411.785 126.315 411.696 125.453 411.592 124.766C413.465 124.632 415.339 124.516 417.215 124.419C419.089 124.304 420.98 124.178 422.89 124.041C425.763 123.836 428.641 123.585 431.526 123.288C434.41 122.99 437.36 122.579 440.374 122.053C440.328 122.677 440.307 123.282 440.312 123.866C440.334 124.431 440.363 124.968 440.4 125.477C440.435 125.968 440.476 126.422 440.524 126.839C440.571 127.238 440.623 127.581 440.68 127.87C440.74 128.194 440.798 128.492 440.854 128.762C438.734 129.023 436.64 129.264 434.573 129.485C433.684 129.585 432.76 129.687 431.798 129.792C430.854 129.878 429.902 129.974 428.94 130.079C427.996 130.164 427.07 130.249 426.162 130.332C425.273 130.414 424.446 130.482 423.682 130.536C423.708 131.412 423.73 132.361 423.749 133.383C423.775 134.258 423.802 135.289 423.832 136.474C423.88 137.659 423.935 138.934 423.996 140.301C426.212 140.106 428.443 139.873 430.69 139.603C432.955 139.332 435.326 139.007 437.802 138.629C437.797 139.324 437.793 140.028 437.789 140.741C437.802 141.435 437.835 142.154 437.888 142.9C437.923 143.391 437.968 143.89 438.023 144.398C438.095 144.904 438.196 145.418 438.324 145.939Z" fill="#242E3E"/>
</svg>
