<svg width="120" height="241" viewBox="0 0 120 241" fill="none" xmlns="http://www.w3.org/2000/svg">
<path d="M26 186C24.9897 187.299 25.907 187.82 27.1111 188.556C36.5039 194.296 44.6268 203.046 53.5 209.556C66.6368 219.193 80.641 227.413 94.0556 236.611C97.0745 238.681 97.1236 237.469 96.9445 234.333C96.3001 223.058 100.905 212.64 104 201.778C108.025 187.651 109.891 169.795 117 157M24 183C17.2651 183 49.2238 179.78 45.2222 174.778C38.7999 166.75 33.7685 154.604 29.2778 145.5C11.9824 110.435 -1.58019 80.4811 5 41M9 37C4.96646 37.5042 27.4684 27.1239 30.2222 25.7777C46.0061 18.0623 70.0198 -2.49016 87 5.99996M87 11C86.4221 6.37656 83.1264 12.8086 82.7778 13.6667C72.2861 39.4923 66.9968 69.1972 68.1111 97.0556C68.8094 114.513 73.2277 132.022 82.4444 146.944C83.3423 148.398 87.8875 159.113 89 158M93 157C91.6258 157.153 107.274 153.26 112 152" stroke="#F1A3BA" stroke-width="6" stroke-linecap="round"/>
</svg>
