<svg width="108" height="99" viewBox="0 0 108 99" fill="none" xmlns="http://www.w3.org/2000/svg">
<path d="M3.99999 83C2.55995 84.2601 3.59798 65.9514 3.66665 65.3334C5.57934 48.1192 8.36249 4.48371 34.2222 3.22226C59.8588 1.9717 36.3168 35.3174 31.4444 41.7778C23.4444 52.3852 11.9716 65.5709 6.99999 78M23 84C18.7917 87.9453 24.4791 79.7881 25.2223 78.7778C36.8898 62.9173 52.1396 35.9287 70.6667 27C82.6699 21.2153 110.371 19.5155 103.389 41C96.2448 62.9818 75.2272 66.9351 56.5 75.5555C45.1423 80.7837 28.117 83.6491 24 96" stroke="#91CCF4" stroke-width="6" stroke-linecap="round"/>
</svg>
