<svg width="265" height="172" viewBox="0 0 265 172" fill="none" xmlns="http://www.w3.org/2000/svg">
<path d="M8.15367 11.0217C6.6109 9.47888 2.98352 2.83067 3.35994 3.16527C14.424 13 23.1939 28.5449 31.057 40.583C44.6467 61.388 55.8965 86.3749 75.399 102.502C79.2018 105.647 77.5396 100.086 77.7292 97.2421C78.6504 83.425 75.4148 49.9296 88.4485 40.5164C98.3296 33.3801 129.868 80.1196 133.723 85.0581C143.969 98.1848 152.783 112.979 163.683 125.538C168.363 130.93 168.743 124.468 168.743 120.745C168.743 110.747 167.087 100.611 167.811 90.6507C168.639 79.2718 173.766 68.5138 174.669 57.2278C175.843 42.5478 200.718 86.0271 203.698 90.451C217.555 111.028 233.162 130.303 246.974 150.905C247.998 152.432 259.312 171.438 261.023 168.016" stroke="#91CCF4" stroke-width="6" stroke-linecap="round"/>
</svg>
