<svg width="239" height="157" viewBox="0 0 239 157" fill="none" xmlns="http://www.w3.org/2000/svg">
<path d="M209.52 3.99993C212.092 1.71378 238.198 56.9087 235.187 67.111C229.079 87.8094 173.519 31.7791 166.743 26.4444C161.985 22.6991 144.339 2.86246 137.187 6.6666C128.089 11.5061 142.279 33.5821 144.687 37.7777C153.854 53.7497 167.083 73.2785 165.854 92.6666C165.11 104.4 152.98 103.883 145.354 99.1666C127.801 88.3114 114.073 72.0008 97.7427 59.4999C92.0416 55.1357 52.6874 22.1699 54.1872 45.9999C55.3364 64.2595 69.7279 80.5252 74.1872 98.111C75.7606 104.316 79.4495 136.311 65.576 133.889C56.9645 132.385 11.3898 83.334 4.07605 101.444C-0.0654583 111.7 10.0204 129.613 12.9649 139.389C13.7366 141.951 17.8946 153.748 17.5205 153" stroke="#F1A3BA" stroke-width="6" stroke-linecap="round"/>
</svg>
