<svg width="528" height="145" viewBox="0 0 528 145" fill="none" xmlns="http://www.w3.org/2000/svg">
<path d="M3.30522 101.936C1.85322 100.277 6.69293 99.6845 7.57707 99.3949C18.4297 95.8397 14.3014 97.4149 35.7496 93.1764C132.906 73.9765 230.246 55.6776 327.533 37.1557C381.986 26.7887 436.814 17.46 491.052 5.90099C491.2 5.86951 500.435 4.84685 496.784 3.62988M68.5184 141.843C67.485 141.728 64.7297 139.886 65.3281 138.49C65.8286 137.322 72.1687 137.913 72.7903 137.896C80.1449 137.685 79.4297 137.574 89.9858 135.516C134.333 126.871 178.374 116.656 222.629 107.56C322.062 87.1234 425.919 76.7869 524.037 57.1631" stroke="#F3D24F" stroke-width="6" stroke-linecap="round"/>
</svg>
