<?xml version="1.0" encoding="UTF-8"?>
<svg version="1.1" xmlns="http://www.w3.org/2000/svg" width="512" height="384">
<path d="M0 0 C2.50955001 1.88939555 4.9937416 3.80752841 7.47045898 5.73974609 C9.32233564 7.16811119 11.17522068 8.59516977 13.02905273 10.02099609 C13.95186035 10.73126953 14.87466797 11.44154297 15.82543945 12.17333984 C19.85556592 15.24917306 23.94045487 18.24769291 28.03295898 21.23974609 C35.66088709 26.8256334 43.18942174 32.53252257 50.69702148 38.27880859 C56.43198626 42.66038935 62.21055461 46.97517567 68.03295898 51.23974609 C75.66035915 56.8263703 83.18940463 62.53250948 90.69702148 68.27880859 C96.43198626 72.66038935 102.21055461 76.97517567 108.03295898 81.23974609 C115.65148888 86.81987334 123.172319 92.51868414 130.6706543 98.2590332 C137.40714716 103.40652984 144.20691944 108.46169788 151.05444336 113.46044922 C152.13435547 114.25032227 152.13435547 114.25032227 153.23608398 115.05615234 C153.93926758 115.56678223 154.64245117 116.07741211 155.36694336 116.60351562 C156.91164577 117.77039971 158.42026804 118.98569285 159.90209961 120.23144531 C160.68262695 120.88258301 161.4631543 121.5337207 162.26733398 122.20458984 C163.3148584 123.10939087 163.3148584 123.10939087 164.38354492 124.0324707 C166.48485907 125.46240789 166.48485907 125.46240789 169.02368164 125.12353516 C171.80197583 124.14499605 173.63326932 122.95317048 175.94702148 121.13427734 C176.78040039 120.4878125 177.6137793 119.84134766 178.47241211 119.17529297 C179.35864258 118.4746875 180.24487305 117.77408203 181.15795898 117.05224609 C183.05535433 115.57824735 184.95381287 114.1056163 186.85327148 112.63427734 C187.8075 111.89258301 188.76172852 111.15088867 189.74487305 110.38671875 C193.79206079 107.27017155 197.90709587 104.2509008 202.03295898 101.23974609 C208.75883704 96.31536709 215.41351812 91.30623895 222.03295898 86.23974609 C229.4193769 80.58621215 236.86490364 75.02504415 244.36889648 69.52880859 C250.30967332 65.16697577 256.18049159 60.71920061 262.03295898 56.23974609 C269.4193769 50.58621215 276.86490364 45.02504415 284.36889648 39.52880859 C290.30967824 35.16697216 296.18032246 30.71898538 302.03295898 26.23974609 C311.07719984 19.32213981 320.19448718 12.51421775 329.39624023 5.80761719 C331.41254302 4.32810433 333.41199743 2.82856302 335.40795898 1.32177734 C350.53577268 -9.98084607 363.92797434 -13.08274652 382.53295898 -11.76025391 C395.37109078 -9.38784307 407.45499277 -1.44780011 415.50952148 8.73974609 C422.92128723 19.58930957 425.1383748 30.78729173 425.04089355 43.73907471 C425.04713352 45.03423468 425.05337348 46.32939466 425.05980253 47.66380191 C425.07634363 51.22009689 425.06832009 54.77595693 425.05585766 58.3322525 C425.04674668 62.18229468 425.06080639 66.03226596 425.07177734 69.8822937 C425.08950107 77.40809602 425.08575073 84.93373817 425.07412678 92.4595466 C425.0650711 98.57711694 425.06387765 104.69464258 425.06822205 110.81221771 C425.06883498 111.68487199 425.06944791 112.55752627 425.07007942 113.45662461 C425.07135838 115.2296851 425.07265524 117.00274558 425.07396978 118.77580604 C425.08535686 135.37395467 425.07228992 151.9720147 425.05076832 168.5701488 C425.03288644 182.80185571 425.03601403 197.03343214 425.05444336 211.26513672 C425.0758615 227.8125297 425.08427162 244.35984526 425.0719943 260.90725017 C425.07072016 262.67234594 425.06946268 264.43744173 425.06822205 266.20253754 C425.06760494 267.07089513 425.06698784 267.93925273 425.06635204 268.83392419 C425.06290291 274.94383921 425.06871778 281.05370497 425.07814026 287.16361237 C425.08937156 294.6096573 425.08629595 302.05553361 425.06501728 309.50155929 C425.05452395 313.29820854 425.05035565 317.0945769 425.06361389 320.89122391 C425.07778115 325.01050991 425.06083586 329.12909005 425.04089355 333.24835205 C425.04981644 334.44280858 425.05873933 335.63726511 425.06793261 336.8679173 C424.96996144 347.29954525 421.80255183 355.62987444 414.53295898 363.23974609 C385.36450345 387.37260507 343.7092367 372.23974609 307.53295898 372.23974609 C307.20295898 307.88974609 306.87295898 243.53974609 306.53295898 177.23974609 C291.70333374 188.13964549 291.70333374 188.13964549 277.03295898 199.23974609 C269.64799102 204.89514907 262.20097643 210.45447579 254.69702148 215.95068359 C248.75624465 220.31251642 242.88542638 224.76029158 237.03295898 229.23974609 C230.41348616 234.30626342 223.7578644 239.31400774 217.03295898 244.23974609 C210.2483341 249.21034959 203.52978373 254.26007744 196.84545898 259.36474609 C195.97018555 260.03046631 195.09491211 260.69618652 194.19311523 261.38208008 C190.04424133 264.54070536 185.91516216 267.71904696 181.82592773 270.95458984 C181.09784912 271.52226074 180.36977051 272.08993164 179.61962891 272.67480469 C178.26765983 273.72923616 176.92467603 274.79533264 175.59277344 275.875 C171.17970489 279.28853501 171.17970489 279.28853501 168.10571289 279.05664062 C165.23994217 278.14670811 163.47863374 276.98932041 161.11889648 275.13427734 C160.28551758 274.4878125 159.45213867 273.84134766 158.59350586 273.17529297 C157.70727539 272.4746875 156.82104492 271.77408203 155.90795898 271.05224609 C154.01056364 269.57824735 152.1121051 268.1056163 150.21264648 266.63427734 C149.25841797 265.89258301 148.30418945 265.15088867 147.32104492 264.38671875 C143.27385718 261.27017155 139.1588221 258.2509008 135.03295898 255.23974609 C127.40452912 249.65456011 119.87647967 243.94695694 112.36889648 238.20068359 C106.63393171 233.81910284 100.85536335 229.50431652 95.03295898 225.23974609 C88.30798487 220.31409616 81.65255095 215.30610719 75.03295898 210.23974609 C65.28765079 202.78401988 55.43377893 195.4871463 45.53295898 188.23974609 C40.58295898 184.60974609 35.63295898 180.97974609 30.53295898 177.23974609 C30.20295898 241.58974609 29.87295898 305.93974609 29.53295898 372.23974609 C-67.99895591 372.23974609 -67.99895591 372.23974609 -78.46704102 362.23974609 C-86.20822832 352.88327168 -87.76519451 345.54624374 -87.73446655 333.6091156 C-87.73899767 332.32275886 -87.74352878 331.03640212 -87.7481972 329.71106488 C-87.76041727 326.14679573 -87.76016789 322.58262053 -87.75780845 319.01833522 C-87.75740001 315.17151565 -87.76844216 311.32472609 -87.77792358 307.47792053 C-87.79453055 299.94251021 -87.80003305 292.40713118 -87.80114834 284.87170409 C-87.80209923 278.7435213 -87.80621159 272.6153488 -87.81254959 266.48716927 C-87.8301634 249.10180757 -87.83938858 231.71647055 -87.83788864 214.33109986 C-87.83780873 213.39401708 -87.83772882 212.4569343 -87.83764648 211.49145508 C-87.83756472 210.55322385 -87.83748296 209.61499263 -87.83739872 208.64833016 C-87.83658642 193.4546476 -87.85570962 178.26106432 -87.88392322 163.06741046 C-87.91268295 147.45602936 -87.92646172 131.84469661 -87.92473567 116.23328835 C-87.92407269 107.47306856 -87.92952392 98.71295276 -87.95109177 89.95275688 C-87.96934455 82.49130206 -87.97361761 75.02999833 -87.96007292 67.56853079 C-87.95356303 63.76534736 -87.95335363 59.96245345 -87.97077942 56.15929794 C-87.98952322 52.02573588 -87.97690367 47.89283801 -87.96151733 43.75926208 C-87.97180446 42.57168208 -87.98209159 41.38410208 -87.99269044 40.1605348 C-87.87899257 26.27913031 -83.65004877 14.13093771 -74.24829102 3.80224609 C-52.77861495 -16.83094909 -23.5056145 -16.77144785 0 0 Z " fill="#EA4234" transform="translate(87.467041015625,11.76025390625)"/>
<path d="M0 0 C1.41472919 0.9324949 2.8280194 1.86717309 4.24072266 2.80273438 C5.42149887 3.58312073 5.42149887 3.58312073 6.62612915 4.37927246 C10.34358753 6.91731583 13.85100822 9.70272404 17.375 12.5 C23.61102729 17.4009923 29.90990029 22.19375935 36.3125 26.875 C43.10162903 31.84053902 49.82147972 36.88665246 56.5 42 C63.11938645 47.06663093 69.7751389 52.07420459 76.5 57 C112.04717726 83.04717726 112.04717726 83.04717726 117 88 C117.09775474 90.54196189 117.12995277 93.05672961 117.12025452 95.59913635 C117.12110894 96.40445059 117.12196337 97.20976483 117.12284368 98.03948253 C117.12450095 100.75884703 117.11897311 103.47815088 117.11352539 106.19750977 C117.11324355 108.13851927 117.1134012 110.07952889 117.1139679 112.02053833 C117.11425598 117.30750984 117.10835756 122.59445888 117.10139394 127.88142514 C117.09516214 133.40011053 117.09455674 138.91879638 117.09336853 144.43748474 C117.0902547 154.89579158 117.08204061 165.35408802 117.07201904 175.81239027 C117.06085951 187.71545041 117.05534786 199.61851103 117.05032361 211.52157509 C117.03985804 236.01438917 117.0222576 260.507194 117 285 C105.29057839 285.0928588 93.58124502 285.16384566 81.87152958 285.20724869 C76.4336702 285.22808459 70.99606356 285.25632928 65.55834961 285.30175781 C60.30636055 285.34535798 55.05461394 285.36916715 49.80245781 285.37950897 C47.80306624 285.38687492 45.80368729 285.4012588 43.80439949 285.42292023 C40.99439393 285.4521426 38.18537825 285.45594816 35.37524414 285.45410156 C34.55668442 285.46848267 33.73812469 285.48286377 32.89476013 285.49768066 C23.72006454 285.43284183 15.59402907 281.29917411 9 275 C1.87348991 266.38646221 -0.30538774 259.47423668 -0.24050903 248.4458313 C-0.24221788 247.38306469 -0.24392673 246.32029808 -0.24568737 245.22532642 C-0.24898128 241.66463467 -0.23797999 238.10413142 -0.22705078 234.54345703 C-0.22648665 231.99088038 -0.22680327 229.4383034 -0.22793579 226.88572693 C-0.22839121 221.39041878 -0.22271881 215.89517131 -0.21146011 210.39987564 C-0.19519265 202.45465465 -0.18999583 194.50945661 -0.18748413 186.56422077 C-0.18310898 173.67300915 -0.16980477 160.78182287 -0.15087891 147.890625 C-0.13251544 135.36946743 -0.11836122 122.84831675 -0.10986328 110.32714844 C-0.10933783 109.55509292 -0.10881239 108.78303741 -0.10827102 107.98758627 C-0.10566091 104.11433567 -0.1031335 100.24108502 -0.10064721 96.36783433 C-0.07992033 64.24520447 -0.0446997 32.12260576 0 0 Z " fill="#4284F3" transform="translate(0,99)"/>
<path d="M0 0 C0.0915923 32.84185153 0.16205737 65.68366989 0.20426132 98.52562004 C0.20926403 102.40453141 0.21444133 106.28344252 0.21972656 110.16235352 C0.2207758 110.93456195 0.22182505 111.70677038 0.22290608 112.50237907 C0.24030258 124.99936703 0.27183609 137.49628126 0.30861118 149.99322551 C0.34604166 162.82003512 0.3682403 175.64680617 0.37635398 188.47366816 C0.3818374 196.38602664 0.39914469 204.29817668 0.43166587 212.21047098 C0.45534598 218.2817087 0.45781453 224.3527678 0.45243073 230.42405701 C0.45353065 232.91169072 0.46148036 235.39933237 0.4768219 237.88691902 C0.49675907 241.28659081 0.49192467 244.68537489 0.48101807 248.08506775 C0.49266943 249.06660778 0.5043208 250.04814782 0.51632524 251.05943149 C0.43224842 260.77299056 -3.28001367 268.96546112 -10 276 C-18.02362863 282.63844193 -24.70361836 285.31662255 -35.03466797 285.22705078 C-35.92311905 285.22734283 -36.81157013 285.22763489 -37.72694397 285.22793579 C-40.64879291 285.22654808 -43.57038338 285.21101317 -46.4921875 285.1953125 C-48.52385316 285.19158039 -50.55552062 285.18873435 -52.58718872 285.18673706 C-57.92355353 285.17911624 -63.25980874 285.15948104 -68.59613037 285.1373291 C-74.04584267 285.11683727 -79.49557275 285.10772821 -84.9453125 285.09765625 C-95.63025637 285.07623371 -106.31511906 285.04211647 -117 285 C-117.18687133 259.4354323 -117.32795044 233.87096694 -117.41449738 208.30585384 C-117.45575062 196.43552254 -117.51199442 184.56561558 -117.60351562 172.69555664 C-117.68324652 162.34973877 -117.73486421 152.00422819 -117.75270796 141.65811163 C-117.76313891 136.17958986 -117.78765624 130.70194722 -117.84584045 125.2237072 C-117.90017164 120.06642367 -117.91688674 114.91038067 -117.90486145 109.75283813 C-117.90706106 107.86095498 -117.92295869 105.96903006 -117.9536438 104.07739449 C-118.17381898 89.80328424 -118.17381898 89.80328424 -115.30557251 85.39692879 C-113.28099712 83.58640474 -111.36904925 82.31184018 -109 81 C-107.58882368 79.95405864 -106.18765456 78.89436467 -104.80078125 77.81640625 C-103.30695226 76.72865377 -101.81075483 75.64414826 -100.3125 74.5625 C-93.30999333 69.45719695 -86.37894956 64.27056895 -79.5 59 C-72.11389609 53.34606249 -64.66804683 47.78529183 -57.1640625 42.2890625 C-50.33066631 37.27185134 -43.59353084 32.1338017 -36.86230469 26.98071289 C-30.12581183 21.83321626 -23.32603954 16.77804821 -16.47851562 11.77929688 C-11.82945772 8.37886688 -7.26916844 4.88776545 -2.75878906 1.30493164 C-1 0 -1 0 0 0 Z " fill="#34A752" transform="translate(512,99)"/>
<path d="M0 0 C13.55304315 8.70956779 21.11585179 19.55716193 24.8125 35.25 C25.38521643 39.72984501 25.53550777 44.1584952 25.58984375 48.671875 C25.61027237 49.89731018 25.63070099 51.12274536 25.65174866 52.38531494 C25.68488947 54.95321101 25.70701664 57.52127125 25.71850586 60.08935547 C25.75005226 64.00648972 25.86160974 67.9165081 25.97460938 71.83203125 C26.2669601 91.13946313 26.2669601 91.13946313 22.609375 95.78686523 C19.78476283 98.12519698 17.11264849 99.67286096 13.8125 101.25 C12.29107625 102.34362719 10.79152552 103.46861193 9.3203125 104.62890625 C7.86119201 105.69260113 6.4002068 106.75374213 4.9375 107.8125 C-2.00065846 112.8781916 -8.86753931 118.026321 -15.6875 123.25 C-23.07370191 128.90381168 -30.51945048 134.46470621 -38.0234375 139.9609375 C-43.96421841 144.32277332 -49.83489558 148.77071939 -55.6875 153.25 C-62.62522693 158.55710039 -69.59511203 163.81545762 -76.625 169 C-77.39972656 169.57234375 -78.17445313 170.1446875 -78.97265625 170.734375 C-79.70226562 171.270625 -80.431875 171.806875 -81.18359375 172.359375 C-81.81450928 172.82311523 -82.4454248 173.28685547 -83.09545898 173.76464844 C-85.7540748 175.65226877 -88.47219868 177.44516121 -91.1875 179.25 C-91.81063155 159.7100796 -92.3105319 140.17062922 -92.66670704 120.62397766 C-92.83494472 111.54628165 -93.04234878 102.47274571 -93.34448242 93.3984375 C-93.60795315 85.48226675 -93.79537715 77.56842164 -93.89432544 69.6484251 C-93.94925224 65.4588487 -94.04025135 61.27758714 -94.22263527 57.09146118 C-95.28956539 31.77415329 -95.28956539 31.77415329 -90.18124008 24.32400513 C-85.37594073 19.37936863 -79.92410123 15.93460562 -73.85851097 12.72967529 C-70.3776968 10.80138867 -67.28012716 8.4996548 -64.12370014 6.08670044 C-45.01767254 -8.48347697 -21.48534677 -11.9872514 0 0 Z " fill="#FABB04" transform="translate(487.1875,6.75)"/>
<path d="M0 0 C2.63328144 1.98210391 5.24212655 3.99178764 7.84155273 6.01806641 C9.58927541 7.37088977 11.33797605 8.72245062 13.08764648 10.07275391 C13.90023517 10.7174614 14.71282385 11.36216888 15.55003643 12.02641296 C18.33177081 14.18085026 18.33177081 14.18085026 21.28880787 15.77131653 C25.64152076 18.34952299 28.83178574 20.30883676 30.38196373 25.27746582 C30.71864463 29.18280269 30.70202954 33.00337893 30.56103516 36.91259766 C30.54805381 38.40140963 30.53995543 39.89027094 30.53634644 41.37913513 C30.51285784 45.4030957 30.42145956 49.42293428 30.31745696 53.44551086 C30.22027861 57.65576472 30.186085 61.86652855 30.14509583 66.07763672 C30.05804441 74.04352361 29.91468475 82.00735263 29.75087959 89.97199059 C29.56708149 99.04281692 29.44637244 108.11414338 29.33085477 117.18605614 C29.09191789 135.83981028 28.77410041 154.49147563 28.40405273 173.14306641 C25.07572389 171.85741505 22.43385402 170.61374851 19.64624023 168.37744141 C18.94845459 167.82459473 18.25066895 167.27174805 17.53173828 166.70214844 C16.78835205 166.10515137 16.04496582 165.5081543 15.27905273 164.89306641 C8.96480462 159.8996855 2.59312452 155.01507268 -3.90844727 150.26806641 C-10.69792953 145.30302122 -17.41743867 140.256405 -24.09594727 135.14306641 C-30.71533152 130.07643715 -37.37102106 125.06877064 -44.09594727 120.14306641 C-52.7461757 113.80623941 -61.27757514 107.32072261 -69.79516602 100.80712891 C-74.70770505 97.05144787 -79.65124161 93.33919618 -84.61157227 89.64697266 C-86.59594727 88.14306641 -86.59594727 88.14306641 -87.59594727 87.14306641 C-87.71053692 85.43266884 -87.75557386 83.7175617 -87.77294922 82.00341797 C-87.78578445 80.90427063 -87.79861969 79.80512329 -87.81184387 78.67266846 C-87.8192308 77.47180603 -87.82661774 76.2709436 -87.83422852 75.03369141 C-87.84230026 73.80076355 -87.85037201 72.56783569 -87.85868835 71.29754639 C-87.87255913 68.67461564 -87.88326779 66.05166662 -87.89111328 63.42871094 C-87.90421413 59.45170053 -87.95204142 55.47531854 -87.99633789 51.49853516 C-88.00647593 48.94776001 -88.01498854 46.39697779 -88.02172852 43.84619141 C-88.0392366 42.66961975 -88.05674469 41.4930481 -88.07478333 40.28082275 C-88.03880126 26.29699155 -83.85135377 14.11379468 -74.37719727 3.70556641 C-52.8407732 -16.99177621 -23.53511226 -16.8351419 0 0 Z " fill="#C4221F" transform="translate(87.595947265625,11.85693359375)"/>
</svg>
