<?xml version="1.0" encoding="UTF-8"?>
<svg version="1.1" xmlns="http://www.w3.org/2000/svg" width="1024" height="1024">
<path d="M0 0 C2.28592774 -0.00187017 4.57185515 -0.0041717 6.85778207 -0.00686532 C13.11731113 -0.01296478 19.37682679 -0.0128519 25.63635814 -0.01167095 C31.70173491 -0.01148748 37.76710672 -0.01598372 43.83248166 -0.02028384 C57.76813027 -0.02993797 71.70377519 -0.03276742 85.63942675 -0.03334089 C96.41258465 -0.03380131 107.18574111 -0.03586419 117.95889854 -0.03904152 C121.06566737 -0.03993916 124.1724362 -0.04082897 127.27920502 -0.0417164 C128.05169771 -0.04193744 128.8241904 -0.04215849 129.62009196 -0.04238624 C151.34246561 -0.04853838 173.06483876 -0.05248705 194.78721333 -0.05204296 C195.60570129 -0.05202738 196.42418926 -0.0520118 197.26747989 -0.05199575 C201.41538229 -0.05191265 205.5632847 -0.05181361 209.7111871 -0.05171105 C210.53488576 -0.0516911 211.35858443 -0.05167115 212.20724365 -0.05165061 C213.87296694 -0.05161017 215.53869022 -0.05156837 217.2044135 -0.05152521 C243.07965593 -0.05091342 268.95488523 -0.05840217 294.8301239 -0.07209778 C323.9443093 -0.08750161 353.05848606 -0.09606131 382.17267579 -0.09513456 C385.28541736 -0.09505994 388.39815893 -0.09501122 391.5109005 -0.09498024 C392.27725327 -0.09496859 393.04360605 -0.09495693 393.83318164 -0.09494492 C406.1008795 -0.09491431 418.36856586 -0.10126719 430.63626031 -0.1099125 C442.99896213 -0.11844361 455.36164734 -0.11933677 467.72435049 -0.11280318 C474.40572515 -0.10946138 481.08705365 -0.10940208 487.7684269 -0.11815643 C556.62298761 -0.20272861 556.62298761 -0.20272861 582.44364929 4.32121277 C584.34171326 4.64376038 584.34171326 4.64376038 586.27812195 4.9728241 C630.85123941 12.90732039 671.25164092 32.27790396 703.92851257 63.62345886 C704.9577952 64.60877955 705.99241367 65.58856512 707.03300476 66.56193542 C750.78356754 107.49355534 770.74887281 169.75415811 772.78403175 228.37772107 C772.92287722 234.64438627 772.91208208 240.9097419 772.89382935 247.17756653 C772.89801627 249.5697369 772.90350113 251.96190527 772.91014916 254.35407007 C772.92295731 260.16729351 772.92217033 265.98039665 772.91518677 271.79362731 C772.90758732 278.77467278 772.91760435 285.75566802 772.92788996 292.73670613 C772.9474452 306.41154486 772.94992578 320.08634547 772.94469476 333.76119485 C772.9401182 345.73279874 772.94076079 357.70438764 772.94653511 369.67599106 C772.94729201 371.28864099 772.94804799 372.90129093 772.94880306 374.51394086 C772.94994839 376.9447749 772.95109828 379.37560894 772.9522623 381.80644298 C772.96295029 404.37405875 772.96771016 426.94166959 772.95979214 449.50928688 C772.95934638 450.78240335 772.95934638 450.78240335 772.95889161 452.08123934 C772.95644327 458.97137506 772.95383138 465.86151071 772.95120748 472.75164637 C772.94111076 499.60933159 772.94945648 526.46695424 772.97270203 553.32463074 C772.9988458 583.57902163 773.01160352 613.8333749 773.00451428 644.0877775 C773.00379834 647.32136495 773.00312394 650.55495242 773.00247383 653.78853989 C773.00230402 654.5845867 773.00213421 655.38063351 773.00195926 656.20080295 C772.99966818 668.15263225 773.00757595 680.10442631 773.0207653 692.05624771 C773.03576151 705.66869383 773.03640719 719.28105803 773.01869439 732.89350255 C773.0100442 739.824241 773.00748614 746.7548363 773.02334595 753.68556595 C773.14904044 814.47963929 768.30109041 873.08749832 733.50614929 925.13371277 C733.07415222 925.78049988 732.64215515 926.42728699 732.19706726 927.09367371 C726.86644568 934.98355922 721.00781189 942.16938504 714.50614929 949.13371277 C713.31337219 950.50413753 712.12556998 951.87891396 710.94364929 953.25871277 C669.68820389 1000.3673335 608.00430526 1018.96780089 547.50678676 1023.46321315 C526.89484855 1024.78719498 506.19735875 1024.42441067 485.55368125 1024.40982115 C479.61912143 1024.40758693 473.68457434 1024.41479722 467.75001959 1024.42158141 C454.13806315 1024.43671781 440.5261255 1024.43853718 426.9141624 1024.43605838 C416.39169069 1024.4342163 405.86922503 1024.43600439 395.34675407 1024.44028282 C393.8279196 1024.44088526 392.30908512 1024.44148646 390.79025064 1024.44208642 C388.50069403 1024.44299381 386.21113742 1024.44390249 383.92158082 1024.44481878 C362.66895014 1024.45323292 341.41632172 1024.45759475 320.16368961 1024.45341206 C318.96512506 1024.45317749 318.96512506 1024.45317749 317.74234709 1024.45293819 C313.69371239 1024.45213257 309.6450777 1024.45128679 305.596443 1024.45042489 C304.79256482 1024.4502538 303.98868664 1024.45008271 303.16044852 1024.44990644 C301.5348158 1024.44955978 299.90918308 1024.44921125 298.28355035 1024.44886085 C273.00999856 1024.44350819 247.73648169 1024.45142747 222.4629364 1024.46989441 C193.97851329 1024.49068379 165.4941118 1024.50132386 137.00968069 1024.49731892 C133.96308259 1024.49692366 130.9164845 1024.4965621 127.8698864 1024.49622154 C126.74490642 1024.49608544 126.74490642 1024.49608544 125.59719958 1024.4959466 C114.35295847 1024.49478829 103.10873945 1024.50137003 91.86450386 1024.51203346 C79.05113845 1024.52417361 66.23782117 1024.52554437 53.42445493 1024.5132433 C46.90436736 1024.50726136 40.38435415 1024.50611116 33.86427116 1024.5182457 C-43.95959503 1024.65308416 -122.12068897 1018.56385171 -180.98408508 961.59220886 C-182.03377747 960.57816256 -183.09030114 959.57115955 -184.15205383 958.56974792 C-229.13450808 916.11026673 -248.89871769 854.74194783 -251.49385071 794.13371277 C-251.67664215 786.60793672 -251.63343004 779.07827979 -251.62756348 771.55084229 C-251.62943401 769.2674636 -251.63173567 766.98408524 -251.6344288 764.70070738 C-251.64052377 758.45290862 -251.64041591 752.20512329 -251.63923442 745.95732224 C-251.63905086 739.90190852 -251.64354826 733.8464993 -251.64784731 727.79108754 C-251.65749785 713.88028709 -251.66033075 699.96949033 -251.66090437 686.05868692 C-251.66136487 675.30556723 -251.66342816 664.55244898 -251.666605 653.79932976 C-251.66750263 650.69786356 -251.66839245 647.59639736 -251.66927987 644.49493116 C-251.66950092 643.72375279 -251.66972197 642.95257442 -251.66994972 642.15802701 C-251.6761011 620.47530368 -251.6800506 598.79258085 -251.67960644 577.10985661 C-251.67959086 576.2929923 -251.67957528 575.47612799 -251.67955923 574.63451022 C-251.67947613 570.49486723 -251.67937709 566.35522424 -251.67927452 562.21558125 C-251.67925458 561.39352667 -251.67923463 560.57147209 -251.67921408 559.72450676 C-251.67917364 558.0621093 -251.67913185 556.39971184 -251.67908869 554.73731438 C-251.67847678 528.90891093 -251.68596807 503.08052065 -251.69966125 477.25212097 C-251.71506313 448.18921071 -251.72362492 419.12630909 -251.72269803 390.06339449 C-251.72262341 386.95658425 -251.7225747 383.84977402 -251.72254372 380.74296379 C-251.72253206 379.97807324 -251.72252041 379.21318269 -251.7225084 378.42511364 C-251.72247778 366.1786594 -251.72883172 353.93221668 -251.73747598 341.68576585 C-251.74600456 329.34672773 -251.74690216 317.00770625 -251.74036666 304.66866679 C-251.73702366 297.99956065 -251.73696983 291.33050076 -251.74571991 284.66139603 C-251.81686411 226.68487275 -251.03205278 168.37991547 -222.49385071 116.13371277 C-222.17593567 115.53945496 -221.85802063 114.94519714 -221.5304718 114.33293152 C-194.86406454 64.6530495 -147.88541151 28.13982372 -94.22822571 11.77433777 C-74.95614899 6.17003339 -55.43992078 3.14903692 -35.49385071 1.13371277 C-34.68835984 1.05014186 -33.88286896 0.96657095 -33.05296928 0.88046759 C-22.04493529 -0.11915456 -11.04399749 -0.00858186 0 0 Z " fill="#FD2668" transform="translate(251.4938507080078,-0.1337127685546875)"/>
<path d="M0 0 C2.28592774 -0.00187017 4.57185515 -0.0041717 6.85778207 -0.00686532 C13.11731113 -0.01296478 19.37682679 -0.0128519 25.63635814 -0.01167095 C31.70173491 -0.01148748 37.76710672 -0.01598372 43.83248166 -0.02028384 C57.76813027 -0.02993797 71.70377519 -0.03276742 85.63942675 -0.03334089 C96.41258465 -0.03380131 107.18574111 -0.03586419 117.95889854 -0.03904152 C121.06566737 -0.03993916 124.1724362 -0.04082897 127.27920502 -0.0417164 C128.05169771 -0.04193744 128.8241904 -0.04215849 129.62009196 -0.04238624 C151.34246561 -0.04853838 173.06483876 -0.05248705 194.78721333 -0.05204296 C195.60570129 -0.05202738 196.42418926 -0.0520118 197.26747989 -0.05199575 C201.41538229 -0.05191265 205.5632847 -0.05181361 209.7111871 -0.05171105 C210.53488576 -0.0516911 211.35858443 -0.05167115 212.20724365 -0.05165061 C213.87296694 -0.05161017 215.53869022 -0.05156837 217.2044135 -0.05152521 C243.07965593 -0.05091342 268.95488523 -0.05840217 294.8301239 -0.07209778 C323.9443093 -0.08750161 353.05848606 -0.09606131 382.17267579 -0.09513456 C385.28541736 -0.09505994 388.39815893 -0.09501122 391.5109005 -0.09498024 C392.27725327 -0.09496859 393.04360605 -0.09495693 393.83318164 -0.09494492 C406.1008795 -0.09491431 418.36856586 -0.10126719 430.63626031 -0.1099125 C442.99896213 -0.11844361 455.36164734 -0.11933677 467.72435049 -0.11280318 C474.40572515 -0.10946138 481.08705365 -0.10940208 487.7684269 -0.11815643 C556.62298761 -0.20272861 556.62298761 -0.20272861 582.44364929 4.32121277 C584.34171326 4.64376038 584.34171326 4.64376038 586.27812195 4.9728241 C630.85123941 12.90732039 671.25164092 32.27790396 703.92851257 63.62345886 C704.9577952 64.60877955 705.99241367 65.58856512 707.03300476 66.56193542 C750.78356754 107.49355534 770.74887281 169.75415811 772.78403175 228.37772107 C772.92287722 234.64438627 772.91208208 240.9097419 772.89382935 247.17756653 C772.89801627 249.5697369 772.90350113 251.96190527 772.91014916 254.35407007 C772.92295731 260.16729351 772.92217033 265.98039665 772.91518677 271.79362731 C772.90758732 278.77467278 772.91760435 285.75566802 772.92788996 292.73670613 C772.9474452 306.41154486 772.94992578 320.08634547 772.94469476 333.76119485 C772.9401182 345.73279874 772.94076079 357.70438764 772.94653511 369.67599106 C772.94729201 371.28864099 772.94804799 372.90129093 772.94880306 374.51394086 C772.94994839 376.9447749 772.95109828 379.37560894 772.9522623 381.80644298 C772.96295029 404.37405875 772.96771016 426.94166959 772.95979214 449.50928688 C772.95934638 450.78240335 772.95934638 450.78240335 772.95889161 452.08123934 C772.95644327 458.97137506 772.95383138 465.86151071 772.95120748 472.75164637 C772.94111076 499.60933159 772.94945648 526.46695424 772.97270203 553.32463074 C772.9988458 583.57902163 773.01160352 613.8333749 773.00451428 644.0877775 C773.00379834 647.32136495 773.00312394 650.55495242 773.00247383 653.78853989 C773.00230402 654.5845867 773.00213421 655.38063351 773.00195926 656.20080295 C772.99966818 668.15263225 773.00757595 680.10442631 773.0207653 692.05624771 C773.03576151 705.66869383 773.03640719 719.28105803 773.01869439 732.89350255 C773.0100442 739.824241 773.00748614 746.7548363 773.02334595 753.68556595 C773.14904044 814.47963929 768.30109041 873.08749832 733.50614929 925.13371277 C733.07415222 925.78049988 732.64215515 926.42728699 732.19706726 927.09367371 C726.86644568 934.98355922 721.00781189 942.16938504 714.50614929 949.13371277 C713.31337219 950.50413753 712.12556998 951.87891396 710.94364929 953.25871277 C669.68820389 1000.3673335 608.00430526 1018.96780089 547.50678676 1023.46321315 C526.89484855 1024.78719498 506.19735875 1024.42441067 485.55368125 1024.40982115 C479.61912143 1024.40758693 473.68457434 1024.41479722 467.75001959 1024.42158141 C454.13806315 1024.43671781 440.5261255 1024.43853718 426.9141624 1024.43605838 C416.39169069 1024.4342163 405.86922503 1024.43600439 395.34675407 1024.44028282 C393.8279196 1024.44088526 392.30908512 1024.44148646 390.79025064 1024.44208642 C388.50069403 1024.44299381 386.21113742 1024.44390249 383.92158082 1024.44481878 C362.66895014 1024.45323292 341.41632172 1024.45759475 320.16368961 1024.45341206 C318.96512506 1024.45317749 318.96512506 1024.45317749 317.74234709 1024.45293819 C313.69371239 1024.45213257 309.6450777 1024.45128679 305.596443 1024.45042489 C304.79256482 1024.4502538 303.98868664 1024.45008271 303.16044852 1024.44990644 C301.5348158 1024.44955978 299.90918308 1024.44921125 298.28355035 1024.44886085 C273.00999856 1024.44350819 247.73648169 1024.45142747 222.4629364 1024.46989441 C193.97851329 1024.49068379 165.4941118 1024.50132386 137.00968069 1024.49731892 C133.96308259 1024.49692366 130.9164845 1024.4965621 127.8698864 1024.49622154 C126.74490642 1024.49608544 126.74490642 1024.49608544 125.59719958 1024.4959466 C114.35295847 1024.49478829 103.10873945 1024.50137003 91.86450386 1024.51203346 C79.05113845 1024.52417361 66.23782117 1024.52554437 53.42445493 1024.5132433 C46.90436736 1024.50726136 40.38435415 1024.50611116 33.86427116 1024.5182457 C-43.95959503 1024.65308416 -122.12068897 1018.56385171 -180.98408508 961.59220886 C-182.03377747 960.57816256 -183.09030114 959.57115955 -184.15205383 958.56974792 C-229.13450808 916.11026673 -248.89871769 854.74194783 -251.49385071 794.13371277 C-251.67664215 786.60793672 -251.63343004 779.07827979 -251.62756348 771.55084229 C-251.62943401 769.2674636 -251.63173567 766.98408524 -251.6344288 764.70070738 C-251.64052377 758.45290862 -251.64041591 752.20512329 -251.63923442 745.95732224 C-251.63905086 739.90190852 -251.64354826 733.8464993 -251.64784731 727.79108754 C-251.65749785 713.88028709 -251.66033075 699.96949033 -251.66090437 686.05868692 C-251.66136487 675.30556723 -251.66342816 664.55244898 -251.666605 653.79932976 C-251.66750263 650.69786356 -251.66839245 647.59639736 -251.66927987 644.49493116 C-251.66950092 643.72375279 -251.66972197 642.95257442 -251.66994972 642.15802701 C-251.6761011 620.47530368 -251.6800506 598.79258085 -251.67960644 577.10985661 C-251.67959086 576.2929923 -251.67957528 575.47612799 -251.67955923 574.63451022 C-251.67947613 570.49486723 -251.67937709 566.35522424 -251.67927452 562.21558125 C-251.67925458 561.39352667 -251.67923463 560.57147209 -251.67921408 559.72450676 C-251.67917364 558.0621093 -251.67913185 556.39971184 -251.67908869 554.73731438 C-251.67847678 528.90891093 -251.68596807 503.08052065 -251.69966125 477.25212097 C-251.71506313 448.18921071 -251.72362492 419.12630909 -251.72269803 390.06339449 C-251.72262341 386.95658425 -251.7225747 383.84977402 -251.72254372 380.74296379 C-251.72253206 379.97807324 -251.72252041 379.21318269 -251.7225084 378.42511364 C-251.72247778 366.1786594 -251.72883172 353.93221668 -251.73747598 341.68576585 C-251.74600456 329.34672773 -251.74690216 317.00770625 -251.74036666 304.66866679 C-251.73702366 297.99956065 -251.73696983 291.33050076 -251.74571991 284.66139603 C-251.81686411 226.68487275 -251.03205278 168.37991547 -222.49385071 116.13371277 C-222.17593567 115.53945496 -221.85802063 114.94519714 -221.5304718 114.33293152 C-194.86406454 64.6530495 -147.88541151 28.13982372 -94.22822571 11.77433777 C-74.95614899 6.17003339 -55.43992078 3.14903692 -35.49385071 1.13371277 C-34.68835984 1.05014186 -33.88286896 0.96657095 -33.05296928 0.88046759 C-22.04493529 -0.11915456 -11.04399749 -0.00858186 0 0 Z M29.38114929 145.00871277 C28.19650085 145.33484558 27.01185242 145.66097839 25.79130554 145.99699402 C19.19107637 147.86718023 13.01545561 150.04990764 6.83354187 153.03239441 C4.68951241 154.04694564 2.55183838 154.90154251 0.31864929 155.69621277 C-3.79917947 157.20192389 -7.63501542 159.05587838 -11.49385071 161.13371277 C-12.35494446 161.59261902 -13.21603821 162.05152527 -14.10322571 162.52433777 C-54.20109681 184.84909844 -86.50476165 222.84366712 -101.76338196 266.06486511 C-102.29689995 267.57590503 -102.83988651 269.08361128 -103.38838196 270.58927917 C-112.95083473 297.11937099 -116.63949074 323.62594032 -118.14131165 351.63005066 C-118.20507413 352.78918791 -118.26883662 353.94832516 -118.33453131 355.14258778 C-119.78849933 382.11734474 -119.90511904 409.06348718 -119.83096409 436.07037997 C-119.81709356 442.14183695 -119.8171704 448.21328258 -119.81658754 454.28475273 C-119.8149247 466.29522651 -119.79941574 478.30563821 -119.77510071 490.31608582 C-119.75174732 501.86068744 -119.73765557 513.40524982 -119.73408508 524.94987488 C-119.73386232 525.66490921 -119.73363955 526.37994353 -119.73341003 527.11664557 C-119.73296729 528.55805816 -119.73252527 529.99947075 -119.73208396 531.44088334 C-119.7318644 532.15261305 -119.73164483 532.86434276 -119.73141861 533.59764004 C-119.73120262 534.30806181 -119.73098664 535.01848359 -119.73076411 535.75043329 C-119.72703651 546.92770326 -119.71569054 558.10496729 -119.70328821 569.28223054 C-119.69820069 573.924028 -119.69454715 578.56582526 -119.69127655 583.20762444 C-119.73719359 630.48040408 -119.73719359 630.48040408 -117.61885071 677.69621277 C-117.53425598 678.92178894 -117.44966125 680.14736511 -117.36250305 681.41007996 C-116.10086786 698.58893498 -113.75039854 715.43576269 -109.49385071 732.13371277 C-109.1868927 733.35260193 -109.1868927 733.35260193 -108.87373352 734.59611511 C-99.17847067 772.42792925 -78.99390499 814.4485317 -46.49385071 838.13371277 C-45.50385071 838.46371277 -44.51385071 838.79371277 -43.49385071 839.13371277 C-43.49385071 839.79371277 -43.49385071 840.45371277 -43.49385071 841.13371277 C-41.81759277 842.64835189 -41.81759277 842.64835189 -39.62666321 844.17277527 C-38.82357727 844.75285339 -38.02049133 845.33293152 -37.19306946 845.93058777 C-35.91883118 846.83550964 -35.91883118 846.83550964 -34.61885071 847.75871277 C-33.7770929 848.36972839 -32.93533508 848.98074402 -32.06806946 849.61027527 C-28.14071883 852.84998385 -28.14071883 852.84998385 -23.49385071 854.13371277 C-23.49385071 854.79371277 -23.49385071 855.45371277 -23.49385071 856.13371277 C-21.53799746 857.1385548 -19.57908834 858.13745082 -17.61885071 859.13371277 C-16.52830383 859.69058777 -15.43775696 860.24746277 -14.31416321 860.82121277 C-11.71009988 862.27435371 -11.71009988 862.27435371 -9.49385071 862.13371277 C-9.49385071 862.79371277 -9.49385071 863.45371277 -9.49385071 864.13371277 C-8.72041321 864.44824402 -7.94697571 864.76277527 -7.15010071 865.08683777 C-6.10853821 865.51480652 -5.06697571 865.94277527 -3.99385071 866.38371277 C-2.97291321 866.80136902 -1.95197571 867.21902527 -0.90010071 867.64933777 C1.58464673 868.73214055 3.92859469 869.86179501 6.32255554 871.11418152 C10.7163476 873.33892627 15.23547098 874.78641926 19.94364929 876.19621277 C21.54673668 876.68637007 23.14960226 877.17725342 24.75224304 877.66886902 C25.93246033 878.02706726 25.93246033 878.02706726 27.13652039 878.39250183 C29.50692107 879.13395418 31.85046333 879.93512854 34.19755554 880.74699402 C37.77723705 881.95171336 41.25793578 882.72739384 45.00614929 883.25871277 C50.40880416 884.03636764 50.40880416 884.03636764 51.50614929 885.13371277 C54.70714912 885.77461365 57.95860706 886.13943095 61.19364929 886.57121277 C62.05409851 886.69302917 62.91454773 886.81484558 63.80107117 886.94035339 C81.8001279 889.38154661 99.91858279 890.53138984 118.05766296 891.24430847 C119.09749718 891.28628062 120.1373314 891.32825277 121.20867574 891.3714968 C145.51362066 892.33306361 169.80620979 892.41324086 194.12681985 892.36943221 C200.24497593 892.36039605 206.36313132 892.36241389 212.48129272 892.36279297 C222.72421072 892.36186787 232.96709839 892.3533396 243.21000671 892.33952332 C254.94085741 892.32375542 266.67167521 892.31852786 278.40253574 892.31925887 C291.07749144 892.31994116 303.75243502 892.31297068 316.427387 892.30381227 C320.00428869 892.30171242 323.58118834 892.30097552 327.15809059 892.30057335 C410.16516075 893.34257002 410.16516075 893.34257002 491.50614929 879.13371277 C492.38786804 878.88282898 493.26958679 878.63194519 494.17802429 878.37345886 C520.844102 870.6141492 545.6456663 857.51383346 566.50614929 839.13371277 C567.45489929 838.30613464 568.40364929 837.47855652 569.38114929 836.62590027 C617.6502788 793.85788655 635.79352789 733.37800136 639.65747643 670.67814445 C642.46677875 620.67403165 641.84770753 570.50765028 641.81982923 520.44816566 C641.81637073 512.10283601 641.82590683 503.75758986 641.84233093 495.41227722 C642.08898289 430.81262726 642.08898289 430.81262726 640.32679725 366.24536395 C640.23935496 364.28491798 640.15596318 362.32429264 640.07270241 360.36366463 C638.31309246 320.66266643 631.91146999 282.11038298 614.50614929 246.13371277 C614.0408783 245.1642572 614.0408783 245.1642572 613.56620789 244.17521667 C590.88561013 197.57864223 549.21222755 165.68138295 501.50614929 148.13371277 C500.77831238 147.86397644 500.05047546 147.59424011 499.30058289 147.31632996 C489.22695199 143.62641014 478.99916988 141.23831685 468.50614929 139.13371277 C467.49028748 138.92101746 467.49028748 138.92101746 466.4539032 138.70402527 C454.13638151 136.1420291 441.75311227 135.20465079 429.21244812 134.38322449 C426.50614929 134.13371277 426.50614929 134.13371277 423.76389694 133.63737011 C420.37099212 133.11281707 417.10728012 132.92734311 413.67588806 132.82568359 C413.00324653 132.80551206 412.330605 132.78534052 411.63758039 132.76455772 C409.36114008 132.69920958 407.08460191 132.64185729 404.8079071 132.58610535 C403.99457491 132.56528574 403.18124272 132.54446613 402.3432641 132.52301562 C376.81593219 131.885382 351.27848151 131.92943467 325.7448281 131.89807031 C322.96231943 131.89451774 320.17981176 131.89037935 317.39730392 131.88623064 C305.02367123 131.86782288 292.65003821 131.85209316 280.27639389 131.8443327 C277.28494516 131.84242472 274.29349643 131.84050407 271.30204773 131.83854675 C270.55909247 131.83806301 269.81613721 131.83757927 269.05066815 131.83708087 C257.04614206 131.82879996 245.04171616 131.8034644 233.03723368 131.77096608 C220.56271055 131.73748386 208.08823777 131.71984863 195.61366963 131.71668845 C188.66975255 131.71456362 181.72598415 131.70631354 174.78211212 131.68022728 C126.11690721 131.50927897 76.50780429 131.63981502 29.38114929 145.00871277 Z " fill="#F13278" transform="translate(251.4938507080078,-0.1337127685546875)"/>
<path d="M0 0 C2.50401865 -0.00107718 5.00803705 -0.00302228 7.51205444 -0.00575256 C13.53151609 -0.01004374 19.55090383 -0.00524711 25.57035427 0.00409774 C32.6320153 0.01465209 39.69366523 0.01440704 46.75533266 0.01392516 C59.39223857 0.0134276 72.02911894 0.02249854 84.66601562 0.03710938 C96.82552557 0.05116028 108.98501307 0.0582811 121.14453125 0.05761719 C121.89230852 0.05757723 122.64008579 0.05753728 123.41052298 0.05749611 C124.53056983 0.05743558 124.53056983 0.05743558 125.67324388 0.05737382 C139.65260064 0.05667661 153.63194817 0.06261944 167.61130189 0.07152704 C171.80444809 0.07407802 175.99759265 0.07546205 180.19073959 0.0758579 C232.3039165 0.08097003 232.3039165 0.08097003 255.53613281 0.69482422 C256.67420132 0.72425281 256.67420132 0.72425281 257.83526111 0.75427592 C269.47027678 1.06672771 281.00669203 1.79877277 292.55712891 3.24291992 C293.80365234 3.38600586 295.05017578 3.5290918 296.33447266 3.67651367 C299.39120493 4.05155248 302.43454909 4.47442391 305.47900391 4.93774414 C306.95097254 5.15390495 308.42526398 5.35451145 309.90087891 5.54418945 C353.16631064 11.14432539 394.79262242 30.49774319 426.11376953 60.84643555 C427.46340992 62.15224459 428.82999893 63.44047219 430.19775391 64.72729492 C437.06809975 71.33838243 442.85541745 78.62990463 448.55712891 86.24291992 C449.19521484 87.0859668 449.83330078 87.92901367 450.49072266 88.79760742 C505.71303939 164.55293337 493.06335133 275.17871761 492.88629329 367.08557546 C492.87086578 375.4363 492.86815316 383.78695907 492.87280273 392.13769531 C492.92165552 483.1199422 492.92165552 483.1199422 491.65087891 518.11401367 C491.61136423 519.21090578 491.57184956 520.30779789 491.53113747 521.43792915 C488.90147859 591.19964645 473.10555582 655.99420875 420.55712891 705.05541992 C353.3717071 765.04561583 258.97359211 760.40069971 174.68268991 760.41017699 C171.05653185 760.4108989 167.43037735 760.41305409 163.8042202 760.41567421 C151.05217634 760.42486359 138.30014277 760.4290173 125.5480957 760.42822266 C113.82514779 760.42762385 102.10224618 760.43815368 90.37930995 760.45396632 C80.17747583 760.46721673 69.97565652 760.47239936 59.7738139 760.47176725 C53.74153479 760.47151729 47.70929696 760.47407938 41.67702675 760.4849453 C17.35493222 760.52566178 -6.92306496 760.31960032 -31.22729492 759.32226562 C-32.23958455 759.28124674 -33.25187419 759.24022786 -34.29483926 759.19796598 C-50.43161035 758.52757338 -66.41665175 757.28797654 -82.44287109 755.24291992 C-84.12245349 755.04152061 -85.80213328 754.84093096 -87.48193359 754.64135742 C-97.24452182 753.44126919 -97.24452182 753.44126919 -98.44287109 752.24291992 C-100.62692165 751.86806869 -102.81549272 751.51957032 -105.00537109 751.18041992 C-120.46562863 748.49323727 -135.87102835 743.21988224 -149.63818359 735.68823242 C-152.51426342 734.20613001 -155.35291248 733.18732864 -158.44287109 732.24291992 C-158.44287109 731.58291992 -158.44287109 730.92291992 -158.44287109 730.24291992 C-159.26787109 729.99541992 -160.09287109 729.74791992 -160.94287109 729.49291992 C-164.9666058 728.05587181 -168.66266133 726.21937477 -172.44287109 724.24291992 C-172.44287109 723.58291992 -172.44287109 722.92291992 -172.44287109 722.24291992 C-173.43867188 721.91807617 -173.43867188 721.91807617 -174.45458984 721.58666992 C-178.44663466 719.79155434 -181.74874708 717.34017063 -185.25537109 714.74291992 C-185.94824219 714.24405273 -186.64111328 713.74518555 -187.35498047 713.23120117 C-188.3362793 712.5099707 -188.3362793 712.5099707 -189.33740234 711.77416992 C-190.2322937 711.11771484 -190.2322937 711.11771484 -191.14526367 710.44799805 C-191.57347412 710.05032227 -192.00168457 709.65264648 -192.44287109 709.24291992 C-192.44287109 708.58291992 -192.44287109 707.92291992 -192.44287109 707.24291992 C-192.99330078 707.00831055 -193.54373047 706.77370117 -194.11083984 706.53198242 C-202.0789881 702.12747836 -208.69421298 694.1788009 -214.44287109 687.24291992 C-215.20083984 686.37280273 -215.95880859 685.50268555 -216.73974609 684.60620117 C-250.10514363 645.80079317 -262.76415603 596.28577567 -266.44287109 546.24291992 C-266.54341797 544.97706055 -266.64396484 543.71120117 -266.74755859 542.40698242 C-269.00948838 510.8085088 -268.62075543 479.05108512 -268.64305973 447.39573932 C-268.64602794 443.38345948 -268.65011187 439.37118227 -268.6545639 435.35890388 C-268.66672367 424.14155322 -268.67702863 412.92420429 -268.680439 401.70684719 C-268.68065856 400.99511748 -268.68087813 400.28338777 -268.68110435 399.5500905 C-268.68132262 398.8371394 -268.6815409 398.12418831 -268.68176579 397.38963264 C-268.68220918 395.94611577 -268.68265574 394.5025989 -268.68310547 393.05908203 C-268.6833269 392.34312365 -268.68354833 391.62716527 -268.68377647 390.88951118 C-268.68770378 379.35285066 -268.70510919 367.81625409 -268.72846499 356.27961814 C-268.75252491 344.29346205 -268.76465623 332.30733754 -268.76580691 320.32115704 C-268.76670476 313.64866516 -268.77230539 306.97627471 -268.79062653 300.30380058 C-268.85995461 273.45259921 -268.57411092 246.68117223 -267.12158203 219.86425781 C-267.06402693 218.75977008 -267.00647183 217.65528234 -266.94717264 216.51732528 C-265.02011321 180.53258296 -258.43493843 143.92997342 -241.19287109 111.86791992 C-240.8079248 111.14950928 -240.42297852 110.43109863 -240.02636719 109.69091797 C-230.66516538 92.46272814 -218.93918841 77.41829723 -205.44287109 63.24291992 C-204.82927734 62.58807617 -204.21568359 61.93323242 -203.58349609 61.25854492 C-198.61716562 56.10302091 -193.07145425 51.65003659 -187.44287109 47.24291992 C-186.82138184 46.7556543 -186.19989258 46.26838867 -185.55957031 45.76635742 C-177.5237246 39.50598728 -169.61501002 33.75403134 -160.44287109 29.24291992 C-159.50314453 28.74405273 -158.56341797 28.24518555 -157.59521484 27.73120117 C-151.18645859 24.37905857 -144.70729255 21.75576809 -137.86474609 19.41870117 C-135.47012803 18.59589291 -133.09193259 17.72442092 -130.72802734 16.81713867 C-115.44321778 11.05560344 -99.65244886 7.11392523 -83.44287109 5.24291992 C-82.39035156 5.11965332 -81.33783203 4.99638672 -80.25341797 4.86938477 C-53.53307914 1.80342625 -26.90068867 -0.06880452 0 0 Z M-36.37472725 69.98946381 C-41.90500219 70.34041801 -47.43869212 70.62518257 -52.97251034 70.91379929 C-65.48045406 71.6117836 -77.32208243 73.11446045 -89.44287109 76.24291992 C-91.09358514 76.64271256 -92.74463742 77.04111081 -94.39599609 77.43823242 C-103.41708779 79.65458721 -112.05656431 82.17178951 -120.44287109 86.24291992 C-121.02488281 86.52506348 -121.60689453 86.80720703 -122.20654297 87.09790039 C-153.62636053 102.53807608 -176.29749581 128.97979202 -187.99365234 161.82495117 C-196.90469659 188.11641126 -198.50359569 215.82183819 -199.54907227 243.34912109 C-199.59094929 244.41744435 -199.63282632 245.4857676 -199.67597234 246.58646429 C-200.59581768 270.43438999 -200.75564885 294.26900635 -200.74445367 318.1320498 C-200.74335289 322.81862841 -200.7483437 327.50519446 -200.75305909 332.19177026 C-200.76400534 343.29875565 -200.76467815 354.4057072 -200.75854492 365.51269531 C-200.75318983 375.52152395 -200.76026873 385.53025039 -200.77905273 395.5390625 C-201.09243872 461.90067831 -201.09243872 461.90067831 -199.17333984 528.22338867 C-199.0922016 529.97623389 -199.0922016 529.97623389 -199.00942421 531.76449013 C-197.17404235 569.55146807 -190.34780092 612.52062332 -163.44287109 641.24291992 C-162.58798096 642.15920166 -162.58798096 642.15920166 -161.71582031 643.09399414 C-124.31889986 682.81442031 -75.05562983 689.28290027 -22.7897296 691.14445257 C-12.92002455 691.43482747 -3.04485055 691.38136823 6.828125 691.37231445 C9.3608757 691.37367375 11.8936262 691.37545662 14.42637634 691.37762451 C20.5278954 691.3816708 26.62939821 691.38113434 32.73091744 691.37821187 C37.70104096 691.37593209 42.67116105 691.37565632 47.64128494 691.37673569 C48.35489567 691.37688892 49.0685064 691.37704215 49.8037417 691.37720003 C51.25449287 691.37751983 52.70524404 691.37784405 54.15599521 691.37817262 C67.6887307 691.38100893 81.22145937 691.37776982 94.75419374 691.37237225 C106.30374325 691.36790785 117.8532827 691.36868077 129.40283203 691.37329102 C142.89166129 691.37867303 156.3804846 691.3807324 169.86931479 691.37767875 C171.31465697 691.37736028 172.75999916 691.37704591 174.20534134 691.37673569 C174.9160359 691.37658141 175.62673046 691.37642714 176.35896122 691.37626819 C181.30783491 691.37541371 186.25670475 691.37684258 191.20557785 691.37921524 C197.89859055 691.38235427 204.59158169 691.38004004 211.28459358 691.37432098 C213.71832943 691.37301623 216.1520669 691.37334775 218.58580208 691.37558365 C239.97704243 691.39340036 261.4474222 691.18527944 282.74462891 688.99291992 C284.61296387 688.80113159 284.61296387 688.80113159 286.51904297 688.60546875 C325.66218249 684.2848957 363.24605478 670.29021228 389.01806641 639.28198242 C415.37915663 606.37908666 421.65786709 563.78838206 422.39941406 522.82641602 C422.48405418 520.90327731 422.5849642 518.97881495 422.78673172 517.06441784 C423.90455461 506.26451384 423.69733181 495.43169806 423.68652344 484.58837891 C423.68788034 482.29859896 423.6896619 480.00881923 423.6918335 477.71903992 C423.69637932 471.51924563 423.69462842 465.31946806 423.69145441 459.11967349 C423.68890903 452.59109883 423.69127504 446.06252553 423.69284058 439.53395081 C423.69497493 427.84503131 423.69167463 416.15611876 423.68658124 404.46720047 C423.68213823 393.94769368 423.68286977 383.42819798 423.6875 372.90869141 C423.69290143 360.63173112 423.69481557 348.35477787 423.69188774 336.07781655 C423.6903466 329.60298114 423.69006991 323.12815329 423.69342422 316.65331841 C423.98003615 266.61824171 423.98003615 266.61824171 421.36474609 216.67333984 C421.17568127 214.48064281 421.00653516 212.28692061 420.83837891 210.0925293 C417.56994475 169.55043956 403.69976889 131.58352151 372.55712891 104.24291992 C336.46908022 74.37516116 290.14484236 70.86820673 245.23657227 69.17749023 C244.08774122 69.13384858 242.93891018 69.09020692 241.75526607 69.04524279 C217.23858302 68.13274336 192.74335251 67.94537545 168.21217847 67.97426891 C162.33521205 67.97949767 156.45825037 67.97459347 150.58128357 67.97149658 C140.74729254 67.96790847 130.91333204 67.97252183 121.0793457 67.98217773 C109.83012992 67.99309806 98.58098649 67.98948969 87.33177239 67.97852492 C77.51956915 67.96935702 67.70738727 67.96821117 57.89518112 67.97340226 C52.10104849 67.97646466 46.30694953 67.97709401 40.51281929 67.97032928 C14.82407237 67.94439058 -10.73487013 68.34970936 -36.37472725 69.98946381 Z " fill="#FEFEFE" transform="translate(400.44287109375,131.757080078125)"/>
<path d="M0 0 C1.27210075 -0.02854317 1.27210075 -0.02854317 2.56990051 -0.05766296 C3.48535141 -0.07158585 4.40080231 -0.08550873 5.34399414 -0.09985352 C6.30379684 -0.11502518 7.26359955 -0.13019684 8.25248718 -0.14582825 C65.87930108 -0.88646573 114.46177177 16.38871882 156.69165039 56.20874023 C157.47540039 56.93834961 158.25915039 57.66795898 159.06665039 58.41967773 C185.55876235 83.87102816 202.63699766 118.75203263 210.69165039 154.20874023 C210.9249707 155.20260742 211.15829102 156.19647461 211.39868164 157.22045898 C220.32994173 198.15004659 213.0113677 244.04346188 194.69165039 281.20874023 C194.33844727 281.93287109 193.98524414 282.65700195 193.62133789 283.40307617 C188.53630431 293.7240481 182.67626792 303.07413458 175.69165039 312.20874023 C174.69004883 313.52938477 174.69004883 313.52938477 173.66821289 314.87670898 C143.7770525 353.24719855 99.99058326 380.57126978 51.69165039 388.20874023 C50.0171582 388.51424805 50.0171582 388.51424805 48.30883789 388.82592773 C20.62409948 393.19090809 -9.48143373 390.91474326 -36.22973633 382.83520508 C-38.12485811 382.26404199 -40.03064478 381.72857398 -41.93725586 381.19702148 C-71.96499641 372.17192405 -98.35212129 354.23326164 -120.30834961 332.20874023 C-121.45883789 331.11045898 -121.45883789 331.11045898 -122.63256836 329.98999023 C-156.71527324 297.09032139 -175.72644735 247.89785688 -176.63047791 201.03910828 C-176.8325923 186.23045146 -176.24645437 171.76384039 -173.30834961 157.20874023 C-173.15269531 156.38116211 -172.99704102 155.55358398 -172.83666992 154.70092773 C-163.28507952 104.82675509 -131.98824958 61.18861143 -90.52172852 32.69848633 C-84.92869607 28.93401644 -79.19480423 25.49129689 -73.30834961 22.20874023 C-72.73068848 21.87567871 -72.15302734 21.54261719 -71.55786133 21.19946289 C-58.34670547 13.64655201 -43.81335076 9.56376151 -29.30834961 5.20874023 C-28.60170166 4.99000244 -27.89505371 4.77126465 -27.16699219 4.54589844 C-23.18348389 3.34222845 -19.24407373 2.68131512 -15.12084961 2.14624023 C-10.71217496 1.61038384 -10.71217496 1.61038384 -6.37718201 0.69273376 C-4.19621067 0.18250586 -2.23778787 0.04810265 0 0 Z " fill="#FEFEFE" transform="translate(493.308349609375,316.791259765625)"/>
<path d="M0 0 C23.58842362 20.71642218 41.21326614 50.6635292 43.63623047 82.43701172 C45.25618036 123.53818936 34.15540843 156.10973889 6.61279297 186.68310547 C-14.64159282 208.96882221 -46.74064753 222.72278205 -77.42236328 223.64013672 C-114.55075237 224.17917473 -147.47930267 211.35647695 -174.36376953 185.43701172 C-192.68501075 166.65701359 -205.48436967 141.41996895 -209.36376953 115.43701172 C-209.47462891 114.73576172 -209.58548828 114.03451172 -209.69970703 113.31201172 C-211.63437958 98.25293887 -210.73936613 83.18948566 -207.36376953 68.43701172 C-207.14696533 67.45692139 -207.14696533 67.45692139 -206.92578125 66.45703125 C-204.83319444 57.18522635 -201.67343038 48.89017782 -197.36376953 40.43701172 C-196.83912109 39.36708984 -196.31447266 38.29716797 -195.77392578 37.19482422 C-191.5026505 28.81307461 -186.32846054 21.65548631 -180.36376953 14.43701172 C-179.64318359 13.56173828 -178.92259766 12.68646484 -178.18017578 11.78466797 C-160.34287503 -8.9327841 -135.2546507 -23.0792647 -108.45361328 -27.94970703 C-105.46781441 -28.40074715 -105.46781441 -28.40074715 -103.36376953 -29.56298828 C-66.21954705 -35.172286 -28.47134467 -24.4146976 0 0 Z " fill="#FE0C64" transform="translate(595.36376953125,415.56298828125)"/>
<path d="M0 0 C8.32176738 6.87321817 14.61407667 17.06569018 16.19921875 27.81640625 C17.21882761 41.79961351 15.58219682 53.68272765 6.1328125 64.7578125 C-1.3207552 72.693227 -10.4657958 79.99754788 -21.81860352 80.9934082 C-41.99577999 81.53132337 -41.99577999 81.53132337 -49.80078125 76.81640625 C-50.59742188 76.34589844 -51.3940625 75.87539063 -52.21484375 75.390625 C-63.08249623 68.54081798 -71.59335923 58.41406805 -74.80078125 45.81640625 C-76.48176324 32.33570702 -74.80177579 20.25959446 -66.98828125 8.94140625 C-59.63806533 -0.45877815 -49.86489753 -7.50383668 -37.92578125 -9.94140625 C-23.74296346 -11.55783034 -11.67782117 -8.13167652 0 0 Z " fill="#FEFDFE" transform="translate(744.80078125,273.18359375)"/>
<path d="M0 0 C0.66 0.33 1.32 0.66 2 1 C-7.24 10.24 -16.48 19.48 -26 29 C-26 25.42399803 -25.47693642 25.06829154 -23.10546875 22.55859375 C-22.17359741 21.56569336 -22.17359741 21.56569336 -21.22290039 20.55273438 C-20.55121826 19.85470703 -19.87953613 19.15667969 -19.1875 18.4375 C-18.51130615 17.72529297 -17.8351123 17.01308594 -17.13842773 16.27929688 C-11.66600042 10.56848854 -5.98203252 5.17364975 0 0 Z " fill="#A207F3" transform="translate(80,53)"/>
</svg>
