<?xml version="1.0" encoding="UTF-8"?>
<svg version="1.1" xmlns="http://www.w3.org/2000/svg" width="126" height="66">
<path d="M0 0 C41.58 0 83.16 0 126 0 C126 21.78 126 43.56 126 66 C84.42 66 42.84 66 0 66 C0 44.22 0 22.44 0 0 Z " fill="#FBE87F" transform="translate(0,0)"/>
<path d="M0 0 C3.34542359 2.36060215 6.19455487 5.02514394 9 8 C9.12375 6.865625 9.2475 5.73125 9.375 4.5625 C9.684375 2.7990625 9.684375 2.7990625 10 1 C10.66 0.67 11.32 0.34 12 0 C12 4.95 12 9.9 12 15 C10.35 13.35 8.7 11.7 7 10 C5.74347467 8.87957799 4.47457995 7.77268505 3.1875 6.6875 C2.135625 5.800625 1.08375 4.91375 0 4 C0 7.63 0 11.26 0 15 C-9.3845967 16.35829689 -9.3845967 16.35829689 -12.328125 14.64453125 C-12.87984375 14.10183594 -13.4315625 13.55914062 -14 13 C-14 12.34 -14 11.68 -14 11 C-14.99 11 -15.98 11 -17 11 C-17 12.32 -17 13.64 -17 15 C-17.99 15 -18.98 15 -20 15 C-20 10.05 -20 5.1 -20 0 C-19.01 0 -18.02 0 -17 0 C-17 0.99 -17 1.98 -17 3 C-16.05125 2.319375 -15.1025 1.63875 -14.125 0.9375 C-9.36743508 -1.71944654 -5.12345807 -1.77768469 0 0 Z " fill="#EBE187" transform="translate(55,25)"/>
<path d="M0 0 C0.33 0 0.66 0 1 0 C1 17.49 1 34.98 1 53 C-0.65 53 -2.3 53 -4 53 C-3.93941406 52.43829102 -3.87882812 51.87658203 -3.81640625 51.29785156 C-2.63571378 40.10397868 -1.75712879 29.0509415 -1.98632812 17.78808594 C-2.22345442 4.44690884 -2.22345442 4.44690884 0 0 Z " fill="#504D3F" transform="translate(125,13)"/>
<path d="M0 0 C0 0.66 0 1.32 0 2 C-1.134375 2.309375 -2.26875 2.61875 -3.4375 2.9375 C-6.78775099 3.62924531 -6.78775099 3.62924531 -8 5 C-8.04092937 7.33297433 -8.04241723 9.66705225 -8 12 C-6.02 12.66 -4.04 13.32 -2 14 C-2 13.01 -2 12.02 -2 11 C-3.32 11 -4.64 11 -6 11 C-5.67 10.01 -5.34 9.02 -5 8 C-3.35 8 -1.7 8 0 8 C0.09765625 14.15234375 0.09765625 14.15234375 0 16 C-0.33 16.33 -0.66 16.66 -1 17 C-4.4375 16.8125 -4.4375 16.8125 -8 16 C-9.4375 13.9375 -9.4375 13.9375 -10 12 C-10.99 12 -11.98 12 -13 12 C-13 13.32 -13 14.64 -13 16 C-13.99 16 -14.98 16 -16 16 C-16 11.05 -16 6.1 -16 1 C-15.01 1 -14.02 1 -13 1 C-13 1.99 -13 2.98 -13 4 C-11.96875 3.34 -10.9375 2.68 -9.875 2 C-6.46423174 0.02717274 -3.9798357 -0.38827665 0 0 Z " fill="#4B8A7A" transform="translate(51,24)"/>
<path d="M0 0 C16.17 0 32.34 0 49 0 C49 4.29 49 8.58 49 13 C48.34 13.66 47.68 14.32 47 15 C46.34 11.04 45.68 7.08 45 3 C43.47632813 3.01160156 41.95265625 3.02320313 40.3828125 3.03515625 C30.47861884 3.08826185 20.5821052 3.11258726 10.6875 2.625 C9.94838379 2.59414307 9.20926758 2.56328613 8.44775391 2.53149414 C4.82137715 2.324874 3.09395482 2.06263655 0 0 Z " fill="#D6D4CE" transform="translate(77,0)"/>
<path d="M0 0 C1.8125 1.1875 1.8125 1.1875 3 3 C3.5 5.5 3.5 5.5 3 8 C0.13896577 10.24243223 -1.34076304 11 -5 11 C-5 12.98 -5 14.96 -5 17 C-5.66 17 -6.32 17 -7 17 C-7 11.72 -7 6.44 -7 1 C-4.45132831 -0.27433584 -2.82594567 -0.27570202 0 0 Z " fill="#579079" transform="translate(98,23)"/>
<path d="M0 0 C2.87302998 0.64874871 5.54987446 0.54750713 8.4921875 0.4921875 C13.19450456 0.44982428 17.56206881 0.63309565 22.1796875 1.4921875 C22.1796875 1.8221875 22.1796875 2.1521875 22.1796875 2.4921875 C0.0696875 2.4921875 -22.0403125 2.4921875 -44.8203125 2.4921875 C-44.8203125 2.1621875 -44.8203125 1.8321875 -44.8203125 1.4921875 C-36.66308278 0.58040134 -28.60514999 0.40634961 -20.40893555 0.52929688 C-13.69500496 0.60134814 -6.52810003 -1.82114379 0 0 Z " fill="#3F3E37" transform="translate(73.8203125,63.5078125)"/>
<path d="M0 0 C0.99 0.33 1.98 0.66 3 1 C3.63019694 10.99562363 3.63019694 10.99562363 1 15.1875 C0.01 16.0846875 0.01 16.0846875 -1 17 C-3.56887084 16.65285529 -5.51043382 16.34177261 -7.65625 14.84375 C-9.60948958 12.16372361 -9.29296194 10.08182023 -9.1875 6.8125 C-9.16042969 5.72582031 -9.13335937 4.63914062 -9.10546875 3.51953125 C-9.07066406 2.68808594 -9.03585938 1.85664063 -9 1 C-8.34 1 -7.68 1 -7 1 C-6.93941406 1.69867187 -6.87882812 2.39734375 -6.81640625 3.1171875 C-6.73261719 4.02726562 -6.64882812 4.93734375 -6.5625 5.875 C-6.44068359 7.23238281 -6.44068359 7.23238281 -6.31640625 8.6171875 C-6.13010715 11.01110861 -6.13010715 11.01110861 -5 13 C-3.68 13 -2.36 13 -1 13 C-0.67 8.71 -0.34 4.42 0 0 Z " fill="#4D8A78" transform="translate(86,24)"/>
<path d="M0 0 C5.43895793 2.17558317 7.13509277 3.86544807 11 8 C11.12375 6.865625 11.2475 5.73125 11.375 4.5625 C11.58125 3.386875 11.7875 2.21125 12 1 C12.66 0.67 13.32 0.34 14 0 C14 4.95 14 9.9 14 15 C12.35 13.35 10.7 11.7 9 10 C7.74347467 8.87957799 6.47457995 7.77268505 5.1875 6.6875 C4.135625 5.800625 3.08375 4.91375 2 4 C2 7.63 2 11.26 2 15 C1.34 15 0.68 15 0 15 C0 10.05 0 5.1 0 0 Z " fill="#508C7A" transform="translate(53,25)"/>
<path d="M0 0 C1.4540625 0.0309375 1.4540625 0.0309375 2.9375 0.0625 C3.2675 1.0525 3.5975 2.0425 3.9375 3.0625 C0.9675 2.5675 0.9675 2.5675 -2.0625 2.0625 C-1.32850588 5.3567379 -1.32850588 5.3567379 2 6.875 C4.9375 9.0625 4.9375 9.0625 5.5 12.1875 C5.314375 13.13625 5.12875 14.085 4.9375 15.0625 C1.9375 17.0625 1.9375 17.0625 -1.25 16.6875 C-2.178125 16.48125 -3.10625 16.275 -4.0625 16.0625 C-4.3925 15.0725 -4.7225 14.0825 -5.0625 13.0625 C-2.4225 13.3925 0.2175 13.7225 2.9375 14.0625 C2.9375 12.7425 2.9375 11.4225 2.9375 10.0625 C1.968125 9.753125 0.99875 9.44375 0 9.125 C-3.0625 8.0625 -3.0625 8.0625 -4.0625 7.0625 C-4.1875 4.0625 -4.1875 4.0625 -4.0625 1.0625 C-3.0625 0.0625 -3.0625 0.0625 0 0 Z " fill="#48897A" transform="translate(28.0625,23.9375)"/>
<path d="M0 0 C0.33 0 0.66 0 1 0 C1 1.65 1 3.3 1 5 C1.66 5 2.32 5 3 5 C3 10.61 3 16.22 3 22 C1.35 22 -0.3 22 -2 22 C-1.34 14.74 -0.68 7.48 0 0 Z " fill="#615D49" transform="translate(123,44)"/>
<path d="M0 0 C0.33 0 0.66 0 1 0 C1.08564209 0.74161377 1.17128418 1.48322754 1.25952148 2.24731445 C1.64888351 5.60276853 2.04313318 8.95763062 2.4375 12.3125 C2.57220703 13.47974609 2.70691406 14.64699219 2.84570312 15.84960938 C2.97783203 16.96787109 3.10996094 18.08613281 3.24609375 19.23828125 C3.36654053 20.26993408 3.4869873 21.30158691 3.61108398 22.36450195 C3.93653488 25.10017814 3.93653488 25.10017814 5 28 C3.35 28 1.7 28 0 28 C0 18.76 0 9.52 0 0 Z " fill="#D5D2C5" transform="translate(0,38)"/>
<path d="M0 0 C0.99 0 1.98 0 3 0 C3 0.99 3 1.98 3 3 C3.66 3 4.32 3 5 3 C5 5.64 5 8.28 5 11 C4.34 11 3.68 11 3 11 C3 12.32 3 13.64 3 15 C2.01 15 1.02 15 0 15 C0 10.05 0 5.1 0 0 Z " fill="#95B381" transform="translate(35,25)"/>
<path d="M0 0 C0.99 0 1.98 0 3 0 C3 4.62 3 9.24 3 14 C2.34 14 1.68 14 1 14 C0.773125 12.906875 0.54625 11.81375 0.3125 10.6875 C-1.19112931 6.46301765 -2.19309753 6.00363288 -6 4 C-6 3.01 -6 2.02 -6 1 C-3.03 1.495 -3.03 1.495 0 2 C0 1.34 0 0.68 0 0 Z " fill="#EBE28B" transform="translate(32,25)"/>
<path d="M0 0 C2.625 0.25 2.625 0.25 4.4375 1.4375 C6.04001866 3.88344953 6.0659511 5.38381787 5.625 8.25 C2.625 10.25 2.625 10.25 -0.375 10.25 C-0.375 9.59 -0.375 8.93 -0.375 8.25 C0.945 7.92 2.265 7.59 3.625 7.25 C3.625 6.26 3.625 5.27 3.625 4.25 C0.655 3.755 0.655 3.755 -2.375 3.25 C-2.375 4.9 -2.375 6.55 -2.375 8.25 C-2.705 8.25 -3.035 8.25 -3.375 8.25 C-3.41741723 5.91705225 -3.41592937 3.58297433 -3.375 1.25 C-2.375 0.25 -2.375 0.25 0 0 Z " fill="#4A8978" transform="translate(95.375,22.75)"/>
<path d="M0 0 C0.99 0.33 1.98 0.66 3 1 C3.02696365 2.79158489 3.04637917 4.58328473 3.0625 6.375 C3.07410156 7.37273438 3.08570312 8.37046875 3.09765625 9.3984375 C3 12 3 12 2 14 C1.01 13.67 0.02 13.34 -1 13 C-0.67 8.71 -0.34 4.42 0 0 Z " fill="#6B9B7A" transform="translate(86,24)"/>
<path d="M0 0 C1.65 0 3.3 0 5 0 C5.09765625 6.15234375 5.09765625 6.15234375 5 8 C4 9 4 9 1.4375 9.0625 C0.633125 9.041875 -0.17125 9.02125 -1 9 C-0.34 8.67 0.32 8.34 1 8 C1 7.34 1 6.68 1 6 C1.66 6 2.32 6 3 6 C3 5.01 3 4.02 3 3 C1.68 3 0.36 3 -1 3 C-0.67 2.01 -0.34 1.02 0 0 Z " fill="#5E947B" transform="translate(46,32)"/>
<path d="M0 0 C3.71599191 -0.20086443 4.77208445 -0.1519437 8 2 C8.36328125 4.09375 8.36328125 4.09375 8.3125 6.5 C8.30863281 7.2940625 8.30476563 8.088125 8.30078125 8.90625 C8 11 8 11 6 13 C5.34 9.04 4.68 5.08 4 1 C2.68 0.67 1.36 0.34 0 0 Z " fill="#AFAC9B" transform="translate(118,2)"/>
<path d="M0 0 C2.97 0.495 2.97 0.495 6 1 C6 1.99 6 2.98 6 4 C4.02 4.33 2.04 4.66 0 5 C0 3.35 0 1.7 0 0 Z " fill="#E2DA7E" transform="translate(93,26)"/>
<path d="M0 0 C0.33 0 0.66 0 1 0 C1 4.62 1 9.24 1 14 C-0.65 14.33 -2.3 14.66 -4 15 C-3.525625 14.38125 -3.05125 13.7625 -2.5625 13.125 C-0.41947162 8.83894324 -0.26657436 4.73399291 0 0 Z " fill="#E2DA7D" transform="translate(90,25)"/>
<path d="M0 0 C0.33 0.66 0.66 1.32 1 2 C2.32 2 3.64 2 5 2 C5 2.99 5 3.98 5 5 C2.625 5.1875 2.625 5.1875 0 5 C-0.66 4.01 -1.32 3.02 -2 2 C-1.34 2 -0.68 2 0 2 C0 1.34 0 0.68 0 0 Z " fill="#EADF85" transform="translate(44,33)"/>
<path d="M0 0 C0.33 0 0.66 0 1 0 C1 4.95 1 9.9 1 15 C0.01 14.01 -0.98 13.02 -2 12 C-2 11.34 -2 10.68 -2 10 C-1.34 10 -0.68 10 0 10 C0 6.7 0 3.4 0 0 Z " fill="#3C8278" transform="translate(66,25)"/>
<path d="M0 0 C1.65 0 3.3 0 5 0 C4.67 1.32 4.34 2.64 4 4 C2.35 3.67 0.7 3.34 -1 3 C-0.67 2.01 -0.34 1.02 0 0 Z " fill="#508C7A" transform="translate(46,32)"/>
<path d="M0 0 C0.33 0 0.66 0 1 0 C1.36923077 5.53846154 1.36923077 5.53846154 -0.5 7.875 C-1.2425 8.431875 -1.2425 8.431875 -2 9 C-2 7.02 -2 5.04 -2 3 C-1.34 3 -0.68 3 0 3 C0 2.01 0 1.02 0 0 Z " fill="#3B3A35" transform="translate(124,55)"/>
</svg>
