<?xml version="1.0" encoding="UTF-8"?>
<svg version="1.1" xmlns="http://www.w3.org/2000/svg" width="498" height="127">
<path d="M0 0 C7.59 0 15.18 0 23 0 C23.33 19.14 23.66 38.28 24 58 C31.08876398 50.16856181 31.08876398 50.16856181 37.875 42.125 C38.59429687 41.24070313 39.31359375 40.35640625 40.0546875 39.4453125 C41.99551848 37.13177335 41.99551848 37.13177335 43.22045898 34.87158203 C45 33 45 33 47.91088867 32.54589844 C49.0682251 32.5668457 50.22556152 32.58779297 51.41796875 32.609375 C53.29838867 32.62871094 53.29838867 32.62871094 55.21679688 32.6484375 C56.52712891 32.68195312 57.83746094 32.71546875 59.1875 32.75 C60.5227601 32.77006693 61.85804883 32.78831738 63.19335938 32.8046875 C66.46296146 32.85190197 69.73112192 32.91774816 73 33 C70.77430331 36.82150928 68.40959577 39.89773148 65.375 43.125 C61.0796473 47.77099373 57.02800157 52.54881511 53.05078125 57.47265625 C50.42873496 60.70401615 47.72523793 63.8554947 45 67 C46.26264904 69.7153387 47.60350426 71.9004586 49.58203125 74.14453125 C50.09588379 74.73186035 50.60973633 75.31918945 51.13916016 75.92431641 C51.6913623 76.54741699 52.24356445 77.17051758 52.8125 77.8125 C53.38274902 78.46395996 53.95299805 79.11541992 54.54052734 79.78662109 C56.35653341 81.86113336 58.1777398 83.93098042 60 86 C62.37982673 88.70414701 64.75395265 91.41315474 67.125 94.125 C67.66874268 94.73964111 68.21248535 95.35428223 68.77270508 95.98754883 C69.28341553 96.57173584 69.79412598 97.15592285 70.3203125 97.7578125 C70.76648926 98.2645752 71.21266602 98.77133789 71.67236328 99.29345703 C73.32406084 101.41654749 74.65166113 103.675363 76 106 C51.690844 108.6877744 51.690844 108.6877744 44.39746094 104.50878906 C40.15401731 100.69846934 37.19883183 96.08292467 34.33300781 91.18945312 C32.38466998 87.98932608 30.06065262 85.28281897 27.625 82.4375 C26.42875 80.973125 25.2325 79.50875 24 78 C23.67 87.24 23.34 96.48 23 106 C15.41 106 7.82 106 0 106 C0 71.02 0 36.04 0 0 Z " fill="#000000" transform="translate(422,2)"/>
<path d="M0 0 C3.125 2.1875 3.125 2.1875 5 4 C5.33 2.35 5.66 0.7 6 -1 C13.59 -1 21.18 -1 29 -1 C29 23.09 29 47.18 29 72 C21.41 72 13.82 72 6 72 C5.67 70.02 5.34 68.04 5 66 C4.34 66.598125 3.68 67.19625 3 67.8125 C-4.51158779 73.28969943 -11.91034983 73.96256223 -21 73 C-30.2097116 70.82386561 -37.77913918 64.83129124 -43 57 C-48.91033592 46.03304334 -50.69079967 34.27114388 -47.17578125 22.16015625 C-43.49698738 12.49059925 -37.65094414 4.47090088 -28.3203125 -0.3984375 C-18.63388403 -4.26752083 -9.61237236 -4.06611857 0 0 Z M-24.3828125 24.5390625 C-27.60524355 29.29383838 -27.99382124 34.42937043 -27 40 C-25.0536932 45.02078259 -21.97401983 48.99437598 -17.08203125 51.37109375 C-11.91099975 52.93307512 -6.57723907 53.13014853 -1.5859375 50.94140625 C1.26915496 49.19201323 3.63208189 47.36791811 6 45 C6.49897575 41.91907325 6.41664421 38.80428218 6.4375 35.6875 C6.47037109 34.83220703 6.50324219 33.97691406 6.53710938 33.09570312 C6.57543784 28.59733469 6.5069744 26.64295098 3.640625 23.0078125 C-1.66476685 18.97383113 -5.81181555 17.35925716 -12.46875 17.58984375 C-17.46016473 18.3986378 -21.03665806 20.81481152 -24.3828125 24.5390625 Z " fill="#000000" transform="translate(307,36)"/>
<path d="M0 0 C5.01314184 3.68192098 9.22857065 8.06960214 12.38671875 13.45703125 C12.38671875 14.11703125 12.38671875 14.77703125 12.38671875 15.45703125 C6.77671875 18.42703125 1.16671875 21.39703125 -4.61328125 24.45703125 C-6.92328125 22.47703125 -9.23328125 20.49703125 -11.61328125 18.45703125 C-16.87393216 15.82670579 -21.99510636 15.25325284 -27.6796875 17.14453125 C-32.00148689 19.38477283 -34.46274155 22.15595184 -36.61328125 26.45703125 C-38.06756556 32.46807306 -37.83742582 37.06810389 -34.61328125 42.45703125 C-31.7171369 45.56884592 -28.58419402 48.25765201 -24.2578125 48.6953125 C-17.69899645 48.86719871 -13.93052347 48.36357656 -8.61328125 44.45703125 C-7.29328125 43.13703125 -5.97328125 41.81703125 -4.61328125 40.45703125 C0.66671875 43.42703125 5.94671875 46.39703125 11.38671875 49.45703125 C11.38671875 54.5905732 9.86548902 55.80177545 6.5078125 59.4296875 C-1.32215469 66.91357879 -9.64486418 70.52726924 -20.42578125 70.89453125 C-31.45692393 70.60924308 -40.76306651 67.35244876 -48.61328125 59.45703125 C-56.68522883 49.95321772 -59.23009117 41.59498327 -58.96875 29.1875 C-57.84180716 17.36079212 -51.90998382 9.22900861 -43.36328125 1.39453125 C-30.35988145 -7.76695497 -13.71712979 -8.09905272 0 0 Z " fill="#000000" transform="translate(402.61328125,38.54296875)"/>
<path d="M0 0 C-0.60636233 5.76044212 -2.75658279 10.72014369 -5 16 C-7.85918228 15.07269764 -10.68457177 14.13117809 -13.4609375 12.9765625 C-19.87715789 10.38433592 -26.05375047 8.69757821 -33 10 C-34.80563883 11.42300443 -34.80563883 11.42300443 -36 13 C-35.38823206 14.98667524 -35.38823206 14.98667524 -34 17 C-31.46058671 18.26713687 -31.46058671 18.26713687 -28.3984375 19.11328125 C-27.26792969 19.47486328 -26.13742188 19.83644531 -24.97265625 20.20898438 C-22.59892257 20.93708401 -20.22394175 21.66113171 -17.84765625 22.38085938 C-10.0695304 24.87813987 -3.22092096 27.72856802 1.19995117 34.96386719 C3.82071775 40.39084943 3.44885753 46.27782671 2 52 C-0.95144847 58.58478331 -5.38972591 63.107279 -12 66 C-24.72862227 70.32436987 -38.5962171 68.63291652 -51 64 C-53.92035681 62.51457355 -56.35080615 60.9463465 -59 59 C-57.36041242 53.76727367 -55.61047965 48.84803364 -53 44 C-49.71949124 45.04016132 -46.59227882 46.17882508 -43.4375 47.5625 C-38.50516619 49.62511232 -34.26602322 50.13847288 -28.9375 50.125 C-27.91527344 50.12757812 -26.89304688 50.13015625 -25.83984375 50.1328125 C-23.38350068 50.01793538 -21.34231684 49.70775041 -19 49 C-18.58219121 46.62694422 -18.58219121 46.62694422 -19 44 C-23.83845903 40.20532145 -29.9214634 39.38510607 -35.78710938 38.0703125 C-44.45346208 35.97105256 -50.77489426 32.28348073 -56 25 C-57.9848849 19.04534529 -58.01898824 12.35446099 -55.3125 6.625 C-51.16179785 -0.42688496 -45.45113319 -3.97297714 -38 -7 C-25.02265739 -10.28540319 -10.77980172 -7.82064046 0 0 Z " fill="#000000" transform="translate(218,41)"/>
<path d="M0 0 C7.59 0 15.18 0 23 0 C23 34.98 23 69.96 23 106 C15.41 106 7.82 106 0 106 C0 71.02 0 36.04 0 0 Z " fill="#000000" transform="translate(228,2)"/>
<path d="M0 0 C1.2707563 -0.00855011 1.2707563 -0.00855011 2.56718445 -0.01727295 C4.36012526 -0.02671702 6.15308338 -0.03325458 7.94604492 -0.03710938 C10.67853383 -0.04680163 13.41026613 -0.07782462 16.14257812 -0.109375 C17.8867143 -0.11590678 19.63085583 -0.12115657 21.375 -0.125 C22.18769852 -0.1373468 23.00039703 -0.1496936 23.83772278 -0.16241455 C29.94164173 -0.13864512 34.13811229 1.07606484 38.69921875 5.390625 C40.82808034 8.93872765 41.58110199 12.11330162 41.38671875 16.203125 C39.83371101 21.37981747 38.0027101 24.34560655 33.38671875 27.203125 C29.1242551 28.36391516 24.87503463 28.36429301 20.48828125 28.37109375 C19.35850357 28.37608635 19.35850357 28.37608635 18.2059021 28.38117981 C16.61741747 28.38622637 15.02892232 28.38858884 13.44042969 28.38842773 C11.02651263 28.39061162 8.61305494 28.40878399 6.19921875 28.42773438 C4.64974113 28.43066941 3.10026136 28.43265347 1.55078125 28.43359375 C0.83701324 28.44077927 0.12324524 28.44796478 -0.6121521 28.45536804 C-6.78267785 28.42761544 -11.80133134 27.81812383 -16.48828125 23.640625 C-19.29284977 19.84238485 -19.89719105 15.85423547 -19.61328125 11.203125 C-18.00273021 6.46094693 -15.73872511 3.9877996 -11.61328125 1.203125 C-7.73643703 -0.08915641 -4.04215281 0.02098102 0 0 Z " fill="#35C5F0" transform="translate(19.61328125,32.796875)"/>
<path d="M0 0 C4.76203312 5.10217834 4.93388273 10.52244956 4.92578125 17.24609375 C4.93006638 18.04225601 4.9343515 18.83841827 4.93876648 19.65870667 C4.94448558 21.33536838 4.94502797 23.01205489 4.94067383 24.6887207 C4.93751378 27.23887886 4.96100255 29.78787557 4.98632812 32.33789062 C4.98860154 33.97395688 4.98930442 35.61002623 4.98828125 37.24609375 C4.997491 38.00047226 5.00670074 38.75485077 5.01618958 39.53208923 C4.96284259 45.70606496 3.74215733 50.51387204 -0.5625 55.1875 C-4.11931734 57.24255002 -7.31039612 58.0056846 -11.375 57.8125 C-16.56699102 56.25490269 -19.46444527 54.40222091 -22.375 49.8125 C-23.78648435 45.86888764 -23.55520017 41.71011391 -23.578125 37.57421875 C-23.58382507 36.77522659 -23.58952515 35.97623444 -23.59539795 35.1530304 C-23.60482871 33.46441972 -23.61137428 31.7757908 -23.61523438 30.0871582 C-23.62492691 27.51936286 -23.65596236 24.95237287 -23.6875 22.38476562 C-23.69403218 20.73958806 -23.69928181 19.0944048 -23.703125 17.44921875 C-23.7154718 16.68856613 -23.7278186 15.92791351 -23.74053955 15.14421082 C-23.7192021 9.97299278 -22.78761636 6.40852695 -20.375 1.8125 C-14.53677088 -3.87603093 -6.77325957 -5.16295031 0 0 Z " fill="#DF1E5A" transform="translate(56.375,69.1875)"/>
<path d="M0 0 C0.79899216 -0.00570007 1.59798431 -0.01140015 2.42118835 -0.01727295 C4.10979903 -0.02670371 5.79842795 -0.03324928 7.48706055 -0.03710938 C10.05485589 -0.04680191 12.62184588 -0.07783736 15.18945312 -0.109375 C16.83463069 -0.11590718 18.47981395 -0.12115681 20.125 -0.125 C20.88565262 -0.1373468 21.64630524 -0.1496936 22.43000793 -0.16241455 C28.62425781 -0.13685587 33.39136699 1.08228395 38.13671875 5.328125 C40.35321902 9.24962548 40.95997408 12.71462437 40.76171875 17.203125 C39.15580848 21.93163856 36.91394658 24.46873107 32.76171875 27.203125 C28.82287507 28.62225432 24.65696405 28.3833383 20.5234375 28.40625 C19.72444534 28.41195007 18.92545319 28.41765015 18.10224915 28.42352295 C16.41363847 28.43295371 14.72500955 28.43949928 13.03637695 28.44335938 C10.46858161 28.45305191 7.90159162 28.48408736 5.33398438 28.515625 C3.68880681 28.52215718 2.04362355 28.52740681 0.3984375 28.53125 C-0.36221512 28.5435968 -1.12286774 28.5559436 -1.90657043 28.56866455 C-8.12483576 28.54300677 -12.95818527 27.36321593 -17.61328125 22.953125 C-20.30026369 18.40592395 -20.47682516 14.74040798 -19.67578125 9.578125 C-17.82258276 5.22713723 -16.12936653 3.84906299 -12.23828125 1.203125 C-8.31683007 -0.24398905 -4.12601607 0.02287007 0 0 Z " fill="#ECB22D" transform="translate(86.23828125,65.796875)"/>
<path d="M0 0 C5.08643801 2.73885123 8.17004027 5.5101208 10 11 C10.12127408 13.8791568 10.18817637 16.73331375 10.203125 19.61328125 C10.20882507 20.46045212 10.21452515 21.30762299 10.22039795 22.1804657 C10.22984202 23.97340651 10.23637958 25.76636463 10.24023438 27.55932617 C10.24992663 30.29181508 10.28094962 33.02354738 10.3125 35.75585938 C10.31903178 37.49999555 10.32428157 39.24413708 10.328125 40.98828125 C10.3404718 41.80097977 10.3528186 42.61367828 10.36553955 43.45100403 C10.34171022 49.57030308 9.14661025 53.79376169 4.75 58.3125 C0.42271661 60.96787844 -3.17475343 61.36504931 -8.125 60.375 C-12.48199978 58.2912175 -15.22839722 55.82850548 -17.12182617 51.34155273 C-18.1449645 47.44839335 -18.30573828 43.78016874 -18.30078125 39.78515625 C-18.30720894 38.62420692 -18.30720894 38.62420692 -18.31376648 37.43980408 C-18.31948439 35.81022109 -18.32002886 34.18061259 -18.31567383 32.55102539 C-18.31251375 30.0732829 -18.33600389 27.59673586 -18.36132812 25.11914062 C-18.36360156 23.52864732 -18.36430441 21.93815085 -18.36328125 20.34765625 C-18.372491 19.61515152 -18.38170074 18.88264679 -18.39118958 18.12794495 C-18.3460433 13.04816801 -17.36075518 9.51863571 -15 5 C-10.27840601 0.51448571 -6.47534698 -0.54875822 0 0 Z " fill="#2DB67C" transform="translate(84,0)"/>
<path d="M0 0 C3.26453996 1.7769015 5.42985067 4.10759236 7.4375 7.25 C8.39629411 11.93743785 8.26761056 16.51737683 6.05859375 20.84375 C2.9761831 24.99432275 -0.11827361 25.9157271 -5 27 C-7.64295657 27.1301949 -10.29175297 27.17182738 -12.9375 27.125 C-13.62134766 27.11597656 -14.30519531 27.10695313 -15.00976562 27.09765625 C-16.67333287 27.07438958 -18.33671631 27.03853167 -20 27 C-20.05454409 24.64551325 -20.0939279 22.29232125 -20.125 19.9375 C-20.14820312 18.62652344 -20.17140625 17.31554687 -20.1953125 15.96484375 C-19.96764668 11.34322755 -19.58068545 6.96374849 -16.59765625 3.2578125 C-10.85485833 -0.97987553 -6.84448107 -1.70528027 0 0 Z " fill="#2EB67C" transform="translate(119,34)"/>
<path d="M0 0 C2.5215021 -0.08172936 5.04029917 -0.14083373 7.5625 -0.1875 C8.26697266 -0.21263672 8.97144531 -0.23777344 9.69726562 -0.26367188 C15.90901676 -0.34954862 20.6174458 0.86824098 25.375 5.125 C27.59150027 9.04650048 28.19825533 12.51149937 28 17 C26.40508207 21.69614723 24.25556334 24.44666199 20 27 C13.9817837 28.45602007 10.51892343 28.18399429 5 25 C0.67152355 20.67152355 0.05760478 17.22354434 -0.09765625 11.23046875 C-0.09108215 9.88277758 -0.07926444 8.53510293 -0.0625 7.1875 C-0.05798828 6.49462891 -0.05347656 5.80175781 -0.04882812 5.08789062 C-0.03713156 3.39188932 -0.01919924 1.69593297 0 0 Z " fill="#ECB22D" transform="translate(66,99)"/>
<path d="M0 0 C0.74507812 0.00451172 1.49015625 0.00902344 2.2578125 0.01367188 C4.0885764 0.02540754 5.91929873 0.0433415 7.75 0.0625 C7.83172936 2.5840021 7.89083373 5.10279917 7.9375 7.625 C7.96263672 8.32947266 7.98777344 9.03394531 8.01367188 9.75976562 C8.09970102 15.9825406 6.90218092 20.72584643 2.5625 25.4375 C-0.99431734 27.49255002 -4.18539612 28.2556846 -8.25 28.0625 C-13.39541681 26.51887496 -16.53894363 24.75471294 -19.25 20.0625 C-20.70602007 14.0442837 -20.43399429 10.58142343 -17.25 5.0625 C-11.89881389 -0.15147621 -7.18291479 -0.0824893 0 0 Z " fill="#DF1E5A" transform="translate(20.25,65.9375)"/>
<path d="M0 0 C3.76782472 2.862808 5.01351957 5.55257054 6.15625 10.0234375 C6.29099123 12.69131392 6.34822861 15.23990191 6.28125 17.8984375 C6.27222656 18.58679688 6.26320313 19.27515625 6.25390625 19.984375 C6.23057513 21.66421588 6.19471326 23.34387496 6.15625 25.0234375 C3.11361733 25.13188777 0.07488796 25.21095813 -2.96875 25.2734375 C-3.8246875 25.30695312 -4.680625 25.34046875 -5.5625 25.375 C-11.17345513 25.46132239 -14.44526602 24.86610681 -18.84375 21.0234375 C-21.50757785 16.5550811 -22.38678681 13.00076313 -21.484375 7.94921875 C-20.07287851 3.70612261 -17.35366487 0.98810534 -13.59375 -1.4140625 C-8.91289567 -2.37150998 -4.29463834 -2.27470251 0 0 Z " fill="#35C5F0" transform="translate(54.84375,1.9765625)"/>
</svg>
