<svg width="4096" height="1954" viewBox="0 0 4096 1954" fill="none" xmlns="http://www.w3.org/2000/svg">
<path d="M20.3164 657.084L729.025 444.041L897.673 176.264L921.787 359.944L973.105 298.575L1326.22 720.237L1229.79 877.244L1525.37 881.692L1654.37 1685.26L1445 1645.6L1559.34 1749.08L1325.21 1680.31L629.842 1899.76L47.2944 1543L20.3164 657.084Z" fill="#AF8D67"/>
<path d="M729.025 444.041L20.3164 657.084L47.2944 1543M729.025 444.041L827.048 1296.85M729.025 444.041L897.673 176.264L921.787 359.944M47.2944 1543L827.048 1296.85M47.2944 1543L629.842 1899.76L1325.21 1680.31M827.048 1296.85L1033.2 1143.69L946.449 618.203M827.048 1296.85L1325.21 1680.31M827.048 1296.85L1101.96 1335.17L1330.65 1542.13M921.787 359.944L973.105 298.575L1326.22 720.237L1229.79 877.244M921.787 359.944L946.449 618.203M946.449 618.203L1229.79 877.244M1325.21 1680.31L1559.34 1749.08L1445 1645.6M1330.65 1542.13L1229.79 877.244M1330.65 1542.13L1445 1645.6M1445 1645.6L1654.37 1685.26L1525.37 881.692L1229.79 877.244" stroke="#956F43" stroke-width="3"/>
<path d="M422.108 594.014H1227.24L1422.66 1594.46L422.108 1485.04V594.014Z" fill="#AF8D67"/>
<path d="M1272.7 898.035L1325.81 1524.19L1106.01 1325.45L848.552 1290.31L1022.55 1156.13L952.836 632.895L1272.7 898.035Z" fill="#74522A"/>
<path d="M3733.28 1032.38L3746.98 1026.98L3930.32 704.121L3926.6 688.558C3867.67 649.533 3762.79 620.276 3629.1 602.547C3494.93 584.752 3330.08 578.372 3149.82 586.202C2930.47 589.899 2749.09 624.202 2571.22 657.841C2540.03 663.741 2508.94 669.62 2477.77 675.309C2268.82 713.462 2055.48 743.335 1779.66 715.221C1546.42 691.448 1386.04 654.513 1244.6 621.939C1218.32 615.889 1192.69 609.989 1167.38 604.351C1005.48 568.294 856.65 543.133 632.339 558.873C605.287 560.771 587.8 562.609 578.868 564.79C576.659 565.33 574.051 566.096 571.779 567.339C570.658 567.952 568.838 569.092 567.275 571.047C565.503 573.262 563.965 576.72 564.598 580.89C565.163 584.618 567.204 587.068 568.454 588.292C569.762 589.573 571.14 590.432 572.126 590.977C574.113 592.076 576.388 592.912 578.458 593.574C586.648 596.189 601.229 598.974 618.804 602.12C624.29 603.101 630.135 604.128 636.287 605.21C650.324 607.677 665.96 610.426 682.59 613.555C730.461 622.566 785.338 634.523 829.909 651.112C852.21 659.411 871.377 668.671 885.658 678.944C900.049 689.294 908.311 699.813 911.032 710.292C925.797 767.125 947.13 846.285 971.557 907.719C983.704 938.272 997.008 965.479 1011.23 983.386C1018.31 992.312 1026.35 999.87 1035.49 1003.91C1044.37 1007.83 1053.88 1008.22 1063.09 1004.15C1117.27 1002.23 1167.25 999.885 1213.53 997.705C1337.48 991.882 1434.94 987.301 1515.61 995.688C1570.83 1001.43 1617.33 1013.2 1658.32 1034.49C1699.24 1055.72 1735.27 1086.74 1769.1 1131.79C1789.58 1159.07 1828.91 1172.46 1878.31 1177.9C1928.39 1183.41 1992.17 1181.08 2065.66 1173.71C2193.06 1160.93 2351.75 1132.78 2522.57 1102.48C2548.85 1097.81 2575.43 1093.1 2602.22 1088.39C2803.41 1052.96 3017.22 1017.3 3215.54 1001.38C3414.1 985.434 3595.81 989.404 3733.28 1032.38Z" fill="#FFF537" stroke="white" stroke-width="3" stroke-linejoin="bevel"/>
<path d="M3762.46 1416.29C3771.33 1423.96 3771.35 1423.94 3771.35 1423.94L3771.36 1423.92L3771.39 1423.88L3771.47 1423.79C3771.53 1423.72 3771.6 1423.63 3771.69 1423.53C3771.85 1423.32 3772.06 1423.06 3772.31 1422.74C3772.81 1422.09 3773.46 1421.19 3774.25 1420.03C3775.84 1417.7 3777.96 1414.29 3780.4 1409.64C3785.29 1400.32 3791.47 1386.04 3797.29 1365.4C3808.93 1324.13 3819.14 1257.43 3814.78 1154.13C3810.41 1050.5 3789.53 991.452 3768.62 957.906C3758.16 941.101 3747.72 930.776 3739.49 924.531C3735.39 921.421 3731.87 919.357 3729.23 918.028C3727.9 917.356 3726.81 916.879 3725.95 916.536C3725.62 916.403 3725.32 916.293 3725.06 916.199C3543.27 836.148 3404.19 819.742 3133.46 844.535C2972.42 859.291 2806.56 891.923 2642.16 924.273C2602.22 932.128 2562.36 939.976 2522.68 947.542C2319.2 986.332 2120.18 1017.87 1935.27 1008.28C1652.82 993.625 1481.67 956.647 1344.63 919.49C1313.73 911.111 1284.45 902.678 1255.92 894.471C1158.58 866.458 1070.12 840.994 956.44 828.731C941.76 823.166 928.143 821.72 915.808 824.752C902.934 827.918 892.827 835.632 885.135 845.793C870.22 865.481 863.396 895.596 860.731 926.626C855.345 989.295 866.257 1065.11 875.974 1097.6L884.494 1105.64C978.045 1127.89 1063.83 1147.73 1142.02 1165.8C1251.27 1191.06 1345.67 1212.89 1425.67 1233.07C1563.34 1267.78 1656.01 1297.07 1707.14 1329.34C1715.9 1334.86 1729.44 1338.49 1745.44 1341.17C1761.9 1343.92 1782.6 1345.9 1806.91 1347.3C1855.57 1350.09 1919.67 1350.58 1995.13 1349.84C2071.79 1349.09 2160.8 1347.06 2257.68 1344.84C2351.07 1342.7 2451.78 1340.4 2555.79 1338.92C2981.21 1332.86 3465.1 1340.49 3759.13 1427.53L3771.33 1423.96L3762.46 1416.29Z" fill="#F68887" stroke="white" stroke-width="3" stroke-linejoin="bevel"/>
<path d="M950.319 1105.98L942.666 1108.32C890.505 1147.68 852.21 1182.15 825.274 1212.4C798.423 1242.57 782.352 1269.12 775.509 1292.7C768.546 1316.68 771.187 1337.54 781.495 1355C791.552 1372.04 808.178 1384.58 826.954 1393.93C864.365 1412.55 914.502 1420.49 954.243 1423.93C974.316 1425.68 992.115 1426.29 1004.91 1426.48C1011.31 1426.58 1016.47 1426.56 1020.05 1426.52C1021.84 1426.5 1023.23 1426.47 1024.19 1426.45C1024.66 1426.44 1025.03 1426.44 1025.29 1426.43L1025.4 1426.42C1171.36 1428.66 1298.65 1460.65 1442.62 1496.83C1456.89 1500.41 1471.32 1504.04 1485.95 1507.68C1648.13 1548.07 1833.42 1590.06 2086.73 1598.37C2214.05 1602.55 2357.69 1583.66 2507.91 1556.68C2583.07 1543.18 2660.04 1527.61 2737.57 1511.84C2742.54 1510.82 2747.51 1509.82 2752.48 1508.8C2825.14 1494.01 2898.22 1479.13 2970.87 1465.64C3126.19 1436.8 3279.01 1414.39 3420.47 1412.74C3561.96 1411.1 3691.25 1430.24 3799.95 1483.83L3816.58 1475.77C3839.93 1365.42 3840.09 1293.52 3834.09 1248.72C3831.08 1226.31 3826.53 1210.65 3822.55 1200.37C3820.57 1195.23 3818.72 1191.45 3817.3 1188.83C3816.59 1187.52 3815.98 1186.52 3815.52 1185.78C3815.28 1185.41 3815.08 1185.11 3814.92 1184.87C3814.85 1184.76 3814.78 1184.66 3814.71 1184.58L3814.63 1184.46L3814.6 1184.41L3814.58 1184.39C3814.58 1184.39 3814.56 1184.37 3805.11 1191.28L3814.56 1184.37L3811.85 1181.7C3716.04 1114.16 3591.24 1093.74 3450.04 1098.91C3308.77 1104.09 3149.39 1134.98 2983.22 1171.73C2940.93 1181.08 2898.19 1190.81 2855.19 1200.6C2559.13 1268 2250.27 1338.32 1982.8 1309.24C1674.77 1275.77 1474.09 1228.03 1322.1 1187.2C1295.59 1180.08 1270.5 1173.14 1246.53 1166.52C1133.44 1135.27 1045.16 1110.88 950.319 1105.98Z" fill="#91CCF4" stroke="white" stroke-width="3" stroke-linejoin="bevel"/>
<path d="M1501.24 1304.76C1441.94 1296.49 1387.49 1339.05 1379.69 1399.74C1377.88 1413.81 1379.62 1427.48 1382.71 1440.9L837.194 1618.63C818.231 1633.45 1218.7 1593.97 1233.26 1613.46C1240.72 1623.45 1251.44 1628.53 1262.62 1630.08C1273.79 1631.64 1285.46 1629.24 1295.13 1622.08L1435.33 1511.34C1446.74 1517.86 1459.18 1523.17 1473.36 1525.15C1532.65 1533.41 1607.16 1488.88 1601.09 1413.32L1499.78 1447.91L1459.93 1401.79L1533.69 1312.02C1533.69 1312.02 1508.49 1306.21 1501.61 1305.26L1501.24 1304.76Z" fill="#242E3F"/>
<path d="M865.194 1079.32L878.029 1151.84C874.136 1156.26 871.338 1161.35 868.547 1166.44L795.546 1177.44L783.157 1233.69L844.284 1276.59C844.972 1282.92 845.527 1287.98 846.707 1294.02L804.778 1353.52L835.858 1402.02L908.866 1391.02C913.9 1394.69 918.325 1397.38 923.843 1400.74L936.686 1473.27L993.827 1486.87L1035.76 1427.37C1041.35 1426.65 1047.24 1426.4 1053.31 1425.38L1114.44 1468.28L1162.73 1438.67L1149.9 1366.14C1152.99 1361.54 1156.58 1356.63 1159.37 1351.54L1232.38 1340.55L1244.77 1284.3L1183.64 1241.4C1182.77 1235.84 1182.08 1229.51 1181.22 1223.96L1223.14 1164.47L1192.06 1115.97L1119.06 1126.97C1114.82 1123.49 1109.29 1120.12 1104.08 1117.23L1091.24 1044.71L1034.1 1031.12L992.17 1090.61C986.581 1091.34 980.195 1091.88 974.606 1092.61L913.478 1049.7L865.194 1079.32ZM967.031 1185.76C1007.12 1161.18 1060.29 1173.82 1086.09 1214.08C1111.88 1254.34 1100.35 1306.67 1060.27 1331.26C1020.19 1355.84 967.016 1343.19 941.22 1302.94C915.425 1262.68 926.954 1210.34 967.031 1185.76Z" fill="#242E3F"/>
<path d="M23.7676 658.054L732.477 445.011L901.128 177.234L925.235 360.914L949.905 619.173L1036.65 1144.66L830.503 1297.82L1105.4 1336.14L1334.1 1543.1L1448.44 1646.57L1562.8 1750.05L1328.66 1681.28L633.293 1900.73L50.7456 1543.97L23.7676 658.054Z" fill="#AF8D67"/>
<path d="M732.477 445.011L23.7676 658.054L50.7456 1543.97M732.477 445.011L830.503 1297.82M732.477 445.011L901.128 177.234L925.235 360.914L949.905 619.173L1036.65 1144.66L830.503 1297.82M50.7456 1543.97L830.503 1297.82M50.7456 1543.97L633.293 1900.73L1328.66 1681.28M830.503 1297.82L1328.66 1681.28M830.503 1297.82L1105.4 1336.14L1334.1 1543.1L1448.44 1646.57L1562.8 1750.05L1328.66 1681.28" stroke="#956F43" stroke-width="3"/>
<path d="M1430.75 876.799C1432.87 903.17 1429.39 925.907 1420.31 944.986C1411.42 963.854 1398.09 979.704 1380.33 992.53C1362.76 1005.13 1341.39 1014.88 1316.21 1021.75C1291.05 1028.82 1263.44 1033.54 1233.4 1035.89C1219.81 1036.96 1205.6 1036.75 1190.77 1035.25C1175.97 1033.97 1161.23 1031.14 1146.59 1026.78C1131.93 1022.21 1117.75 1016.17 1104.08 1008.67C1090.4 1001.17 1077.9 991.843 1066.59 980.681C1055.46 969.309 1045.72 956.084 1037.36 941.023C1029.2 925.946 1023.31 908.641 1019.7 889.125L1152.21 875.978C1152.27 881.692 1152.52 887.491 1153 893.369C1153.47 899.254 1153.96 905.343 1154.47 911.627C1155.89 929.276 1157.96 947.284 1160.66 965.651C1172.75 966.136 1184.8 966.206 1196.83 965.878C1208.85 965.55 1220.85 964.917 1232.83 963.979C1244.79 963.041 1256.64 961.806 1268.37 960.274C1280.09 958.742 1291.98 956.788 1304.04 954.412C1304.51 947.432 1304.78 940.679 1304.87 934.137C1304.93 927.392 1304.69 920.576 1304.13 913.675C1303.23 902.521 1301.61 891.313 1299.28 880.066C1296.95 868.819 1294.2 857.595 1291.06 846.41C1276.72 845.902 1260.23 845.355 1241.6 844.777C1222.97 844.198 1203.75 842.745 1183.96 840.415C1164.36 837.867 1144.96 834.084 1125.76 829.051C1106.76 823.806 1089.51 816.381 1074.04 806.775C1058.53 796.966 1045.69 784.5 1035.48 769.374C1025.28 754.25 1019.27 735.429 1017.46 712.911C1016.2 697.29 1017.89 682.865 1022.55 669.639C1027.41 656.396 1034.3 644.423 1043.24 633.718C1052.37 622.795 1063.13 613.071 1075.51 604.546C1088.1 596.006 1101.4 588.736 1115.42 582.738C1129.64 576.723 1144.16 571.91 1158.99 568.297C1173.81 564.686 1188.22 562.331 1202.22 561.233C1232.87 558.83 1260.25 561.481 1284.35 569.186C1308.46 576.891 1329.05 587.833 1346.12 602.009C1363.38 615.968 1377.15 632.242 1387.43 650.83C1397.71 669.419 1404.33 688.294 1407.3 707.455L1269.38 733.274C1269.78 725.486 1269.77 717.728 1269.35 710.004C1269.12 702.06 1268.69 694.234 1268.07 686.524C1266.65 668.875 1263.99 651.117 1260.11 633.252C1253.12 632.779 1246.16 632.61 1239.23 632.745C1232.51 632.865 1225.69 633.195 1218.79 633.736C1191.39 635.884 1163.95 641.404 1136.48 650.294C1136.49 655.397 1136.69 660.384 1137.08 665.253C1137.47 670.122 1137.85 674.889 1138.23 679.555C1139.38 693.757 1141.01 707.715 1143.14 721.431C1145.45 734.928 1148.78 748.446 1153.14 761.987C1170.17 762.898 1188.63 763.901 1208.52 764.994C1228.41 765.885 1248.37 767.689 1268.39 770.406C1288.61 772.904 1308.1 776.581 1326.88 781.438C1345.83 786.079 1362.69 792.511 1377.44 800.749C1392.39 808.761 1404.65 819.031 1414.24 831.544C1423.81 843.862 1429.31 858.947 1430.75 876.799Z" fill="#242E3F"/>
<path d="M2912.95 593C2897.15 648.727 2881.61 696.614 2866.33 736.662C2851.06 776.71 2837.38 809.667 2825.3 835.523C2811.15 865.771 2797.65 890.993 2784.8 911.205C2785 915.699 2785.4 920.881 2786 926.759C2786.57 932.433 2787.32 938.694 2788.26 945.548C2789.78 956.639 2791.61 968.512 2793.75 981.158C2795.89 993.812 2798.08 1006.04 2800.31 1017.86C2802.75 1029.65 2805.04 1040.43 2807.19 1050.2C2809.53 1059.75 2811.55 1067.07 2813.28 1072.18L2645.13 1097.89C2645.47 1094.35 2645.62 1088.68 2645.58 1080.88C2645.71 1072.86 2645.63 1063.94 2645.31 1054.12C2645.17 1044.08 2644.76 1033.56 2644.07 1022.56C2643.6 1011.53 2643.11 1001.23 2642.62 991.639C2642.1 981.854 2641.56 973.303 2640.96 965.987C2640.58 958.648 2640.3 953.654 2640.15 951.004C2629.62 938.663 2618.33 925.188 2606.26 910.587C2594.17 895.792 2581.58 880.34 2568.49 864.231C2555.37 847.927 2541.99 831.239 2528.36 814.185C2514.7 796.919 2501.24 779.636 2487.98 762.321C2474.7 744.805 2461.64 727.463 2448.82 710.295C2436.18 693.101 2424.25 676.43 2413 660.282L2585.63 644.752C2591.74 657.894 2599.34 672.89 2608.43 689.739C2617.51 706.589 2627.66 724.526 2638.9 743.551C2650.1 762.374 2662.2 781.694 2675.18 801.507C2688.16 821.329 2701.49 840.681 2715.17 859.588C2726.06 831.013 2736.29 802.117 2745.85 772.9C2749.9 760.444 2754.07 747.355 2758.36 733.635C2762.65 719.915 2766.7 706.02 2770.53 691.951C2774.33 677.679 2777.86 663.651 2781.12 649.865C2784.34 635.877 2787.03 622.475 2789.18 609.657L2912.95 593Z" fill="#242E3F"/>
<path d="M3756.7 890.055C3761.32 871.593 3765.02 852.194 3767.8 831.841C3770.76 811.324 3772.85 790.393 3774.07 769.059C3775.36 746.48 3775.76 724.024 3775.25 701.694C3774.76 679.186 3773.42 657.52 3771.22 636.695C3761.43 633.258 3750.72 630.124 3739.11 627.293C3729.08 624.735 3717.36 622.255 3703.94 619.852C3690.69 617.459 3676.25 615.798 3660.6 614.869C3657.58 614.689 3654.47 614.504 3651.26 614.314C3648.07 614.124 3644.85 614.112 3641.63 614.277C3641.46 617.3 3641.16 622.456 3640.75 629.745C3640.33 637.035 3639.81 646.014 3639.2 656.682C3638.78 667.182 3638.19 679.099 3637.42 692.434C3636.84 705.602 3636.22 719.481 3635.57 734.07C3634.91 748.66 3634.32 763.611 3633.8 778.922C3633.28 794.231 3632.86 809.37 3632.53 824.338C3632.21 839.306 3631.92 853.742 3631.66 867.639C3631.59 881.371 3631.67 894.041 3631.89 905.656C3648.29 905.914 3663.94 905.241 3678.84 903.623C3693.92 902.021 3707.22 900.223 3718.76 898.238C3732.28 895.831 3744.92 893.103 3756.7 890.055ZM3616.79 548.042C3637.77 549.288 3659.23 551.633 3681.15 555.077C3703.26 558.531 3724.55 563.631 3745.04 570.38C3765.71 577.137 3785.1 585.872 3803.22 596.582C3821.34 607.292 3836.92 620.438 3849.94 636.019C3863.15 651.611 3873.24 670.051 3880.23 691.339C3887.22 712.45 3889.92 736.961 3888.32 764.875C3886.77 791.902 3881.84 815.693 3873.53 836.25C3865.21 856.806 3854.46 874.72 3841.27 889.992C3828.27 905.101 3813.28 917.677 3796.29 927.728C3779.29 937.779 3761.27 945.72 3742.2 951.543C3723.31 957.382 3703.82 961.22 3683.73 963.056C3663.64 965.073 3643.99 965.511 3624.78 964.369C3606.11 963.26 3589.68 961.837 3575.51 960.102C3561.33 958.546 3549.29 957.03 3539.37 955.553C3527.88 953.794 3517.9 951.958 3509.45 950.027C3513.58 915.301 3517.44 880.652 3521.03 846.082C3524.62 811.504 3527.41 776.705 3529.42 741.679C3530.41 724.433 3531.09 707.971 3531.45 692.293C3531.99 676.626 3532.34 661.126 3532.51 645.793C3532.67 630.46 3532.67 615.029 3532.49 599.497C3532.5 583.797 3532.46 567.205 3532.39 549.717C3547.32 547.749 3561.91 546.832 3576.18 546.966C3590.45 546.922 3603.99 547.281 3616.79 548.042Z" fill="#242E3F"/>
<path d="M1988.62 943.962C1984.93 955.279 1979.67 965.198 1972.87 973.725C1966.12 982.112 1958.01 989.24 1948.53 995.125C1939.1 1000.86 1928.47 1005.4 1916.62 1008.73C1904.77 1012.06 1891.95 1014.19 1878.15 1015.11L1935.39 1165.8L1831.04 1143.75L1804.01 1011.93C1799.24 1011.32 1794.34 1010.59 1789.31 1009.74C1784.29 1008.89 1779.2 1008.01 1774.03 1007.12C1770.3 1022.44 1766.58 1038.5 1762.87 1055.27C1759.29 1072.1 1755.51 1090.06 1751.52 1109.15L1646.28 1082.47C1661.37 1046.13 1675.73 1009.8 1689.37 973.475C1703.2 937.045 1716.24 900.114 1728.47 862.683C1731.65 852.96 1734.47 844.081 1736.93 836.054C1739.54 828.074 1741.93 820.266 1744.11 812.63C1746.43 805.032 1748.68 797.177 1750.85 789.049C1753.03 780.929 1755.43 771.838 1758.08 761.78C1777.38 762.187 1796.47 764.213 1815.36 767.857C1834.39 771.549 1853.63 776.594 1873.06 782.991C1882.78 786.188 1893.08 790.299 1903.96 795.333C1914.85 800.358 1925.35 806.306 1935.48 813.177C1945.75 820.086 1955.15 827.925 1963.7 836.679C1972.38 845.488 1979.36 855.336 1984.64 866.232C1990.05 877.174 1993.31 889.093 1994.39 901.982C1995.48 914.878 1993.56 928.869 1988.62 943.962ZM1829.11 819.39C1821.34 843.182 1813.97 866.232 1807 888.523C1800.23 910.72 1793.68 933.715 1787.35 957.507L1796.27 960.446C1809.03 964.643 1821.99 968.504 1835.13 972.029C1848.27 975.546 1860.98 978.204 1873.25 979.994C1877.84 972.826 1882.21 964.377 1886.35 954.654C1890.68 944.829 1894.63 934.481 1898.18 923.593C1900.46 916.629 1902.51 909.595 1904.36 902.49C1906.25 895.237 1907.9 888.226 1909.31 881.457C1910.76 874.54 1911.81 867.896 1912.45 861.519C1913.23 855.188 1913.68 849.388 1913.79 844.12C1911.86 843.167 1909.54 842.158 1906.83 841.111C1904.26 840.103 1901.32 839.055 1897.98 837.953C1891.31 835.757 1883.99 833.592 1876.01 831.45C1868.18 829.356 1860.72 827.378 1853.62 825.526C1845.45 823.478 1837.28 821.438 1829.11 819.39Z" fill="#242E3F"/>
<path d="M3439.23 675.078C3440.63 686.503 3440.1 697.342 3437.64 707.596C3435.16 717.703 3430.99 727.273 3425.1 736.305C3419.21 745.19 3411.75 753.519 3402.74 761.293C3393.73 769.066 3383.37 776.184 3371.68 782.647L3483.57 891.118L3383.17 914.581L3305.47 810.246C3301.04 811.668 3296.44 813.036 3291.7 814.357C3286.95 815.67 3282.14 816.991 3277.25 818.327C3280.26 833.272 3283.59 848.849 3287.21 865.051C3290.98 881.246 3295.04 898.52 3299.37 916.872L3196.29 936.646C3194.61 898.652 3192.28 860.964 3189.34 823.564C3186.52 786.008 3182.79 748.332 3178.15 710.545C3176.95 700.732 3175.78 691.807 3174.65 683.769C3173.66 675.714 3172.56 667.895 3171.33 660.314C3170.24 652.717 3168.99 644.916 3167.56 636.913C3166.14 628.911 3164.52 619.965 3162.71 610.076C3179.78 602.521 3197.33 596.469 3215.35 591.919C3233.53 587.351 3252.44 583.884 3272.07 581.519C3281.89 580.336 3292.59 579.715 3304.18 579.656C3315.77 579.598 3327.41 580.5 3339.08 582.362C3350.91 584.208 3362.35 587.213 3373.42 591.379C3384.64 595.527 3394.79 601.29 3403.87 608.666C3413.1 616.027 3420.83 625.127 3427.07 635.968C3433.31 646.81 3437.36 659.846 3439.23 675.078ZM3248.52 631.396C3251.47 655.415 3254.46 678.612 3257.5 700.985C3260.67 723.194 3264.36 746.01 3268.57 769.431L3277.58 768.346C3290.48 766.792 3303.4 764.864 3316.35 762.56C3329.31 760.257 3341.52 757.374 3352.99 753.911C3354.07 745.754 3354.43 736.57 3354.07 726.359C3353.83 715.983 3353.05 705.303 3351.7 694.318C3350.84 687.288 3349.75 680.284 3348.46 673.307C3347.14 666.183 3345.71 659.37 3344.17 652.868C3342.6 646.219 3340.8 639.972 3338.74 634.125C3336.83 628.262 3334.85 623.002 3332.79 618.345C3330.7 618.299 3328.26 618.371 3325.46 618.56C3322.8 618.731 3319.79 619.019 3316.42 619.426C3309.68 620.238 3302.38 621.34 3294.52 622.733C3286.81 624.108 3279.47 625.439 3272.49 626.725C3264.5 628.282 3256.51 629.839 3248.52 631.396Z" fill="#242E3F"/>
<path d="M2132.65 1185.59C2132.98 1181.32 2133.23 1177.05 2133.41 1172.77C2133.6 1168.34 2133.86 1164 2134.18 1159.73C2125.85 1166.18 2117.26 1170.91 2108.46 1173.92C2099.79 1176.78 2091.87 1178.82 2084.67 1180.04C2076.27 1181.45 2068.02 1181.98 2059.9 1181.64C2045.19 1180.48 2031.16 1177.08 2017.83 1171.45C2004.63 1165.97 1993.08 1158.32 1983.17 1148.51C1973.26 1138.71 1965.51 1126.85 1959.92 1112.94C1954.48 1098.89 1952.07 1082.94 1952.71 1065.08C1954.07 1047.13 1957.76 1030.99 1963.74 1016.66C1969.73 1002.18 1977.99 990.029 1988.51 980.197C1999.04 970.372 2011.72 963.158 2026.58 958.554C2041.45 953.802 2058.38 952.098 2077.38 953.443C2077.96 953.489 2080.16 953.81 2083.97 954.404C2087.92 954.865 2092.73 955.912 2098.38 957.538C2104.04 959.023 2110.15 961.274 2116.73 964.315C2123.32 967.199 2129.76 971.036 2136.06 975.82L2134.6 948.401L2222.24 949.3C2217.24 991.389 2213.14 1033.32 2209.94 1075.11C2209.16 1085.26 2208.42 1094.9 2207.73 1104.02C2207.18 1113.01 2206.64 1121.99 2206.1 1130.98C2205.72 1139.83 2205.33 1148.83 2204.92 1157.97C2204.68 1166.98 2204.4 1176.5 2204.07 1186.55L2132.65 1185.59ZM2033.67 1124.07C2051.24 1124.71 2068.54 1124.89 2085.58 1124.61C2102.63 1124.32 2119.52 1123.2 2136.24 1121.26C2137.2 1102.99 2137.74 1085.27 2137.87 1068.1C2138.14 1050.95 2138.01 1033.41 2137.46 1015.45L2124.88 1014.46C2110.6 1013.34 2096.22 1012.73 2081.72 1012.63C2067.39 1012.38 2052.85 1012.79 2038.11 1013.85C2035.16 1029.16 2033.09 1044.62 2031.9 1060.21C2031.44 1066.09 2031.17 1071.63 2031.07 1076.79C2030.98 1081.82 2030.97 1086.85 2031.02 1091.89C2031.23 1096.94 2031.51 1102.07 2031.84 1107.28C2032.34 1112.49 2032.94 1118.09 2033.67 1124.07Z" fill="#242E3F"/>
<path d="M3083.83 984.542C3083.13 979.876 3082.36 975.218 3081.51 970.567C3080.62 965.761 3079.84 961.024 3079.14 956.35C3071.75 965.331 3063.68 972.521 3054.94 977.914C3046.32 983.12 3038.29 987.262 3030.84 990.326C3022.15 993.898 3013.41 996.493 3004.59 998.111C2988.48 1000.47 2972.55 1000.25 2956.83 997.447C2941.28 994.789 2926.98 989.396 2913.92 981.267C2900.86 973.139 2889.61 962.275 2880.18 948.683C2870.9 934.903 2864.4 918.325 2860.7 898.957C2857.78 879.308 2857.79 861.042 2860.71 844.159C2863.62 827.113 2869.52 812.012 2878.44 798.865C2887.35 785.711 2899.24 774.838 2914.1 766.246C2928.94 757.493 2946.74 751.515 2967.5 748.313C2968.14 748.219 2970.58 748.026 2974.82 747.736C2979.19 747.26 2984.62 747.206 2991.1 747.575C2997.55 747.783 3004.68 748.714 3012.51 750.367C3020.3 751.86 3028.17 754.411 3036.11 758.021L3027.84 728.872L3122.34 708.38C3127.27 754.886 3133.14 801.007 3139.93 846.746C3141.58 857.861 3143.14 868.412 3144.63 878.401C3146.24 888.202 3147.86 898.004 3149.49 907.797C3151.24 917.419 3153.02 927.196 3154.83 937.131C3156.77 946.885 3158.8 957.202 3160.91 968.082L3083.83 984.542ZM2962.27 942.594C2981.32 938.983 2999.98 934.942 3018.25 930.456C3036.52 925.977 3054.41 920.639 3071.94 914.456C3068.49 894.557 3064.73 875.361 3060.67 856.868C3056.77 838.344 3052.33 819.5 3047.33 800.319L3033.56 802.328C3017.92 804.618 3002.3 807.479 2986.67 810.918C2971.19 814.169 2955.65 818.171 2940.05 822.923C2940.62 840.118 2942.18 857.251 2944.72 874.321C2945.67 880.762 2946.73 886.78 2947.89 892.368C2949.03 897.8 2950.25 903.217 2951.54 908.626C2953 914.003 2954.54 919.451 2956.19 924.977C2957.99 930.471 2960.02 936.341 2962.27 942.594Z" fill="#242E3F"/>
<path d="M2542.37 925.946C2544.26 946.533 2543.17 965.307 2539.09 982.284C2535.16 999.072 2528.53 1013.62 2519.2 1025.92C2509.87 1038.22 2497.99 1048.09 2483.57 1055.53C2469.14 1062.98 2452.45 1067.55 2433.5 1069.26C2422.6 1069.91 2411.75 1069.39 2400.97 1067.71C2396.42 1066.96 2391.59 1065.99 2386.5 1064.78C2381.55 1063.4 2376.49 1061.7 2371.33 1059.68C2366.31 1057.47 2361.41 1054.84 2356.65 1051.78C2351.88 1048.73 2347.38 1045.06 2343.17 1040.79C2346.27 1068.91 2349.49 1096.68 2352.85 1124.11C2356.23 1151.7 2359.76 1178.19 2363.43 1203.59L2269.23 1206.11C2268.36 1176.8 2267.09 1146.03 2265.45 1113.8C2263.8 1081.57 2261.88 1049.12 2259.69 1016.44C2257.66 983.581 2255.32 951.004 2252.67 918.701C2250.18 886.381 2247.57 855.399 2244.83 825.76L2327.86 818.273C2327.82 828.574 2328.01 838.766 2328.44 848.857C2331.85 844.394 2335.64 840.486 2339.82 837.117C2344.14 833.576 2348.59 830.434 2353.15 827.699C2357.72 824.963 2362.31 822.556 2366.93 820.477C2371.72 818.382 2376.3 816.647 2380.66 815.256C2390.81 811.848 2401.3 809.488 2412.15 808.182C2421.2 807.362 2430.55 807.854 2440.18 809.636C2449.81 811.262 2459.2 814.146 2468.4 818.304C2477.74 822.439 2486.55 827.793 2494.79 834.35C2503.2 840.9 2510.73 848.685 2517.38 857.72C2524.03 866.748 2529.54 876.963 2533.91 888.359C2538.27 899.583 2541.08 912.119 2542.37 925.946ZM2340.23 1008.93C2352.53 1010.81 2364.01 1011.94 2374.68 1012.3C2385.49 1012.48 2396.75 1012.05 2408.44 1011C2415.36 1010.37 2422.59 1009.48 2430.12 1008.3C2437.65 1007.12 2445.83 1005.72 2454.65 1004.09C2454.79 996.61 2454.61 989.24 2454.1 981.979C2453.76 974.702 2453.25 967.355 2452.57 959.946C2451.18 944.962 2449.24 930.276 2446.76 915.895C2444.25 901.341 2441.24 886.749 2437.73 872.125C2421.99 872.547 2408.19 873.29 2396.32 874.36C2390.56 874.884 2385.06 875.548 2379.82 876.353C2374.56 876.987 2369.24 877.799 2363.85 878.784C2358.61 879.589 2353.21 880.496 2347.65 881.489C2342.26 882.473 2336.46 883.583 2330.26 884.803C2332.55 920.295 2335.38 956.405 2338.77 993.125L2340.23 1008.93Z" fill="#242E3F"/>
<path d="M1555.44 771.541C1488.02 770.526 1445.57 800.14 1444 904.202C1442.27 1018.96 1503.69 1027.71 1571.11 1028.72C1661 1030.08 1685.39 967.91 1674.43 916.934L1623.63 916.168C1619.59 924.938 1634.41 978.868 1560.22 973.842C1512.93 970.638 1497.95 955.897 1498.71 905.023C1499.61 844.964 1511.69 821.696 1554.68 822.337C1601.58 823.048 1606.45 840.72 1612.96 845.652L1581.35 868.631L1682.71 885.787L1691.95 792.128L1660.33 815.099C1644.86 804.157 1633.55 776.625 1555.44 771.541Z" fill="#242E3F"/>
<path d="M3978.39 1126.8C3980.5 1113.71 3962.65 1079.58 3962.65 1079.58L3936.21 1145.15L3897.18 1195.76L3915.78 1217.87C3915.78 1217.87 3976.28 1139.89 3978.39 1126.8Z" fill="#F3D24F"/>
<path d="M3858.38 1275.18C3867.15 1260.24 3835.41 1225.08 3835.41 1225.08L3794.23 1305.02L3711.21 1334.25C3711.21 1334.25 3720.98 1376.8 3747.21 1382.73C3773.44 1388.65 3849.61 1290.12 3858.38 1275.18Z" fill="#F3D24F"/>
<path d="M3723.44 1274.63C3739.76 1279.39 3765.31 1242.12 3765.31 1242.12L3695.49 1214.83L3639.3 1148.07C3639.3 1148.07 3602.6 1159.57 3604.63 1196.22C3606.65 1232.86 3707.13 1269.87 3723.44 1274.63Z" fill="#F3D24F"/>
<path d="M3923.89 1181.86L3889.17 1196.12L3927.14 1247.42L3906.73 1309.81C3906.73 1309.81 3950.16 1310.06 3962.52 1296.22C3974.88 1282.38 3923.89 1181.86 3923.89 1181.86Z" fill="#F3D24F"/>
<path d="M3962.79 1078.81C3945.78 1054.81 3871.01 1075.71 3839.44 1084.88C3825.58 1060.86 3779.14 997.329 3755.81 1007.63C3732.49 1017.93 3727.05 1077.98 3723.8 1115.55C3693.01 1120.42 3617.15 1149.83 3610.96 1173.61C3604.77 1197.39 3664.78 1234.9 3701.95 1246.69C3703.16 1278.84 3702.67 1353.98 3724.3 1358.62C3746.57 1363.4 3793.71 1315.48 3819.69 1287.26C3849.81 1294.35 3912.4 1323.88 3935.9 1302.61C3959.39 1281.36 3923.36 1218.94 3908.58 1187.71C3930.43 1157.96 3980.37 1103.63 3962.79 1078.81Z" fill="#FFF537"/>
<path d="M3359.09 1729.44C3369.97 1721.87 3382.15 1685.32 3382.15 1685.32L3316.59 1711.83L3253.07 1718.89L3250.07 1747.62C3250.07 1747.62 3348.2 1737 3359.09 1729.44Z" fill="#DB7372"/>
<path d="M3168.97 1746.12C3185.8 1742.06 3189.08 1694.8 3189.08 1694.8L3102.94 1720.68L3024.27 1681.25C3024.27 1681.25 3000.43 1717.82 3014.38 1740.81C3028.33 1763.8 3152.13 1750.18 3168.97 1746.12Z" fill="#DB7372"/>
<path d="M3075.67 1648.64C3083.57 1663.69 3128.14 1656.19 3128.14 1656.19L3099.29 1587.01L3108.31 1500.22C3108.31 1500.22 3074.55 1481.81 3049.59 1508.7C3024.64 1535.61 3067.78 1633.6 3075.67 1648.64Z" fill="#DB7372"/>
<path d="M3281.62 1728.45L3247.25 1713.37L3236.7 1776.32L3177.63 1804.96C3177.63 1804.96 3207.6 1836.38 3226.15 1835.66C3244.69 1834.94 3281.62 1728.45 3281.62 1728.45Z" fill="#DB7372"/>
<path d="M3382.79 1684.89C3388.26 1655.99 3321.3 1616.7 3292.78 1600.35C3300.44 1573.69 3313.9 1496.17 3290.3 1486.54C3266.68 1476.91 3219.69 1514.69 3190.4 1538.44C3165.51 1519.67 3091.68 1485.51 3070.26 1497.57C3048.85 1509.63 3063.53 1578.85 3080.85 1613.78C3058.56 1636.98 3004.14 1688.8 3015.81 1707.58C3027.84 1726.93 3095.06 1727.57 3133.41 1726.67C3149.22 1753.27 3171.43 1818.8 3203.05 1820.95C3234.67 1823.09 3254.57 1753.82 3266.78 1721.5C3303.36 1716.57 3377.14 1714.77 3382.79 1684.89Z" fill="#F68887"/>
<path d="M3733.79 365.286C3744.67 357.718 3756.84 321.17 3756.84 321.17L3691.29 347.68L3627.77 354.74L3624.77 383.476C3624.77 383.476 3722.9 372.854 3733.79 365.286Z" fill="#5698C7"/>
<path d="M3543.67 381.97C3560.5 377.908 3563.78 330.654 3563.78 330.654L3477.64 356.536L3398.97 317.098C3398.97 317.098 3375.13 353.672 3389.08 376.661C3403.03 399.649 3526.83 386.031 3543.67 381.97Z" fill="#5698C7"/>
<path d="M3450.37 284.495C3458.27 299.537 3502.84 292.046 3502.84 292.046L3473.99 222.862L3483.01 136.07C3483.01 136.07 3449.25 117.659 3424.3 144.56C3399.34 171.46 3442.48 269.453 3450.37 284.495Z" fill="#5698C7"/>
<path d="M3656.32 364.3L3621.95 349.228L3611.4 412.168L3552.33 440.812C3552.33 440.812 3582.3 472.231 3600.85 471.512C3619.39 470.793 3656.32 364.3 3656.32 364.3Z" fill="#5698C7"/>
<path d="M3757.49 320.744C3762.96 291.839 3696 252.547 3667.48 236.203C3675.14 209.545 3688.6 132.018 3665 122.388C3641.38 112.759 3594.39 150.544 3565.1 174.294C3540.21 155.52 3466.38 121.357 3444.96 133.418C3423.55 145.477 3438.23 214.696 3455.55 249.634C3433.26 272.829 3378.84 324.655 3390.51 343.433C3402.54 362.777 3469.76 363.421 3508.11 362.52C3523.92 389.121 3546.13 454.655 3577.75 456.798C3609.37 458.941 3629.27 389.672 3641.48 357.352C3678.06 352.42 3751.84 350.626 3757.49 320.744Z" fill="#91CCF4"/>
<path d="M531.801 646.781C504.93 644.201 477.994 643.178 451.168 640.077C433.737 638.062 414.706 637.766 397.582 634.125C393.762 633.313 403.78 635.417 404.561 635.535C409.519 636.288 414.443 635.393 418.405 638.552" stroke="#956F43" stroke-width="3" stroke-linecap="round"/>
<path d="M472.126 647.327C469.506 660.168 467.949 673.195 465.226 686.002C464.336 690.184 462.356 693.755 467.04 689.917" stroke="#956F43" stroke-width="3" stroke-linecap="round"/>
<path d="M514.082 705.211C485.342 702.042 456.44 697.831 427.617 695.503C421.352 694.997 415.085 694.511 408.818 694.006C408.225 693.958 394.425 694.421 400.227 692.915" stroke="#956F43" stroke-width="3" stroke-linecap="round"/>
<path d="M393.495 724.568C414.653 726.246 431.239 731.196 450.501 739.336C461.321 743.907 467.693 751.854 466.119 764.785C461.995 798.662 404.165 794.731 384.375 795.075" stroke="#956F43" stroke-width="3" stroke-linecap="round"/>
<path d="M427.605 738.438C424.023 755.28 421.84 774.19 421.63 791.425" stroke="#956F43" stroke-width="3" stroke-linecap="round"/>
<path d="M454.557 861.691C463.492 810.324 405.38 821.321 388.979 829.481C360.255 855.102 392.969 880.707 404.463 876.166" stroke="#956F43" stroke-width="3" stroke-linecap="round"/>
<path d="M480.863 913.3C454.419 915.613 427.365 916.223 397.983 909.548C390.429 907.625 370.431 903.639 362.814 901.927M455.986 959.453C446.609 958.195 425.617 976.773 410.353 917.153M411.697 918.435C401.989 974.147 393.331 958.968 365.373 948.753" stroke="#956F43" stroke-width="3" stroke-linecap="round"/>
<path d="M424.21 1094.26C448.348 1092.94 457.061 1049.42 436.408 1030.98C426.562 1022.18 403.481 1001.46 356.355 1023.7C323.66 1044.96 337.286 1079.44 368.933 1085.54" stroke="#956F43" stroke-width="3" stroke-linecap="round"/>
<path d="M422.44 1133.5C406.304 1128.59 365.62 1117.77 349.784 1112C347.658 1111.22 340.075 1107.05 337.854 1109.32C331.448 1115.84 328.778 1138.61 329.204 1146.42" stroke="#956F43" stroke-width="3" stroke-linecap="round"/>
<path d="M374.478 1187C360.077 1166.43 327.684 1168.71 323.416 1183.75C310.286 1230 345.177 1223.82 364.477 1218.85" stroke="#956F43" stroke-width="3" stroke-linecap="round"/>
<path d="M376.268 1266.14C353.05 1261.21 283.136 1247.66 306.355 1252.6" stroke="#956F43" stroke-width="3" stroke-linecap="round"/>
<path d="M373.197 1268.13C374.309 1280.86 381.259 1306.52 361.486 1307.99C346.882 1309.08 343.219 1298.73 339.269 1285.92C338.352 1282.94 335.312 1256.41 336.182 1271.73C336.92 1284.72 334.709 1294.82 322.959 1302.45C300.315 1317.15 281.181 1290.76 285.83 1268.9C287.346 1261.77 291.785 1256.94 295.955 1251.71" stroke="#956F43" stroke-width="3" stroke-linecap="round"/>
<path d="M452.855 1650.83C452.508 1650.82 445.896 1647.35 433.019 1640.46C428.775 1646.26 424.861 1651.18 421.279 1655.2C417.832 1659.31 414.677 1662.6 411.814 1665.07C409.693 1665.64 407.153 1665.07 404.193 1663.36C398.678 1660.18 396.265 1656.91 396.955 1653.54C399.983 1648.29 405.796 1640.7 414.395 1630.78C409.552 1627.99 406.19 1626.05 404.306 1624.96C402.501 1623.74 400.993 1622.78 399.782 1622.08C398.706 1621.46 397.293 1620.65 395.545 1619.63C394.009 1618.57 391.021 1616.76 386.582 1614.19C385.102 1613.34 383.336 1612.05 381.282 1610.32C379.44 1608.55 377.571 1606.66 375.672 1604.66C373.986 1602.62 372.367 1600.61 370.815 1598.64C369.398 1596.74 368.519 1595.16 368.178 1593.89C368.473 1592.44 369.087 1590.91 370.019 1589.3C372.426 1585.13 376.5 1581.02 382.24 1576.99C386.737 1575.1 394.36 1569.81 405.111 1561.14L436.768 1544.98C438.812 1544.54 440.977 1544.99 443.264 1546.31C448.913 1549.57 450.379 1553.55 447.661 1558.26C447.583 1558.4 446.742 1559.08 445.137 1560.3C443.533 1561.53 441.281 1563.1 438.384 1565.01C435.62 1567.01 432.287 1569.2 428.385 1571.61C424.56 1573.89 420.389 1576.14 415.871 1578.38L392.704 1595.67C392.874 1596.31 393.364 1596.86 394.17 1597.32C395.247 1597.94 396.132 1598.28 396.825 1598.32C397.596 1598.22 397.943 1598.25 397.865 1598.38C398.615 1598.63 399.326 1598.95 399.999 1599.34C400.883 1599.67 401.729 1600.07 402.537 1600.54C404.016 1601.39 405.485 1602.42 406.944 1603.62C408.615 1604.77 410.382 1606.06 412.244 1607.49C416.011 1609.66 420.566 1612.02 425.91 1614.57L436.09 1599.73C436.655 1598.44 437.219 1597.16 437.783 1595.87C438.483 1594.66 439.182 1593.45 439.881 1592.24C441.589 1589.28 443.422 1586.57 445.378 1584.12C447.47 1581.73 449.409 1579 451.195 1575.9C451.661 1575.1 452.409 1573.65 453.439 1571.56C454.547 1569.32 455.627 1566.98 456.678 1564.54C457.863 1562.18 458.933 1560.02 459.885 1558.06C460.838 1556.1 461.392 1554.99 461.547 1554.71C464.834 1552.12 468.091 1551.77 471.32 1553.63C471.78 1554.08 472.28 1554.45 472.818 1554.77C473.278 1555.21 473.912 1555.67 474.719 1556.13C475.526 1556.6 476.428 1557.21 477.427 1557.96C477.52 1558.74 477.253 1560.28 476.626 1562.61C476.212 1564.88 475.535 1567.45 474.597 1570.32C473.738 1573.05 472.733 1575.88 471.583 1578.8C470.512 1581.58 469.432 1583.92 468.345 1585.8C467.18 1587.82 465.753 1590.13 464.066 1592.75C462.378 1595.36 460.225 1598.78 457.604 1603.01C457.429 1603.62 456.758 1604.94 455.593 1606.95C454.506 1608.84 453.041 1611.22 451.198 1614.11C449.355 1616.98 447.134 1620.37 444.535 1624.24L446.553 1625.41C448.436 1626.49 450.443 1627.84 452.574 1629.42C454.918 1630.96 457.559 1632.75 460.497 1634.8C462.856 1637.24 462.754 1640.68 460.191 1645.12C458.328 1648.35 455.882 1650.25 452.855 1650.83ZM513.201 1713.92C512.373 1713.8 511.545 1713.68 510.717 1713.56C509.967 1713.31 509.188 1712.95 508.381 1712.48L507.574 1712.02L502.53 1709.1C501.589 1708.56 500.647 1708.01 499.705 1707.48C498.976 1706.87 498.073 1706.26 496.997 1705.64C495.921 1705.02 494.806 1704.47 493.652 1703.97C492.576 1703.36 491.433 1702.7 490.222 1702C488.743 1701.14 486.919 1699.64 484.751 1697.49C482.662 1695.21 479.667 1692.95 475.766 1690.69C474.959 1690.23 474.113 1689.83 473.228 1689.5C472.421 1689.03 471.546 1688.53 470.605 1687.98C469.663 1687.44 464.721 1683.42 455.777 1675.92C454.661 1671.33 454.918 1667.63 456.548 1664.81C457.869 1662.52 459.699 1660.44 462.038 1658.56C466.551 1657.58 470.264 1656.59 473.177 1655.58C476.09 1654.57 478.339 1653.62 479.923 1652.74C484.943 1650.26 489.73 1648.18 494.284 1646.51C499.05 1644.78 503.671 1643.14 508.148 1641.6C508.919 1641.51 510.057 1641.09 511.563 1640.34C513.281 1639.55 515.106 1638.71 517.036 1637.86C518.966 1637 520.897 1636.14 522.827 1635.28C524.835 1634.29 526.514 1633.55 527.865 1633.08C533.614 1631.2 537.849 1627.9 540.566 1623.2C543.207 1618.62 542.173 1614.97 537.465 1612.26C535.851 1611.32 533.88 1610.55 531.551 1609.92C529.301 1609.16 527.001 1608.64 524.652 1608.36C522.437 1608.16 520.212 1608.13 517.977 1608.27C515.742 1608.42 513.871 1608.86 512.365 1609.6C511.206 1610.37 509.611 1611.42 507.583 1612.76C505.689 1614.18 503.553 1615.54 501.178 1616.86C498.88 1618.04 496.564 1618.95 494.23 1619.58C491.974 1620.07 489.971 1619.81 488.223 1618.8C485.668 1617.33 483.924 1615.07 482.994 1612.02C482.063 1608.97 482.413 1606.03 484.045 1603.21C484.821 1601.87 486.485 1600.22 489.037 1598.29C491.723 1596.43 494.611 1594.69 497.701 1593.06C501.003 1591.38 504.216 1590.02 507.342 1588.95C510.602 1587.96 513.233 1587.6 515.236 1587.86C526.93 1587.8 538.293 1590.95 549.322 1597.32C553.626 1599.8 556.803 1602.53 558.851 1605.51C561.033 1608.56 562.378 1611.67 562.883 1614.82C563.39 1617.99 563.164 1621.18 562.206 1624.39C561.382 1627.68 560.115 1630.8 558.407 1633.76C553.514 1642.24 546.882 1647.82 538.508 1650.52C536.097 1651.28 533.781 1652.19 531.561 1653.23C529.341 1654.28 527.227 1655.3 525.219 1656.3C523.423 1657.23 521.733 1658.14 520.15 1659.02C518.643 1659.77 517.533 1660.29 516.819 1660.6C514.873 1660.55 506.855 1663.72 492.763 1670.11L484.488 1672.33C489.062 1674.97 492.739 1677.45 495.523 1679.78C498.518 1682.04 500.093 1683.03 500.249 1682.77C502.535 1684.09 505.293 1685.68 508.521 1687.54C511.962 1689.35 515.834 1691.5 520.138 1693.99C522.021 1695.07 522.869 1697.17 522.682 1700.29C522.707 1703.36 521.943 1706.23 520.39 1708.92C518.293 1712.56 515.897 1714.22 513.201 1713.92ZM596.421 1761.96C595.594 1761.84 594.766 1761.72 593.938 1761.6C593.188 1761.35 592.409 1760.99 591.602 1760.52L590.795 1760.05L585.751 1757.15C584.809 1756.6 583.868 1756.06 582.926 1755.51C582.196 1754.91 581.293 1754.3 580.217 1753.68C579.142 1753.06 578.027 1752.5 576.873 1752.02C575.797 1751.4 574.653 1750.74 573.443 1750.04C571.963 1749.19 570.14 1747.69 567.972 1745.54C565.883 1743.26 562.887 1740.99 558.987 1738.74C558.179 1738.27 557.333 1737.87 556.449 1737.54C555.642 1737.07 554.767 1736.57 553.826 1736.03C552.884 1735.48 547.942 1731.46 538.997 1723.97C537.881 1719.38 538.139 1715.67 539.769 1712.85C541.089 1710.56 542.919 1708.48 545.259 1706.6C549.771 1705.62 553.484 1704.62 556.398 1703.61C559.311 1702.61 561.56 1701.67 563.143 1700.78C568.164 1698.31 572.951 1696.23 577.505 1694.55C582.271 1692.82 586.892 1691.19 591.369 1689.64C592.139 1689.55 593.277 1689.13 594.784 1688.39C596.502 1687.58 598.326 1686.76 600.256 1685.9C602.187 1685.04 604.117 1684.18 606.048 1683.32C608.056 1682.33 609.735 1681.6 611.086 1681.12C616.835 1679.24 621.068 1675.95 623.787 1671.24C626.427 1666.66 625.393 1663.02 620.685 1660.3C619.071 1659.37 617.101 1658.59 614.772 1657.96C612.522 1657.2 610.222 1656.68 607.872 1656.4C605.658 1656.19 603.433 1656.17 601.197 1656.31C598.962 1656.46 597.091 1656.9 595.585 1657.65C594.426 1658.41 592.832 1659.46 590.803 1660.81C588.909 1662.22 586.774 1663.59 584.398 1664.91C582.101 1666.09 579.785 1667 577.451 1667.62C575.195 1668.11 573.192 1667.86 571.444 1666.84C568.888 1665.37 567.145 1663.1 566.214 1660.06C565.284 1657.01 565.634 1654.08 567.265 1651.25C568.042 1649.9 569.706 1648.27 572.257 1646.33C574.943 1644.48 577.831 1642.74 580.921 1641.11C584.223 1639.43 587.437 1638.06 590.563 1636.99C593.822 1636.01 596.454 1635.64 598.456 1635.9C610.151 1635.83 621.512 1638.99 632.543 1645.35C636.847 1647.84 640.023 1650.58 642.071 1653.55C644.254 1656.6 645.598 1659.71 646.104 1662.87C646.611 1666.04 646.384 1669.22 645.426 1672.43C644.602 1675.72 643.336 1678.85 641.627 1681.81C636.735 1690.28 630.102 1695.86 621.729 1698.57C619.317 1699.32 617.001 1700.23 614.781 1701.28C612.561 1702.32 610.447 1703.35 608.439 1704.34C606.643 1705.28 604.953 1706.19 603.37 1707.06C601.864 1707.8 600.754 1708.34 600.04 1708.64C598.094 1708.59 590.076 1711.76 575.984 1718.15L567.709 1720.37C572.282 1723.01 575.96 1725.49 578.744 1727.81C581.738 1730.08 583.314 1731.08 583.469 1730.81C585.756 1732.14 588.513 1733.72 591.741 1735.59C595.182 1737.4 599.054 1739.54 603.359 1742.02C605.242 1743.11 606.09 1745.22 605.902 1748.34C605.927 1751.4 605.164 1754.28 603.61 1756.97C601.513 1760.59 599.117 1762.26 596.421 1761.96ZM679.569 1793.82C677.597 1795.37 675.462 1796.74 673.164 1797.92C671.001 1799.19 668.357 1800.35 665.231 1801.42C662.183 1802.35 658.441 1803.24 654.007 1804.08C649.572 1804.93 644.058 1805.78 637.466 1806.64C621.612 1806.45 611.129 1804.88 606.017 1801.93C603.327 1800.38 602.275 1798.78 602.86 1797.15C603.579 1795.59 604.677 1793.54 606.152 1790.98C607.395 1788.83 609.116 1787.4 611.315 1786.7C613.515 1786 616.079 1785.6 619.008 1785.49C621.936 1785.39 625.201 1785.48 628.803 1785.77C632.404 1786.05 636.296 1786.14 640.476 1786.05C641.226 1786.3 642.479 1786.31 644.233 1786.07C646.121 1785.9 648.523 1785.32 651.436 1784.31L664.027 1779.73C668.99 1777.05 672.52 1773.88 674.617 1770.25C676.558 1766.88 677.46 1763.46 677.321 1759.98C677.395 1756.43 676.794 1753.13 675.516 1750.06C674.239 1746.99 672.488 1744.27 670.264 1741.91C668.252 1739.5 666.17 1737.67 664.018 1736.43C662.538 1735.57 660.942 1734.92 659.229 1734.46C657.729 1733.96 656.239 1733.28 654.76 1732.42C653.952 1731.96 652.82 1731.13 651.361 1729.92C650.036 1728.81 648.828 1727.48 647.737 1725.95C646.646 1724.42 645.805 1722.77 645.216 1721C644.761 1719.3 645 1717.64 645.932 1716.03C646.553 1714.96 647.087 1714.19 647.531 1713.73L651.282 1708.63C652.136 1707.15 653.619 1705.04 655.731 1702.32C657.978 1699.68 660.224 1697.03 662.471 1694.38C664.717 1691.73 666.664 1689.44 668.31 1687.52C670.091 1685.68 670.942 1684.83 670.865 1684.97C674.359 1678.92 677.238 1675.02 679.499 1673.27C681.896 1671.61 684.237 1671.44 686.524 1672.76C689.617 1674.54 692.44 1676.8 694.99 1679.53C697.539 1682.25 699.823 1684.2 701.841 1685.36C702.244 1685.6 702.514 1685.75 702.648 1685.83C702.995 1685.85 703.37 1685.97 703.773 1686.21C704.042 1686.36 705.31 1687.28 707.576 1688.94C709.841 1690.61 712.309 1692.39 714.979 1694.29C717.648 1696.19 719.981 1697.9 721.978 1699.41C724.109 1701 725.175 1701.79 725.175 1701.79C728.341 1704.69 728.449 1708.7 725.497 1713.81C722.391 1719.19 718.579 1720.67 714.063 1718.24C712.738 1717.12 710.799 1715.82 708.243 1714.35C705.765 1712.74 702.816 1710.85 699.397 1708.7C698.186 1708 696.352 1706.67 693.894 1704.72C691.649 1702.7 689.922 1701.35 688.711 1700.64C687.501 1699.95 686.375 1699.57 685.335 1699.5C683.477 1701.48 681.28 1703.89 678.743 1706.73C676.285 1709.44 673.593 1712.54 670.668 1716.06C673.628 1717.76 676.739 1719.82 680.003 1722.25C683.403 1724.75 686.452 1727.86 689.151 1731.56C691.929 1735.14 694.106 1739.45 695.683 1744.48C697.26 1749.52 697.879 1755.43 697.54 1762.23C696.948 1769.78 695.409 1775.71 692.924 1780.01C690.672 1783.91 686.22 1788.51 679.569 1793.82Z" fill="#956F43"/>
<path d="M561.808 607.256C538.093 605.588 393.49 614.048 369.774 612.381C346.059 610.714 200.692 1326.66 224.778 1332.21C248.865 1337.77 406.921 1371.81 429.895 1365.7C452.868 1359.59 585.523 608.923 561.808 607.256Z" stroke="#956F43" stroke-width="2"/>
<path d="M1930.13 1175.81C1911.76 1225.18 1894.81 1274.94 1879.27 1325.11C1863.87 1375.29 1849.78 1425.14 1837.01 1474.67C1824.76 1474.55 1811.86 1474.39 1798.31 1474.2C1786.72 1473.99 1773.7 1473.63 1759.25 1473.13C1744.8 1472.77 1730.1 1472.19 1715.14 1471.41L1655.93 1172L1749.67 1170.85C1755.16 1202.95 1760.48 1234.46 1765.64 1265.37C1767.82 1278.52 1770.04 1292.27 1772.28 1306.6C1774.54 1320.8 1776.73 1334.93 1778.86 1348.99C1781 1362.92 1783.03 1376.46 1784.95 1389.6C1786.88 1402.61 1788.53 1414.63 1789.91 1425.65C1794.58 1411.03 1799.44 1395.51 1804.47 1379.08C1809.5 1362.66 1814.41 1346.16 1819.19 1329.59C1824.11 1312.9 1828.81 1296.58 1833.3 1280.65C1837.92 1264.6 1842.16 1249.63 1846.01 1235.75C1849.87 1221.87 1853.19 1209.46 1855.98 1198.52C1858.91 1187.46 1861.19 1178.72 1862.84 1172.28L1930.13 1175.81Z" fill="#242E3F"/>
<path d="M2032.92 1309.67C2024.08 1337.47 2016.22 1365.09 2009.32 1392.51C2002.56 1419.96 1996.24 1447.5 1990.36 1475.14C1989.33 1479.98 1988.29 1484.88 1987.24 1489.85C1986.21 1494.69 1985.29 1499.62 1984.49 1504.64L1925.46 1492.09C1927.14 1484.19 1928.86 1476.37 1930.64 1468.63C1932.42 1460.89 1934.12 1453.2 1935.75 1445.56C1941.14 1420.21 1945.83 1394.99 1949.84 1369.88C1953.97 1344.8 1957.4 1319.57 1960.13 1294.19L2032.92 1309.67ZM2046.08 1247.77C2045.13 1252.23 2043.16 1256.2 2040.15 1259.69C2037.17 1263.05 2033.46 1265.79 2029.02 1267.9C2024.6 1269.89 2019.66 1271.24 2014.18 1271.94C2008.74 1272.51 2003.15 1272.19 1997.42 1270.97C1991.69 1269.75 1986.51 1267.79 1981.9 1265.08C1977.31 1262.24 1973.47 1259.02 1970.37 1255.44C1967.3 1251.72 1965.09 1247.72 1963.73 1243.44C1962.41 1239.03 1962.22 1234.6 1963.17 1230.14C1964.09 1225.81 1966.03 1221.97 1969.01 1218.61C1972.02 1215.12 1975.66 1212.37 1979.95 1210.35C1984.27 1208.21 1989.09 1206.83 1994.41 1206.23C1999.72 1205.63 2005.25 1205.94 2010.98 1207.16C2016.71 1208.38 2021.95 1210.36 2026.69 1213.1C2031.43 1215.84 2035.4 1219.08 2038.6 1222.82C2041.83 1226.43 2044.1 1230.44 2045.43 1234.85C2046.78 1239.13 2047 1243.44 2046.08 1247.77Z" fill="#242E3F"/>
<path d="M2242.42 1474.09C2245.97 1460.63 2248.86 1446.48 2251.07 1431.62C2253.42 1416.65 2255.14 1401.36 2256.23 1385.78C2257.39 1369.28 2257.88 1352.87 2257.72 1336.54C2257.56 1320.08 2256.78 1304.24 2255.36 1289C2248.24 1286.41 2240.44 1284.04 2231.98 1281.88C2224.67 1279.93 2216.13 1278.03 2206.34 1276.17C2196.68 1274.32 2186.13 1273 2174.7 1272.2C2172.49 1272.04 2170.22 1271.88 2167.88 1271.72C2165.54 1271.56 2163.2 1271.52 2160.84 1271.62C2160.68 1273.83 2160.42 1277.59 2160.05 1282.92C2159.68 1288.24 2159.22 1294.8 2158.67 1302.6C2158.27 1310.27 2157.72 1318.98 2157.04 1328.72C2156.5 1338.34 2155.92 1348.48 2155.31 1359.14C2154.69 1369.8 2154.12 1380.73 2153.6 1391.91C2153.08 1403.1 2152.63 1414.17 2152.26 1425.1C2151.89 1436.04 2151.54 1446.59 2151.22 1456.75C2151.04 1466.79 2150.98 1476.05 2151.04 1484.54C2163.03 1484.86 2174.47 1484.48 2185.38 1483.42C2196.42 1482.36 2206.16 1481.15 2214.61 1479.78C2224.52 1478.13 2233.79 1476.23 2242.42 1474.09ZM2143.29 1223.01C2158.62 1224.08 2174.28 1225.96 2190.28 1228.65C2206.4 1231.34 2221.92 1235.23 2236.84 1240.32C2251.89 1245.42 2265.98 1251.95 2279.13 1259.92C2292.28 1267.89 2303.54 1277.62 2312.92 1289.11C2322.43 1300.6 2329.64 1314.16 2334.55 1329.78C2339.47 1345.26 2341.22 1363.2 2339.79 1383.59C2338.41 1403.34 2334.59 1420.69 2328.32 1435.65C2322.05 1450.62 2314.03 1463.63 2304.25 1474.69C2294.61 1485.64 2283.53 1494.72 2271.02 1501.94C2258.5 1509.15 2245.25 1514.82 2231.26 1518.93C2217.4 1523.05 2203.11 1525.71 2188.41 1526.9C2173.7 1528.22 2159.33 1528.39 2145.3 1527.41C2131.66 1526.45 2119.67 1525.29 2109.33 1523.91C2098.97 1522.67 2090.18 1521.46 2082.95 1520.31C2074.56 1518.94 2067.29 1517.51 2061.12 1516.04C2064.46 1490.69 2067.6 1465.39 2070.54 1440.14C2073.48 1414.9 2075.85 1389.48 2077.64 1363.89C2078.52 1351.29 2079.16 1339.26 2079.57 1327.8C2080.11 1316.36 2080.51 1305.03 2080.77 1293.82C2081.04 1282.61 2081.17 1271.33 2081.18 1259.98C2081.33 1248.5 2081.46 1236.37 2081.57 1223.59C2092.5 1222.26 2103.18 1221.71 2113.61 1221.91C2124.04 1221.99 2133.94 1222.36 2143.29 1223.01Z" fill="#242E3F"/>
<path d="M2471.69 1306.81C2471.36 1335.98 2471.91 1364.69 2473.34 1392.93C2474.89 1421.15 2476.9 1449.34 2479.36 1477.49C2479.8 1482.42 2480.23 1487.41 2480.68 1492.47C2481.11 1497.4 2481.67 1502.38 2482.37 1507.42L2422.25 1512.68C2421.55 1504.64 2420.92 1496.65 2420.35 1488.73C2419.79 1480.81 2419.17 1472.95 2418.49 1465.17C2416.23 1439.36 2413.35 1413.86 2409.84 1388.68C2406.46 1363.49 2402.36 1338.36 2397.55 1313.29L2471.69 1306.81ZM2466.17 1243.77C2466.57 1248.31 2465.84 1252.68 2463.99 1256.9C2462.12 1260.98 2459.37 1264.69 2455.74 1268.01C2452.1 1271.2 2447.77 1273.94 2442.74 1276.21C2437.7 1278.35 2432.26 1279.67 2426.42 1280.18C2420.58 1280.69 2415.06 1280.33 2409.85 1279.08C2404.64 1277.71 2400.02 1275.76 2396.01 1273.23C2391.99 1270.58 2388.7 1267.4 2386.16 1263.71C2383.6 1259.88 2382.12 1255.69 2381.73 1251.15C2381.34 1246.74 2382.08 1242.5 2383.95 1238.41C2385.8 1234.2 2388.48 1230.5 2391.99 1227.32C2395.49 1224 2399.7 1221.28 2404.61 1219.15C2409.52 1217.03 2414.9 1215.71 2420.73 1215.2C2426.57 1214.68 2432.16 1215.05 2437.49 1216.28C2442.83 1217.51 2447.57 1219.45 2451.73 1222.09C2455.87 1224.6 2459.22 1227.77 2461.77 1231.6C2464.32 1235.3 2465.78 1239.36 2466.17 1243.77Z" fill="#242E3F"/>
<path d="M2745.8 1423.48C2747.2 1434.86 2745.46 1444.71 2740.58 1453.05C2735.68 1461.26 2728.79 1468.21 2719.91 1473.89C2711.05 1479.7 2700.72 1484.25 2688.92 1487.53C2677.14 1490.95 2665.05 1493.41 2652.64 1494.94C2645.79 1495.78 2638.37 1496.23 2630.38 1496.29C2622.53 1496.47 2614.53 1495.95 2606.37 1494.72C2598.24 1493.62 2590.2 1491.78 2582.28 1489.21C2574.47 1486.5 2567.19 1482.8 2560.45 1478.12C2553.71 1473.44 2547.69 1467.68 2542.39 1460.85C2537.22 1454.01 2533.26 1445.77 2530.5 1436.14L2609.12 1425.7L2616.36 1459.05L2676.65 1451.65L2676.32 1412.14C2668.09 1411.31 2658.72 1410.89 2648.22 1410.87C2637.73 1410.84 2626.94 1410.59 2615.86 1410.12C2604.77 1409.51 2593.8 1408.36 2582.97 1406.68C2572.14 1404.99 2562.33 1402.06 2553.55 1397.89C2544.78 1393.72 2537.38 1388.01 2531.38 1380.74C2525.37 1373.48 2521.65 1364.03 2520.22 1352.4C2518.68 1339.86 2520.43 1328.95 2525.45 1319.68C2530.46 1310.27 2537.56 1302.38 2546.75 1296.01C2556.05 1289.49 2566.82 1284.23 2579.05 1280.24C2591.29 1276.24 2603.84 1273.26 2616.72 1271.28C2623.57 1270.44 2630.98 1269.92 2638.96 1269.73C2647.07 1269.52 2655.19 1269.97 2663.33 1271.07C2671.45 1272.04 2679.35 1273.83 2687.01 1276.43C2694.81 1279.01 2701.88 1282.67 2708.23 1287.4C2714.7 1291.98 2720.21 1297.87 2724.77 1305.05C2729.43 1312.08 2732.65 1320.67 2734.42 1330.82L2658.64 1343.47L2653.95 1305.28L2588.43 1313.32L2594.76 1364.89C2603.38 1365.67 2612.93 1365.94 2623.39 1365.7C2633.84 1365.34 2644.4 1365.29 2655.06 1365.55C2665.72 1365.82 2676.12 1366.71 2686.28 1368.21C2696.56 1369.71 2705.83 1372.51 2714.07 1376.61C2722.44 1380.7 2729.45 1386.46 2735.09 1393.9C2740.72 1401.35 2744.29 1411.2 2745.8 1423.48Z" fill="#242E3F"/>
<path d="M2985.79 1313.91C2989.68 1330.79 2992.76 1348.18 2995.03 1366.1C2997.29 1384.02 2998.29 1402.23 2998.02 1420.73L2931.79 1436.02C2928.95 1416.77 2925.85 1397.84 2922.49 1379.24C2919.23 1360.48 2915.43 1341.71 2911.1 1322.94C2909.63 1316.59 2908.18 1310.31 2906.75 1304.1C2905.28 1297.75 2903.69 1291.44 2901.97 1285.15C2896.12 1285.84 2890.32 1286.77 2884.58 1287.97C2878.94 1289 2873.27 1290.18 2867.56 1291.5C2856.14 1294.13 2844.81 1297.15 2833.57 1300.55L2839.23 1325.1C2844.07 1346.03 2849.2 1366.83 2854.64 1387.49C2860.05 1408.02 2865.91 1428.78 2872.23 1449.77L2808.28 1464.54C2797.68 1418.61 2786.55 1373.27 2774.88 1328.53C2763.21 1283.78 2750.68 1239.03 2737.27 1194.29L2808.43 1173.45C2811.38 1190.27 2814.44 1207.01 2817.62 1223.65C2820.79 1240.29 2824.17 1256.95 2827.75 1273.62C2833.82 1266.34 2840.45 1260.34 2847.64 1255.6C2854.81 1250.74 2861.46 1246.87 2867.61 1243.98C2874.84 1240.57 2882.05 1237.9 2889.22 1235.98C2898.48 1233.84 2907.02 1233.21 2914.84 1234.08C2922.78 1234.91 2930.01 1236.99 2936.52 1240.3C2943.13 1243.45 2949.04 1247.63 2954.25 1252.84C2959.59 1258.02 2964.28 1263.89 2968.33 1270.43C2972.48 1276.83 2975.96 1283.78 2978.76 1291.28C2981.69 1298.76 2984.03 1306.3 2985.79 1313.91Z" fill="#242E3F"/>
<path d="M3227.43 1368.93C3226.45 1365.28 3225.41 1361.65 3224.31 1358.04C3223.17 1354.3 3222.12 1350.61 3221.14 1346.96C3216.09 1354.78 3210.34 1361.24 3203.89 1366.34C3197.53 1371.28 3191.53 1375.31 3185.9 1378.44C3179.33 1382.09 3172.62 1384.97 3165.77 1387.07C3153.19 1390.44 3140.53 1391.74 3127.79 1390.98C3115.21 1390.31 3103.36 1387.35 3092.25 1382.1C3081.14 1376.86 3071.22 1369.27 3062.49 1359.34C3053.86 1349.25 3047.19 1336.68 3042.48 1321.63C3038.37 1306.29 3036.71 1291.77 3037.49 1278.08C3038.23 1264.27 3041.54 1251.72 3047.42 1240.44C3053.29 1229.16 3061.73 1219.42 3072.75 1211.21C3083.72 1202.88 3097.31 1196.47 3113.5 1192C3114 1191.86 3115.92 1191.48 3119.26 1190.86C3122.69 1190.08 3126.99 1189.53 3132.17 1189.22C3137.31 1188.79 3143.06 1188.86 3149.41 1189.45C3155.74 1189.91 3162.22 1191.21 3168.86 1193.34L3159.62 1170.95L3232.78 1145.88C3240.94 1182.39 3249.81 1218.5 3259.38 1254.21C3261.7 1262.89 3263.91 1271.13 3266 1278.93C3268.18 1286.57 3270.36 1294.21 3272.54 1301.84C3274.82 1309.32 3277.12 1316.93 3279.46 1324.66C3281.9 1332.23 3284.45 1340.24 3287.12 1348.69L3227.43 1368.93ZM3127.1 1346.88C3141.89 1342.24 3156.34 1337.29 3170.43 1332.03C3184.53 1326.78 3198.24 1320.88 3211.59 1314.33C3207.03 1298.84 3202.3 1283.93 3197.38 1269.61C3192.59 1255.26 3187.34 1240.69 3181.63 1225.91L3170.88 1228.79C3158.68 1232.06 3146.53 1235.79 3134.44 1239.97C3122.44 1243.99 3110.47 1248.62 3098.53 1253.84C3100.55 1267.45 3103.36 1280.92 3106.93 1294.25C3108.28 1299.28 3109.67 1303.97 3111.1 1308.3C3112.49 1312.51 3113.95 1316.7 3115.48 1320.88C3117.13 1325.02 3118.85 1329.21 3120.66 1333.44C3122.6 1337.64 3124.74 1342.12 3127.1 1346.88Z" fill="#242E3F"/>
</svg>
