<svg width="3840" height="1583" viewBox="0 0 3840 1583" fill="none" xmlns="http://www.w3.org/2000/svg">
<g clip-path="url(#clip0_171_7)">
<rect width="3840" height="1583" fill="#F9FBFE"/>
<line x1="-8.74228e-08" y1="153" x2="3840" y2="153" stroke="#6679F5" stroke-opacity="0.7" stroke-width="2"/>
<line x1="-8.74228e-08" y1="194.001" x2="3840" y2="194" stroke="#6679F5" stroke-opacity="0.7" stroke-width="2"/>
<line x1="-8.74228e-08" y1="235.001" x2="3840" y2="235.001" stroke="#6679F5" stroke-opacity="0.7" stroke-width="2"/>
<line x1="-8.74228e-08" y1="276.001" x2="3840" y2="276.001" stroke="#6679F5" stroke-opacity="0.7" stroke-width="2"/>
<line x1="-8.74228e-08" y1="317.002" x2="3840" y2="317.001" stroke="#6679F5" stroke-opacity="0.7" stroke-width="2"/>
<line x1="-8.74228e-08" y1="358.002" x2="3840" y2="358.002" stroke="#6679F5" stroke-opacity="0.7" stroke-width="2"/>
<line x1="-8.74228e-08" y1="399.002" x2="3840" y2="399.002" stroke="#6679F5" stroke-opacity="0.7" stroke-width="2"/>
<line x1="-8.74228e-08" y1="440.003" x2="3840" y2="440.002" stroke="#6679F5" stroke-opacity="0.7" stroke-width="2"/>
<line x1="-8.74228e-08" y1="481.003" x2="3840" y2="481.003" stroke="#6679F5" stroke-opacity="0.7" stroke-width="2"/>
<line x1="-8.74228e-08" y1="522.003" x2="3840" y2="522.003" stroke="#6679F5" stroke-opacity="0.7" stroke-width="2"/>
<line x1="-8.74228e-08" y1="563.004" x2="3840" y2="563.003" stroke="#6679F5" stroke-opacity="0.7" stroke-width="2"/>
<line x1="-8.74228e-08" y1="604.004" x2="3840" y2="604.004" stroke="#6679F5" stroke-opacity="0.7" stroke-width="2"/>
<line x1="-8.74228e-08" y1="645.005" x2="3840" y2="645.004" stroke="#6679F5" stroke-opacity="0.7" stroke-width="2"/>
<line x1="-8.74228e-08" y1="686.005" x2="3840" y2="686.005" stroke="#6679F5" stroke-opacity="0.7" stroke-width="2"/>
<line x1="-8.74228e-08" y1="727.005" x2="3840" y2="727.005" stroke="#6679F5" stroke-opacity="0.7" stroke-width="2"/>
<line x1="-8.74228e-08" y1="768.006" x2="3840" y2="768.005" stroke="#6679F5" stroke-opacity="0.7" stroke-width="2"/>
<line x1="-8.74228e-08" y1="809.006" x2="3840" y2="809.006" stroke="#6679F5" stroke-opacity="0.7" stroke-width="2"/>
<line x1="-8.74228e-08" y1="850.006" x2="3840" y2="850.006" stroke="#6679F5" stroke-opacity="0.7" stroke-width="2"/>
<line x1="-8.74228e-08" y1="891.007" x2="3840" y2="891.006" stroke="#6679F5" stroke-opacity="0.7" stroke-width="2"/>
<line x1="-8.74228e-08" y1="932.007" x2="3840" y2="932.007" stroke="#6679F5" stroke-opacity="0.7" stroke-width="2"/>
<line x1="-8.74228e-08" y1="973.007" x2="3840" y2="973.007" stroke="#6679F5" stroke-opacity="0.7" stroke-width="2"/>
<line x1="-8.74228e-08" y1="1014.01" x2="3840" y2="1014.01" stroke="#6679F5" stroke-opacity="0.7" stroke-width="2"/>
<line x1="-8.74228e-08" y1="1055.01" x2="3840" y2="1055.01" stroke="#6679F5" stroke-opacity="0.7" stroke-width="2"/>
<line x1="-8.74228e-08" y1="1096.01" x2="3840" y2="1096.01" stroke="#6679F5" stroke-opacity="0.7" stroke-width="2"/>
<line x1="-8.74228e-08" y1="1137.01" x2="3840" y2="1137.01" stroke="#6679F5" stroke-opacity="0.7" stroke-width="2"/>
<line x1="-8.74228e-08" y1="1178.01" x2="3840" y2="1178.01" stroke="#6679F5" stroke-opacity="0.7" stroke-width="2"/>
<line x1="-8.74228e-08" y1="1219.01" x2="3840" y2="1219.01" stroke="#6679F5" stroke-opacity="0.7" stroke-width="2"/>
<line x1="-8.74228e-08" y1="1260.01" x2="3840" y2="1260.01" stroke="#6679F5" stroke-opacity="0.7" stroke-width="2"/>
<line x1="-8.74228e-08" y1="1301.01" x2="3840" y2="1301.01" stroke="#6679F5" stroke-opacity="0.7" stroke-width="2"/>
<line x1="-8.74228e-08" y1="1342.01" x2="3840" y2="1342.01" stroke="#6679F5" stroke-opacity="0.7" stroke-width="2"/>
<line x1="-8.74228e-08" y1="1383.01" x2="3840" y2="1383.01" stroke="#6679F5" stroke-opacity="0.7" stroke-width="2"/>
<line x1="-8.74228e-08" y1="1424.01" x2="3840" y2="1424.01" stroke="#6679F5" stroke-opacity="0.7" stroke-width="2"/>
<line x1="-8.74228e-08" y1="1465.01" x2="3840" y2="1465.01" stroke="#6679F5" stroke-opacity="0.7" stroke-width="2"/>
<line x1="-8.74228e-08" y1="1506.01" x2="3840" y2="1506.01" stroke="#6679F5" stroke-opacity="0.7" stroke-width="2"/>
<line x1="-8.74228e-08" y1="1547.01" x2="3840" y2="1547.01" stroke="#6679F5" stroke-opacity="0.7" stroke-width="2"/>
<line x1="165" y1="5" x2="165" y2="1583" stroke="#F56666" stroke-opacity="0.7" stroke-width="2"/>
</g>
<defs>
<clipPath id="clip0_171_7">
<rect width="3840" height="1583" fill="white"/>
</clipPath>
</defs>
</svg>
