<svg width="525" height="238" viewBox="0 0 525 238" fill="none" xmlns="http://www.w3.org/2000/svg">
<path d="M2 71.5799L96.4527 43.4025L118.946 8L122.175 32.2553L129.048 24.1014L176.118 79.7338L163.309 100.48L202.673 101.099L219.856 207.203L191.947 201.939L207.151 215.564L175.91 206.481L83.2273 235.484L5.64481 188.522L2 71.5799Z" fill="#AF8D67"/>
<path d="M96.4527 43.4025L2 71.5799L5.64481 188.522M96.4527 43.4025L109.47 156.009M96.4527 43.4025L118.946 8L122.175 32.2553M5.64481 188.522L109.47 156.009M5.64481 188.522L83.2273 235.587L175.91 206.584M109.47 156.009L136.962 135.779L125.403 66.4192M109.47 156.009L175.806 206.687L207.047 215.77L191.843 202.146M109.47 156.009L146.126 161.067L176.639 188.418M125.403 66.4192L163.101 100.583M125.403 66.4192L122.071 32.3585M163.101 100.583L176.534 188.418L191.739 202.043L219.647 207.307L202.465 101.202L163.101 100.583ZM163.101 100.583L175.91 79.8371L128.839 24.2046L121.966 32.3585" stroke="#956F43" stroke-width="3"/>
<path d="M55.5267 63.2195H162.788L188.823 195.334L55.5267 180.884V63.2195Z" fill="#AF8D67"/>
<path d="M168.828 103.37L175.91 186.044L146.647 159.828L112.386 155.183L135.608 137.431L126.34 68.3803L168.932 103.37H168.828Z" fill="#74522A"/>
<path d="M496.653 121.123L498.528 120.4L523 77.7727L522.479 75.7085C514.669 70.5478 500.61 66.7288 482.803 64.3549C464.891 61.981 442.918 61.1553 418.967 62.1874C389.704 62.7035 365.544 67.2449 341.905 71.6831C337.739 72.5088 333.574 73.2313 329.408 73.9538C301.604 79.0113 273.174 82.9335 236.414 79.2177C205.381 76.1213 183.928 71.167 165.079 66.9353C161.539 66.1095 158.206 65.3871 154.77 64.5613C133.213 59.8135 113.323 56.5106 83.5397 58.5749C79.8949 58.7813 77.6038 59.091 76.4583 59.4006C76.1459 59.4006 75.8335 59.6071 75.5211 59.7103C75.4169 59.7103 75.1045 59.9167 74.8963 60.2263C74.688 60.536 74.4797 60.9488 74.5839 61.5681C74.5839 62.0842 74.8963 62.3938 75.1045 62.4971C75.3128 62.7035 75.417 62.8067 75.6252 62.8067C75.9376 62.9099 76.1459 63.0131 76.4583 63.1163C77.4997 63.426 79.4783 63.8388 81.8735 64.2517C82.6024 64.3549 83.3314 64.5613 84.1645 64.6646C86.039 64.9742 88.1217 65.3871 90.3086 65.7999C96.661 67.0385 103.951 68.5867 109.886 70.7542C112.906 71.8895 115.406 73.0249 117.28 74.4699C119.155 75.8117 120.3 77.2567 120.613 78.5985C122.591 86.1331 125.403 96.5577 128.631 104.712C130.297 108.737 132.068 112.349 133.942 114.723C134.879 115.859 135.921 116.891 137.17 117.407C138.316 117.923 139.67 118.026 140.815 117.407C148.001 117.201 154.666 116.891 160.81 116.581C177.368 115.859 190.281 115.239 201.007 116.272C208.401 116.994 214.545 118.542 220.064 121.432C225.479 124.219 230.269 128.348 234.851 134.231C237.559 137.843 242.87 139.598 249.431 140.321C256.096 141.043 264.635 140.733 274.424 139.804C291.398 138.153 312.538 134.437 335.344 130.412C338.885 129.793 342.426 129.173 345.966 128.554C372.73 123.909 401.263 119.162 427.714 117.097C454.165 115.033 478.325 115.549 496.653 121.226V121.123Z" fill="#FFF537" stroke="white" stroke-width="3" stroke-linejoin="bevel"/>
<path d="M500.506 171.801C501.27 172.489 501.652 172.833 501.652 172.833C501.652 172.833 501.652 172.833 501.652 172.73C501.652 172.73 501.756 172.523 501.86 172.42C502.068 172.111 502.381 171.698 502.693 171.078C503.318 169.84 504.151 167.982 504.984 165.195C506.546 159.725 507.9 150.952 507.275 137.327C506.65 123.6 503.943 115.859 501.131 111.421C499.777 109.15 498.319 107.808 497.278 106.982C496.757 106.57 496.237 106.26 495.924 106.157C495.716 106.157 495.612 106.053 495.508 105.95C495.508 105.95 495.508 105.95 495.404 105.95C471.139 95.4224 452.707 93.2549 416.571 96.4545C395.119 98.4156 373.042 102.751 351.069 106.982C345.758 108.015 340.447 109.047 335.136 110.079C308.06 115.24 281.505 119.368 256.929 118.13C219.335 116.168 196.529 111.317 178.201 106.363C174.035 105.228 170.182 104.092 166.433 103.06C153.416 99.3445 141.648 96.0417 126.548 94.3902C124.57 93.6677 122.799 93.4613 121.133 93.8742C119.467 94.287 118.113 95.3192 117.072 96.661C115.093 99.2413 114.156 103.267 113.844 107.292C113.115 115.549 114.573 125.561 115.926 129.896L117.072 130.928C129.568 133.818 140.919 136.502 151.333 138.876C165.912 142.178 178.513 145.068 189.135 147.752C207.463 152.293 219.856 156.216 226.625 160.447C227.77 161.17 229.645 161.686 231.727 161.996C233.914 162.408 236.726 162.615 239.954 162.821C246.411 163.234 254.95 163.234 265.051 163.131C275.257 163.131 287.128 162.718 300.042 162.512C312.434 162.202 325.868 161.892 339.718 161.686C396.369 160.86 460.83 161.892 499.986 173.349L501.652 172.833L500.506 171.801Z" fill="#F68887"/>
<path d="M501.652 172.833C501.652 172.833 501.27 172.489 500.506 171.801L501.652 172.833ZM501.652 172.833C501.652 172.833 501.652 172.833 501.652 172.73C501.652 172.73 501.756 172.523 501.86 172.42C502.068 172.111 502.381 171.698 502.693 171.078C503.318 169.84 504.151 167.982 504.984 165.195C506.546 159.725 507.9 150.952 507.275 137.327C506.65 123.6 503.943 115.859 501.131 111.421C499.777 109.15 498.319 107.808 497.278 106.982C496.757 106.57 496.237 106.26 495.924 106.157C495.716 106.157 495.612 106.053 495.508 105.95C495.508 105.95 495.508 105.95 495.404 105.95C471.139 95.4224 452.707 93.2549 416.571 96.4545C395.119 98.4156 373.042 102.751 351.069 106.982C345.758 108.015 340.447 109.047 335.136 110.079C308.06 115.24 281.505 119.368 256.929 118.13C219.335 116.168 196.529 111.317 178.201 106.363C174.035 105.228 170.182 104.092 166.433 103.06C153.416 99.3445 141.648 96.0417 126.548 94.3902C124.57 93.6677 122.799 93.4613 121.133 93.8742C119.467 94.287 118.113 95.3192 117.072 96.661C115.093 99.2413 114.156 103.267 113.844 107.292C113.115 115.549 114.573 125.561 115.926 129.896L117.072 130.928C129.568 133.818 140.919 136.502 151.333 138.876C165.912 142.178 178.513 145.068 189.135 147.752C207.463 152.293 219.856 156.216 226.625 160.447C227.77 161.17 229.645 161.686 231.727 161.996C233.914 162.408 236.726 162.615 239.954 162.821C246.411 163.234 254.95 163.234 265.051 163.131C275.257 163.131 287.128 162.718 300.042 162.512C312.434 162.202 325.868 161.892 339.718 161.686C396.369 160.86 460.83 161.892 499.986 173.349L501.652 172.833Z" stroke="white" stroke-width="3" stroke-linejoin="bevel"/>
<path d="M125.924 130.825L124.882 131.135C117.905 136.295 112.802 140.837 109.262 144.862C105.721 148.887 103.534 152.397 102.597 155.493C101.66 158.693 101.972 161.376 103.43 163.75C104.784 166.021 106.971 167.672 109.47 168.911C114.469 171.388 121.133 172.42 126.444 172.833C129.152 173.04 131.443 173.143 133.213 173.143C134.046 173.143 134.775 173.143 135.192 173.143C135.4 173.143 135.609 173.143 135.713 173.143H135.817C155.291 173.452 172.265 177.684 191.426 182.432C193.301 182.948 195.279 183.361 197.154 183.877C218.71 189.244 243.495 194.714 277.236 195.85C294.21 196.366 313.371 193.889 333.366 190.379C343.363 188.625 353.673 186.561 363.982 184.496C364.607 184.393 365.336 184.187 365.961 184.083C375.646 182.122 385.33 180.161 395.015 178.407C415.738 174.588 436.045 171.595 454.894 171.388C473.743 171.182 490.926 173.659 505.401 180.781L507.588 179.748C510.712 165.195 510.712 155.7 509.879 149.816C509.462 146.823 508.837 144.759 508.317 143.417C508.004 142.695 507.796 142.282 507.588 141.869C507.588 141.662 507.379 141.559 507.379 141.456C507.379 141.456 507.379 141.456 507.379 141.353C507.379 141.353 507.379 141.353 506.13 142.282L507.379 141.353L507.067 141.043C494.258 132.167 477.7 129.38 458.851 130.102C440.002 130.825 418.758 134.85 396.681 139.701C391.058 140.94 385.33 142.178 379.603 143.52C340.135 152.397 299 161.686 263.385 157.867C222.355 153.429 195.592 147.133 175.389 141.766C171.848 140.837 168.516 139.908 165.288 139.082C150.188 134.953 138.42 131.754 125.82 131.135L125.924 130.825Z" fill="#91CCF4"/>
<path d="M507.379 141.353C507.379 141.456 507.379 141.456 507.379 141.456C507.379 141.559 507.588 141.662 507.588 141.869C507.796 142.282 508.004 142.695 508.317 143.417C508.837 144.759 509.462 146.823 509.879 149.816C510.712 155.7 510.712 165.195 507.588 179.748L505.401 180.781C490.926 173.659 473.743 171.182 454.894 171.388C436.045 171.595 415.738 174.588 395.015 178.407C385.33 180.161 375.645 182.122 365.961 184.083C365.336 184.187 364.607 184.393 363.982 184.496C353.672 186.561 343.363 188.625 333.366 190.379C313.371 193.889 294.21 196.366 277.236 195.85C243.495 194.714 218.71 189.244 197.154 183.877C195.279 183.361 193.301 182.948 191.426 182.432C172.265 177.684 155.291 173.452 135.817 173.143H135.713C135.609 173.143 135.4 173.143 135.192 173.143C134.775 173.143 134.046 173.143 133.213 173.143C131.443 173.143 129.152 173.04 126.444 172.833C121.133 172.42 114.469 171.388 109.47 168.911C106.971 167.672 104.784 166.021 103.43 163.75C101.972 161.376 101.66 158.693 102.597 155.493C103.534 152.397 105.721 148.887 109.262 144.862C112.802 140.837 117.905 136.295 124.882 131.135L125.924 130.825L125.82 131.135C138.42 131.754 150.188 134.953 165.288 139.082C168.516 139.908 171.848 140.837 175.389 141.766C195.592 147.133 222.355 153.429 263.385 157.867C299 161.686 340.135 152.397 379.603 143.52C385.33 142.178 391.058 140.94 396.681 139.701C418.758 134.85 440.002 130.825 458.851 130.102C477.7 129.38 494.258 132.167 507.067 141.043L507.379 141.353ZM507.379 141.353C507.379 141.353 507.379 141.353 506.13 142.282L507.379 141.353Z" stroke="white" stroke-width="3" stroke-linejoin="bevel"/>
<path d="M209.025 176.239C203.09 170.975 193.925 171.698 188.51 177.787C187.261 179.232 186.428 180.781 185.803 182.535L162.476 185.219C159.248 185.425 156.332 187.386 156.436 190.586C156.436 192.237 157.373 193.579 158.415 194.611C159.56 195.643 161.018 196.159 162.58 196.159L186.323 194.198C187.157 195.747 188.094 197.295 189.552 198.533C195.488 203.797 207.047 204.313 211.941 195.54L198.195 191.928L197.154 183.98L211.941 179.542C211.941 179.542 209.546 177.065 208.921 176.446L209.025 176.239Z" fill="#242E3F"/>
<path d="M114.573 127.316L116.239 136.915C115.718 137.534 115.302 138.153 114.989 138.876L105.304 140.321L103.638 147.752L111.761 153.429C111.761 154.254 111.969 154.977 112.073 155.7L106.45 163.544L110.615 169.943L120.3 168.498C120.925 169.014 121.55 169.324 122.279 169.737L123.945 179.336L131.547 181.09L137.17 173.246C137.899 173.246 138.733 173.143 139.461 172.936L147.584 178.613L154.041 174.691L152.375 165.092C152.791 164.473 153.312 163.853 153.624 163.131L163.309 161.686L164.975 154.254L156.852 148.578C156.748 147.855 156.644 147.03 156.54 146.307L162.163 138.463L157.998 132.063L148.313 133.508C147.792 133.096 147.064 132.58 146.335 132.27L144.668 122.671L137.066 120.916L131.443 128.761C130.714 128.761 129.881 128.967 129.152 129.07L121.029 123.393L114.573 127.316ZM128.111 141.353C133.422 138.153 140.503 139.805 143.939 145.068C147.376 150.436 145.814 157.248 140.503 160.551C135.192 163.75 128.111 162.099 124.674 156.835C121.237 151.468 122.799 144.656 128.111 141.353Z" fill="#242E3F"/>
<path d="M2.41656 71.6831L96.8693 43.5057L119.363 8.10321L122.591 32.3585L125.924 66.4192L137.483 135.779L109.991 156.009L146.647 161.067L177.159 188.418L192.363 202.043L207.567 215.667L176.326 206.584L83.6438 235.587L6.06138 188.625L2.41656 71.6831Z" fill="#AF8D67"/>
<path d="M96.8693 43.5057L2.41656 71.6831L6.06138 188.625M96.8693 43.5057L109.886 156.112M96.8693 43.5057L119.363 8.10321L122.591 32.3585L125.924 66.4192L137.483 135.779L109.991 156.009M6.06138 188.625L109.886 156.112M6.06138 188.625L83.6438 235.69L176.326 206.687M109.886 156.112L176.222 206.79M109.886 156.112L146.543 161.17L177.055 188.522L192.259 202.146L207.463 215.77L176.222 206.687" stroke="#956F43" stroke-width="3"/>
<path d="M185.594 95.8352C185.907 99.3445 185.386 102.338 184.241 104.815C183.095 107.292 181.325 109.356 178.93 111.111C176.639 112.762 173.723 114.104 170.39 114.93C167.058 115.859 163.309 116.478 159.352 116.788C157.581 116.891 155.603 116.891 153.624 116.788C151.646 116.581 149.667 116.272 147.688 115.652C145.71 115.033 143.835 114.207 142.065 113.278C140.295 112.246 138.628 111.008 137.066 109.563C135.608 108.015 134.255 106.363 133.213 104.299C132.172 102.338 131.339 100.067 130.818 97.4867L148.522 95.732C148.522 96.4545 148.522 97.2802 148.626 98.0027C148.626 98.8284 148.73 99.5509 148.834 100.377C149.042 102.751 149.25 105.125 149.667 107.498C151.229 107.498 152.895 107.498 154.457 107.498C156.019 107.498 157.686 107.395 159.248 107.292C160.81 107.189 162.372 106.982 163.934 106.776C165.496 106.569 167.058 106.363 168.724 105.95C168.724 105.021 168.724 104.092 168.828 103.267C168.828 102.338 168.828 101.512 168.828 100.583C168.724 99.1381 168.516 97.5899 168.204 96.1449C167.891 94.6999 167.579 93.1517 167.058 91.7067C165.184 91.7067 162.997 91.6035 160.497 91.5002C157.998 91.5002 155.499 91.1906 152.791 90.881C150.188 90.5713 147.584 90.0552 145.085 89.3327C142.586 88.6102 140.295 87.6813 138.212 86.4427C136.129 85.101 134.463 83.5527 133.109 81.4885C131.755 79.5274 130.922 77.0503 130.714 74.057C130.506 71.9928 130.714 70.1349 131.443 68.3803C132.068 66.6256 133.005 65.0774 134.151 63.6324C135.4 62.1874 136.754 60.9488 138.42 59.8135C140.086 58.6781 141.857 57.7492 143.731 56.9235C145.606 56.0978 147.584 55.4785 149.563 55.0656C151.542 54.5496 153.416 54.2399 155.29 54.1367C159.352 53.8271 162.997 54.1367 166.225 55.1688C169.453 56.201 172.161 57.646 174.452 59.5038C176.743 61.3617 178.617 63.5292 179.971 65.9031C181.325 68.3803 182.262 70.8574 182.574 73.3345L164.246 76.7406C164.246 75.7085 164.246 74.6763 164.246 73.6442C164.246 72.612 164.246 71.5799 164.038 70.5478C163.83 68.1738 163.517 65.9031 162.997 63.5292C162.059 63.5292 161.122 63.5292 160.185 63.5292C159.248 63.5292 158.415 63.5292 157.477 63.6324C153.833 63.9421 150.188 64.6646 146.543 65.7999C146.543 66.5224 146.543 67.1417 146.543 67.761C146.543 68.3803 146.543 68.9995 146.647 69.6188C146.751 71.4767 147.064 73.3345 147.272 75.1924C147.584 76.947 148.001 78.8049 148.626 80.5595C150.917 80.6628 153.312 80.766 156.019 80.9724C158.623 81.0756 161.33 81.282 164.038 81.6949C166.746 82.0045 169.349 82.5206 171.848 83.1399C174.348 83.7592 176.639 84.5849 178.617 85.7202C180.596 86.7524 182.262 88.0942 183.512 89.7456C184.761 91.397 185.49 93.3581 185.699 95.732L185.594 95.8352Z" fill="#242E3F"/>
<path d="M388.454 52.4854C386.371 59.8136 384.289 66.2128 382.206 71.4768C380.123 76.7407 378.353 81.0757 376.791 84.4817C374.916 88.5071 373.146 91.81 371.376 94.4935C371.376 95.1128 371.376 95.7321 371.584 96.5578C371.584 97.2803 371.792 98.106 371.896 99.0349C372.105 100.48 372.313 102.028 372.625 103.783C372.938 105.434 373.25 107.086 373.458 108.634C373.771 110.182 374.083 111.627 374.396 112.866C374.708 114.104 375.02 115.136 375.229 115.756L352.839 119.162C352.839 118.646 352.839 117.923 352.839 116.891C352.839 115.859 352.839 114.62 352.839 113.382C352.839 112.04 352.839 110.698 352.631 109.253C352.631 107.808 352.527 106.466 352.423 105.125C352.423 103.783 352.319 102.751 352.214 101.719C352.214 100.79 352.214 100.067 352.11 99.7574C350.756 98.106 349.194 96.3514 347.632 94.3903C346.07 92.4292 344.3 90.365 342.634 88.3007C340.863 86.1332 339.093 83.9657 337.323 81.695C335.552 79.4242 333.678 77.1535 331.908 74.8828C330.137 72.6121 328.367 70.2382 326.701 67.9675C325.034 65.6968 323.472 63.5293 321.91 61.3618L344.925 59.2975C345.758 61.0521 346.799 63.0132 347.945 65.2839C349.194 67.5546 350.548 69.9285 352.006 72.4057C353.464 74.8828 355.13 77.4632 356.796 80.0435C358.567 82.6239 360.337 85.2042 362.107 87.6814C363.565 83.8625 364.919 80.0435 366.169 76.2246C366.689 74.5732 367.314 72.8185 367.835 71.0639C368.356 69.206 368.981 67.4514 369.501 65.5936C370.022 63.7357 370.438 61.8778 370.959 60.02C371.376 58.1621 371.792 56.4075 372 54.7561L388.454 52.5886V52.4854Z" fill="#242E3F"/>
<path d="M497.903 107.499C498.528 105.021 499.048 102.544 499.361 99.8607C499.777 97.1771 499.986 94.3903 500.194 91.6035C500.402 88.6103 500.402 85.6171 500.402 82.7271C500.402 79.7339 500.194 76.8439 499.882 74.1603C498.528 73.7475 497.174 73.3346 495.612 72.9218C494.258 72.6121 492.696 72.3025 490.926 71.8896C489.155 71.58 487.281 71.3736 485.198 71.2703C484.782 71.2703 484.365 71.2703 483.948 71.2703C483.532 71.2703 483.115 71.2703 482.699 71.2703C482.699 71.6832 482.699 72.3025 482.595 73.3346C482.595 74.2636 482.491 75.5021 482.386 76.8439C482.386 78.1857 482.282 79.8371 482.178 81.5918C482.178 83.3464 481.97 85.2043 481.97 87.0621C481.97 89.0232 481.762 90.9843 481.762 92.9453C481.762 95.0096 481.657 96.9707 481.553 98.9317C481.553 100.893 481.553 102.854 481.449 104.609C481.449 106.466 481.449 108.118 481.449 109.666C483.636 109.666 485.719 109.666 487.697 109.356C489.676 109.15 491.446 108.944 493.008 108.634C494.779 108.324 496.445 107.911 498.111 107.602L497.903 107.499ZM479.262 62.2907C482.074 62.4971 484.886 62.8068 487.802 63.2196C490.717 63.6325 493.633 64.355 496.341 65.2839C499.048 66.2129 501.652 67.3482 504.047 68.7932C506.442 70.2382 508.525 71.9928 510.295 73.9539C512.066 76.0182 513.419 78.4953 514.357 81.2821C515.294 84.0689 515.606 87.2685 515.398 90.9843C515.19 94.5967 514.565 97.6932 513.419 100.377C512.274 103.06 510.92 105.434 509.15 107.499C507.379 109.46 505.401 111.111 503.11 112.453C500.819 113.795 498.424 114.827 495.924 115.549C493.425 116.272 490.822 116.788 488.114 117.097C485.406 117.407 482.803 117.407 480.304 117.304C477.804 117.201 475.618 116.994 473.743 116.788C471.869 116.581 470.202 116.375 468.953 116.169C467.391 115.962 466.141 115.652 464.995 115.446C465.516 110.905 466.037 106.26 466.558 101.719C467.078 97.1771 467.391 92.5325 467.703 87.8878C467.807 85.6171 467.911 83.4496 468.015 81.3853C468.015 79.321 468.12 77.2568 468.12 75.2957C468.12 73.2314 468.12 71.2703 468.12 69.2061C468.12 67.1418 468.12 64.9743 468.12 62.6004C470.098 62.2907 472.077 62.1875 473.951 62.1875C475.826 62.1875 477.7 62.1875 479.366 62.2907H479.262Z" fill="#242E3F"/>
<path d="M261.823 94.3903C261.302 95.8353 260.678 97.177 259.74 98.3124C258.803 99.4478 257.762 100.377 256.512 101.099C255.262 101.822 253.804 102.441 252.242 102.854C250.68 103.267 248.91 103.576 247.14 103.68L254.742 123.6L240.891 120.71L237.247 103.267C236.622 103.267 235.997 103.06 235.268 102.957C234.643 102.854 233.914 102.751 233.185 102.647C232.665 104.712 232.144 106.776 231.727 109.047C231.207 111.317 230.79 113.691 230.165 116.168L216.107 112.659C218.085 107.911 220.064 103.06 221.834 98.3124C223.709 93.4613 225.375 88.6103 227.041 83.656C227.458 82.4174 227.874 81.1789 228.187 80.1467C228.499 79.1146 228.811 78.0824 229.124 77.0503C229.436 76.0181 229.749 74.986 230.061 73.9539C230.374 72.9217 230.686 71.6832 230.998 70.3414C233.602 70.3414 236.101 70.651 238.6 71.1671C241.1 71.6831 243.703 72.3024 246.307 73.1281C247.556 73.541 249.014 74.0571 250.472 74.7796C251.93 75.3989 253.284 76.2246 254.638 77.1535C255.991 78.0824 257.241 79.1146 258.387 80.2499C259.532 81.3853 260.469 82.7271 261.198 84.1721C261.927 85.6171 262.344 87.1653 262.448 88.9199C262.552 90.6746 262.344 92.4292 261.719 94.4935L261.823 94.3903ZM240.579 77.876C239.538 80.9724 238.6 84.0688 237.663 86.9588C236.726 89.8488 235.893 92.9453 235.06 96.0417L236.205 96.4545C237.871 96.9706 239.642 97.4867 241.412 98.0028C243.182 98.5188 244.849 98.8285 246.515 99.0349C247.14 98.106 247.66 96.9706 248.285 95.732C248.91 94.3903 249.431 93.0485 249.847 91.6035C250.16 90.6746 250.472 89.7456 250.68 88.8167C250.889 87.8878 251.201 86.9588 251.305 86.0299C251.513 85.101 251.618 84.2753 251.722 83.3464C251.826 82.5206 251.93 81.6949 251.93 81.0756C251.722 80.9724 251.409 80.766 250.993 80.6628C250.68 80.5596 250.264 80.3531 249.847 80.2499C248.91 79.9403 247.973 79.6306 246.931 79.4242C245.89 79.1146 244.849 78.9081 243.911 78.5985C242.87 78.2889 241.725 78.0824 240.683 77.7728L240.579 77.876Z" fill="#242E3F"/>
<path d="M459.684 78.805C459.893 80.3532 459.788 81.695 459.476 83.1399C459.164 84.4817 458.539 85.7203 457.81 86.9589C456.977 88.0942 456.04 89.2296 454.79 90.2617C453.54 91.2939 452.186 92.2228 450.624 93.0485L465.516 107.395L452.186 110.492L441.877 96.7642C441.252 96.9706 440.627 97.1771 440.002 97.2803C439.378 97.4867 438.753 97.5899 438.128 97.7964C438.544 99.7574 438.961 101.822 439.482 103.989C440.002 106.157 440.523 108.427 441.148 110.801L427.402 113.382C427.193 108.324 426.881 103.37 426.465 98.4156C426.048 93.4614 425.631 88.5071 425.007 83.4496C424.798 82.1078 424.694 80.9724 424.59 79.9403C424.486 78.9082 424.278 77.876 424.173 76.8439C424.069 75.8117 423.861 74.7796 423.653 73.7475C423.445 72.7153 423.236 71.4768 423.028 70.2382C425.319 69.206 427.61 68.4835 430.005 67.8643C432.4 67.245 434.9 66.8321 437.607 66.5225C438.961 66.316 440.315 66.316 441.877 66.316C443.439 66.316 445.001 66.4193 446.563 66.6257C448.125 66.8321 449.687 67.245 451.145 67.8643C452.603 68.3803 453.957 69.206 455.206 70.135C456.456 71.0639 457.497 72.3025 458.331 73.7475C459.164 75.1925 459.684 76.9471 459.997 78.9082L459.684 78.805ZM434.275 73.025C434.691 76.2246 435.108 79.2178 435.42 82.211C435.837 85.101 436.358 88.1974 436.878 91.2939H438.128C439.898 90.9842 441.564 90.6746 443.335 90.3649C445.105 90.0553 446.667 89.6424 448.229 89.2296C448.333 88.1974 448.438 86.9589 448.333 85.6171C448.333 84.2753 448.229 82.8303 448.021 81.3853C447.917 80.4564 447.813 79.5275 447.604 78.5985C447.396 77.6696 447.188 76.7407 447.084 75.915C446.875 74.986 446.667 74.1603 446.355 73.4378C446.146 72.6121 445.834 71.9928 445.522 71.3735C445.209 71.3735 444.897 71.3735 444.584 71.3735C444.272 71.3735 443.855 71.3735 443.335 71.4767C442.398 71.58 441.46 71.6832 440.419 71.8896C439.378 72.096 438.44 72.1992 437.503 72.4057C436.462 72.6121 435.42 72.8185 434.275 73.025Z" fill="#242E3F"/>
<path d="M282.963 127.316C282.963 126.8 282.963 126.18 282.963 125.664C282.963 125.045 282.963 124.529 282.963 123.91C281.818 124.735 280.672 125.355 279.527 125.767C278.381 126.18 277.34 126.387 276.402 126.593C275.257 126.8 274.216 126.8 273.07 126.8C271.091 126.696 269.217 126.18 267.447 125.458C265.676 124.735 264.114 123.703 262.865 122.465C261.511 121.123 260.469 119.575 259.74 117.717C259.012 115.859 258.699 113.795 258.803 111.421C259.011 109.047 259.428 106.879 260.261 105.021C261.094 103.06 262.136 101.512 263.594 100.17C264.947 98.8285 266.718 97.8995 268.696 97.2803C270.675 96.661 272.966 96.4546 275.465 96.5578C275.465 96.5578 275.882 96.5578 276.298 96.661C276.819 96.661 277.444 96.8674 278.173 97.0738C278.902 97.2803 279.735 97.5899 280.568 98.0028C281.401 98.4156 282.338 98.9317 283.171 99.551L282.963 95.9385H294.627C294.002 101.615 293.377 107.189 292.96 112.659C292.856 114.001 292.752 115.24 292.648 116.478C292.648 117.613 292.544 118.852 292.44 119.987C292.44 121.123 292.44 122.361 292.231 123.6C292.231 124.838 292.231 126.077 292.127 127.419H282.651L282.963 127.316ZM269.738 119.162C272.029 119.162 274.424 119.265 276.611 119.162C278.902 119.162 281.089 118.955 283.38 118.749C283.484 116.375 283.588 114.001 283.588 111.73C283.588 109.46 283.588 107.189 283.588 104.815H281.922C280.047 104.505 278.069 104.505 276.194 104.402C274.32 104.402 272.341 104.402 270.362 104.608C269.946 106.673 269.738 108.634 269.529 110.698C269.529 111.524 269.529 112.246 269.425 112.866C269.425 113.485 269.425 114.207 269.425 114.827C269.425 115.446 269.425 116.168 269.529 116.891C269.529 117.613 269.634 118.336 269.738 119.058V119.162Z" fill="#242E3F"/>
<path d="M410.011 110.698C410.011 110.079 409.803 109.46 409.698 108.84C409.594 108.221 409.49 107.602 409.386 106.982C408.449 108.118 407.303 109.15 406.158 109.872C405.012 110.595 403.971 111.111 402.929 111.524C401.784 112.04 400.638 112.35 399.389 112.556C397.202 112.866 395.119 112.866 393.036 112.556C390.954 112.246 389.079 111.524 387.309 110.388C385.538 109.356 384.081 107.911 382.831 106.053C381.581 104.196 380.748 102.028 380.227 99.4477C379.811 96.8674 379.811 94.3902 380.227 92.2227C380.644 89.952 381.373 87.991 382.623 86.2363C383.768 84.4817 385.434 83.0367 387.413 81.9013C389.392 80.766 391.787 79.9403 394.494 79.5274C394.494 79.5274 394.911 79.5274 395.432 79.5274C396.056 79.5274 396.785 79.5274 397.618 79.5274C398.452 79.5274 399.389 79.6306 400.43 79.9403C401.472 80.1467 402.513 80.4563 403.554 80.9724L402.409 77.1535L415.009 74.4699C415.634 80.6628 416.467 86.7524 417.3 92.7388C417.509 94.1838 417.717 95.6288 417.925 96.9706C418.134 98.3124 418.342 99.5509 418.55 100.893C418.758 102.131 419.071 103.473 419.279 104.815C419.487 106.053 419.8 107.498 420.112 108.943L409.803 111.111L410.011 110.698ZM393.765 105.228C396.265 104.712 398.764 104.196 401.263 103.576C403.658 102.957 406.054 102.235 408.449 101.512C408.032 98.9317 407.511 96.3513 406.991 93.8742C406.47 91.397 405.845 88.9199 405.22 86.4428L403.346 86.7524C401.263 87.062 399.18 87.4749 397.098 87.8878C395.015 88.3006 392.932 88.8167 390.849 89.436C390.849 91.7067 391.162 93.9774 391.474 96.2481C391.578 97.0738 391.787 97.8995 391.891 98.622C391.995 99.3445 392.203 100.067 392.412 100.79C392.62 101.512 392.828 102.235 393.036 102.957C393.245 103.68 393.557 104.505 393.869 105.331L393.765 105.228Z" fill="#242E3F"/>
<path d="M337.114 89.8489C337.323 92.5324 337.219 95.0096 336.698 97.2803C336.177 99.4478 335.24 101.409 334.094 103.06C332.845 104.712 331.283 105.95 329.304 106.982C327.43 108.015 325.139 108.531 322.639 108.84C321.181 108.84 319.723 108.84 318.265 108.634C317.641 108.634 317.016 108.427 316.287 108.221C315.662 108.015 314.933 107.808 314.308 107.498C313.683 107.189 312.954 106.879 312.33 106.466C311.705 106.053 311.08 105.537 310.559 105.021C310.976 108.737 311.392 112.35 311.809 116.065C312.226 119.678 312.746 123.187 313.267 126.593L300.666 126.903C300.562 122.981 300.354 118.955 300.146 114.723C299.937 110.492 299.625 106.157 299.417 101.822C299.104 97.4867 298.792 93.1517 298.479 88.9199C298.167 84.6881 297.75 80.5596 297.438 76.6374L308.477 75.6053C308.477 76.9471 308.477 78.2889 308.477 79.6307C308.893 79.0114 309.414 78.4953 310.039 78.0824C310.663 77.5664 311.184 77.1535 311.809 76.8439C312.434 76.431 313.059 76.1214 313.683 75.9149C314.308 75.6053 314.933 75.3989 315.558 75.1924C316.912 74.7796 318.266 74.4699 319.723 74.2635C320.973 74.1603 322.223 74.2635 323.472 74.4699C324.722 74.6764 325.972 75.0892 327.221 75.6053C328.471 76.1214 329.616 76.8439 330.762 77.7728C331.908 78.5985 332.845 79.6307 333.782 80.8692C334.719 82.1078 335.448 83.4496 335.969 84.8946C336.594 86.3396 336.906 87.991 337.114 89.8489ZM310.143 100.79C311.809 100.996 313.267 101.202 314.725 101.202C316.183 101.202 317.641 101.202 319.203 100.996C320.14 100.996 321.077 100.79 322.119 100.686C323.16 100.583 324.201 100.377 325.347 100.17C325.347 99.1381 325.347 98.2092 325.347 97.2803C325.347 96.3513 325.243 95.3192 325.139 94.3903C324.93 92.4292 324.722 90.4681 324.41 88.6103C324.097 86.6492 323.681 84.7914 323.16 82.8303C321.077 82.8303 319.203 82.9335 317.641 83.1399C316.912 83.1399 316.183 83.3464 315.454 83.4496C314.725 83.4496 313.996 83.656 313.371 83.7592C312.642 83.8624 311.913 83.9656 311.184 84.0689C310.455 84.1721 309.726 84.3785 308.893 84.4817C309.206 89.1264 309.622 93.9774 310.039 98.8285L310.247 100.893L310.143 100.79Z" fill="#242E3F"/>
<path d="M201.527 79.9403C192.572 79.8371 186.844 83.7592 186.636 97.4867C186.427 112.659 194.55 113.795 203.61 113.898C215.586 114.104 218.814 105.847 217.356 99.1381H210.587C210.067 100.17 212.045 107.292 202.152 106.673C195.904 106.26 193.821 104.299 193.925 97.5899C194.03 89.6424 195.696 86.546 201.423 86.6492C207.672 86.6492 208.296 89.1264 209.234 89.7457L205.068 92.7389L218.606 95.0096L219.856 82.6239L215.69 85.6171C213.607 84.1721 212.149 80.5596 201.736 79.8371L201.527 79.9403Z" fill="#242E3F"/>
<path d="M70.1059 70.2382C66.5652 69.9285 62.9204 69.7221 59.3798 69.3092C57.0887 68.9996 54.4853 68.9996 52.1943 68.4835C51.6736 68.3803 53.0274 68.69 53.1315 68.69C53.7563 68.69 54.4853 68.69 55.006 69.1028" stroke="#956F43" stroke-width="3" stroke-linecap="round"/>
<path d="M62.1915 70.2382C61.8791 71.8896 61.6708 73.6442 61.2542 75.2956C61.1501 75.8117 60.8377 76.3278 61.4625 75.8117" stroke="#956F43" stroke-width="3" stroke-linecap="round"/>
<path d="M67.8149 77.876C63.9618 77.4632 60.1087 76.9471 56.2557 76.6375C55.4226 76.6375 54.5895 76.5343 53.7564 76.431C53.7564 76.431 51.8819 76.431 52.6108 76.3278" stroke="#956F43" stroke-width="3" stroke-linecap="round"/>
<path d="M51.6736 80.4564C54.4853 80.6628 56.6722 81.2821 59.2756 82.4174C60.7336 83.0367 61.5667 84.0689 61.3584 85.8235C60.8377 90.2617 53.1315 89.7456 50.424 89.8489" stroke="#956F43" stroke-width="3" stroke-linecap="round"/>
<path d="M56.2556 82.3142C55.7349 84.5849 55.5266 87.0621 55.4225 89.3328" stroke="#956F43" stroke-width="3" stroke-linecap="round"/>
<path d="M59.9005 98.5189C61.046 91.7067 53.3398 93.1517 51.153 94.2871C47.2999 97.6932 51.6736 101.099 53.2357 100.48" stroke="#956F43" stroke-width="3" stroke-linecap="round"/>
<path d="M63.3369 105.331C59.7963 105.641 56.2556 105.744 52.2984 104.815C51.257 104.608 48.6536 103.989 47.6122 103.783M60.0045 111.524C58.7549 111.317 55.9432 113.795 53.9646 105.95M54.1728 106.053C52.9232 113.382 51.7777 111.421 48.0287 110.079" stroke="#956F43" stroke-width="3" stroke-linecap="round"/>
<path d="M55.8391 129.277C59.0673 129.07 60.2129 123.393 57.5053 120.916C56.1515 119.781 53.1315 116.994 46.8833 119.987C42.5095 122.774 44.384 127.316 48.5495 128.141" stroke="#956F43" stroke-width="3" stroke-linecap="round"/>
<path d="M55.5267 134.437C53.3398 133.818 47.9246 132.373 45.8419 131.547C45.5295 131.547 44.5922 130.928 44.2798 131.238C43.4467 132.063 43.0302 135.057 43.1343 136.089" stroke="#956F43" stroke-width="3" stroke-linecap="round"/>
<path d="M49.1743 141.559C47.2998 138.876 42.926 139.185 42.4053 141.146C40.635 147.236 45.3212 146.41 47.9246 145.791" stroke="#956F43" stroke-width="3" stroke-linecap="round"/>
<path d="M49.3826 151.984C46.2584 151.365 36.9902 149.507 40.1143 150.229" stroke="#956F43" stroke-width="3" stroke-linecap="round"/>
<path d="M48.966 152.19C49.0702 153.842 50.0074 157.248 47.404 157.454C45.4253 157.557 45.0088 156.216 44.4881 154.564C44.384 154.151 43.9674 150.642 44.0715 152.706C44.0715 154.461 43.8633 155.803 42.3012 156.732C39.2812 158.693 36.7819 155.183 37.4067 152.293C37.615 151.364 38.2398 150.745 38.7605 150.023" stroke="#956F43" stroke-width="3" stroke-linecap="round"/>
<path d="M59.588 202.765C59.588 202.765 58.6508 202.352 56.9846 201.423C56.4639 202.146 55.9432 202.868 55.4225 203.384C55.006 203.9 54.5894 204.313 54.1729 204.726C53.8605 204.726 53.5481 204.726 53.1315 204.52C52.4025 204.107 52.0901 203.694 52.1943 203.178C52.6108 202.455 53.3398 201.527 54.4853 200.185C53.8605 199.772 53.4439 199.565 53.1315 199.462C52.9232 199.256 52.7149 199.153 52.5067 199.049C52.4025 199.049 52.1943 198.843 51.986 198.74C51.7777 198.637 51.3612 198.327 50.8405 198.017C50.6322 197.914 50.4239 197.708 50.1115 197.501C49.9032 197.295 49.5908 196.985 49.3825 196.779C49.1743 196.469 48.966 196.263 48.7577 195.953C48.5494 195.747 48.4453 195.54 48.4453 195.334C48.4453 195.127 48.5495 194.921 48.6536 194.714C48.966 194.198 49.4867 193.579 50.3198 193.063C50.9446 192.857 51.986 192.134 53.3398 190.999L57.5053 188.831C57.8177 188.831 58.026 188.831 58.3384 189.038C59.0673 189.45 59.2756 189.967 58.9632 190.586C58.9632 190.586 58.8591 190.689 58.6508 190.895C58.4425 191.102 58.1301 191.308 57.7135 191.515C57.297 191.824 56.8804 192.031 56.3598 192.34C55.8391 192.65 55.3184 192.96 54.6936 193.269L51.5694 195.54C51.5694 195.54 51.5694 195.747 51.7777 195.747C51.8819 195.747 52.0901 195.85 52.0901 195.85H52.1943C52.1943 195.85 52.4025 195.85 52.5067 195.953C52.6108 195.953 52.715 195.953 52.8191 196.159C53.0274 196.263 53.2356 196.366 53.4439 196.572C53.6522 196.675 53.8605 196.882 54.1729 197.088C54.6936 197.398 55.3184 197.708 55.9432 198.017L57.297 196.056C57.297 195.85 57.4011 195.747 57.5053 195.54C57.5053 195.334 57.7136 195.23 57.8177 195.024C58.026 194.611 58.3384 194.302 58.5467 193.992C58.8591 193.682 59.0673 193.269 59.2756 192.857C59.2756 192.753 59.4839 192.547 59.588 192.237C59.6922 191.928 59.9004 191.618 60.0046 191.308C60.2129 190.999 60.317 190.689 60.4211 190.483C60.5253 190.173 60.6294 190.07 60.6294 190.07C61.046 189.76 61.4625 189.657 61.9832 189.967C61.9832 189.967 62.0873 190.07 62.1915 190.07C62.1915 190.07 62.2956 190.173 62.3997 190.276C62.5039 190.276 62.608 190.379 62.7122 190.483C62.7122 190.483 62.7122 190.792 62.608 191.102C62.608 191.412 62.5039 191.721 62.2956 192.134C62.1915 192.444 62.0873 192.857 61.879 193.269C61.7749 193.682 61.5666 193.992 61.4625 194.198C61.3584 194.508 61.1501 194.818 60.9418 195.127C60.7335 195.437 60.4211 195.953 60.1087 196.469C60.1087 196.469 60.0046 196.675 59.7963 196.985C59.6922 197.192 59.4839 197.501 59.1715 197.914C58.9632 198.327 58.6508 198.74 58.2342 199.256H58.5467C58.7549 199.565 59.0673 199.772 59.3798 199.978C59.6922 200.185 60.0046 200.391 60.4211 200.701C60.7335 201.01 60.7335 201.527 60.4211 202.043C60.2129 202.455 59.7963 202.765 59.4839 202.765H59.588ZM67.7107 211.125C67.6066 211.125 67.5025 211.125 67.3983 211.125C67.3983 211.125 67.1901 211.125 67.0859 211.022H66.9818L66.357 210.609C66.2528 210.609 66.1487 210.506 65.9404 210.403C65.9404 210.403 65.7321 210.197 65.628 210.197C65.5239 210.197 65.3156 210.093 65.2115 209.99C65.1073 209.99 64.899 209.784 64.7949 209.68C64.5866 209.577 64.3784 209.371 64.0659 209.061C63.7535 208.752 63.337 208.442 62.9204 208.132C62.8163 208.132 62.7122 208.029 62.608 207.926C62.5039 207.926 62.3997 207.823 62.2956 207.719C62.1915 207.719 61.4625 207.1 60.317 206.171C60.2128 205.552 60.2128 205.036 60.317 204.726C60.5253 204.417 60.7335 204.107 61.0459 203.9C61.6708 203.797 62.1915 203.591 62.5039 203.488C62.8163 203.384 63.2328 203.281 63.4411 203.075C64.0659 202.765 64.7949 202.455 65.3156 202.249C65.9404 202.043 66.5652 201.836 67.1901 201.63C67.1901 201.63 67.3983 201.63 67.6066 201.423C67.8149 201.32 68.1273 201.217 68.3356 201.114C68.5439 201.01 68.8563 200.907 69.0645 200.804C69.377 200.701 69.5852 200.598 69.6894 200.494C70.4183 200.288 71.0431 199.772 71.3556 199.153C71.668 198.533 71.5638 198.017 70.939 197.708C70.7307 197.604 70.4183 197.501 70.1059 197.398C69.7935 197.398 69.4811 197.192 69.1687 197.192C68.8563 197.192 68.5438 197.192 68.2314 197.192C67.919 197.192 67.7108 197.192 67.5025 197.398C67.3983 197.398 67.0859 197.604 66.8777 197.811C66.6694 198.017 66.357 198.224 66.0445 198.327C65.7321 198.533 65.4197 198.637 65.1073 198.637C64.7949 198.637 64.5866 198.637 64.2742 198.637C63.9618 198.43 63.7535 198.12 63.5453 197.708C63.4411 197.295 63.5453 196.882 63.6494 196.572C63.6494 196.366 63.9618 196.159 64.2742 195.953C64.5866 195.747 65.0032 195.437 65.4197 195.23C65.8363 195.024 66.2528 194.818 66.6694 194.714C67.0859 194.611 67.5025 194.508 67.7107 194.611C69.2728 194.611 70.7307 195.024 72.2928 195.85C72.9176 196.159 73.3342 196.572 73.5425 196.882C73.8549 197.295 74.0631 197.708 74.0631 198.12C74.0631 198.533 74.0631 198.946 74.0631 199.359C73.959 199.772 73.7507 200.185 73.5425 200.598C72.9176 201.733 71.9804 202.455 70.939 202.765C70.6266 202.765 70.3142 202.972 70.0018 203.075C69.6894 203.178 69.377 203.384 69.1687 203.488C68.9604 203.591 68.7521 203.694 68.5439 203.797C68.3356 203.797 68.2314 204.004 68.1273 204.004C67.919 204.004 66.7735 204.417 64.899 205.242L63.7535 205.552C64.3784 205.862 64.899 206.274 65.2115 206.584C65.628 206.894 65.8363 206.997 65.8363 206.997C66.1487 207.203 66.4611 207.41 66.9818 207.616C67.3983 207.823 67.919 208.132 68.5439 208.442C68.7521 208.545 68.8563 208.855 68.8563 209.268C68.8563 209.68 68.8563 210.093 68.5439 210.403C68.2314 210.919 67.919 211.125 67.6066 211.022L67.7107 211.125ZM78.7493 217.421C78.6452 217.421 78.5411 217.421 78.4369 217.421C78.4369 217.421 78.2286 217.422 78.1245 217.318H78.0204L77.3955 216.905C77.2914 216.905 77.1873 216.802 76.979 216.699C76.979 216.699 76.7707 216.493 76.6666 216.493C76.5624 216.493 76.3542 216.286 76.25 216.286C76.1459 216.286 75.9376 216.08 75.8335 215.977C75.6252 215.873 75.4169 215.667 75.1045 215.357C74.7921 215.048 74.3755 214.738 73.959 214.428C73.8549 214.428 73.7507 214.325 73.6466 214.222C73.5425 214.222 73.4383 214.119 73.3342 214.015C73.23 214.015 72.5011 213.396 71.3556 212.467C71.2514 211.848 71.2514 211.332 71.3556 211.022C71.5638 210.713 71.7721 210.403 72.0845 210.197C72.7094 210.093 73.23 209.887 73.5425 209.784C73.959 209.68 74.2714 209.577 74.4797 209.371C75.1045 209.061 75.8335 208.752 76.3542 208.545C76.979 208.339 77.6038 208.132 78.2286 207.926C78.2286 207.926 78.4369 207.926 78.6452 207.719C78.8535 207.616 79.1659 207.513 79.3742 207.41C79.5824 207.307 79.8948 207.203 80.1031 207.1C80.4155 206.997 80.6238 206.894 80.7279 206.79C81.4569 206.584 82.0817 206.068 82.3941 205.449C82.7066 204.829 82.6024 204.313 81.9776 204.004C81.7693 203.9 81.4569 203.797 81.1445 203.694C80.8321 203.694 80.5197 203.488 80.2073 203.488C79.8948 203.488 79.5824 203.488 79.27 203.488C78.9576 203.488 78.7493 203.488 78.5411 203.694C78.4369 203.694 78.1245 203.9 77.9162 204.107C77.708 204.313 77.3955 204.52 77.0831 204.623C76.7707 204.829 76.4583 204.933 76.1459 204.933C75.8335 204.933 75.6252 204.933 75.3128 204.829C75.0004 204.623 74.7921 204.313 74.5838 203.9C74.4797 203.488 74.5838 203.075 74.688 202.765C74.688 202.559 75.0004 202.352 75.3128 202.146C75.6252 201.939 76.0418 201.63 76.4583 201.423C76.8749 201.217 77.2914 201.01 77.708 200.907C78.1245 200.804 78.5411 200.701 78.7493 200.804C80.3114 200.804 81.7693 201.217 83.3314 202.043C83.9562 202.352 84.3728 202.765 84.581 203.075C84.8934 203.488 85.1017 203.9 85.1017 204.313C85.1017 204.726 85.1017 205.139 85.1017 205.552C84.9976 205.965 84.7893 206.378 84.581 206.79C83.9562 207.926 83.019 208.648 81.9776 208.958C81.6652 208.958 81.3528 209.164 81.0404 209.268C80.7279 209.371 80.4155 209.577 80.2073 209.68C79.999 209.784 79.7907 209.887 79.5824 209.99C79.3742 209.99 79.27 210.197 79.1659 210.197C78.9576 210.197 77.8121 210.609 75.9376 211.435L74.7921 211.745C75.4169 212.054 75.9376 212.467 76.25 212.777C76.6666 213.087 76.8749 213.19 76.8749 213.19C77.1873 213.396 77.4997 213.603 78.0204 213.809C78.4369 214.015 78.9576 214.325 79.5824 214.635C79.7907 214.738 79.8948 215.048 79.8948 215.46C79.8948 215.873 79.8948 216.286 79.5824 216.596C79.27 217.112 78.9576 217.318 78.6452 217.215L78.7493 217.421ZM89.7879 221.653C89.4755 221.86 89.2672 222.066 88.9548 222.169C88.6424 222.376 88.33 222.479 87.9134 222.582C87.4969 222.685 86.9762 222.789 86.4555 222.892C85.9348 222.995 85.1017 223.098 84.2686 223.201C82.1859 223.201 80.7279 222.995 80.1031 222.582C79.7907 222.376 79.5824 222.169 79.6866 221.963C79.6866 221.757 79.8948 221.447 80.1031 221.137C80.3114 220.828 80.5197 220.621 80.8321 220.621C81.1445 220.621 81.4569 220.518 81.8735 220.415C82.29 220.415 82.7066 220.415 83.2272 220.415C83.7479 220.415 84.2686 220.415 84.7893 220.415C84.7893 220.415 85.1017 220.415 85.31 220.415C85.5183 220.415 85.8307 220.415 86.2472 220.208L87.9134 219.589C88.5383 219.279 89.0589 218.867 89.3714 218.35C89.5796 217.938 89.7879 217.422 89.6838 217.009C89.6838 216.493 89.6838 216.08 89.4755 215.667C89.2672 215.254 89.0589 214.944 88.7465 214.635C88.4341 214.325 88.2258 214.119 87.9134 213.912C87.7052 213.809 87.4969 213.706 87.2886 213.603C87.0803 213.603 86.8721 213.396 86.6638 213.293C86.5596 213.293 86.4555 213.087 86.2472 212.983C86.039 212.88 85.9348 212.674 85.7265 212.467C85.6224 212.261 85.5183 212.054 85.4141 211.848C85.4141 211.642 85.4141 211.435 85.4141 211.229C85.4141 211.125 85.5183 211.022 85.6224 210.919L86.1431 210.197C86.2472 209.99 86.4555 209.68 86.7679 209.371C87.0803 209.061 87.3927 208.648 87.7052 208.339C88.0176 208.029 88.2258 207.719 88.4341 207.41C88.6424 207.203 88.7465 207.1 88.7465 207.1C89.1631 206.274 89.5796 205.758 89.892 205.552C90.2045 205.345 90.5169 205.345 90.8293 205.552C91.2458 205.758 91.6624 206.068 91.9748 206.481C92.2872 206.79 92.5996 207.1 92.912 207.203C92.912 207.203 92.912 207.203 93.0162 207.203C93.0162 207.203 93.0162 207.203 93.1203 207.203C93.1203 207.203 93.3286 207.307 93.641 207.513C93.9534 207.719 94.2658 207.926 94.5782 208.235C94.8906 208.545 95.2031 208.752 95.5155 208.958C95.8279 209.164 95.932 209.268 95.932 209.268C96.3486 209.68 96.3486 210.197 95.932 210.816C95.5155 211.538 94.9948 211.745 94.37 211.435C94.1617 211.332 93.9534 211.125 93.641 210.919C93.3286 210.713 92.912 210.506 92.4955 210.197C92.2872 210.197 92.0789 209.887 91.7665 209.68C91.4541 209.371 91.2458 209.268 91.0376 209.164C90.8293 209.164 90.7251 209.061 90.621 209.061C90.4127 209.371 90.1003 209.68 89.7879 209.99C89.4755 210.3 89.0589 210.713 88.7465 211.229C89.1631 211.435 89.5796 211.745 89.9962 212.054C90.4127 212.364 90.8293 212.777 91.2458 213.293C91.6624 213.809 91.8707 214.325 92.0789 215.048C92.2872 215.667 92.3913 216.493 92.2872 217.421C92.2872 218.454 91.9748 219.176 91.6624 219.795C91.35 220.311 90.7251 220.931 89.892 221.653H89.7879Z" fill="#956F43"/>
<path d="M74.1674 64.9743C71.0432 64.7679 51.7778 65.9032 48.5495 65.6968C45.4254 65.4904 26.0558 160.035 29.2841 160.757C32.5123 161.48 53.5481 166.021 56.5681 165.195C59.5881 164.37 77.2915 65.284 74.1674 65.0775V64.9743Z" stroke="#956F43" stroke-width="2"/>
<path d="M224.542 161.686C224.125 163.957 223.396 165.711 222.251 167.156C221.105 168.498 219.647 169.633 217.877 170.253C216.107 170.975 214.128 171.285 211.837 171.388C209.546 171.388 207.151 171.285 204.652 170.872C202.152 170.459 202.256 170.356 201.111 169.943C199.861 169.53 198.716 169.014 197.57 168.292C196.425 167.569 195.383 166.847 194.342 165.918C193.405 164.989 192.468 163.957 191.843 162.821C191.114 161.686 190.593 160.344 190.177 158.899C189.76 157.454 189.656 155.906 189.76 154.254L201.111 155.906C201.007 156.422 200.903 156.835 200.799 157.351L200.486 158.899C200.278 160.344 200.07 161.892 199.861 163.544C200.903 163.853 201.84 164.06 202.881 164.266C203.923 164.473 204.86 164.679 205.901 164.886C206.943 165.092 207.984 165.195 208.921 165.298C209.963 165.402 211.004 165.505 212.045 165.505C212.254 164.886 212.358 164.369 212.566 163.853C212.67 163.337 212.879 162.718 212.983 162.202C213.191 161.273 213.191 160.344 213.295 159.312C213.295 158.28 213.295 157.351 213.295 156.319C212.15 156.009 210.692 155.596 209.234 155.183C207.672 154.771 206.11 154.254 204.548 153.635C202.985 153.016 201.423 152.293 199.965 151.468C198.508 150.642 197.154 149.713 196.112 148.578C195.071 147.442 194.238 146.204 193.717 144.656C193.197 143.211 193.092 141.456 193.405 139.598C193.717 137.74 194.03 137.121 194.759 136.089C195.488 135.057 196.217 134.231 197.258 133.508C198.195 132.786 199.341 132.27 200.59 131.754C201.84 131.341 203.09 130.928 204.339 130.722C205.693 130.515 206.943 130.412 208.296 130.412C209.65 130.412 210.9 130.515 212.045 130.722C214.649 131.134 216.94 131.96 218.71 133.096C220.585 134.231 222.043 135.573 223.188 137.121C224.334 138.669 225.167 140.321 225.583 142.075C226.104 143.83 226.208 145.481 226.104 147.133L214.024 146.41C214.232 145.791 214.336 145.172 214.545 144.449C214.649 143.83 214.857 143.107 214.961 142.488C215.17 141.043 215.378 139.495 215.378 137.947C214.753 137.74 214.232 137.637 213.607 137.431C212.983 137.327 212.462 137.224 211.837 137.121C209.546 136.708 207.047 136.605 204.652 136.811C204.548 137.224 204.443 137.637 204.339 138.05L204.131 139.288C203.923 140.527 203.819 141.662 203.714 142.901C203.61 144.139 203.61 145.275 203.714 146.513C205.068 146.926 206.63 147.442 208.296 147.855C209.963 148.371 211.525 148.887 213.191 149.507C214.857 150.126 216.419 150.848 217.877 151.674C219.335 152.5 220.585 153.326 221.73 154.358C222.772 155.39 223.605 156.422 224.125 157.661C224.646 158.899 224.854 160.241 224.542 161.789V161.686Z" fill="#242E3E"/>
<path d="M272.029 142.385C270.362 147.03 268.696 151.055 267.238 154.358C265.676 157.661 264.322 160.447 263.177 162.615C261.823 165.092 260.469 167.156 259.22 168.808C259.22 169.221 259.22 169.633 259.22 170.15C259.22 170.666 259.22 171.182 259.22 171.801C259.22 172.73 259.324 173.762 259.532 174.897C259.636 176.033 259.74 177.065 259.949 178.097C260.053 179.129 260.261 180.058 260.365 180.884C260.469 181.709 260.678 182.329 260.782 182.845L246.203 184.083C246.203 183.774 246.203 183.258 246.307 182.638C246.307 181.916 246.307 181.193 246.411 180.368C246.515 179.542 246.411 178.613 246.411 177.684C246.411 176.755 246.411 175.826 246.411 175.001C246.411 174.175 246.411 173.452 246.411 172.833C246.411 172.214 246.411 171.801 246.411 171.594C245.578 170.459 244.64 169.221 243.703 167.982C242.766 166.64 241.725 165.298 240.683 163.853C239.642 162.408 238.6 160.86 237.559 159.312C236.518 157.764 235.476 156.216 234.435 154.667C233.394 153.119 232.352 151.571 231.415 150.023C230.374 148.475 229.436 147.03 228.603 145.585L243.495 145.172C243.911 146.307 244.536 147.649 245.161 149.094C245.89 150.539 246.619 152.19 247.452 153.842C248.285 155.493 249.223 157.248 250.264 159.002C251.305 160.757 252.347 162.512 253.388 164.163C254.534 161.789 255.575 159.415 256.512 156.938C256.929 155.906 257.345 154.771 257.866 153.635C258.282 152.5 258.699 151.365 259.116 150.126C259.532 148.887 259.949 147.752 260.261 146.617C260.573 145.481 260.886 144.346 261.198 143.211L271.924 142.488L272.029 142.385Z" fill="#242E3E"/>
<path d="M288.378 145.068C290.461 145.172 292.544 145.481 294.731 145.894C296.917 146.307 299 146.823 300.979 147.442C302.957 148.165 304.936 148.991 306.706 150.126C308.477 151.261 310.039 152.5 311.288 154.048C312.538 155.596 313.475 157.351 314.204 159.518C314.933 161.686 315.037 163.957 314.933 166.743C314.829 169.53 314.204 171.698 313.371 173.659C312.538 175.62 311.393 177.374 310.143 178.819C308.789 180.264 307.331 181.503 305.665 182.432C303.999 183.361 302.228 184.187 300.354 184.703C298.48 185.219 296.501 185.632 294.522 185.735C292.544 185.941 290.565 185.941 288.691 185.735C286.816 185.528 285.254 185.425 283.796 185.219C282.442 185.012 281.193 184.909 280.255 184.703C279.11 184.496 278.173 184.29 277.34 184.083C277.756 180.677 278.277 177.271 278.693 173.968C279.11 170.562 279.422 167.156 279.735 163.75C280.047 160.344 279.943 160.447 280.047 158.899C280.047 157.351 280.151 155.803 280.255 154.358C280.255 152.809 280.255 151.364 280.255 149.816C280.255 148.268 280.255 146.72 280.255 144.965C281.713 144.759 283.171 144.759 284.525 144.759C285.983 144.759 287.233 144.759 288.482 144.965L288.378 145.068ZM301.604 178.613C302.124 176.858 302.437 174.897 302.853 172.936C303.166 170.975 303.374 168.911 303.582 166.847C303.791 164.782 303.791 162.408 303.791 160.241C303.791 158.073 303.686 155.906 303.478 153.945C302.541 153.635 301.5 153.326 300.354 153.016C299.417 152.706 298.271 152.5 296.917 152.293C295.564 152.087 294.21 151.881 292.648 151.777H291.711C291.398 151.777 291.086 151.777 290.773 151.777V153.326C290.565 154.048 290.565 154.874 290.461 155.906C290.461 156.938 290.357 158.073 290.253 159.415C290.253 160.757 290.044 162.099 289.94 163.544C289.94 164.989 289.732 166.434 289.732 167.879C289.732 169.324 289.628 170.872 289.524 172.317C289.524 173.762 289.524 175.207 289.42 176.549C289.315 177.891 289.42 179.129 289.42 180.264C291.086 180.264 292.544 180.264 294.106 180.161C295.564 180.058 296.917 179.852 298.063 179.645C299.417 179.439 300.666 179.129 301.812 178.923L301.604 178.613Z" fill="#242E3E"/>
<path d="M353.464 137.947C352.943 142.591 352.423 147.029 352.11 151.468C351.902 153.326 351.798 155.287 351.59 157.351C351.381 159.415 351.277 161.376 351.173 163.337C351.069 165.298 350.965 167.259 350.861 169.117C350.861 170.975 350.756 172.627 350.756 174.175C349.611 174.278 348.465 174.381 347.424 174.381C346.383 174.381 345.341 174.381 344.3 174.381C343.259 174.381 343.154 174.381 342.634 174.381C342.009 174.381 341.384 174.381 340.759 174.381L327.638 147.546C327.638 148.578 327.638 149.816 327.638 151.158C327.638 152.5 327.638 153.842 327.638 155.287C327.638 156.732 327.638 158.177 327.742 159.622C327.846 161.067 327.742 162.512 327.846 163.957C327.846 167.259 327.95 170.562 328.055 173.968C327.117 173.968 326.18 173.968 325.139 173.968C324.306 173.968 323.264 173.968 322.223 174.072C321.181 174.072 320.14 174.175 319.099 174.278C319.203 172.73 319.307 170.975 319.411 169.014C319.411 167.053 319.515 164.989 319.619 162.924C319.619 160.757 319.619 158.589 319.724 156.422C319.724 154.254 319.724 152.087 319.724 150.023C319.724 147.958 319.724 145.894 319.724 144.036C319.724 142.178 319.724 140.63 319.619 139.288C320.869 139.288 322.119 139.495 323.264 139.495C324.41 139.495 325.555 139.495 326.701 139.495C327.846 139.495 328.992 139.495 330.241 139.495C331.491 139.495 332.637 139.392 333.886 139.288C334.615 141.249 335.344 143.107 336.177 144.862C337.01 146.617 337.948 148.474 338.781 150.229C339.718 151.984 340.551 153.738 341.488 155.493C342.425 157.248 343.259 159.105 344.092 160.963C344.092 159.931 344.092 158.796 344.092 157.661C344.092 156.422 344.092 155.183 344.092 153.945C344.092 152.706 344.092 151.364 344.092 150.126C344.092 148.887 344.092 147.546 344.196 146.41C344.196 143.623 344.404 140.733 344.508 137.843C345.341 137.843 346.07 137.947 346.799 138.05C347.424 138.05 348.153 138.05 348.778 138.05C349.403 138.05 350.132 138.05 350.756 138.05C351.485 138.05 352.319 138.05 353.256 137.843L353.464 137.947Z" fill="#242E3E"/>
<path d="M383.143 152.603C381.998 152.706 380.852 152.913 379.707 153.016C378.561 153.222 377.416 153.326 376.374 153.635C375.333 153.945 374.188 154.048 373.146 154.358C372.105 154.564 370.959 154.874 369.918 155.183L370.751 159.518C370.959 160.551 371.168 161.479 371.376 162.512C371.584 163.441 371.792 164.369 372.001 165.195C373.146 164.989 374.292 164.679 375.541 164.473L379.394 163.75C380.644 163.544 381.894 163.234 383.143 163.028C384.393 162.821 385.434 162.615 386.372 162.408C387.413 162.202 388.454 161.996 389.392 161.892C389.392 162.099 389.392 162.408 389.392 162.718C389.392 162.924 389.392 163.234 389.496 163.647C389.496 163.957 389.6 164.369 389.704 164.782C389.808 165.195 389.912 165.918 390.121 166.537C390.225 167.156 390.433 167.776 390.641 168.395C389.912 168.395 389.287 168.601 388.558 168.704L386.58 169.117C382.414 169.943 378.353 170.769 374.396 171.594C370.439 172.42 366.377 173.452 362.316 174.484C362.316 173.968 362.108 173.246 361.899 172.317C361.691 171.388 361.587 170.356 361.379 169.014C361.17 167.776 360.962 166.434 360.65 164.886C360.441 163.441 360.129 161.892 359.921 160.241C359.608 158.589 359.4 156.938 359.088 155.287C358.775 153.635 358.567 151.984 358.254 150.332C357.942 148.681 357.734 147.133 357.421 145.584C357.109 144.036 356.901 142.694 356.588 141.353C356.276 140.011 356.172 138.979 355.963 138.05C355.755 137.121 355.547 136.295 355.443 135.676C357.213 135.366 358.983 135.057 360.754 134.747C362.524 134.437 364.294 134.128 366.169 133.818C368.876 133.302 371.584 132.786 374.396 132.167C377.103 131.547 379.915 130.825 382.727 129.999C382.727 130.618 382.727 131.134 382.831 131.754C382.831 132.27 383.039 132.786 383.039 133.302C383.039 133.818 383.247 134.231 383.352 134.541C383.352 134.953 383.56 135.263 383.664 135.469C383.664 135.779 383.872 136.089 383.976 136.295C381.998 136.811 380.019 137.224 378.041 137.637C377.208 137.843 376.374 138.05 375.437 138.256C374.5 138.463 373.667 138.669 372.73 138.876C371.792 139.082 370.959 139.288 370.126 139.392C369.293 139.495 368.46 139.701 367.731 139.908C367.835 140.733 367.939 141.662 368.148 142.591C368.252 143.417 368.46 144.346 368.564 145.481C368.772 146.617 368.877 147.855 369.189 149.094C371.272 148.681 373.354 148.165 375.541 147.649C377.624 147.133 379.915 146.617 382.206 145.894C382.206 146.513 382.31 147.236 382.414 147.855C382.414 148.474 382.623 149.197 382.727 149.919C382.831 150.642 382.935 150.848 383.039 151.364C383.143 151.881 383.352 152.293 383.456 152.809L383.143 152.603Z" fill="#242E3E"/>
<path d="M428.339 125.767C426.36 130.309 424.486 134.231 422.715 137.431C420.945 140.63 419.383 143.314 418.029 145.378C416.467 147.752 415.009 149.713 413.656 151.364C413.656 151.777 413.656 152.19 413.656 152.706C413.656 153.222 413.656 153.738 413.656 154.358C413.656 155.287 413.656 156.319 413.656 157.454C413.656 158.589 413.656 159.622 413.76 160.654C413.76 161.686 413.864 162.615 413.968 163.441C413.968 164.266 414.176 164.885 414.176 165.402L399.493 165.711C399.493 165.402 399.597 164.885 399.701 164.266C399.701 163.647 399.909 162.821 400.014 161.995C400.118 161.17 400.222 160.241 400.326 159.312C400.326 158.383 400.43 157.454 400.534 156.628C400.638 155.803 400.638 155.08 400.742 154.461C400.847 153.842 400.742 153.429 400.742 153.222C400.014 152.087 399.18 150.745 398.347 149.403C397.514 148.062 396.577 146.617 395.64 145.068C394.703 143.52 393.765 141.972 392.828 140.321C391.891 138.669 390.954 137.121 390.016 135.469C389.079 133.818 388.142 132.27 387.309 130.618C386.372 128.967 385.643 127.419 384.809 125.974L399.701 126.593C400.118 127.728 400.534 129.173 401.159 130.618C401.784 132.167 402.409 133.818 403.138 135.469C403.867 137.224 404.7 138.979 405.533 140.837C406.366 142.694 407.303 144.449 408.24 146.204C409.49 143.933 410.74 141.559 411.885 139.185C412.406 138.153 412.927 137.121 413.447 135.986C413.968 134.85 414.489 133.715 415.009 132.579C415.53 131.444 415.947 130.309 416.363 129.173C416.78 128.038 417.196 126.903 417.509 125.871H428.235L428.339 125.767Z" fill="#242E3E"/>
</svg>
