<svg xmlns="http://www.w3.org/2000/svg" width="1068.2698" height="150" stroke="null" style="vector-effect:non-scaling-stroke"><path fill="#685f53" d="M14.557 821.478v-8.526h40.564v-25.97H-60.576v25.97h40.478v8.526c.037 39.974-26.031 73.216-49.925 93.842l-.798.664 14.619 20.515.909-.504c20.797-11.154 44.63-41.202 52.59-59.31 7.936 18.108 31.756 48.156 52.554 59.31l.86.504 14.643-20.515-.786-.664c-23.87-20.626-50.023-53.868-50.011-93.842m77.38 177.23h19.484c4.607 0 8.33-1.572 10.86-4.398 2.53-2.776 3.82-6.67 3.82-11.043V772.794H91.938Zm96.78-124.554.97-.27c25.932-6.339 56.14-21.031 72.221-40.17 16.031 19.139 46.215 33.831 72.172 40.17l.97.27 8.145-21.903-1.093-.369c-13.243-4.655-28.476-12.653-40.306-21.817-11.891-9.14-20.196-19.545-20.122-28.476v-1.093h57.025v-25.22H185.117v25.22h56.964v1.093c.086 8.735-8.243 19.115-20.11 28.316-11.83 9.226-27.027 17.322-40.319 21.977l-1.08.369.393 1.142zm-33.243 20.983v25.552h89.334v77.958h20.527c4.275 0 7.826-1.511 10.172-4.238 2.359-2.777 3.526-6.61 3.526-11.204V920.69h89.26v-25.552ZM-384.767 865.286c3.759-7.37 6.02-19.016 6.535-31.571v-58.438h-160.523v25.97h125.352v32.419c.05 8.5-1.08 25.158-2.69 31.62H-573.41v25.945h232.216v-25.945zM-533.19 977.813c0 6.364 1.953 12.322 6.707 16.646 4.779 4.324 12.187 6.904 22.776 6.904h96.975c10.577 0 17.972-2.58 22.714-6.904 4.779-4.324 6.732-10.282 6.732-16.646V913.86H-533.19zm35.515-38.635h84.506v32.014c-.013 2.457-2.138 4.472-4.73 4.472h-75.022c-2.629 0-4.717-2.015-4.754-4.472zM-253.413 849.226c12.224 9.127 28.992 14.766 47.48 14.766 18.55 0 35.319-5.639 47.517-14.766 12.162-9.177 19.79-21.867 19.79-35.982 0-14.078-7.628-26.805-19.79-35.97-12.198-9.14-28.967-14.753-47.517-14.753-18.488 0-35.256 5.614-47.48 14.754-12.186 9.164-19.815 21.89-19.778 35.969-.037 14.115 7.592 26.805 19.778 35.982m24.066-54.409c5.97-4.742 14.262-7.715 23.414-7.715 9.214 0 17.494 2.973 23.452 7.715 5.995 4.791 9.594 11.265 9.594 18.427 0 7.15-3.6 13.66-9.594 18.402-5.958 4.767-14.238 7.715-23.452 7.715-9.152 0-17.444-2.948-23.414-7.715-5.946-4.742-9.57-11.252-9.57-18.402 0-7.174 3.624-13.636 9.57-18.427m138.14 103.29v-25.958h-229.415v25.957h61.178v31.252c-7.789 7.85-12.445 17.604-12.445 28.243 0 13.537 7.47 25.748 19.435 34.52 11.952 8.746 28.39 14.151 46.521 14.151 18.157 0 34.606-5.405 46.56-14.152 11.952-8.77 19.433-20.982 19.433-34.52 0-10.638-4.643-20.392-12.432-28.242v-31.252zm-133.361 0h37.296v13.39c-5.897-1.278-12.162-1.93-18.66-1.93-6.45 0-12.752.652-18.636 1.966zm41.129 77.122c-5.7 4.705-13.673 7.604-22.494 7.604-8.77 0-16.731-2.899-22.456-7.604-5.761-4.705-9.226-11.118-9.226-18.206 0-7.076 3.465-13.513 9.226-18.206 5.725-4.692 13.685-7.591 22.456-7.591 8.82 0 16.794 2.899 22.494 7.591 5.749 4.693 9.25 11.13 9.25 18.206 0 7.088-3.501 13.501-9.25 18.206" style="fill:#6f6350;fill-opacity:1;stroke-width:12.2846" transform="translate(841.63 -469.24) scale(.61538)"/><path fill="#d8242a" d="M-674.196 815.7h19.017c1.204 0 2.199-1.033 2.199-2.224v-35.92c0-1.217-.995-2.224-2.2-2.224h-26.743c-30.883 0-47.246 9.852-56.607 30.859l-58.094 142.28c-3.501 8.514-8.587 12.53-18.6 12.53V777.557c0-1.217-1.019-2.224-2.247-2.224h-42.69a2.241 2.241 0 0 0-2.235 2.224v219.857a3.972 3.972 0 0 0 3.968 3.956h47.873c30.883 0 44.974-9.877 54.335-30.847l57.32-140.499c4.594-9.987 11.24-14.324 24.704-14.324M-1195.844 888.347c17.125-7.113 31.314-23.083 31.314-49.593 0-39.47-33.857-63.426-74.703-63.426h-126.176a2.247 2.247 0 0 0-2.248 2.236v35.908c0 1.204 1.008 2.224 2.248 2.224h117.405c18.967 0 31.792 11.572 31.792 25.81 0 14.287-12.825 25.846-31.792 25.846h-69.753V840.72c0-1.24-1.007-2.21-2.235-2.21h-45.417c-1.24 0-2.248.97-2.248 2.21v158.386a2.26 2.26 0 0 0 2.248 2.26h124.345c46.473 0 79.777-21.682 79.777-65.87 0-21.719-12.813-39.704-34.557-47.148m-49.716 73.646h-72.197V909.01h72.197c19.447 0 32.591 11.83 32.591 26.485 0 14.644-13.144 26.498-32.59 26.498M-630.029 998.752l-73.204-93.585c-.196-.282-.504-.22-.614.111l-19.692 48.193c-.123.27-.123.614.061.872l32.001 42.885c2.249 2.998 4.828 4.14 8.649 4.14h51.546c1.487 0 2.15-1.437 1.253-2.616M-1081.166 838.504h-42.701c-1.278 0-2.26.982-2.26 2.223v158.374c0 1.253.982 2.26 2.26 2.26h42.701a2.254 2.254 0 0 0 2.26-2.26V840.727c0-1.24-1.007-2.223-2.26-2.223" style="fill:#d80010;fill-opacity:1;stroke-width:12.2846" transform="translate(841.63 -469.24) scale(.61538)"/><path fill="#d8242a" d="M-905.397 775.33h-42.69a2.236 2.236 0 0 0-2.247 2.223V961c-10.037 0-15.098-4.018-18.624-12.53l-58.07-142.281c-9.335-20.995-25.748-30.86-56.631-30.86h-40.208c-1.278 0-2.26 1.008-2.26 2.224v35.92c0 1.204.983 2.224 2.26 2.224h32.53c13.476 0 20.073 4.336 24.692 14.336l57.32 140.5c9.349 20.957 23.44 30.834 54.335 30.834h47.873c2.174 0 3.968-1.794 3.968-3.956V777.553c0-1.216-1.02-2.223-2.248-2.223" style="fill:#d80010;fill-opacity:1;stroke-width:12.2846" transform="translate(841.63 -469.24) scale(.61538)"/></svg>