<svg width="1405" height="45" viewBox="0 0 1405 45" fill="none" xmlns="http://www.w3.org/2000/svg">
<path d="M3 41.6444C9.98711 34.2463 14.085 32.7154 24.7572 29.8466C41.5239 25.3394 58.5703 17.3187 75.7792 22.6452C88.5403 26.5951 101.931 27.0989 114.544 31.6852C130.782 37.5901 146.067 43.7957 163.727 41.4146C198.953 36.6651 231.702 21.2095 266.537 14.6778C281.345 11.9014 297.493 7.63705 312.656 8.8555C330.521 10.291 347.103 18.5246 364.061 23.4879C394.002 32.251 425.637 40.3547 457.142 37.814C491.251 35.0633 523.367 19.1529 557.578 14.7544C589.955 10.5916 619.732 14.8386 650.199 26.1693C680.659 37.4975 711.535 38.567 743.509 35.4391C774.072 32.4493 803.405 23.0513 834.062 20.4236C876.37 16.7971 913.071 45.5389 955.258 40.2655C989.62 35.9703 1021.99 21.6151 1055.62 14.1416C1085.03 7.60552 1120.54 11.6539 1149.39 19.2744C1176.31 26.387 1197.54 25.1241 1224.31 16.6697C1245.64 9.93374 1262.52 1.15911 1285.29 3.3396C1325.96 7.23295 1361.26 26.0262 1401.28 12.686" stroke="#C0C0C0" stroke-width="6" stroke-linecap="round"/>
</svg>
