<svg width="1075" height="513" viewBox="0 0 1075 513" fill="none" xmlns="http://www.w3.org/2000/svg">
<g clip-path="url(#clip0_2001_2)">
<path d="M6.23535 172.674L191.921 116.851L236.108 46.6859L242.426 94.8149L255.871 78.7346L348.39 189.221L323.125 230.361L400.568 231.527L434.367 442.084L379.51 431.692L409.468 458.806L348.125 440.785L165.934 498.289L13.3037 404.808L6.23535 172.674Z" fill="#AF8D67"/>
<path d="M191.921 116.851L6.23535 172.674L13.3037 404.808M191.921 116.851L217.604 340.31M191.921 116.851L236.108 46.6859L242.426 94.8149M13.3037 404.808L217.604 340.31M13.3037 404.808L165.935 498.289L348.125 440.785M217.604 340.31L271.617 300.178L248.887 162.486M217.604 340.31L348.125 440.785M217.604 340.31L289.631 350.35L349.551 404.579M242.426 94.8149L255.871 78.7346L348.39 189.221L323.125 230.361M242.426 94.8149L248.887 162.486M248.887 162.486L323.125 230.361M348.125 440.785L409.468 458.806L379.51 431.692M349.551 404.579L323.125 230.361M349.551 404.579L379.51 431.692M379.51 431.692L434.367 442.084L400.568 231.527L323.125 230.361" stroke="#956F43" stroke-width="3"/>
<path d="M111.507 156.148H322.455L373.656 418.292L111.507 389.62V156.148Z" fill="#AF8D67"/>
<path d="M334.367 235.809L348.283 399.878L290.692 347.804L223.238 338.596L268.827 303.438L250.561 166.335L334.367 235.809Z" fill="#74522A"/>
<path d="M979.054 271.012L982.642 269.597L1030.68 184.998L1029.7 180.92C1014.26 170.695 986.783 163.029 951.758 158.383C916.603 153.721 873.412 152.049 826.182 154.1C768.712 155.069 721.189 164.058 674.586 172.872C666.414 174.418 658.269 175.958 650.103 177.449C595.355 187.446 539.46 195.274 467.195 187.907C406.083 181.678 364.063 172 327.004 163.465C320.118 161.879 313.405 160.333 306.773 158.856C264.354 149.408 225.36 142.815 166.589 146.94C159.501 147.437 154.919 147.919 152.579 148.49C152 148.631 151.317 148.832 150.722 149.158C150.428 149.319 149.951 149.617 149.542 150.13C149.077 150.71 148.674 151.616 148.84 152.709C148.988 153.685 149.523 154.327 149.85 154.648C150.193 154.984 150.554 155.209 150.813 155.352C151.333 155.64 151.929 155.859 152.472 156.032C154.617 156.717 158.438 157.447 163.042 158.271C164.48 158.529 166.011 158.798 167.623 159.081C171.301 159.727 175.398 160.448 179.755 161.268C192.297 163.629 206.675 166.762 218.353 171.109C224.196 173.283 229.218 175.71 232.96 178.401C236.73 181.113 238.895 183.87 239.608 186.615C243.477 201.507 249.066 222.249 255.466 238.347C258.648 246.352 262.134 253.481 265.86 258.173C267.715 260.512 269.823 262.492 272.217 263.551C274.543 264.579 277.034 264.682 279.448 263.613C293.643 263.111 306.739 262.497 318.865 261.925C351.341 260.399 376.874 259.199 398.012 261.397C412.479 262.9 424.663 265.986 435.403 271.563C446.122 277.127 455.562 285.254 464.426 297.059C469.794 304.206 480.097 307.716 493.039 309.142C506.161 310.586 522.873 309.973 542.126 308.044C575.508 304.696 617.085 297.319 661.841 289.379C668.726 288.156 675.69 286.921 682.708 285.686C735.421 276.402 791.441 267.06 843.402 262.888C895.426 258.71 943.035 259.75 979.054 271.012Z" fill="#FFF537" stroke="white" stroke-width="3" stroke-linejoin="bevel"/>
<path d="M986.697 371.606C989.022 373.615 989.026 373.611 989.026 373.611L989.03 373.605L989.038 373.594L989.059 373.57C989.075 373.551 989.094 373.529 989.116 373.502C989.159 373.449 989.215 373.379 989.278 373.295C989.409 373.125 989.581 372.89 989.788 372.585C990.204 371.974 990.759 371.081 991.398 369.863C992.68 367.422 994.298 363.68 995.824 358.271C998.873 347.458 1001.55 329.98 1000.41 302.912C999.26 275.759 993.79 260.287 988.313 251.497C985.571 247.094 982.837 244.388 980.68 242.752C979.605 241.937 978.683 241.396 977.991 241.048C977.643 240.872 977.356 240.747 977.133 240.657C977.045 240.622 976.967 240.593 976.9 240.569C929.268 219.593 892.829 215.294 821.898 221.791C779.704 225.657 736.246 234.208 693.174 242.684C682.708 244.742 672.265 246.799 661.87 248.781C608.557 258.945 556.412 267.209 507.963 264.696C433.961 260.856 389.119 251.167 353.213 241.431C345.117 239.235 337.445 237.026 329.972 234.875C304.467 227.535 281.29 220.863 251.505 217.649C247.659 216.191 244.091 215.812 240.859 216.607C237.486 217.436 234.838 219.458 232.823 222.12C228.915 227.279 227.127 235.17 226.429 243.301C225.018 259.722 227.877 279.587 230.422 288.101L232.655 290.208C257.166 296.037 279.643 301.234 300.128 305.972C328.751 312.591 353.485 318.311 374.445 323.597C410.515 332.692 434.797 340.368 448.193 348.822C450.489 350.27 454.036 351.22 458.226 351.922C462.54 352.643 467.965 353.161 474.334 353.528C487.081 354.259 503.877 354.388 523.647 354.194C543.734 353.997 567.055 353.465 592.437 352.883C616.907 352.324 643.292 351.722 670.545 351.333C782.006 349.745 908.788 351.744 985.825 374.551L989.022 373.615L986.697 371.606Z" fill="#F68887" stroke="white" stroke-width="3" stroke-linejoin="bevel"/>
<path d="M249.901 290.296L247.896 290.908C234.23 301.222 224.196 310.254 217.139 318.182C210.104 326.087 205.893 333.044 204.1 339.221C202.276 345.506 202.968 350.972 205.668 355.545C208.303 360.01 212.66 363.297 217.579 365.746C227.381 370.625 240.517 372.706 250.929 373.609C256.189 374.065 260.852 374.227 264.205 374.276C265.882 374.301 267.234 374.297 268.172 374.287C268.641 374.28 269.005 374.274 269.255 374.268C269.38 374.266 269.476 374.264 269.544 374.262L269.573 374.26C307.816 374.846 341.166 383.228 378.887 392.708C382.627 393.648 386.408 394.599 390.239 395.553C432.732 406.135 481.279 417.139 547.648 419.316C581.007 420.41 618.641 415.462 657.999 408.392C677.691 404.853 697.858 400.775 718.17 396.643C719.473 396.376 720.775 396.112 722.078 395.846C741.114 391.971 760.262 388.072 779.298 384.537C819.991 376.98 860.032 371.108 897.096 370.676C934.165 370.246 968.042 375.261 996.52 389.303L1000.88 387.191C1007 358.277 1007.04 339.438 1005.47 327.699C1004.68 321.825 1003.49 317.723 1002.44 315.03C1001.92 313.682 1001.44 312.691 1001.07 312.005C1000.88 311.663 1000.72 311.399 1000.6 311.206C1000.54 311.11 1000.48 311.03 1000.44 310.969C1000.42 310.938 1000.41 310.911 1000.39 310.891L1000.37 310.86L1000.36 310.848L1000.35 310.842C1000.35 310.842 1000.35 310.835 997.874 312.648L1000.35 310.835L999.639 310.137C974.536 292.44 941.837 287.089 904.843 288.445C867.829 289.8 826.071 297.896 782.534 307.524C771.452 309.975 760.255 312.523 748.989 315.089C671.419 332.749 590.495 351.175 520.417 343.556C439.712 334.785 387.133 322.276 347.31 311.577C340.365 309.711 333.791 307.895 327.51 306.16C297.881 297.972 274.75 291.58 249.901 290.296Z" fill="#91CCF4" stroke="white" stroke-width="3" stroke-linejoin="bevel"/>
<path d="M394.245 342.381C378.709 340.216 364.442 351.365 362.398 367.268C361.925 370.955 362.382 374.537 363.191 378.053L220.262 424.624C215.293 428.507 320.219 418.163 324.032 423.269C325.988 425.886 328.796 427.217 331.725 427.625C334.651 428.032 337.711 427.404 340.245 425.528L376.976 396.512C379.966 398.22 383.225 399.612 386.94 400.13C402.476 402.295 421.998 390.626 420.407 370.828L393.864 379.89L383.423 367.807L402.747 344.283C402.747 344.283 396.146 342.762 394.344 342.512L394.245 342.381Z" fill="#242E3F"/>
<path d="M227.598 283.31L230.961 302.314C229.941 303.471 229.208 304.804 228.477 306.139L209.35 309.021L206.104 323.758L222.12 335C222.3 336.659 222.445 337.986 222.754 339.567L211.769 355.158L219.912 367.866L239.041 364.985C240.359 365.945 241.519 366.65 242.965 367.532L246.33 386.536L261.301 390.099L272.286 374.508C273.751 374.319 275.295 374.256 276.886 373.988L292.902 385.229L305.555 377.469L302.192 358.466C303.003 357.26 303.943 355.973 304.674 354.64L323.803 351.759L327.049 337.021L311.033 325.78C310.806 324.324 310.624 322.665 310.398 321.211L321.382 305.621L313.239 292.913L294.112 295.795C293 294.884 291.552 294.001 290.188 293.245L286.823 274.242L271.852 270.68L260.867 286.27C259.402 286.46 257.729 286.602 256.265 286.792L240.249 275.548L227.598 283.31ZM254.28 311.2C264.782 304.759 278.715 308.073 285.474 318.62C292.232 329.169 289.209 342.883 278.709 349.326C268.207 355.767 254.276 352.451 247.517 341.904C240.759 331.356 243.78 317.641 254.28 311.2Z" fill="#242E3F"/>
<path d="M7.13965 172.928L192.825 117.105L237.013 46.94L243.329 95.0691L249.793 162.74L272.52 300.432L218.509 340.564L290.535 350.604L350.454 404.833L380.413 431.946L410.374 459.06L349.029 441.039L166.839 498.543L14.208 405.062L7.13965 172.928Z" fill="#AF8D67"/>
<path d="M192.825 117.105L7.13965 172.928L14.208 405.062M192.825 117.105L218.509 340.564M192.825 117.105L237.013 46.94L243.329 95.0691L249.793 162.74L272.52 300.432L218.509 340.564M14.208 405.062L218.509 340.564M14.208 405.062L166.839 498.543L349.029 441.039M218.509 340.564L349.029 441.039M218.509 340.564L290.535 350.604L350.454 404.833L380.413 431.946L410.374 459.06L349.029 441.039" stroke="#956F43" stroke-width="3"/>
<path d="M375.776 230.245C376.333 237.155 375.422 243.112 373.042 248.111C370.711 253.055 367.219 257.209 362.566 260.569C357.964 263.871 352.363 266.425 345.766 268.225C339.173 270.078 331.942 271.315 324.071 271.932C320.51 272.212 316.786 272.155 312.901 271.764C309.022 271.428 305.162 270.687 301.326 269.544C297.483 268.346 293.77 266.765 290.186 264.799C286.604 262.834 283.329 260.389 280.366 257.465C277.45 254.485 274.898 251.02 272.706 247.073C270.568 243.122 269.026 238.588 268.08 233.474L302.798 230.03C302.812 231.527 302.88 233.046 303.005 234.586C303.128 236.129 303.257 237.724 303.39 239.371C303.763 243.995 304.303 248.714 305.012 253.526C308.178 253.653 311.336 253.672 314.488 253.586C317.638 253.5 320.782 253.334 323.92 253.088C327.055 252.842 330.16 252.519 333.232 252.117C336.302 251.716 339.419 251.204 342.579 250.581C342.7 248.752 342.772 246.983 342.794 245.269C342.811 243.501 342.747 241.716 342.602 239.907C342.366 236.985 341.942 234.048 341.332 231.101C340.72 228.154 340.001 225.213 339.178 222.282C335.419 222.149 331.1 222.006 326.22 221.854C321.337 221.702 316.303 221.322 311.117 220.711C305.981 220.044 300.898 219.052 295.868 217.733C290.889 216.359 286.371 214.414 282.316 211.897C278.254 209.326 274.889 206.06 272.215 202.097C269.542 198.134 267.967 193.202 267.492 187.302C267.162 183.208 267.607 179.429 268.825 175.963C270.099 172.493 271.905 169.356 274.248 166.551C276.641 163.689 279.459 161.141 282.703 158.907C286 156.669 289.486 154.765 293.158 153.193C296.885 151.617 300.689 150.356 304.574 149.409C308.457 148.463 312.234 147.846 315.902 147.558C323.932 146.928 331.104 147.623 337.42 149.642C343.737 151.661 349.131 154.528 353.604 158.242C358.126 161.9 361.733 166.164 364.426 171.035C367.119 175.905 368.856 180.851 369.634 185.872L333.498 192.637C333.601 190.597 333.599 188.564 333.488 186.54C333.429 184.458 333.316 182.408 333.154 180.388C332.782 175.763 332.085 171.11 331.067 166.429C329.236 166.305 327.414 166.261 325.597 166.296C323.836 166.327 322.05 166.414 320.241 166.556C313.063 167.119 305.874 168.565 298.678 170.894C298.68 172.232 298.731 173.538 298.833 174.814C298.936 176.09 299.036 177.339 299.134 178.562C299.435 182.283 299.863 185.94 300.42 189.534C301.027 193.071 301.899 196.613 303.042 200.161C307.503 200.4 312.34 200.662 317.552 200.949C322.763 201.182 327.991 201.655 333.238 202.367C338.534 203.021 343.642 203.985 348.562 205.258C353.528 206.474 357.946 208.159 361.811 210.318C365.726 212.417 368.94 215.108 371.451 218.387C373.957 221.614 375.399 225.567 375.776 230.245Z" fill="#242E3F"/>
<path d="M764.19 152.103C760.049 166.705 755.977 179.253 751.975 189.746C747.973 200.24 744.389 208.876 741.225 215.651C737.516 223.576 733.979 230.185 730.612 235.481C730.665 236.659 730.77 238.017 730.927 239.557C731.077 241.044 731.274 242.684 731.519 244.48C731.917 247.386 732.396 250.497 732.957 253.811C733.518 257.127 734.092 260.332 734.675 263.428C735.314 266.517 735.914 269.341 736.48 271.903C737.092 274.404 737.622 276.323 738.075 277.66L694.018 284.398C694.108 283.47 694.147 281.985 694.136 279.941C694.171 277.838 694.149 275.501 694.065 272.929C694.028 270.297 693.921 267.541 693.741 264.659C693.616 261.769 693.489 259.07 693.36 256.557C693.225 253.993 693.082 251.753 692.926 249.836C692.826 247.913 692.754 246.604 692.713 245.91C689.954 242.676 686.997 239.145 683.835 235.32C680.666 231.443 677.367 227.394 673.939 223.173C670.5 218.901 666.996 214.528 663.424 210.06C659.844 205.536 656.317 201.007 652.844 196.47C649.364 191.88 645.942 187.336 642.583 182.838C639.273 178.332 636.146 173.964 633.199 169.733L678.428 165.664C680.029 169.107 682.02 173.036 684.402 177.452C686.782 181.867 689.442 186.567 692.385 191.552C695.32 196.484 698.491 201.546 701.89 206.738C705.292 211.931 708.786 217.002 712.37 221.956C715.223 214.469 717.902 206.897 720.409 199.242C721.47 195.978 722.561 192.548 723.686 188.953C724.808 185.358 725.871 181.717 726.874 178.031C727.87 174.291 728.795 170.616 729.647 167.003C730.491 163.338 731.196 159.826 731.759 156.468L764.19 152.103Z" fill="#242E3F"/>
<path d="M985.188 233.718C986.4 228.881 987.369 223.798 988.096 218.465C988.872 213.089 989.419 207.604 989.741 202.014C990.079 196.098 990.183 190.214 990.05 184.362C989.921 178.465 989.569 172.788 988.993 167.331C986.427 166.43 983.621 165.609 980.58 164.868C977.952 164.197 974.882 163.547 971.366 162.918C967.894 162.291 964.11 161.856 960.009 161.612C959.219 161.565 958.404 161.516 957.564 161.467C956.726 161.417 955.885 161.414 955.041 161.457C954.996 162.249 954.918 163.6 954.809 165.51C954.699 167.42 954.564 169.773 954.404 172.568C954.293 175.32 954.138 178.442 953.937 181.936C953.785 185.386 953.624 189.023 953.452 192.846C953.279 196.669 953.126 200.586 952.989 204.598C952.854 208.61 952.743 212.577 952.657 216.498C952.573 220.42 952.497 224.203 952.428 227.844C952.409 231.443 952.43 234.763 952.489 237.806C956.786 237.873 960.886 237.697 964.79 237.273C968.74 236.854 972.226 236.382 975.249 235.862C978.79 235.232 982.104 234.517 985.188 233.718ZM948.532 144.101C954.029 144.428 959.651 145.043 965.396 145.945C971.188 146.85 976.766 148.186 982.134 149.955C987.549 151.725 992.631 154.014 997.378 156.82C1002.13 159.627 1006.21 163.071 1009.62 167.154C1013.08 171.24 1015.72 176.071 1017.55 181.649C1019.39 187.181 1020.09 193.603 1019.68 200.918C1019.27 207.999 1017.98 214.233 1015.8 219.62C1013.62 225.006 1010.8 229.7 1007.35 233.702C1003.94 237.66 1000.01 240.956 995.561 243.589C991.109 246.223 986.386 248.304 981.391 249.83C976.441 251.36 971.335 252.365 966.072 252.846C960.806 253.375 955.657 253.489 950.625 253.19C945.733 252.9 941.43 252.527 937.716 252.072C934.001 251.665 930.845 251.267 928.248 250.88C925.236 250.419 922.622 249.938 920.408 249.432C921.49 240.333 922.502 231.254 923.442 222.196C924.382 213.136 925.115 204.017 925.641 194.84C925.899 190.321 926.077 186.007 926.172 181.899C926.313 177.794 926.405 173.733 926.45 169.715C926.493 165.697 926.491 161.654 926.444 157.584C926.446 153.47 926.438 149.123 926.419 144.541C930.329 144.025 934.153 143.785 937.891 143.82C941.63 143.808 945.177 143.902 948.532 144.101Z" fill="#242E3F"/>
<path d="M521.943 247.843C520.974 250.809 519.598 253.408 517.816 255.642C516.047 257.839 513.921 259.707 511.439 261.249C508.969 262.753 506.181 263.94 503.076 264.813C499.972 265.687 496.613 266.244 492.998 266.486L507.996 305.972L480.656 300.194L473.574 265.653C472.323 265.493 471.039 265.3 469.722 265.079C468.407 264.856 467.072 264.626 465.718 264.391C464.741 268.407 463.766 272.614 462.793 277.009C461.857 281.418 460.866 286.124 459.82 291.128L432.247 284.136C436.2 274.615 439.962 265.095 443.536 255.576C447.161 246.031 450.577 236.354 453.782 226.546C454.614 223.998 455.353 221.672 455.998 219.568C456.682 217.477 457.309 215.431 457.878 213.431C458.486 211.44 459.076 209.382 459.646 207.252C460.215 205.124 460.846 202.742 461.538 200.107C466.597 200.213 471.598 200.744 476.548 201.699C481.533 202.666 486.573 203.988 491.665 205.665C494.21 206.502 496.91 207.579 499.761 208.898C502.614 210.215 505.366 211.774 508.018 213.574C510.709 215.384 513.173 217.438 515.412 219.732C517.687 222.04 519.516 224.621 520.898 227.476C522.318 230.343 523.17 233.466 523.454 236.843C523.739 240.222 523.235 243.888 521.943 247.843ZM480.151 215.202C478.115 221.436 476.181 227.476 474.357 233.317C472.583 239.133 470.867 245.158 469.208 251.392L471.545 252.162C474.889 253.262 478.283 254.274 481.726 255.197C485.17 256.119 488.498 256.815 491.714 257.284C492.916 255.406 494.061 253.192 495.146 250.645C496.281 248.07 497.315 245.359 498.247 242.506C498.843 240.681 499.382 238.838 499.865 236.976C500.361 235.076 500.793 233.239 501.161 231.465C501.542 229.653 501.817 227.912 501.985 226.241C502.19 224.582 502.308 223.062 502.337 221.682C501.831 221.432 501.223 221.168 500.512 220.893C499.84 220.629 499.068 220.355 498.194 220.066C496.447 219.491 494.528 218.923 492.439 218.362C490.387 217.813 488.431 217.295 486.571 216.81C484.431 216.273 482.291 215.739 480.151 215.202Z" fill="#242E3F"/>
<path d="M902.009 177.388C902.377 180.382 902.238 183.222 901.593 185.909C900.944 188.557 899.85 191.065 898.308 193.431C896.764 195.76 894.81 197.942 892.449 199.979C890.089 202.016 887.376 203.881 884.312 205.574L913.627 233.997L887.322 240.145L866.965 212.806C865.803 213.179 864.599 213.537 863.356 213.883C862.113 214.227 860.851 214.573 859.569 214.924C860.36 218.839 861.232 222.921 862.18 227.166C863.168 231.41 864.231 235.936 865.365 240.745L838.36 245.926C837.917 235.971 837.309 226.095 836.537 216.296C835.798 206.455 834.821 196.583 833.606 186.682C833.291 184.11 832.986 181.772 832.689 179.666C832.428 177.555 832.14 175.506 831.818 173.52C831.534 171.529 831.206 169.485 830.831 167.388C830.458 165.292 830.034 162.947 829.561 160.356C834.032 158.377 838.63 156.791 843.353 155.599C848.114 154.402 853.069 153.493 858.213 152.873C860.786 152.563 863.59 152.401 866.627 152.385C869.664 152.37 872.711 152.606 875.771 153.094C878.87 153.578 881.868 154.365 884.768 155.457C887.707 156.544 890.366 158.054 892.745 159.987C895.164 161.915 897.19 164.3 898.824 167.141C900.458 169.981 901.519 173.397 902.009 177.388ZM852.043 165.943C852.815 172.236 853.599 178.314 854.396 184.177C855.227 189.996 856.194 195.974 857.296 202.111L859.657 201.827C863.037 201.42 866.422 200.915 869.816 200.311C873.209 199.708 876.408 198.952 879.415 198.045C879.697 195.907 879.792 193.501 879.697 190.825C879.636 188.107 879.429 185.308 879.077 182.43C878.852 180.588 878.567 178.753 878.227 176.924C877.881 175.058 877.506 173.273 877.102 171.569C876.693 169.827 876.22 168.19 875.681 166.658C875.181 165.121 874.661 163.743 874.123 162.523C873.576 162.511 872.935 162.53 872.202 162.579C871.505 162.624 870.717 162.7 869.834 162.806C868.067 163.019 866.154 163.308 864.095 163.673C862.074 164.033 860.151 164.382 858.322 164.719C856.229 165.127 854.136 165.535 852.043 165.943Z" fill="#242E3F"/>
<path d="M559.678 311.155C559.764 310.037 559.83 308.919 559.877 307.796C559.928 306.637 559.996 305.498 560.08 304.38C557.896 306.07 555.648 307.309 553.34 308.097C551.07 308.849 548.994 309.383 547.107 309.701C544.908 310.072 542.745 310.211 540.617 310.121C536.763 309.818 533.088 308.927 529.595 307.45C526.137 306.015 523.11 304.012 520.513 301.441C517.919 298.871 515.887 295.764 514.423 292.119C512.997 288.439 512.366 284.259 512.532 279.579C512.891 274.877 513.855 270.648 515.422 266.892C516.993 263.099 519.156 259.914 521.912 257.338C524.671 254.763 527.995 252.873 531.888 251.667C535.784 250.422 540.22 249.975 545.196 250.327C545.35 250.34 545.926 250.424 546.923 250.579C547.959 250.7 549.219 250.975 550.7 251.4C552.182 251.79 553.784 252.379 555.508 253.176C557.235 253.932 558.923 254.937 560.571 256.191L560.19 249.006L583.151 249.242C581.842 260.27 580.767 271.258 579.929 282.207C579.724 284.867 579.532 287.392 579.35 289.782C579.206 292.137 579.065 294.49 578.924 296.846C578.823 299.166 578.721 301.523 578.614 303.919C578.551 306.279 578.477 308.775 578.391 311.407L559.678 311.155ZM533.746 295.037C538.348 295.205 542.882 295.25 547.347 295.176C551.814 295.101 556.238 294.808 560.62 294.3C560.87 289.512 561.012 284.869 561.046 280.372C561.118 275.878 561.083 271.28 560.94 266.576L557.642 266.316C553.903 266.021 550.134 265.861 546.335 265.835C542.579 265.771 538.77 265.878 534.909 266.156C534.137 270.168 533.594 274.217 533.281 278.303C533.162 279.845 533.091 281.295 533.064 282.649C533.041 283.966 533.037 285.285 533.052 286.604C533.107 287.927 533.179 289.272 533.267 290.636C533.396 292.002 533.555 293.471 533.746 295.037Z" fill="#242E3F"/>
<path d="M808.892 258.476C808.71 257.254 808.507 256.033 808.284 254.814C808.053 253.555 807.848 252.314 807.666 251.089C805.728 253.442 803.615 255.326 801.323 256.74C799.066 258.104 796.963 259.189 795.011 259.992C792.733 260.928 790.442 261.608 788.131 262.032C783.91 262.65 779.739 262.593 775.618 261.858C771.544 261.161 767.798 259.748 764.376 257.618C760.954 255.488 758.007 252.642 755.537 249.08C753.104 245.469 751.402 241.126 750.433 236.051C749.667 230.902 749.669 226.116 750.435 221.692C751.197 217.226 752.743 213.269 755.08 209.824C757.415 206.377 760.53 203.528 764.423 201.277C768.31 198.983 772.974 197.417 778.413 196.578C778.581 196.553 779.222 196.503 780.332 196.427C781.477 196.302 782.901 196.288 784.596 196.385C786.286 196.439 788.156 196.683 790.206 197.116C792.248 197.507 794.31 198.176 796.391 199.122L794.222 191.484L818.983 186.114C820.275 198.3 821.812 210.385 823.591 222.37C824.023 225.282 824.433 228.047 824.822 230.664C825.246 233.233 825.67 235.801 826.096 238.367C826.555 240.888 827.022 243.45 827.495 246.053C828.005 248.609 828.535 251.312 829.088 254.163L808.892 258.476ZM777.043 247.485C782.034 246.539 786.925 245.48 791.711 244.304C796.498 243.131 801.186 241.732 805.777 240.112C804.874 234.898 803.889 229.868 802.824 225.022C801.802 220.168 800.639 215.231 799.33 210.205L795.721 210.731C791.625 211.331 787.531 212.081 783.437 212.982C779.38 213.834 775.309 214.883 771.223 216.128C771.372 220.633 771.78 225.123 772.445 229.595C772.695 231.283 772.972 232.86 773.277 234.324C773.574 235.748 773.893 237.167 774.231 238.584C774.614 239.993 775.02 241.421 775.45 242.869C775.923 244.308 776.453 245.846 777.043 247.485Z" fill="#242E3F"/>
<path d="M667.026 243.122C667.524 248.517 667.237 253.436 666.168 257.884C665.138 262.284 663.401 266.095 660.958 269.318C658.513 272.54 655.4 275.127 651.621 277.076C647.84 279.028 643.468 280.226 638.503 280.675C635.648 280.845 632.806 280.709 629.979 280.269C628.787 280.072 627.524 279.816 626.188 279.501C624.892 279.139 623.567 278.694 622.213 278.164C620.898 277.586 619.616 276.896 618.367 276.095C617.118 275.294 615.94 274.334 614.836 273.216C615.647 280.582 616.493 287.859 617.374 295.045C618.258 302.275 619.182 309.218 620.145 315.874L595.464 316.533C595.234 308.853 594.903 300.79 594.472 292.346C594.04 283.9 593.539 275.397 592.965 266.834C592.433 258.224 591.818 249.688 591.124 241.224C590.473 232.755 589.789 224.637 589.072 216.871L610.826 214.909C610.814 217.608 610.865 220.279 610.978 222.923C611.871 221.754 612.864 220.73 613.958 219.847C615.09 218.919 616.255 218.096 617.452 217.379C618.648 216.662 619.852 216.032 621.062 215.487C622.318 214.938 623.516 214.483 624.659 214.119C627.317 213.226 630.067 212.607 632.908 212.265C635.282 212.05 637.731 212.179 640.254 212.646C642.776 213.072 645.237 213.828 647.646 214.917C650.095 216.001 652.401 217.404 654.562 219.122C656.766 220.838 658.738 222.878 660.479 225.245C662.222 227.611 663.666 230.288 664.81 233.274C665.953 236.215 666.691 239.5 667.026 243.122ZM614.066 264.866C617.288 265.36 620.296 265.655 623.092 265.749C625.924 265.798 628.873 265.685 631.937 265.409C633.75 265.245 635.644 265.009 637.617 264.7C639.591 264.393 641.733 264.024 644.043 263.598C644.08 261.638 644.033 259.707 643.9 257.805C643.812 255.898 643.677 253.973 643.499 252.031C643.136 248.105 642.628 244.257 641.977 240.489C641.319 236.675 640.531 232.852 639.611 229.02C635.487 229.131 631.872 229.325 628.763 229.606C627.253 229.743 625.812 229.917 624.437 230.128C623.061 230.294 621.666 230.507 620.253 230.765C618.881 230.976 617.466 231.213 616.01 231.473C614.599 231.731 613.079 232.022 611.455 232.342C612.053 241.642 612.796 251.104 613.683 260.725L614.066 264.866Z" fill="#242E3F"/>
<path d="M408.447 202.664C390.782 202.398 379.659 210.158 379.248 237.425C378.795 267.496 394.889 269.787 412.553 270.052C436.103 270.408 442.493 254.118 439.622 240.761L426.312 240.56C425.253 242.858 429.136 256.989 409.698 255.673C397.309 254.833 393.383 250.97 393.584 237.64C393.819 221.903 396.984 215.806 408.248 215.974C420.534 216.161 421.812 220.791 423.518 222.083L415.234 228.104L441.793 232.6L444.212 208.059L435.927 214.078C431.874 211.211 428.911 203.996 408.447 202.664Z" fill="#242E3F"/>
<path d="M1043.27 295.752C1043.83 292.322 1039.15 283.378 1039.15 283.378L1032.22 300.559L1022 313.821L1026.87 319.613C1026.87 319.613 1042.72 299.18 1043.27 295.752Z" fill="#F3D24F"/>
<path d="M1011.83 334.631C1014.13 330.717 1005.81 321.504 1005.81 321.504L995.023 342.45L973.271 350.11C973.271 350.11 975.831 361.259 982.702 362.812C989.575 364.364 1009.53 338.545 1011.83 334.631Z" fill="#F3D24F"/>
<path d="M976.476 334.486C980.75 335.733 987.445 325.968 987.445 325.968L969.152 318.819L954.428 301.325C954.428 301.325 944.815 304.339 945.345 313.94C945.876 323.541 972.201 333.239 976.476 334.486Z" fill="#F3D24F"/>
<path d="M1028.99 310.178L1019.9 313.916L1029.85 327.357L1024.5 343.706C1024.5 343.706 1035.88 343.771 1039.12 340.144C1042.35 336.517 1028.99 310.178 1028.99 310.178Z" fill="#F3D24F"/>
<path d="M1039.19 283.177C1034.73 276.888 1015.14 282.364 1006.87 284.767C1003.24 278.473 991.068 261.827 984.957 264.526C978.845 267.225 977.42 282.96 976.57 292.805C968.501 294.081 948.626 301.785 947.004 308.017C945.382 314.247 961.105 324.076 970.844 327.166C971.161 335.59 971.034 355.279 976.699 356.494C982.534 357.747 994.886 345.191 1001.69 337.795C1009.58 339.655 1025.98 347.392 1032.14 341.82C1038.3 336.249 1028.85 319.894 1024.98 311.712C1030.71 303.917 1043.79 289.68 1039.19 283.177Z" fill="#FFF537"/>
<path d="M913.465 439.049C916.315 437.066 919.504 427.49 919.504 427.49L902.329 434.435L885.685 436.286L884.901 443.815C884.901 443.815 910.612 441.031 913.465 439.049Z" fill="#DB7372"/>
<path d="M863.65 443.419C868.061 442.356 868.919 429.974 868.919 429.974L846.352 436.755L825.739 426.423C825.739 426.423 819.492 436.006 823.148 442.029C826.801 448.052 859.238 444.484 863.65 443.419Z" fill="#DB7372"/>
<path d="M839.206 417.879C841.277 421.821 852.953 419.857 852.953 419.857L845.393 401.73L847.759 378.987C847.759 378.987 838.913 374.164 832.374 381.211C825.835 388.26 837.138 413.938 839.206 417.879Z" fill="#DB7372"/>
<path d="M893.166 438.791L884.161 434.84L881.396 451.333L865.919 458.839C865.919 458.839 873.773 467.072 878.631 466.883C883.489 466.695 893.166 438.791 893.166 438.791Z" fill="#DB7372"/>
<path d="M919.674 427.377C921.106 419.804 903.562 409.508 896.089 405.224C898.096 398.24 901.625 377.926 895.44 375.403C889.253 372.88 876.94 382.78 869.266 389.004C862.745 384.085 843.401 375.133 837.789 378.293C832.18 381.453 836.026 399.59 840.562 408.745C834.723 414.823 820.465 428.401 823.523 433.323C826.675 438.391 844.286 438.559 854.335 438.324C858.477 445.293 864.295 462.466 872.581 463.027C880.866 463.588 886.078 445.439 889.277 436.97C898.862 435.678 918.193 435.207 919.674 427.377Z" fill="#F68887"/>
<path d="M979.187 96.2147C982.038 94.2316 985.227 84.6552 985.227 84.6552L968.052 91.6014L951.408 93.4513L950.623 100.981C950.623 100.981 976.334 98.1976 979.187 96.2147Z" fill="#5698C7"/>
<path d="M929.373 100.586C933.784 99.522 934.642 87.14 934.642 87.14L912.075 93.922L891.461 83.5882C891.461 83.5882 885.215 93.1716 888.871 99.1952C892.524 105.219 924.961 101.65 929.373 100.586Z" fill="#5698C7"/>
<path d="M904.929 75.0454C907 78.9867 918.676 77.0237 918.676 77.0237L911.116 58.8959L913.482 36.1541C913.482 36.1541 904.636 31.3298 898.097 38.3786C891.558 45.4272 902.861 71.1038 904.929 75.0454Z" fill="#5698C7"/>
<path d="M958.889 95.9562L949.884 92.0071L947.119 108.499L931.642 116.005C931.642 116.005 939.496 124.237 944.354 124.049C949.212 123.86 958.889 95.9562 958.889 95.9562Z" fill="#5698C7"/>
<path d="M985.397 84.5436C986.829 76.9697 969.285 66.6742 961.812 62.3916C963.819 55.4065 967.348 35.0922 961.163 32.569C954.975 30.0459 942.663 39.9465 934.989 46.1698C928.468 41.2503 909.124 32.2989 903.512 35.459C897.903 38.6188 901.749 56.7561 906.285 65.9109C900.446 71.9885 886.188 85.5682 889.245 90.4885C892.397 95.5573 910.009 95.7259 920.058 95.4899C924.199 102.46 930.018 119.632 938.304 120.193C946.589 120.755 951.801 102.604 955 94.1358C964.585 92.8435 983.916 92.3735 985.397 84.5436Z" fill="#91CCF4"/>
<path d="M140.247 169.974C133.207 169.298 126.149 169.03 119.121 168.217C114.554 167.689 109.568 167.612 105.081 166.658C104.08 166.445 106.705 166.996 106.91 167.027C108.208 167.224 109.499 166.99 110.537 167.818" stroke="#956F43" stroke-width="3" stroke-linecap="round"/>
<path d="M124.612 170.117C123.926 173.482 123.518 176.895 122.804 180.251C122.571 181.347 122.052 182.282 123.28 181.277" stroke="#956F43" stroke-width="3" stroke-linecap="round"/>
<path d="M135.605 185.284C128.075 184.454 120.502 183.35 112.95 182.74C111.309 182.608 109.667 182.48 108.025 182.348C107.87 182.336 104.254 182.457 105.774 182.062" stroke="#956F43" stroke-width="3" stroke-linecap="round"/>
<path d="M104.01 190.356C109.554 190.796 113.899 192.093 118.946 194.226C121.781 195.424 123.451 197.506 123.038 200.894C121.958 209.771 106.806 208.741 101.621 208.831" stroke="#956F43" stroke-width="3" stroke-linecap="round"/>
<path d="M112.947 193.99C112.009 198.403 111.437 203.358 111.382 207.874" stroke="#956F43" stroke-width="3" stroke-linecap="round"/>
<path d="M120.009 226.286C122.35 212.826 107.124 215.708 102.827 217.846C95.3012 224.559 103.873 231.269 106.884 230.079" stroke="#956F43" stroke-width="3" stroke-linecap="round"/>
<path d="M126.901 239.809C119.973 240.415 112.884 240.575 105.186 238.826C103.207 238.322 97.9673 237.277 95.9717 236.829M120.383 251.902C117.926 251.573 112.426 256.441 108.427 240.818M108.779 241.154C106.236 255.752 103.967 251.775 96.6422 249.099" stroke="#956F43" stroke-width="3" stroke-linecap="round"/>
<path d="M112.058 287.226C118.382 286.88 120.665 275.475 115.254 270.643C112.674 268.339 106.627 262.91 94.2794 268.737C85.713 274.307 89.2832 283.343 97.5749 284.941" stroke="#956F43" stroke-width="3" stroke-linecap="round"/>
<path d="M111.594 297.507C107.366 296.221 96.707 293.384 92.5577 291.873C92.0008 291.67 90.014 290.577 89.4322 291.171C87.7536 292.879 87.054 298.846 87.1658 300.892" stroke="#956F43" stroke-width="3" stroke-linecap="round"/>
<path d="M99.0278 311.526C95.2547 306.135 86.7674 306.733 85.6492 310.674C82.2091 322.792 91.3507 321.174 96.4074 319.871" stroke="#956F43" stroke-width="3" stroke-linecap="round"/>
<path d="M99.4968 332.262C93.4135 330.969 75.0956 327.42 81.1791 328.715" stroke="#956F43" stroke-width="3" stroke-linecap="round"/>
<path d="M98.6922 332.784C98.9834 336.12 100.804 342.844 95.6238 343.229C91.7974 343.513 90.8377 340.802 89.8028 337.445C89.5626 336.665 88.7661 329.714 88.9941 333.728C89.1874 337.132 88.608 339.778 85.5296 341.777C79.5966 345.629 74.5834 338.713 75.8016 332.985C76.1987 331.117 77.3618 329.851 78.4542 328.481" stroke="#956F43" stroke-width="3" stroke-linecap="round"/>
<path d="M119.563 433.062C119.472 433.058 117.74 432.151 114.366 430.344C113.254 431.864 112.228 433.152 111.29 434.207C110.387 435.284 109.56 436.146 108.81 436.794C108.254 436.943 107.589 436.794 106.813 436.345C105.368 435.512 104.736 434.653 104.917 433.771C105.71 432.397 107.233 430.408 109.486 427.809C108.217 427.076 107.336 426.568 106.843 426.283C106.37 425.964 105.975 425.712 105.657 425.528C105.375 425.366 105.005 425.153 104.547 424.887C104.145 424.608 103.362 424.133 102.199 423.461C101.811 423.238 101.348 422.9 100.81 422.447C100.328 421.982 99.8379 421.487 99.3404 420.965C98.8987 420.428 98.4745 419.902 98.068 419.386C97.6967 418.888 97.4662 418.474 97.377 418.14C97.4544 417.762 97.6151 417.36 97.8593 416.938C98.4901 415.847 99.5573 414.769 101.061 413.713C102.239 413.217 104.237 411.833 107.054 409.559L115.348 405.326C115.883 405.211 116.451 405.328 117.05 405.674C118.53 406.528 118.914 407.573 118.202 408.806C118.182 408.843 117.961 409.021 117.541 409.34C117.121 409.662 116.53 410.073 115.771 410.575C115.047 411.097 114.174 411.673 113.151 412.304C112.149 412.902 111.056 413.491 109.873 414.077L103.803 418.607C103.848 418.775 103.976 418.919 104.187 419.042C104.469 419.203 104.701 419.291 104.883 419.302C105.085 419.277 105.175 419.283 105.155 419.318C105.352 419.384 105.538 419.468 105.714 419.57C105.946 419.656 106.168 419.76 106.379 419.883C106.767 420.106 107.152 420.377 107.534 420.69C107.972 420.991 108.435 421.329 108.923 421.704C109.909 422.273 111.103 422.892 112.503 423.559L115.17 419.672C115.318 419.334 115.466 418.999 115.614 418.661C115.797 418.343 115.98 418.026 116.163 417.708C116.611 416.934 117.091 416.223 117.604 415.58C118.152 414.956 118.66 414.239 119.128 413.428C119.25 413.217 119.446 412.838 119.716 412.289C120.006 411.704 120.289 411.091 120.565 410.452C120.875 409.834 121.155 409.266 121.405 408.752C121.654 408.238 121.8 407.948 121.84 407.876C122.701 407.198 123.555 407.104 124.401 407.593C124.521 407.71 124.652 407.808 124.793 407.89C124.914 408.007 125.08 408.126 125.291 408.247C125.503 408.369 125.739 408.529 126.001 408.728C126.025 408.931 125.955 409.336 125.791 409.946C125.682 410.54 125.505 411.214 125.259 411.966C125.034 412.68 124.771 413.422 124.47 414.188C124.189 414.917 123.906 415.529 123.621 416.023C123.316 416.551 122.942 417.157 122.5 417.843C122.058 418.528 121.494 419.422 120.807 420.53C120.761 420.692 120.585 421.036 120.28 421.565C119.995 422.058 119.612 422.683 119.129 423.439C118.646 424.192 118.064 425.079 117.383 426.095L117.912 426.4C118.405 426.685 118.931 427.037 119.489 427.453C120.103 427.854 120.795 428.323 121.565 428.862C122.183 429.501 122.156 430.402 121.485 431.565C120.997 432.411 120.356 432.911 119.563 433.062ZM135.374 449.592C135.157 449.561 134.94 449.53 134.723 449.497C134.526 449.432 134.322 449.338 134.111 449.215L133.9 449.094L132.578 448.33C132.331 448.189 132.085 448.045 131.838 447.904C131.647 447.746 131.41 447.587 131.128 447.423C130.846 447.261 130.554 447.116 130.252 446.987C129.97 446.825 129.671 446.653 129.353 446.468C128.966 446.245 128.488 445.852 127.92 445.289C127.372 444.691 126.588 444.097 125.566 443.507C125.354 443.384 125.132 443.28 124.901 443.194C124.689 443.071 124.46 442.94 124.214 442.796C123.967 442.655 122.672 441.6 120.328 439.636C120.036 438.434 120.103 437.463 120.531 436.724C120.876 436.124 121.356 435.579 121.969 435.086C123.151 434.83 124.124 434.569 124.887 434.305C125.651 434.041 126.24 433.793 126.655 433.562C127.97 432.913 129.224 432.368 130.417 431.93C131.666 431.475 132.877 431.047 134.05 430.643C134.252 430.619 134.55 430.508 134.945 430.314C135.395 430.105 135.873 429.886 136.379 429.662C136.884 429.437 137.39 429.212 137.896 428.987C138.422 428.727 138.862 428.534 139.216 428.409C140.722 427.918 141.832 427.053 142.544 425.82C143.236 424.622 142.965 423.666 141.731 422.955C141.308 422.71 140.792 422.507 140.182 422.343C139.592 422.142 138.99 422.007 138.374 421.933C137.794 421.88 137.211 421.872 136.625 421.909C136.04 421.948 135.549 422.064 135.155 422.259C134.851 422.46 134.433 422.736 133.902 423.086C133.406 423.457 132.846 423.815 132.224 424.162C131.622 424.471 131.015 424.708 130.403 424.872C129.812 425.001 129.288 424.934 128.829 424.669C128.16 424.282 127.703 423.691 127.459 422.892C127.216 422.093 127.307 421.323 127.735 420.584C127.938 420.231 128.374 419.801 129.043 419.293C129.747 418.808 130.503 418.351 131.313 417.925C132.178 417.485 133.02 417.127 133.839 416.848C134.693 416.588 135.382 416.494 135.907 416.561C138.971 416.545 141.948 417.37 144.838 419.04C145.965 419.691 146.798 420.406 147.334 421.186C147.906 421.985 148.258 422.8 148.391 423.627C148.524 424.456 148.464 425.292 148.213 426.134C147.997 426.996 147.666 427.813 147.218 428.589C145.936 430.809 144.198 432.274 142.004 432.98C141.373 433.179 140.766 433.416 140.184 433.691C139.603 433.965 139.049 434.234 138.523 434.494C138.052 434.739 137.609 434.977 137.194 435.206C136.8 435.403 136.509 435.54 136.322 435.62C135.812 435.608 133.711 436.439 130.019 438.113L127.851 438.694C129.049 439.386 130.013 440.036 130.742 440.646C131.527 441.24 131.94 441.5 131.98 441.43C132.579 441.776 133.302 442.194 134.148 442.682C135.049 443.155 136.064 443.718 137.191 444.369C137.685 444.654 137.907 445.205 137.858 446.022C137.864 446.825 137.664 447.578 137.257 448.283C136.708 449.235 136.08 449.671 135.374 449.592ZM157.178 462.181C156.961 462.15 156.744 462.117 156.527 462.086C156.331 462.021 156.127 461.927 155.915 461.804L155.704 461.681L154.382 460.919C154.135 460.776 153.889 460.634 153.642 460.491C153.451 460.333 153.214 460.174 152.932 460.012C152.651 459.848 152.359 459.703 152.056 459.576C151.774 459.414 151.475 459.24 151.158 459.057C150.77 458.834 150.292 458.441 149.724 457.878C149.177 457.28 148.392 456.686 147.37 456.096C147.158 455.973 146.937 455.869 146.705 455.781C146.494 455.66 146.264 455.527 146.018 455.385C145.771 455.242 144.476 454.189 142.132 452.225C141.84 451.023 141.908 450.052 142.335 449.311C142.681 448.713 143.16 448.166 143.773 447.675C144.955 447.419 145.928 447.156 146.692 446.892C147.455 446.628 148.044 446.382 148.459 446.151C149.774 445.502 151.029 444.957 152.222 444.517C153.47 444.064 154.681 443.636 155.854 443.23C156.056 443.208 156.354 443.097 156.749 442.903C157.199 442.692 157.677 442.475 158.183 442.249C158.689 442.024 159.194 441.801 159.7 441.576C160.226 441.316 160.666 441.123 161.02 440.998C162.526 440.505 163.636 439.642 164.348 438.409C165.04 437.209 164.769 436.255 163.535 435.542C163.112 435.299 162.596 435.094 161.986 434.93C161.396 434.731 160.794 434.594 160.178 434.52C159.598 434.467 159.015 434.461 158.429 434.498C157.844 434.537 157.354 434.651 156.959 434.848C156.655 435.049 156.238 435.323 155.706 435.675C155.21 436.046 154.65 436.404 154.028 436.751C153.426 437.06 152.819 437.297 152.208 437.461C151.617 437.59 151.092 437.523 150.634 437.256C149.964 436.871 149.507 436.278 149.264 435.479C149.02 434.68 149.112 433.912 149.539 433.171C149.742 432.818 150.178 432.39 150.847 431.883C151.551 431.397 152.307 430.94 153.117 430.514C153.982 430.074 154.824 429.716 155.643 429.435C156.497 429.177 157.187 429.081 157.711 429.15C160.775 429.132 163.752 429.959 166.642 431.627C167.77 432.278 168.602 432.995 169.139 433.773C169.71 434.574 170.063 435.389 170.195 436.216C170.328 437.046 170.268 437.879 170.017 438.721C169.802 439.583 169.47 440.402 169.022 441.178C167.74 443.398 166.003 444.861 163.809 445.569C163.177 445.768 162.57 446.006 161.988 446.28C161.407 446.554 160.853 446.823 160.327 447.083C159.856 447.329 159.413 447.566 158.999 447.795C158.604 447.99 158.313 448.129 158.126 448.209C157.616 448.197 155.515 449.026 151.823 450.702L149.655 451.283C150.853 451.973 151.817 452.625 152.546 453.233C153.331 453.827 153.744 454.089 153.784 454.019C154.384 454.365 155.106 454.781 155.952 455.271C156.853 455.744 157.868 456.305 158.996 456.956C159.489 457.241 159.711 457.794 159.662 458.611C159.669 459.414 159.469 460.167 159.062 460.872C158.512 461.822 157.884 462.258 157.178 462.181ZM178.963 470.528C178.447 470.936 177.887 471.294 177.285 471.603C176.718 471.935 176.026 472.24 175.207 472.519C174.408 472.763 173.428 472.996 172.266 473.217C171.104 473.438 169.659 473.662 167.932 473.887C163.778 473.838 161.031 473.426 159.692 472.654C158.987 472.247 158.712 471.829 158.865 471.401C159.053 470.993 159.341 470.455 159.728 469.785C160.053 469.222 160.504 468.847 161.08 468.663C161.657 468.478 162.328 468.374 163.096 468.345C163.863 468.318 164.718 468.343 165.662 468.419C166.606 468.493 167.625 468.517 168.721 468.493C168.917 468.558 169.245 468.56 169.705 468.497C170.2 468.454 170.829 468.3 171.592 468.036L174.891 466.838C176.191 466.133 177.116 465.304 177.666 464.354C178.174 463.471 178.411 462.574 178.374 461.66C178.393 460.733 178.236 459.866 177.901 459.062C177.567 458.257 177.108 457.546 176.525 456.928C175.998 456.295 175.452 455.815 174.889 455.49C174.501 455.267 174.083 455.095 173.634 454.976C173.241 454.845 172.851 454.664 172.463 454.441C172.251 454.32 171.955 454.101 171.572 453.786C171.225 453.493 170.909 453.145 170.623 452.745C170.337 452.344 170.117 451.912 169.963 451.447C169.843 451.003 169.906 450.568 170.15 450.147C170.313 449.864 170.453 449.663 170.569 449.542L171.552 448.207C171.776 447.818 172.164 447.267 172.718 446.554C173.306 445.86 173.895 445.166 174.483 444.472C175.072 443.777 175.582 443.179 176.013 442.675C176.48 442.194 176.703 441.971 176.683 442.006C177.598 440.421 178.352 439.399 178.945 438.942C179.573 438.506 180.186 438.461 180.785 438.807C181.596 439.274 182.335 439.866 183.003 440.58C183.672 441.295 184.27 441.805 184.799 442.11C184.904 442.172 184.975 442.213 185.01 442.231C185.101 442.237 185.199 442.27 185.305 442.331C185.375 442.372 185.707 442.612 186.301 443.048C186.895 443.484 187.541 443.951 188.241 444.449C188.94 444.947 189.551 445.395 190.075 445.79C190.633 446.206 190.912 446.415 190.912 446.415C191.742 447.175 191.77 448.226 190.997 449.565C190.183 450.974 189.184 451.361 188.001 450.724C187.654 450.431 187.146 450.091 186.476 449.704C185.827 449.282 185.054 448.789 184.158 448.226C183.841 448.041 183.36 447.693 182.716 447.181C182.128 446.653 181.676 446.298 181.358 446.114C181.041 445.932 180.746 445.831 180.474 445.815C179.987 446.333 179.411 446.964 178.747 447.707C178.103 448.418 177.397 449.231 176.631 450.153C177.407 450.599 178.222 451.14 179.077 451.775C179.968 452.43 180.767 453.245 181.474 454.216C182.202 455.154 182.772 456.282 183.185 457.601C183.598 458.92 183.76 460.471 183.672 462.252C183.516 464.231 183.113 465.783 182.462 466.909C181.872 467.931 180.706 469.138 178.963 470.528Z" fill="#956F43"/>
<path d="M148.109 159.617C141.896 159.18 104.009 161.397 97.7953 160.96C91.5818 160.523 53.4949 348.119 59.8055 349.575C66.1164 351.032 107.528 359.951 113.547 358.349C119.566 356.748 154.323 160.054 148.109 159.617Z" stroke="#956F43" stroke-width="2"/>
<path d="M897.693 316.95C894.711 315.024 891.779 313.22 888.899 311.54C886.039 309.823 883.186 308.181 880.339 306.614C877.382 304.986 874.45 303.444 871.542 301.986C868.618 300.472 865.563 298.981 862.376 297.512C861.511 298.652 860.718 299.833 859.999 301.054C859.262 302.219 858.553 303.421 857.87 304.663C855.057 309.773 852.91 315.012 851.43 320.38C853.341 321.575 855.234 322.759 857.108 323.934C859.002 325.071 860.917 326.173 862.852 327.238C866.721 329.367 870.671 331.351 874.701 333.189C878.714 334.97 882.991 336.705 887.53 338.395C888.065 337.596 888.564 336.776 889.026 335.937C889.508 335.061 890 334.166 890.503 333.254C891.889 330.735 893.186 328.12 894.393 325.408C895.621 322.659 896.721 319.84 897.693 316.95ZM891.626 287.143C895.97 289.534 899.586 292.642 902.475 296.468C905.347 300.236 907.403 304.364 908.642 308.852C909.882 313.339 910.239 318.006 909.711 322.852C909.241 327.682 907.78 332.324 905.329 336.777C902.898 341.194 899.818 344.802 896.089 347.601C892.418 350.384 888.415 352.342 884.081 353.476C879.767 354.574 875.3 354.826 870.68 354.233C866.023 353.62 861.523 352.118 857.179 349.727C851.813 346.774 847.571 343.464 844.453 339.797C841.334 336.131 839.212 332.252 838.087 328.161C836.982 324.033 836.824 319.784 837.612 315.414C838.384 310.988 839.985 306.566 842.416 302.15C844.868 297.696 847.88 293.908 851.453 290.786C855.047 287.627 858.998 285.331 863.306 283.898C867.615 282.465 872.184 281.983 877.014 282.454C881.828 282.868 886.698 284.431 891.626 287.143Z" fill="#242E3F"/>
<path d="M843.802 289.615C839.969 290.911 836.123 292.234 832.266 293.584C828.447 294.919 824.636 296.273 820.833 297.646C823.424 305.538 826.066 313.388 828.758 321.196C831.45 329.003 834.243 336.838 837.136 344.7L820.838 353.111C815.45 338.843 809.999 324.756 804.486 310.851L802.045 304.692L797.861 306.35C795.537 307.272 793.221 308.213 790.912 309.173C788.604 310.133 786.287 311.074 783.963 311.995L778.112 297.238C779.12 296.838 780.134 296.459 781.157 296.098C782.218 295.722 783.291 295.319 784.375 294.889L796.17 290.213C794.741 286.611 793.317 283.074 791.896 279.604C790.46 276.094 789.004 272.593 787.529 269.099L809.549 260.368C810.544 264.008 811.57 267.613 812.627 271.183C813.707 274.699 814.807 278.207 815.926 281.708C819.466 280.125 822.949 278.565 826.374 277.027C829.822 275.436 833.32 273.803 836.869 272.127L843.802 289.615Z" fill="#242E3F"/>
<path d="M800.601 352.07C800.536 357.611 800.179 363.254 799.529 368.996C798.879 374.739 797.813 380.477 796.33 386.21L774.581 385.958C775.195 379.757 775.682 373.637 776.044 367.599C776.406 361.52 776.623 355.397 776.694 349.23C776.719 347.147 776.742 345.085 776.766 343.043C776.79 340.96 776.773 338.876 776.714 336.792C774.841 336.562 772.988 336.416 771.156 336.353C769.323 336.248 767.47 336.185 765.595 336.163C762.054 336.122 758.407 336.205 754.654 336.412C754.489 339.827 754.348 342.992 754.231 345.907C754.156 348.823 754.102 351.719 754.068 354.594C754.044 356.718 754.039 358.885 754.055 361.094C754.072 363.261 754.107 365.595 754.162 368.096C754.258 370.597 754.372 373.307 754.505 376.225C754.638 379.102 754.81 382.271 755.02 385.732L734.021 385.488C734.079 380.489 734.11 376.072 734.112 372.239C734.115 368.405 734.093 364.884 734.047 361.675C734.002 358.424 733.912 355.339 733.78 352.421C733.689 349.461 733.558 346.376 733.387 343.166C733.216 339.914 733.028 336.39 732.822 332.596C732.616 328.76 732.375 324.361 732.1 319.399L755.802 318.236L755.199 327.105C757.593 325.466 760.046 324.203 762.556 323.315C765.067 322.427 767.366 321.766 769.455 321.332C771.877 320.86 774.234 320.596 776.527 320.539C779.568 320.574 782.272 321.022 784.637 321.883C787.044 322.744 789.134 323.935 790.908 325.456C792.725 326.936 794.246 328.682 795.473 330.697C796.7 332.711 797.695 334.889 798.46 337.232C799.267 339.533 799.822 341.956 800.126 344.502C800.471 347.047 800.63 349.57 800.601 352.07Z" fill="#242E3F"/>
<path d="M696.324 383.345C695.808 379.832 695.234 376.439 694.6 373.165C694.007 369.883 693.362 366.654 692.665 363.48C691.941 360.184 691.169 356.962 690.35 353.814C689.562 350.617 688.671 347.336 687.676 343.971C686.247 344.072 684.837 344.253 683.444 344.517C682.083 344.73 680.711 344.989 679.327 345.293C673.63 346.544 668.274 348.382 663.261 350.805C663.622 353.03 663.978 355.234 664.329 357.418C664.722 359.592 665.155 361.758 665.629 363.915C666.576 368.229 667.686 372.507 668.959 376.749C670.264 380.942 671.777 385.303 673.496 389.831C674.45 389.707 675.395 389.542 676.331 389.336C677.308 389.122 678.305 388.903 679.322 388.679C682.131 388.062 684.952 387.314 687.788 386.436C690.665 385.548 693.51 384.518 696.324 383.345ZM714.748 359.142C715.812 363.984 715.857 368.752 714.882 373.446C713.94 378.089 712.19 382.356 709.631 386.245C707.073 390.135 703.797 393.478 699.804 396.275C695.86 399.103 691.406 401.063 686.441 402.153C681.517 403.235 676.774 403.295 672.212 402.335C667.699 401.406 663.588 399.686 659.879 397.173C656.211 394.651 653.078 391.457 650.48 387.591C647.873 383.685 646.038 379.31 644.974 374.467C643.66 368.485 643.354 363.113 644.058 358.351C644.761 353.589 646.28 349.437 648.617 345.895C650.994 342.344 654.085 339.426 657.892 337.139C661.73 334.803 666.111 333.094 671.035 332.013C676 330.922 680.834 330.692 685.538 331.323C690.281 331.945 694.612 333.404 698.529 335.7C702.446 337.997 705.819 341.117 708.648 345.06C711.508 348.954 713.541 353.647 714.748 359.142Z" fill="#242E3F"/>
<path d="M631.699 353.536C630.97 352.787 630.257 352.051 629.56 351.329C628.831 350.58 628.075 349.862 627.292 349.176C624.597 346.814 621.686 344.762 618.559 343.02C616.131 346.044 613.795 349.122 611.55 352.252C609.334 355.351 607.184 358.563 605.1 361.89L614.454 370.086C618.56 373.684 622.634 377.253 626.676 380.796C630.688 384.31 634.758 387.821 638.887 391.328L625.399 409.093C624.322 407.983 623.219 406.933 622.091 405.945C620.99 404.925 619.86 403.907 618.7 402.891C611.43 396.521 604.114 390.36 596.753 384.408C589.42 378.426 581.945 372.541 574.329 366.755L588.636 347.297C589.513 348.066 590.377 348.851 591.227 349.651C592.045 350.424 592.894 351.194 593.771 351.963C594.047 348.992 594.637 346.296 595.54 343.874C596.471 341.421 597.423 339.292 598.396 337.485C599.531 335.432 600.78 333.563 602.145 331.879C605.574 328.346 609.317 325.781 613.375 324.184C615.072 323.511 616.944 323.019 618.991 322.707C621.006 322.367 623.146 322.359 625.411 322.682C627.645 322.977 629.981 323.694 632.418 324.832C634.824 325.943 637.296 327.611 639.835 329.835C640.712 330.604 641.595 331.461 642.484 332.406C643.342 333.324 644.235 334.328 645.163 335.418L631.699 353.536Z" fill="#242E3F"/>
<path d="M587.215 438.947C586.142 435.563 585.03 432.306 583.879 429.176C582.767 426.031 581.612 422.948 580.414 419.927C579.17 416.79 577.891 413.734 576.577 410.758C575.286 407.729 573.88 404.634 572.358 401.472C570.964 401.801 569.601 402.207 568.269 402.69C566.96 403.12 565.647 403.595 564.33 404.117C558.907 406.267 553.916 408.941 549.357 412.138C550.07 414.276 550.775 416.394 551.473 418.493C552.209 420.577 552.985 422.645 553.799 424.698C555.426 428.803 557.209 432.848 559.147 436.831C561.108 440.759 563.301 444.82 565.725 449.014C566.647 448.738 567.553 448.423 568.444 448.07C569.374 447.702 570.323 447.325 571.291 446.942C573.963 445.882 576.629 444.691 579.287 443.368C581.983 442.03 584.626 440.556 587.215 438.947ZM601.514 412.099C603.342 416.709 604.152 421.408 603.944 426.196C603.759 430.931 602.716 435.423 600.815 439.673C598.915 443.923 596.218 447.749 592.726 451.15C589.288 454.575 585.206 457.224 580.481 459.098C575.794 460.956 571.122 461.777 566.465 461.562C561.862 461.37 557.528 460.332 553.464 458.447C549.438 456.547 545.833 453.897 542.648 450.499C539.447 447.061 536.933 443.038 535.106 438.429C532.849 432.735 531.685 427.482 531.614 422.669C531.544 417.856 532.377 413.514 534.114 409.643C535.89 405.756 538.473 402.379 541.863 399.511C545.276 396.589 549.326 394.199 554.013 392.341C558.738 390.467 563.473 389.464 568.216 389.332C572.998 389.184 577.507 389.928 581.742 391.566C585.977 393.204 589.807 395.742 593.232 399.18C596.68 402.564 599.441 406.87 601.514 412.099Z" fill="#242E3F"/>
<path d="M539.714 392.206C536.688 392.798 533.617 393.378 530.501 393.945C527.427 394.504 524.294 395.096 521.105 395.72L515.707 396.777C518.172 409.371 520.723 421.97 523.359 434.573C525.995 447.177 528.898 459.728 532.066 472.227L504.158 477.689C502.758 468.368 501.374 459.128 500.007 449.97C499.418 446.094 498.793 442.035 498.132 437.791C497.472 433.547 496.815 429.324 496.162 425.121C495.51 420.918 494.84 416.846 494.154 412.904C493.5 408.914 492.882 405.214 492.3 401.804C487.621 402.847 483.008 403.898 478.46 404.958C473.953 406.01 469.41 407.09 464.829 408.199L461.24 389.859C467.749 388.84 474.18 387.751 480.534 386.593C486.929 385.426 493.357 384.21 499.818 382.946C506.033 381.73 512.179 380.484 518.256 379.21C524.333 377.936 530.373 376.584 536.377 375.154L539.714 392.206Z" fill="#242E3F"/>
</g>
<defs>
<clipPath id="clip0_2001_2">
<rect width="1073.18" height="512" fill="white" transform="translate(0.912354 0.5)"/>
</clipPath>
</defs>
</svg>
