<svg width="524" height="250" xmlns="http://www.w3.org/2000/svg" fill="none">

 <g>
  <title>Layer 1</title>
  <path id="svg_1" fill="#AF8D67" d="m2.59908,84.0691l90.66492,-27.2573l21.575,-34.2601l3.085,23.5005l6.565,-7.8517l45.174,53.9486l-12.336,20.0879l37.813,0.569l16.503,102.811l-26.785,-5.074l14.628,13.239l-29.952,-8.799l-88.9585,28.078l-74.52513,-45.645l-3.45129,-113.3469z"/>
  <path id="svg_2" stroke-width="3" stroke="#956F43" d="m93.264,56.8118l-90.66492,27.2573l3.45129,113.3469m87.21363,-140.6042l12.54,109.1112m-12.54,-109.1112l21.575,-34.2601l3.085,23.5005m-12.12,119.8708l-99.75363,31.493m99.75363,-31.493l26.373,-19.596l-11.098,-67.2325m-15.275,86.8285l63.73,49.06m-63.73,-49.06l35.169,4.902l29.257,26.479m-164.17963,0.112l74.52513,45.645l88.9585,-28.078m0,0l29.952,8.799l-14.628,-13.239m-27.531,-98.306l12.903,85.067m-12.903,-85.067l37.813,0.569l16.503,102.811l-26.785,-5.074m-27.531,-98.306l-36.248,-33.1425m36.248,33.1425l12.336,-20.0879l-45.174,-53.9486l-6.565,7.8517m52.306,151.2518l14.628,13.239m-63.779,-131.4485l-3.155,-33.0423"/>
  <path id="svg_3" fill="#AF8D67" d="m54.0001,75.9998l102.9999,0l25,128.0002l-127.9999,-14l0,-114.0002z"/>
  <path id="svg_4" fill="#74522A" d="m162.816,114.897l6.795,80.112l-28.12,-25.427l-32.936,-4.496l22.26,-17.167l-8.919,-66.9447l40.92,33.9227z"/>
  <path id="svg_5" stroke-linejoin="bevel" stroke-width="3" stroke="white" fill="#FFF537" d="m477.598,132.086l1.752,-0.691l23.455,-41.3079l-0.476,-1.9912c-7.539,-4.9929 -20.957,-8.7361 -38.059,-11.0044c-17.165,-2.2767 -38.254,-3.093 -61.315,-2.0913c-28.061,0.4731 -51.265,4.8619 -74.02,9.1658c-3.99,0.7548 -7.967,1.507 -11.954,2.2349c-26.732,4.8814 -54.024,8.7034 -89.309,5.1064c-29.839,-3.0416 -50.356,-7.7672 -68.451,-11.9347c-3.362,-0.7741 -6.64,-1.529 -9.878,-2.2503c-20.712,-4.6133 -39.752,-7.8324 -68.4481,-5.8186c-3.4607,0.2429 -5.6978,0.478 -6.8405,0.7571c-0.2826,0.069 -0.6162,0.1671 -0.9069,0.3261c-0.1434,0.0784 -0.3762,0.2243 -0.5762,0.4744c-0.2267,0.2834 -0.4234,0.7258 -0.3425,1.2593c0.0723,0.477 0.3334,0.7904 0.4933,0.947c0.1674,0.1639 0.3437,0.2739 0.4698,0.3436c0.2542,0.1406 0.5453,0.2476 0.8101,0.3322c1.0477,0.3346 2.913,0.691 5.1614,1.0934c0.7019,0.1256 1.4496,0.257 2.2366,0.3954c1.7957,0.3156 3.7961,0.6673 5.9236,1.0677c6.124,1.1528 13.1444,2.6827 18.8464,4.8051c2.853,1.0618 5.305,2.2466 7.132,3.5609c1.841,1.3242 2.898,2.6701 3.246,4.0107c1.889,7.2714 4.618,17.3994 7.743,25.2594c1.554,3.909 3.256,7.39 5.075,9.681c0.906,1.142 1.935,2.109 3.104,2.626c1.136,0.502 2.352,0.552 3.531,0.03c6.931,-0.245 13.325,-0.545 19.246,-0.824c15.857,-0.745 28.324,-1.331 38.645,-0.258c7.064,0.734 13.013,2.241 18.257,4.964c5.234,2.717 9.843,6.685 14.171,12.449c2.621,3.49 7.652,5.204 13.971,5.9c6.407,0.705 14.567,0.406 23.968,-0.536c16.299,-1.635 36.6,-5.237 58.453,-9.114c3.362,-0.597 6.762,-1.2 10.189,-1.803c25.738,-4.533 53.091,-9.095 78.462,-11.132c25.402,-2.04 48.648,-1.532 66.235,3.967z"/>
  <path id="svg_6" stroke-linejoin="bevel" stroke-width="3" stroke="white" fill="#F68887" d="m481.33,181.204c1.135,0.981 1.136,0.98 1.137,0.979l0.002,-0.003l0.004,-0.005l0.01,-0.012c0.008,-0.009 0.017,-0.02 0.028,-0.033c0.021,-0.026 0.048,-0.06 0.079,-0.101c0.064,-0.083 0.148,-0.198 0.249,-0.347c0.203,-0.298 0.474,-0.734 0.786,-1.329c0.626,-1.192 1.416,-3.019 2.161,-5.66c1.489,-5.28 2.796,-13.814 2.238,-27.031c-0.56,-13.258 -3.231,-20.813 -5.905,-25.105c-1.339,-2.15 -2.674,-3.471 -3.727,-4.27c-0.525,-0.398 -0.975,-0.662 -1.313,-0.832c-0.17,-0.086 -0.31,-0.147 -0.419,-0.191c-0.043,-0.017 -0.081,-0.031 -0.114,-0.043c-23.257,-10.242 -41.049,-12.341 -75.683,-9.169c-20.602,1.888 -41.821,6.063 -62.852,10.202c-5.11,1.005 -10.209,2.009 -15.285,2.977c-26.031,4.963 -51.492,8.998 -75.148,7.771c-36.133,-1.875 -58.028,-6.606 -75.56,-11.36c-3.953,-1.072 -7.699,-2.151 -11.348,-3.201c-12.453,-3.584 -23.77,-6.842 -38.313,-8.411c-1.878,-0.712 -3.62,-0.897 -5.198,-0.509c-1.647,0.405 -2.94,1.392 -3.924,2.692c-1.908,2.519 -2.781,6.372 -3.122,10.342c-0.689,8.018 0.707,17.718 1.95,21.875l1.09,1.029c11.968,2.846 22.943,5.384 32.945,7.697c13.976,3.232 26.053,6.025 36.287,8.606c17.612,4.441 29.468,8.189 36.009,12.317c1.121,0.707 2.853,1.171 4.899,1.514c2.106,0.352 4.755,0.605 7.865,0.784c6.224,0.357 14.425,0.42 24.078,0.325c9.808,-0.096 21.195,-0.356 33.588,-0.64c11.948,-0.273 24.831,-0.567 38.138,-0.757c54.423,-0.775 116.327,0.201 153.942,11.337l1.561,-0.457l-1.135,-0.981z"/>
  <path id="svg_7" stroke-linejoin="bevel" stroke-width="3" stroke="white" fill="#91CCF4" d="m121.574,141.502l-0.979,0.299c-6.673,5.036 -11.572,9.446 -15.018,13.317c-3.435,3.86 -5.491,7.257 -6.3664,10.273c-0.8907,3.069 -0.5529,5.738 0.7658,7.971c1.2866,2.18 3.4136,3.785 5.8156,4.981c4.786,2.382 11.2,3.398 16.284,3.839c2.568,0.223 4.845,0.302 6.482,0.326c0.819,0.012 1.479,0.01 1.937,0.005c0.229,-0.003 0.407,-0.006 0.529,-0.009c0.061,-0.001 0.108,-0.002 0.141,-0.003l0.014,-0.001c18.673,0.286 34.957,4.379 53.375,9.008c1.826,0.459 3.672,0.923 5.543,1.389c20.748,5.167 44.452,10.54 76.858,11.603c16.288,0.534 34.664,-1.882 53.881,-5.334c9.615,-1.728 19.462,-3.719 29.38,-5.737c0.636,-0.13 1.272,-0.259 1.908,-0.389c9.295,-1.892 18.644,-3.796 27.939,-5.522c19.869,-3.69 39.42,-6.557 57.517,-6.768c18.1,-0.21 34.641,2.239 48.546,9.095l2.128,-1.031c2.987,-14.118 3.008,-23.317 2.24,-29.049c-0.385,-2.868 -0.967,-4.871 -1.476,-6.186c-0.254,-0.658 -0.49,-1.142 -0.672,-1.477c-0.091,-0.167 -0.169,-0.296 -0.228,-0.39c-0.03,-0.047 -0.056,-0.086 -0.076,-0.116c-0.01,-0.015 -0.019,-0.028 -0.027,-0.038l-0.011,-0.015l-0.004,-0.006l-0.002,-0.003c-0.001,-0.001 -0.002,-0.003 -1.211,0.882l1.209,-0.885l-0.347,-0.341c-12.257,-8.641 -28.223,-11.254 -46.286,-10.592c-18.073,0.662 -38.462,4.615 -59.72,9.316c-5.411,1.197 -10.878,2.441 -16.379,3.694c-37.875,8.623 -77.388,17.62 -111.605,13.9c-39.406,-4.283 -65.079,-10.391 -84.523,-15.615c-3.391,-0.911 -6.601,-1.798 -9.668,-2.645c-14.467,-3.998 -25.761,-7.119 -37.894,-7.746z"/>
  <path id="svg_8" fill="#242E3F" d="m192.053,166.934c-7.586,-1.057 -14.552,4.387 -15.55,12.152c-0.231,1.8 -0.008,3.549 0.387,5.266l-69.788,22.74c-2.426,1.896 48.806,-3.155 50.668,-0.662c0.955,1.278 2.326,1.928 3.756,2.127c1.429,0.199 2.923,-0.108 4.16,-1.024l17.935,-14.168c1.46,0.834 3.051,1.514 4.865,1.767c7.586,1.057 17.118,-4.641 16.341,-14.308l-12.96,4.425l-5.098,-5.9l9.435,-11.486c0,0 -3.223,-0.743 -4.103,-0.865l-0.048,-0.064z"/>
  <path id="svg_9" fill="#242E3F" d="m110.684,138.091l1.642,9.279c-0.498,0.565 -0.856,1.216 -1.213,1.868l-9.339,1.407l-1.585,7.196l7.82,5.489c0.088,0.81 0.159,1.458 0.31,2.23l-5.364,7.613l3.976,6.205l9.34,-1.407c0.644,0.469 1.21,0.813 1.916,1.244l1.643,9.279l7.31,1.74l5.364,-7.613c0.715,-0.092 1.469,-0.123 2.246,-0.254l7.82,5.489l6.178,-3.789l-1.642,-9.279c0.396,-0.589 0.855,-1.217 1.212,-1.868l9.34,-1.407l1.585,-7.196l-7.82,-5.489c-0.111,-0.711 -0.2,-1.521 -0.31,-2.231l5.363,-7.612l-3.976,-6.205l-9.339,1.407c-0.543,-0.445 -1.25,-0.876 -1.916,-1.245l-1.643,-9.279l-7.31,-1.739l-5.364,7.612c-0.715,0.093 -1.532,0.162 -2.247,0.255l-7.82,-5.49l-6.177,3.79zm13.028,13.618c5.128,-3.145 11.931,-1.527 15.231,3.623c3.3,5.151 1.824,11.847 -3.303,14.993c-5.128,3.145 -11.93,1.526 -15.23,-3.624c-3.3,-5.15 -1.825,-11.847 3.302,-14.992z"/>
  <path id="svg_10" fill="#AF8D67" d="m3.04055,84.1932l90.66495,-27.2573l21.5755,-34.2601l3.084,23.5005l3.156,33.0423l11.097,67.2324l-26.372,19.596l35.168,4.902l29.257,26.479l14.628,13.239l14.629,13.239l-29.953,-8.799l-88.958,28.078l-74.52516,-45.645l-3.45129,-113.3468z"/>
  <path id="svg_11" stroke-width="3" stroke="#956F43" d="m93.7055,56.9359l-90.66495,27.2573l3.45129,113.3468m87.21366,-140.6041l12.5405,109.1111m-12.5405,-109.1111l21.5755,-34.2601l3.084,23.5005l3.156,33.0423l11.097,67.2324l-26.372,19.596m0,0l-99.75416,31.493m99.75416,-31.493l63.729,49.06m-63.729,-49.06l35.168,4.902l29.257,26.479l14.628,13.239l14.629,13.239l-29.953,-8.799m-163.48316,-17.567l74.52516,45.645l88.958,-28.078"/>
  <path id="svg_12" fill="#242E3F" d="m183.035,112.18c0.272,3.374 -0.173,6.283 -1.335,8.724c-1.138,2.414 -2.843,4.442 -5.115,6.083c-2.247,1.612 -4.982,2.859 -8.203,3.738c-3.219,0.905 -6.75,1.509 -10.593,1.81c-1.739,0.137 -3.557,0.109 -5.454,-0.082c-1.894,-0.164 -3.779,-0.526 -5.652,-1.084c-1.876,-0.585 -3.689,-1.357 -5.439,-2.317c-1.749,-0.959 -3.348,-2.153 -4.795,-3.581c-1.424,-1.455 -2.67,-3.147 -3.74,-5.074c-1.044,-1.929 -1.797,-4.143 -2.259,-6.64l16.952,-1.682c0.007,0.731 0.04,1.473 0.101,2.225c0.06,0.753 0.123,1.532 0.188,2.336c0.182,2.258 0.446,4.562 0.792,6.912c1.546,0.062 3.088,0.071 4.627,0.029c1.538,-0.042 3.073,-0.123 4.605,-0.243c1.531,-0.12 3.047,-0.278 4.547,-0.474c1.499,-0.196 3.021,-0.446 4.564,-0.75c0.059,-0.893 0.094,-1.757 0.105,-2.594c0.008,-0.863 -0.023,-1.735 -0.094,-2.618c-0.115,-1.427 -0.322,-2.861 -0.62,-4.3c-0.299,-1.439 -0.65,-2.875 -1.052,-4.306c-1.835,-0.065 -3.944,-0.135 -6.327,-0.209c-2.384,-0.074 -4.842,-0.26 -7.374,-0.558c-2.508,-0.326 -4.99,-0.81 -7.446,-1.454c-2.431,-0.671 -4.637,-1.621 -6.617,-2.85c-1.983,-1.255 -3.626,-2.85 -4.932,-4.7852c-1.305,-1.935 -2.074,-4.343 -2.306,-7.2241c-0.161,-1.9986 0.056,-3.8441 0.651,-5.5363c0.622,-1.6943 1.504,-3.2262 2.648,-4.5958c1.168,-1.3975 2.544,-2.6416 4.128,-3.7323c1.61,-1.0927 3.312,-2.0228 5.105,-2.7903c1.82,-0.7695 3.677,-1.3853 5.574,-1.8475c1.896,-0.4621 3.74,-0.7634 5.531,-0.9039c3.921,-0.3074 7.423,0.0318 10.507,1.0176c3.084,0.9858 5.718,2.3857 7.902,4.1995c2.208,1.7859 3.969,3.868 5.284,6.2463c1.315,2.3782 2.163,4.7932 2.543,7.2447l-17.644,3.3034c0.05,-0.9965 0.049,-1.989 -0.005,-2.9773c-0.029,-1.0164 -0.084,-2.0177 -0.163,-3.0041c-0.182,-2.2581 -0.522,-4.53 -1.019,-6.8157c-0.894,-0.0606 -1.784,-0.0822 -2.671,-0.0649c-0.86,0.0153 -1.732,0.0575 -2.615,0.1268c-3.505,0.2748 -7.015,0.981 -10.529,2.1185c0.001,0.6529 0.026,1.2909 0.076,1.9138c0.05,0.623 0.099,1.2329 0.147,1.8299c0.147,1.817 0.356,3.6028 0.628,5.3577c0.296,1.7268 0.722,3.4564 1.28,5.1889c2.178,0.1165 4.54,0.2448 7.085,0.3847c2.544,0.114 5.097,0.3448 7.659,0.6924c2.586,0.3196 5.08,0.7901 7.482,1.4115c2.425,0.5937 4.582,1.4167 6.469,2.4707c1.912,1.025 3.481,2.339 4.707,3.94c1.224,1.576 1.928,3.506 2.112,5.79z"/>
  <path transform="rotate(12, 244.446, 180.964)" id="svg_13" fill="#242E3F" d="m268.11445,153.42278c-1.49654,6.07956 -2.96792,11.30395 -4.41413,15.673c-1.44621,4.36914 -2.74144,7.96462 -3.88494,10.78534c-1.34037,3.29994 -2.61858,6.05159 -3.83535,8.25667c0.01924,0.4903 0.05699,1.05564 0.11398,1.69687c0.05403,0.61906 0.12508,1.30207 0.2139,2.04988c0.14358,1.20998 0.31678,2.50522 0.51957,3.88489c0.2028,1.38052 0.41003,2.71499 0.62097,4.00427c0.23092,1.28587 0.44778,2.46174 0.65205,3.52846c0.2213,1.04114 0.41299,1.84012 0.57656,2.39693l-15.92165,2.80537c0.03257,-0.38627 0.04663,-1.00448 0.04293,-1.85547c0.01258,-0.87572 0.00444,-1.84865 -0.0259,-2.91964c-0.01332,-1.09572 -0.05181,-2.24345 -0.11694,-3.44319c-0.04515,-1.20316 -0.09104,-2.32701 -0.13766,-3.37327c-0.04885,-1.06758 -0.10066,-2.00043 -0.15691,-2.79855c-0.03627,-0.80068 -0.06217,-1.34556 -0.07697,-1.63462c-0.99695,-1.34641 -2.0657,-2.81646 -3.20846,-4.4093c-1.14498,-1.61416 -2.33733,-3.29994 -3.5763,-5.05735c-1.24268,-1.77873 -2.50904,-3.59923 -3.79982,-5.45982c-1.29374,-1.88361 -2.56825,-3.76918 -3.8235,-5.65816c-1.25748,-1.91098 -2.49423,-3.80286 -3.70804,-5.67581c-1.19605,-1.87585 -2.32622,-3.69457 -3.39127,-5.45624l16.345,-1.69431c0.57878,1.43373 1.29819,3.06971 2.15896,4.90795c0.86003,1.83824 1.82146,3.7951 2.88502,5.87065c1.0606,2.05355 2.20632,4.16125 3.43494,6.32283c1.22935,2.16244 2.49201,4.27372 3.78724,6.33639c1.031,-3.11746 1.99909,-6.26988 2.90501,-9.45735c0.38339,-1.35894 0.77788,-2.78687 1.18421,-4.28369c0.40559,-1.49682 0.78972,-3.01266 1.15238,-4.5476c0.3597,-1.55694 0.69424,-3.08736 1.00213,-4.59143c0.30493,-1.52599 0.55954,-2.98811 0.76307,-4.38644l11.71994,-1.81727z"/>
  <path id="svg_14" fill="#242E3F" d="m480.593,113.876c0.592,-2.362 1.065,-4.844 1.42,-7.448c0.379,-2.625 0.646,-5.303 0.803,-8.0325c0.165,-2.8889 0.216,-5.7619 0.151,-8.6189c-0.063,-2.8797 -0.235,-5.6518 -0.516,-8.3162c-1.253,-0.4397 -2.623,-0.8406 -4.108,-1.2028c-1.283,-0.3273 -2.782,-0.6446 -4.499,-0.9521c-1.695,-0.3061 -3.543,-0.5186 -5.545,-0.6375c-0.386,-0.023 -0.784,-0.0467 -1.194,-0.071c-0.409,-0.0243 -0.82,-0.0259 -1.232,-0.0047c-0.022,0.3867 -0.06,1.0464 -0.113,1.979c-0.054,0.9327 -0.12,2.0814 -0.198,3.4463c-0.054,1.3435 -0.13,2.8682 -0.228,4.5743c-0.074,1.6847 -0.153,3.4604 -0.237,5.327c-0.084,1.8667 -0.159,3.7795 -0.226,5.7385c-0.066,1.9586 -0.12,3.8956 -0.162,5.8106c-0.041,1.915 -0.078,3.762 -0.112,5.54c-0.009,1.757 0.001,3.378 0.03,4.864c2.098,0.033 4.1,-0.053 6.006,-0.26c1.929,-0.205 3.631,-0.435 5.107,-0.689c1.729,-0.308 3.347,-0.657 4.853,-1.047zm-17.898,-43.7581c2.684,0.1595 5.429,0.4595 8.234,0.9001c2.828,0.4419 5.552,1.0945 8.173,1.9579c2.644,0.8646 5.125,1.9821 7.443,3.3524c2.318,1.3703 4.311,3.0522 5.977,5.0457c1.689,1.9949 2.98,4.3541 3.874,7.0778c0.895,2.7009 1.24,5.837 1.036,9.4084c-0.199,3.4578 -0.83,6.5018 -1.893,9.1318c-1.064,2.63 -2.439,4.922 -4.126,6.876c-1.663,1.933 -3.581,3.542 -5.755,4.828c-2.174,1.286 -4.48,2.302 -6.919,3.047c-2.417,0.747 -4.91,1.238 -7.48,1.473c-2.571,0.258 -5.085,0.314 -7.542,0.168c-2.389,-0.142 -4.49,-0.324 -6.303,-0.546c-1.814,-0.199 -3.355,-0.393 -4.623,-0.582c-1.471,-0.225 -2.747,-0.46 -3.828,-0.707c0.528,-4.443 1.022,-8.876 1.481,-13.299c0.459,-4.424 0.817,-8.8763 1.074,-13.3576c0.126,-2.2065 0.213,-4.3127 0.259,-6.3186c0.069,-2.0045 0.114,-3.9876 0.136,-5.9493c0.021,-1.9617 0.02,-3.9361 -0.003,-5.9233c0.001,-2.0086 -0.003,-4.1315 -0.012,-6.3689c1.909,-0.2518 3.776,-0.3691 5.601,-0.352c1.826,-0.0056 3.558,0.0403 5.196,0.1376z"/>
  <path id="svg_15" fill="#242E3F" d="m254.404,120.773c-0.473,1.448 -1.145,2.717 -2.015,3.808c-0.864,1.073 -1.902,1.985 -3.114,2.738c-1.206,0.734 -2.567,1.314 -4.083,1.74c-1.516,0.427 -3.156,0.699 -4.921,0.817l7.323,19.28l-13.349,-2.821l-3.458,-16.866c-0.611,-0.078 -1.238,-0.172 -1.881,-0.28c-0.642,-0.109 -1.294,-0.221 -1.955,-0.336c-0.477,1.961 -0.953,4.015 -1.428,6.161c-0.457,2.153 -0.941,4.451 -1.452,6.894l-13.463,-3.414c1.93,-4.649 3.767,-9.297 5.512,-13.945c1.77,-4.661 3.438,-9.386 5.003,-14.175c0.406,-1.244 0.767,-2.38 1.082,-3.407c0.334,-1.021 0.64,-2.02 0.918,-2.997c0.297,-0.972 0.585,-1.977 0.863,-3.017c0.278,-1.0389 0.586,-2.202 0.924,-3.4888c2.47,0.0521 4.912,0.3112 7.329,0.7775c2.434,0.4724 4.895,1.1178 7.381,1.9363c1.243,0.409 2.561,0.935 3.953,1.579c1.393,0.643 2.737,1.404 4.032,2.283c1.314,0.884 2.517,1.887 3.61,3.007c1.111,1.127 2.004,2.387 2.679,3.781c0.693,1.4 1.109,2.925 1.248,4.574c0.139,1.65 -0.107,3.44 -0.738,5.371zm-20.406,-15.938c-0.994,3.044 -1.938,5.993 -2.829,8.845c-0.866,2.84 -1.704,5.782 -2.514,8.826l1.141,0.376c1.633,0.537 3.29,1.031 4.971,1.482c1.682,0.45 3.307,0.79 4.877,1.019c0.587,-0.917 1.146,-1.998 1.676,-3.242c0.554,-1.257 1.059,-2.581 1.514,-3.974c0.291,-0.891 0.554,-1.791 0.79,-2.7c0.242,-0.928 0.453,-1.825 0.633,-2.691c0.186,-0.885 0.32,-1.735 0.402,-2.551c0.1,-0.81 0.158,-1.552 0.172,-2.226c-0.247,-0.122 -0.544,-0.251 -0.891,-0.385c-0.328,-0.129 -0.705,-0.263 -1.132,-0.404c-0.853,-0.281 -1.79,-0.558 -2.81,-0.832c-1.002,-0.268 -1.957,-0.521 -2.865,-0.758c-1.045,-0.262 -2.09,-0.523 -3.135,-0.785z"/>
  <path id="svg_16" fill="#242E3F" d="m439.979,86.3713c0.18,1.4617 0.112,2.8485 -0.203,4.1604c-0.317,1.2932 -0.851,2.5176 -1.604,3.6731c-0.754,1.1368 -1.708,2.2025 -2.861,3.1971c-1.152,0.9945 -2.477,1.9052 -3.973,2.7321l14.314,13.878l-12.844,3.002l-9.94,-13.349c-0.567,0.182 -1.155,0.357 -1.762,0.526c-0.607,0.168 -1.223,0.337 -1.849,0.508c0.386,1.912 0.812,3.905 1.275,5.978c0.482,2.072 1.001,4.282 1.555,6.63l-13.186,2.53c-0.216,-4.861 -0.513,-9.683 -0.89,-14.468c-0.361,-4.805 -0.838,-9.6254 -1.431,-14.46c-0.154,-1.2555 -0.303,-2.3974 -0.448,-3.4258c-0.127,-1.0306 -0.268,-2.0309 -0.425,-3.0008c-0.139,-0.9721 -0.299,-1.9701 -0.482,-2.994c-0.182,-1.0238 -0.389,-2.1684 -0.62,-3.4336c2.183,-0.9666 4.428,-1.741 6.734,-2.3231c2.325,-0.5844 4.744,-1.028 7.256,-1.3306c1.256,-0.1514 2.625,-0.2308 4.108,-0.2383c1.483,-0.0075 2.971,0.1079 4.465,0.3462c1.513,0.2361 2.977,0.6206 4.393,1.1536c1.435,0.5307 2.733,1.268 3.895,2.2118c1.181,0.9417 2.17,2.106 2.968,3.4931c0.798,1.3871 1.316,3.055 1.555,5.0038zm-24.397,-5.5888c0.377,3.0731 0.76,6.0409 1.149,8.9034c0.406,2.8415 0.878,5.7606 1.416,8.7572l1.153,-0.1389c1.65,-0.1988 3.303,-0.4455 4.96,-0.7402c1.657,-0.2947 3.219,-0.6636 4.687,-1.1066c0.138,-1.0436 0.184,-2.2186 0.138,-3.5251c-0.03,-1.3275 -0.131,-2.694 -0.303,-4.0994c-0.11,-0.8994 -0.249,-1.7955 -0.415,-2.6882c-0.169,-0.9114 -0.352,-1.7831 -0.549,-2.615c-0.2,-0.8507 -0.431,-1.65 -0.694,-2.398c-0.244,-0.7502 -0.498,-1.4232 -0.761,-2.019c-0.267,-0.0059 -0.58,0.0033 -0.938,0.0275c-0.34,0.0219 -0.725,0.0588 -1.156,0.1108c-0.863,0.1039 -1.797,0.2449 -2.802,0.4231c-0.987,0.1759 -1.926,0.3462 -2.819,0.5108c-1.022,0.1992 -2.044,0.3984 -3.066,0.5976z"/>
  <path id="svg_17" fill="#242E3F" d="m272.829,151.687c0.042,-0.546 0.074,-1.092 0.097,-1.64c0.025,-0.566 0.058,-1.122 0.099,-1.668c-1.066,0.825 -2.164,1.43 -3.291,1.815c-1.108,0.367 -2.122,0.628 -3.043,0.783c-1.074,0.181 -2.13,0.249 -3.169,0.205c-1.882,-0.148 -3.676,-0.583 -5.382,-1.304c-1.688,-0.701 -3.166,-1.679 -4.434,-2.934c-1.267,-1.255 -2.259,-2.772 -2.974,-4.552c-0.696,-1.797 -1.004,-3.838 -0.923,-6.123c0.175,-2.296 0.646,-4.361 1.411,-6.195c0.767,-1.852 1.823,-3.407 3.169,-4.665c1.347,-1.257 2.97,-2.18 4.871,-2.769c1.902,-0.608 4.068,-0.826 6.498,-0.654c0.075,0.006 0.356,0.047 0.843,0.123c0.506,0.059 1.121,0.193 1.844,0.401c0.724,0.19 1.506,0.478 2.348,0.867c0.843,0.369 1.667,0.86 2.472,1.472l-0.186,-3.508l11.211,0.115c-0.639,5.385 -1.164,10.75 -1.573,16.096c-0.1,1.299 -0.194,2.532 -0.283,3.699c-0.07,1.15 -0.139,2.299 -0.208,3.449c-0.049,1.133 -0.099,2.284 -0.151,3.454c-0.031,1.152 -0.067,2.371 -0.109,3.656l-9.137,-0.123zm-12.662,-7.87c2.247,0.082 4.461,0.104 6.641,0.068c2.181,-0.037 4.341,-0.18 6.481,-0.428c0.122,-2.338 0.191,-4.605 0.208,-6.801c0.035,-2.194 0.018,-4.439 -0.052,-6.736l-1.61,-0.127c-1.826,-0.144 -3.666,-0.222 -5.521,-0.235c-1.834,-0.031 -3.694,0.021 -5.579,0.157c-0.377,1.959 -0.642,3.936 -0.795,5.931c-0.058,0.753 -0.093,1.461 -0.106,2.122c-0.011,0.643 -0.013,1.287 -0.006,1.931c0.027,0.646 0.062,1.303 0.105,1.969c0.063,0.667 0.141,1.384 0.234,2.149z"/>
  <path id="svg_18" fill="#242E3F" d="m394.513,125.965c-0.089,-0.597 -0.188,-1.193 -0.297,-1.788c-0.113,-0.615 -0.213,-1.221 -0.302,-1.819c-0.946,1.149 -1.978,2.069 -3.097,2.759c-1.102,0.666 -2.129,1.196 -3.082,1.588c-1.112,0.457 -2.231,0.789 -3.359,0.996c-2.061,0.302 -4.098,0.274 -6.11,-0.085c-1.989,-0.34 -3.818,-1.03 -5.489,-2.07c-1.671,-1.04 -3.11,-2.43 -4.316,-4.169c-1.188,-1.763 -2.019,-3.884 -2.492,-6.362c-0.374,-2.514 -0.373,-4.851 0.001,-7.011c0.372,-2.181 1.127,-4.113 2.268,-5.795c1.14,-1.683 2.661,-3.0742 4.562,-4.1734c1.898,-1.1199 4.175,-1.8847 6.831,-2.2944c0.082,-0.0121 0.395,-0.0367 0.937,-0.0739c0.559,-0.0609 1.254,-0.0677 2.082,-0.0205c0.825,0.0266 1.738,0.1457 2.739,0.3572c0.997,0.191 2.004,0.5174 3.02,0.9792l-1.059,-3.7294l12.09,-2.6218c0.631,5.9502 1.381,11.851 2.25,17.703c0.211,1.422 0.411,2.772 0.601,4.05c0.207,1.254 0.414,2.508 0.622,3.761c0.224,1.231 0.452,2.482 0.683,3.753c0.249,1.248 0.508,2.568 0.778,3.96l-9.861,2.106zm-15.551,-5.367c2.437,-0.462 4.825,-0.979 7.162,-1.553c2.337,-0.573 4.626,-1.256 6.868,-2.047c-0.441,-2.546 -0.922,-5.002 -1.442,-7.368c-0.499,-2.37 -1.067,-4.781 -1.706,-7.235l-1.762,0.257c-2,0.293 -3.999,0.659 -5.998,1.099c-1.981,0.416 -3.969,0.928 -5.964,1.536c0.073,2.2 0.272,4.392 0.597,6.576c0.122,0.824 0.257,1.594 0.406,2.309c0.145,0.695 0.301,1.388 0.466,2.08c0.187,0.688 0.385,1.385 0.595,2.092c0.231,0.703 0.49,1.454 0.778,2.254z"/>
  <path id="svg_19" fill="#242E3F" d="m325.244,118.468c0.243,2.634 0.103,5.036 -0.419,7.208c-0.503,2.148 -1.351,4.009 -2.544,5.583c-1.194,1.573 -2.714,2.836 -4.559,3.788c-1.846,0.953 -3.981,1.538 -6.405,1.757c-1.394,0.083 -2.782,0.017 -4.162,-0.198c-0.582,-0.096 -1.199,-0.221 -1.851,-0.375c-0.633,-0.177 -1.28,-0.394 -1.941,-0.653c-0.642,-0.282 -1.268,-0.619 -1.878,-1.01c-0.61,-0.391 -1.185,-0.86 -1.724,-1.406c0.396,3.597 0.809,7.15 1.239,10.659c0.432,3.53 0.883,6.92 1.353,10.17l-12.051,0.322c-0.112,-3.75 -0.274,-7.687 -0.484,-11.81c-0.211,-4.124 -0.456,-8.276 -0.736,-12.457c-0.26,-4.204 -0.56,-8.372 -0.899,-12.505c-0.318,-4.135 -0.652,-8.099 -1.002,-11.891l10.622,-0.958c-0.006,1.318 0.019,2.622 0.074,3.913c0.436,-0.571 0.921,-1.071 1.455,-1.502c0.553,-0.453 1.122,-0.855 1.706,-1.205c0.584,-0.35 1.172,-0.658 1.763,-0.924c0.613,-0.268 1.198,-0.49 1.756,-0.668c1.298,-0.436 2.641,-0.738 4.028,-0.905c1.159,-0.105 2.355,-0.042 3.587,0.186c1.231,0.208 2.433,0.577 3.609,1.109c1.196,0.529 2.322,1.214 3.377,2.053c1.076,0.838 2.039,1.834 2.889,2.99c0.851,1.155 1.556,2.462 2.115,3.92c0.558,1.436 0.918,3.04 1.082,4.809zm-25.859,10.617c1.573,0.241 3.042,0.385 4.407,0.431c1.383,0.024 2.823,-0.031 4.319,-0.166c0.885,-0.08 1.81,-0.195 2.773,-0.346c0.964,-0.15 2.01,-0.33 3.138,-0.538c0.018,-0.957 -0.005,-1.9 -0.07,-2.829c-0.043,-0.931 -0.109,-1.871 -0.196,-2.819c-0.177,-1.917 -0.425,-3.796 -0.743,-5.636c-0.321,-1.862 -0.706,-3.729 -1.155,-5.6c-2.014,0.054 -3.779,0.149 -5.297,0.286c-0.737,0.067 -1.441,0.152 -2.112,0.255c-0.672,0.081 -1.353,0.185 -2.043,0.311c-0.67,0.103 -1.361,0.219 -2.072,0.346c-0.689,0.126 -1.431,0.268 -2.224,0.424c0.292,4.541 0.655,9.161 1.088,13.859l0.187,2.022z"/>
  <path id="svg_20" fill="#242E3F" d="m198.987,98.713c-8.625,-0.1298 -14.056,3.659 -14.257,16.973c-0.221,14.683 7.637,15.802 16.262,15.931c11.499,0.174 14.619,-7.78 13.217,-14.302l-6.499,-0.098c-0.517,1.122 1.379,8.022 -8.112,7.379c-6.049,-0.41 -7.966,-2.296 -7.868,-8.805c0.115,-7.684 1.66,-10.661 7.16,-10.579c5.999,0.091 6.623,2.352 7.456,2.983l-4.045,2.94l12.968,2.195l1.181,-11.983l-4.045,2.939c-1.979,-1.4 -3.426,-4.9225 -13.418,-5.573z"/>
  <path id="svg_21" fill="#F3D24F" d="m508.954,144.166c0.27,-1.675 -2.013,-6.042 -2.013,-6.042l-3.383,8.389l-4.993,6.476l2.38,2.828c0,0 7.739,-9.977 8.009,-11.651z"/>
  <path id="svg_22" fill="#F3D24F" d="m493.601,163.15c1.122,-1.911 -2.938,-6.41 -2.938,-6.41l-5.268,10.228l-10.621,3.74c0,0 1.25,5.444 4.605,6.202c3.356,0.758 13.1,-11.849 14.222,-13.76z"/>
  <path id="svg_23" fill="#F3D24F" d="m476.339,163.079c2.087,0.609 5.356,-4.159 5.356,-4.159l-8.932,-3.491l-7.189,-8.542c0,0 -4.694,1.472 -4.435,6.16c0.259,4.688 13.113,9.423 15.2,10.032z"/>
  <path id="svg_24" fill="#F3D24F" d="m501.982,151.21l-4.442,1.825l4.858,6.563l-2.611,7.983c0,0 5.556,0.032 7.137,-1.739c1.581,-1.771 -4.942,-14.632 -4.942,-14.632z"/>
  <path id="svg_25" fill="#FFF537" d="m506.959,138.026c-2.176,-3.071 -11.742,-0.397 -15.78,0.776c-1.774,-3.073 -7.715,-11.201 -10.699,-9.883c-2.984,1.318 -3.68,9.001 -4.095,13.808c-3.94,0.623 -13.644,4.385 -14.436,7.428c-0.792,3.042 6.885,7.841 11.64,9.35c0.155,4.113 0.093,13.727 2.859,14.32c2.849,0.612 8.88,-5.519 12.204,-9.13c3.853,0.908 11.86,4.686 14.866,1.965c3.006,-2.72 -1.604,-10.706 -3.495,-14.701c2.796,-3.806 9.185,-10.758 6.936,-13.933z"/>
  <path id="svg_26" fill="#DB7372" d="m443.14096,203.86828c1.392,-0.968 2.949,-5.644 2.949,-5.644l-8.386,3.391l-8.127,0.904l-0.383,3.676c0,0 12.554,-1.359 13.947,-2.327z"/>
  <path id="svg_27" fill="#DB7372" d="m418.81796,206.00228c2.154,-0.519 2.573,-6.565 2.573,-6.565l-11.019,3.311l-10.065,-5.045c0,0 -3.05,4.679 -1.265,7.62c1.784,2.941 17.622,1.199 19.776,0.679z"/>
  <path id="svg_28" fill="#DB7372" d="m406.88296,193.53128c1.011,1.925 6.712,0.966 6.712,0.966l-3.691,-8.851l1.155,-11.105c0,0 -4.319,-2.355 -7.512,1.086c-3.193,3.442 2.326,15.98 3.336,17.904z"/>
  <path id="svg_29" fill="#DB7372" d="m433.22996,203.74228l-4.397,-1.929l-1.35,8.053l-7.557,3.665c0,0 3.835,4.02 6.207,3.928c2.372,-0.092 7.097,-13.717 7.097,-13.717z"/>
  <path id="svg_30" fill="#F68887" d="m446.46281,198.45913c0.699,-3.698 -7.867,-8.725 -11.516,-10.817c0.98,-3.41 2.703,-13.329 -0.317,-14.561c-3.021,-1.232 -9.033,3.602 -12.78,6.641c-3.184,-2.402 -12.629,-6.773 -15.369,-5.23c-2.739,1.543 -0.861,10.399 1.354,14.869c-2.851,2.968 -9.813,9.598 -8.32,12.001c1.539,2.475 10.138,2.557 15.045,2.442c2.022,3.403 4.863,11.788 8.909,12.062c4.045,0.274 6.59,-8.588 8.152,-12.723c4.68,-0.631 14.119,-0.861 14.842,-4.684z"/>
  <path id="svg_31" fill="#5698C7" d="m477.663,46.7357c1.392,-0.9683 2.949,-5.6443 2.949,-5.6443l-8.386,3.3917l-8.127,0.9033l-0.383,3.6766c0,0 12.554,-1.3591 13.947,-2.3273z"/>
  <path id="svg_32" fill="#5698C7" d="m453.34,48.8702c2.154,-0.5196 2.573,-6.5655 2.573,-6.5655l-11.019,3.3115l-10.065,-5.0458c0,0 -3.05,4.6794 -1.265,7.6206c1.784,2.9412 17.622,1.1988 19.776,0.6792z"/>
  <path id="svg_33" fill="#5698C7" d="m441.405,36.3991c1.011,1.9245 6.712,0.966 6.712,0.966l-3.691,-8.8515l1.155,-11.1044c0,0 -4.319,-2.3556 -7.512,1.0862c-3.193,3.4417 2.326,15.9791 3.336,17.9037z"/>
  <path id="svg_34" fill="#5698C7" d="m467.752,46.6095l-4.397,-1.9283l-1.35,8.0527l-7.557,3.6648c0,0 3.835,4.0198 6.207,3.9278c2.372,-0.092 7.097,-13.717 7.097,-13.717z"/>
  <path id="svg_35" fill="#91CCF4" d="m480.695,41.0369c0.699,-3.6982 -7.867,-8.7253 -11.516,-10.8164c0.98,-3.4107 2.703,-13.3298 -0.317,-14.5618c-3.021,-1.232 -9.033,3.6023 -12.78,6.641c-3.184,-2.4021 -12.629,-6.7729 -15.369,-5.2299c-2.739,1.5429 -0.861,10.399 1.354,14.8691c-2.851,2.9676 -9.813,9.5983 -8.32,12.0008c1.539,2.475 10.138,2.5573 15.045,2.4421c2.022,3.4034 4.863,11.788 8.909,12.0622c4.045,0.2742 6.59,-8.5883 8.152,-12.7234c4.68,-0.631 14.119,-0.8605 14.842,-4.6837z"/>
  <path id="svg_36" stroke-linecap="round" stroke-width="3" stroke="#956F43" d="m68.0331,82.7509c-3.4375,-0.3301 -6.8835,-0.461 -10.3153,-0.8577c-2.2299,-0.2578 -4.6646,-0.2957 -6.8553,-0.7616c-0.4886,-0.1038 0.793,0.1653 0.8929,0.1805c0.6342,0.0963 1.2642,-0.0182 1.771,0.386"/>
  <path id="svg_37" stroke-linecap="round" stroke-width="3" stroke="#956F43" d="m60.399,82.8207c-0.3352,1.643 -0.5344,3.3097 -0.8828,4.9483c-0.1138,0.535 -0.3671,0.9919 0.2321,0.5008"/>
  <path id="svg_38" stroke-linecap="round" stroke-width="3" stroke="#956F43" d="m65.7663,90.2266c-3.6766,-0.4055 -7.3741,-0.9442 -11.0614,-1.2421c-0.8015,-0.0647 -1.6032,-0.1269 -2.405,-0.1915c-0.0758,-0.0061 -1.8412,0.0531 -1.099,-0.1396"/>
  <path id="svg_39" stroke-linecap="round" stroke-width="3" stroke="#956F43" d="m50.3397,92.7032c2.7067,0.2146 4.8286,0.848 7.2928,1.8894c1.3842,0.5849 2.1993,1.6016 1.9979,3.2561c-0.5275,4.3343 -7.9257,3.8313 -10.4575,3.8753"/>
  <path id="svg_40" stroke-linecap="round" stroke-width="3" stroke="#956F43" d="m54.7033,94.4777c-0.4582,2.1548 -0.7375,4.5742 -0.7643,6.7793"/>
  <path id="svg_41" stroke-linecap="round" stroke-width="3" stroke="#956F43" d="m58.1513,110.247c1.1431,-6.572 -6.2912,-5.165 -8.3893,-4.121c-3.6747,3.278 0.5104,6.554 1.9808,5.973"/>
  <path id="svg_42" stroke-linecap="round" stroke-width="3" stroke="#956F43" d="m61.5166,116.85c-3.3829,0.296 -6.844,0.374 -10.6028,-0.48c-0.9664,-0.246 -3.5247,-0.756 -4.4991,-0.975m11.9194,7.36c-1.1996,-0.161 -3.885,2.216 -5.8378,-5.412m0.1719,0.164c-1.2419,7.128 -2.3495,5.186 -5.9261,3.879"/>
  <path id="svg_43" stroke-linecap="round" stroke-width="3" stroke="#956F43" d="m54.269,140.003c3.088,-0.169 4.2027,-5.738 1.5606,-8.097c-1.2597,-1.125 -4.2124,-3.776 -10.2412,-0.931c-4.1827,2.72 -2.4395,7.132 1.6091,7.912"/>
  <path id="svg_44" stroke-linecap="round" stroke-width="3" stroke="#956F43" d="m54.0426,145.023c-2.0643,-0.628 -7.2689,-2.013 -9.2949,-2.751c-0.2719,-0.099 -1.242,-0.633 -1.5261,-0.343c-0.8196,0.834 -1.1612,3.748 -1.1066,4.747"/>
  <path id="svg_45" stroke-linecap="round" stroke-width="3" stroke="#956F43" d="m47.9069,151.868c-1.8423,-2.632 -5.9864,-2.34 -6.5324,-0.416c-1.6797,5.917 2.7839,5.127 5.2529,4.491"/>
  <path id="svg_46" stroke-linecap="round" stroke-width="3" stroke="#956F43" d="m48.1359,161.993c-2.9703,-0.631 -11.9144,-2.364 -8.944,-1.732"/>
  <path id="svg_47" stroke-linecap="round" stroke-width="3" stroke="#956F43" d="m47.743,162.248c0.1422,1.629 1.0313,4.912 -1.4982,5.1c-1.8683,0.139 -2.3369,-1.185 -2.8422,-2.824c-0.1173,-0.381 -0.5062,-3.775 -0.3949,-1.815c0.0944,1.662 -0.1885,2.954 -1.6916,3.93c-2.8969,1.881 -5.3447,-1.496 -4.7499,-4.293c0.1939,-0.912 0.7618,-1.53 1.2952,-2.199"/>
  <path id="svg_48" fill="#956F43" d="m57.9336,211.212c-0.0444,-0.002 -0.8902,-0.445 -2.5376,-1.327c-0.543,0.742 -1.0437,1.371 -1.5019,1.886c-0.441,0.526 -0.8446,0.947 -1.2108,1.263c-0.2714,0.073 -0.5964,0 -0.975,-0.219c-0.7055,-0.407 -1.0142,-0.826 -0.926,-1.257c0.3874,-0.671 1.1311,-1.642 2.2311,-2.911c-0.6195,-0.358 -1.0497,-0.606 -1.2906,-0.745c-0.231,-0.156 -0.4239,-0.279 -0.5788,-0.369c-0.1377,-0.079 -0.3184,-0.183 -0.5421,-0.313c-0.1965,-0.136 -0.5787,-0.368 -1.1466,-0.696c-0.1893,-0.109 -0.4153,-0.274 -0.678,-0.495c-0.2356,-0.227 -0.4748,-0.469 -0.7177,-0.724c-0.2157,-0.262 -0.4228,-0.519 -0.6213,-0.771c-0.1813,-0.243 -0.2938,-0.445 -0.3374,-0.608c0.0378,-0.185 0.1163,-0.381 0.2355,-0.587c0.308,-0.533 0.8291,-1.059 1.5634,-1.575c0.5753,-0.242 1.5506,-0.918 2.9259,-2.028l4.0499,-2.067c0.2615,-0.056 0.5385,0.001 0.831,0.17c0.7227,0.417 0.9102,0.927 0.5625,1.529c-0.0099,0.018 -0.1175,0.105 -0.3228,0.261c-0.2052,0.157 -0.4933,0.358 -0.864,0.603c-0.3536,0.255 -0.78,0.536 -1.2792,0.844c-0.4893,0.292 -1.0229,0.58 -1.6009,0.866l-2.9637,2.212c0.0218,0.082 0.0844,0.152 0.1876,0.212c0.1377,0.079 0.2509,0.122 0.3396,0.127c0.0986,-0.012 0.143,-0.009 0.133,0.008c0.096,0.032 0.187,0.073 0.273,0.123c0.1132,0.042 0.2214,0.093 0.3247,0.153c0.1893,0.109 0.3772,0.241 0.5638,0.394c0.2138,0.147 0.4398,0.312 0.6781,0.495c0.4818,0.278 1.0646,0.58 1.7483,0.906l1.3023,-1.898c0.0722,-0.165 0.1444,-0.329 0.2166,-0.494c0.0895,-0.155 0.1789,-0.31 0.2683,-0.465c0.2186,-0.378 0.453,-0.725 0.7033,-1.039c0.2676,-0.305 0.5156,-0.655 0.7441,-1.051c0.0596,-0.103 0.1553,-0.288 0.2871,-0.556c0.1418,-0.286 0.2799,-0.585 0.4144,-0.897c0.1516,-0.302 0.2884,-0.579 0.4103,-0.83c0.1219,-0.251 0.1928,-0.393 0.2126,-0.428c0.4205,-0.331 0.8372,-0.377 1.2502,-0.138c0.0589,0.057 0.1228,0.105 0.1916,0.145c0.0589,0.057 0.14,0.115 0.2432,0.174c0.1033,0.06 0.2187,0.138 0.3465,0.235c0.0119,0.099 -0.0223,0.297 -0.1025,0.595c-0.053,0.29 -0.1395,0.619 -0.2595,0.986c-0.11,0.349 -0.2385,0.711 -0.3856,1.085c-0.1371,0.356 -0.2752,0.655 -0.4143,0.896c-0.149,0.258 -0.3315,0.554 -0.5474,0.889c-0.2159,0.334 -0.4914,0.771 -0.8266,1.312c-0.0225,0.079 -0.1083,0.247 -0.2573,0.505c-0.1391,0.241 -0.3265,0.546 -0.5623,0.915c-0.2358,0.368 -0.5199,0.801 -0.8524,1.297l0.2582,0.149c0.2409,0.139 0.4976,0.311 0.7703,0.514c0.2998,0.196 0.6377,0.425 1.0136,0.688c0.3017,0.312 0.2887,0.752 -0.0392,1.32c-0.2384,0.413 -0.5513,0.657 -0.9385,0.731zm7.72,8.071c-0.1059,-0.015 -0.2118,-0.03 -0.3177,-0.046c-0.096,-0.032 -0.1956,-0.078 -0.2989,-0.138l-0.1032,-0.059l-0.6453,-0.373c-0.1204,-0.069 -0.2409,-0.139 -0.3614,-0.208c-0.0933,-0.077 -0.2088,-0.155 -0.3464,-0.235c-0.1377,-0.079 -0.2803,-0.15 -0.4279,-0.213c-0.1377,-0.079 -0.2839,-0.163 -0.4388,-0.253c-0.1893,-0.109 -0.4226,-0.301 -0.6999,-0.576c-0.2673,-0.292 -0.6505,-0.582 -1.1495,-0.87c-0.1033,-0.06 -0.2115,-0.111 -0.3247,-0.153c-0.1032,-0.06 -0.2151,-0.124 -0.3355,-0.194c-0.1205,-0.069 -0.7528,-0.584 -1.897,-1.543c-0.1428,-0.587 -0.1099,-1.061 0.0987,-1.422c0.1689,-0.293 0.403,-0.559 0.7023,-0.8c0.5773,-0.125 1.0523,-0.252 1.425,-0.381c0.3727,-0.129 0.6604,-0.25 0.863,-0.363c0.6422,-0.317 1.2546,-0.583 1.8372,-0.797c0.6097,-0.222 1.2009,-0.431 1.7736,-0.628c0.0986,-0.012 0.2443,-0.066 0.4369,-0.161c0.2198,-0.102 0.4532,-0.209 0.7002,-0.318c0.2469,-0.11 0.4939,-0.22 0.7408,-0.33c0.2569,-0.127 0.4717,-0.221 0.6445,-0.282c0.7355,-0.24 1.2772,-0.662 1.6249,-1.264c0.3378,-0.585 0.2055,-1.052 -0.3967,-1.399c-0.2065,-0.12 -0.4587,-0.219 -0.7566,-0.299c-0.2879,-0.098 -0.5821,-0.164 -0.8826,-0.2c-0.2834,-0.026 -0.568,-0.03 -0.854,-0.012c-0.2859,0.019 -0.5253,0.076 -0.7179,0.171c-0.1483,0.098 -0.3523,0.233 -0.6118,0.404c-0.2423,0.181 -0.5155,0.356 -0.8194,0.525c-0.2939,0.151 -0.5902,0.267 -0.8888,0.347c-0.2886,0.063 -0.5448,0.03 -0.7685,-0.099c-0.3269,-0.189 -0.5499,-0.478 -0.6689,-0.868c-0.1191,-0.39 -0.0743,-0.766 0.1344,-1.127c0.0993,-0.172 0.3122,-0.382 0.6386,-0.63c0.3437,-0.237 0.7131,-0.46 1.1084,-0.668c0.4224,-0.215 0.8335,-0.39 1.2334,-0.526c0.4171,-0.127 0.7537,-0.173 1.0099,-0.14c1.496,-0.008 2.9496,0.395 4.3606,1.21c0.5506,0.318 0.957,0.667 1.219,1.048c0.2792,0.39 0.4512,0.788 0.5159,1.192c0.0648,0.405 0.0359,0.813 -0.0867,1.224c-0.1054,0.421 -0.2674,0.82 -0.486,1.199c-0.6259,1.084 -1.4744,1.799 -2.5456,2.144c-0.3085,0.097 -0.6047,0.213 -0.8888,0.347c-0.284,0.134 -0.5544,0.265 -0.8113,0.392c-0.2298,0.12 -0.4459,0.236 -0.6485,0.348c-0.1927,0.096 -0.3347,0.163 -0.4261,0.202c-0.2489,-0.006 -1.2747,0.4 -3.0775,1.217l-1.0586,0.284c0.5851,0.338 1.0556,0.655 1.4117,0.953c0.3832,0.29 0.5847,0.417 0.6046,0.383c0.2925,0.169 0.6453,0.373 1.0583,0.611c0.4401,0.231 0.9355,0.506 1.4861,0.824c0.2409,0.139 0.3494,0.408 0.3255,0.807c0.0031,0.392 -0.0946,0.76 -0.2933,1.104c-0.2683,0.465 -0.5748,0.678 -0.9197,0.639zm10.6464,6.147c-0.1059,-0.015 -0.2118,-0.031 -0.3177,-0.046c-0.096,-0.032 -0.1956,-0.078 -0.2989,-0.138l-0.1032,-0.06l-0.6453,-0.372c-0.1205,-0.07 -0.2409,-0.139 -0.3614,-0.209c-0.0933,-0.077 -0.2088,-0.155 -0.3465,-0.234c-0.1376,-0.08 -0.2802,-0.151 -0.4278,-0.213c-0.1377,-0.079 -0.284,-0.164 -0.4388,-0.253c-0.1893,-0.109 -0.4226,-0.301 -0.6999,-0.576c-0.2673,-0.292 -0.6505,-0.582 -1.1495,-0.87c-0.1033,-0.06 -0.2115,-0.111 -0.3247,-0.154c-0.1032,-0.059 -0.2151,-0.124 -0.3355,-0.193c-0.1205,-0.07 -0.7528,-0.584 -1.8971,-1.543c-0.1428,-0.587 -0.1098,-1.061 0.0988,-1.423c0.1689,-0.292 0.403,-0.559 0.7023,-0.799c0.5772,-0.125 1.0522,-0.253 1.425,-0.382c0.3727,-0.129 0.6604,-0.249 0.8629,-0.362c0.6423,-0.317 1.2547,-0.583 1.8373,-0.798c0.6097,-0.221 1.2009,-0.43 1.7736,-0.628c0.0986,-0.011 0.2442,-0.065 0.4369,-0.16c0.2198,-0.103 0.4532,-0.209 0.7001,-0.319c0.247,-0.11 0.4939,-0.219 0.7409,-0.329c0.2569,-0.127 0.4717,-0.221 0.6445,-0.282c0.7355,-0.241 1.2771,-0.662 1.6249,-1.264c0.3377,-0.586 0.2055,-1.052 -0.3968,-1.4c-0.2065,-0.119 -0.4586,-0.219 -0.7565,-0.299c-0.2879,-0.097 -0.5821,-0.164 -0.8827,-0.2c-0.2833,-0.026 -0.5679,-0.029 -0.8539,-0.011c-0.286,0.019 -0.5253,0.075 -0.718,0.171c-0.1483,0.098 -0.3522,0.232 -0.6117,0.404c-0.2424,0.181 -0.5155,0.356 -0.8194,0.525c-0.2939,0.151 -0.5902,0.267 -0.8888,0.347c-0.2886,0.063 -0.5448,0.03 -0.7685,-0.1c-0.3269,-0.188 -0.5499,-0.478 -0.669,-0.868c-0.119,-0.39 -0.0742,-0.765 0.1344,-1.127c0.0994,-0.172 0.3123,-0.381 0.6387,-0.629c0.3436,-0.237 0.7131,-0.46 1.1084,-0.668c0.4224,-0.215 0.8335,-0.39 1.2334,-0.527c0.417,-0.126 0.7537,-0.173 1.0098,-0.139c1.4961,-0.009 2.9496,0.395 4.3607,1.209c0.5506,0.318 0.957,0.668 1.219,1.048c0.2792,0.391 0.4512,0.789 0.5159,1.193c0.0648,0.405 0.0358,0.812 -0.0868,1.223c-0.1053,0.421 -0.2673,0.821 -0.4859,1.2c-0.6259,1.084 -1.4744,1.798 -2.5456,2.144c-0.3085,0.097 -0.6048,0.213 -0.8888,0.347c-0.284,0.134 -0.5545,0.265 -0.8114,0.392c-0.2297,0.12 -0.4459,0.236 -0.6485,0.348c-0.1926,0.095 -0.3346,0.163 -0.426,0.202c-0.2489,-0.006 -1.2747,0.399 -3.0775,1.217l-1.0586,0.284c0.5851,0.337 1.0556,0.655 1.4117,0.952c0.3831,0.29 0.5847,0.418 0.6045,0.384c0.2926,0.169 0.6453,0.372 1.0583,0.611c0.4402,0.231 0.9355,0.505 1.4862,0.823c0.2409,0.139 0.3494,0.409 0.3254,0.808c0.0032,0.392 -0.0945,0.76 -0.2932,1.104c-0.2683,0.464 -0.5749,0.677 -0.9197,0.639zm10.6371,4.076c-0.2523,0.199 -0.5254,0.374 -0.8194,0.525c-0.2767,0.162 -0.615,0.311 -1.0149,0.447c-0.3899,0.119 -0.8686,0.233 -1.4359,0.341c-0.5673,0.108 -1.2727,0.217 -2.1161,0.327c-2.0282,-0.024 -3.3693,-0.225 -4.0232,-0.602c-0.3442,-0.199 -0.4788,-0.403 -0.4039,-0.612c0.092,-0.199 0.2325,-0.462 0.4212,-0.789c0.159,-0.275 0.3791,-0.458 0.6605,-0.548c0.2814,-0.09 0.6094,-0.141 0.9841,-0.155c0.3746,-0.013 0.7923,-0.001 1.2531,0.036c0.4607,0.036 0.9585,0.048 1.4933,0.036c0.096,0.032 0.2562,0.033 0.4806,0.002c0.2416,-0.021 0.5488,-0.096 0.9215,-0.225l1.6108,-0.585c0.6349,-0.344 1.0865,-0.749 1.3548,-1.213c0.2483,-0.431 0.3637,-0.869 0.3459,-1.315c0.0094,-0.453 -0.0675,-0.876 -0.2309,-1.269c-0.1634,-0.393 -0.3874,-0.74 -0.6719,-1.042c-0.2574,-0.309 -0.5238,-0.543 -0.7991,-0.702c-0.1893,-0.109 -0.3935,-0.193 -0.6126,-0.251c-0.1919,-0.064 -0.3825,-0.152 -0.5718,-0.261c-0.1033,-0.059 -0.2482,-0.166 -0.4348,-0.32c-0.1695,-0.143 -0.324,-0.313 -0.4636,-0.508c-0.1396,-0.196 -0.2471,-0.407 -0.3225,-0.634c-0.0582,-0.217 -0.0277,-0.429 0.0916,-0.635c0.0794,-0.138 0.1477,-0.236 0.2046,-0.295l0.4798,-0.652c0.1093,-0.19 0.299,-0.459 0.5692,-0.807c0.2874,-0.339 0.5748,-0.678 0.8622,-1.017c0.2874,-0.339 0.5364,-0.631 0.747,-0.877c0.2278,-0.235 0.3367,-0.344 0.3268,-0.327c0.4471,-0.774 0.8153,-1.273 1.1046,-1.496c0.3066,-0.213 0.6061,-0.235 0.8987,-0.066c0.3957,0.228 0.7568,0.517 1.083,0.866c0.3262,0.349 0.6184,0.598 0.8765,0.747c0.0516,0.03 0.0861,0.05 0.1033,0.059c0.0443,0.003 0.0923,0.019 0.1439,0.049c0.0344,0.02 0.1966,0.137 0.4865,0.35c0.2898,0.213 0.6055,0.441 0.947,0.684c0.3415,0.243 0.64,0.462 0.8954,0.655c0.2727,0.203 0.409,0.305 0.409,0.305c0.405,0.371 0.4188,0.884 0.0412,1.538c-0.3974,0.688 -0.885,0.877 -1.4627,0.566c-0.1695,-0.143 -0.4176,-0.309 -0.7446,-0.498c-0.317,-0.206 -0.6943,-0.447 -1.1317,-0.722c-0.1549,-0.09 -0.3895,-0.26 -0.7039,-0.51c-0.2872,-0.258 -0.5082,-0.431 -0.6631,-0.521c-0.1548,-0.089 -0.2988,-0.138 -0.4319,-0.146c-0.2377,0.253 -0.5188,0.561 -0.8433,0.924c-0.3145,0.347 -0.6589,0.744 -1.033,1.194c0.3786,0.218 0.7766,0.482 1.1942,0.792c0.4349,0.32 0.825,0.718 1.1703,1.192c0.3554,0.458 0.6339,1.009 0.8356,1.653c0.2017,0.644 0.2809,1.401 0.2376,2.271c-0.0758,0.966 -0.2727,1.724 -0.5906,2.274c-0.2881,0.499 -0.8576,1.088 -1.7084,1.767z"/>
  <path id="svg_49" stroke-width="2" stroke="#956F43" d="m71.8719,77.6939c-3.0339,-0.2133 -21.5329,0.869 -24.5668,0.6558c-3.0339,-0.2133 -21.6306,91.3863 -18.5493,92.0973c3.0814,0.711 23.3015,5.066 26.2405,4.284c2.939,-0.782 19.9094,-96.8237 16.8756,-97.0371z"/>
  <path id="svg_51" fill="#242E3F" d="m372.686,74.31071c-2.022,7.1298 -4.01,13.2567 -5.964,18.3805c-1.954,5.1239 -3.704,9.3405 -5.249,12.6485c-1.811,3.87 -3.538,7.097 -5.182,9.683c0.026,0.575 0.077,1.238 0.154,1.99c0.073,0.726 0.169,1.527 0.289,2.404c0.194,1.419 0.428,2.938 0.702,4.556c0.274,1.619 0.554,3.184 0.839,4.696c0.312,1.508 0.605,2.887 0.881,4.138c0.299,1.221 0.558,2.158 0.779,2.811l-21.512,3.29c0.044,-0.453 0.063,-1.178 0.058,-2.176c0.017,-1.027 0.006,-2.168 -0.035,-3.424c-0.018,-1.285 -0.07,-2.631 -0.158,-4.038c-0.061,-1.411 -0.123,-2.729 -0.186,-3.956c-0.066,-1.252 -0.136,-2.346 -0.212,-3.282c-0.049,-0.939 -0.084,-1.578 -0.104,-1.917c-1.347,-1.579 -2.791,-3.303 -4.335,-5.171c-1.547,-1.893 -3.158,-3.87 -4.832,-5.931c-1.679,-2.086 -3.39,-4.221 -5.134,-6.403c-1.748,-2.209 -3.47,-4.4203 -5.166,-6.6356c-1.699,-2.2411 -3.37,-4.4598 -5.01,-6.6563c-1.616,-2.1999 -3.143,-4.3328 -4.582,-6.3988l22.084,-1.987c0.782,1.6814 1.754,3.6 2.917,5.7558c1.162,2.1558 2.461,4.4507 3.898,6.8848c1.433,2.4083 2.981,4.8801 4.641,7.4151c1.661,2.536 3.367,5.012 5.117,7.431c1.393,-3.656 2.701,-7.353 3.925,-11.0911c0.518,-1.5937 1.051,-3.2683 1.6,-5.0237c0.548,-1.7554 1.067,-3.5331 1.557,-5.3332c0.486,-1.8259 0.938,-3.6207 1.354,-5.3846c0.412,-1.7896 0.756,-3.5043 1.031,-5.1442l15.835,-2.1312z"/>
  <path transform="rotate(-6.36115, 352.253, 175.764)" id="svg_53" fill="#242E3F" d="m349.99861,147.7194c-12.14907,-0.22126 -19.79911,6.23732 -20.08224,28.93304c-0.3113,25.02939 10.75738,26.93689 22.90645,27.15679c16.19735,0.29661 20.59214,-13.26218 18.6173,-24.37992l-9.15441,-0.16706c-0.72824,1.91262 1.94244,13.67471 -11.42646,12.57862c-8.52055,-0.69891 -11.22081,-3.91388 -11.08277,-15.00945c0.16199,-13.09854 2.33826,-18.17328 10.08549,-18.0335c8.45012,0.15512 9.32908,4.00934 10.50243,5.08497l-5.69774,5.01167l18.26657,3.74171l1.66354,-20.42683l-5.69774,5.00997c-2.7876,-2.38651 -4.82582,-8.39114 -18.90043,-9.50002z"/>
  <path transform="rotate(4.19711, 296.445, 180.678)" id="svg_54" fill="#242E3F" d="m320.11446,153.13706c-1.49654,6.07956 -2.96792,11.30395 -4.41413,15.673c-1.44621,4.36914 -2.74144,7.96462 -3.88494,10.78534c-1.34037,3.29994 -2.61858,6.05159 -3.83535,8.25667c0.01924,0.4903 0.05699,1.05564 0.11398,1.69687c0.05403,0.61906 0.12508,1.30207 0.2139,2.04988c0.14358,1.20998 0.31678,2.50522 0.51957,3.88489c0.2028,1.38052 0.41003,2.71499 0.62097,4.00427c0.23092,1.28587 0.44778,2.46174 0.65205,3.52846c0.2213,1.04114 0.41299,1.84012 0.57656,2.39693l-15.92165,2.80537c0.03257,-0.38627 0.04663,-1.00448 0.04293,-1.85547c0.01258,-0.87572 0.00444,-1.84865 -0.0259,-2.91964c-0.01332,-1.09572 -0.05181,-2.24345 -0.11694,-3.44319c-0.04515,-1.20316 -0.09104,-2.32701 -0.13766,-3.37327c-0.04885,-1.06758 -0.10066,-2.00043 -0.15691,-2.79855c-0.03627,-0.80068 -0.06217,-1.34556 -0.07697,-1.63462c-0.99695,-1.34641 -2.0657,-2.81646 -3.20846,-4.4093c-1.14498,-1.61416 -2.33733,-3.29994 -3.5763,-5.05735c-1.24268,-1.77873 -2.50904,-3.59923 -3.79982,-5.45982c-1.29374,-1.88361 -2.56825,-3.76918 -3.8235,-5.65816c-1.25748,-1.91098 -2.49423,-3.80286 -3.70804,-5.67581c-1.19605,-1.87585 -2.32622,-3.69457 -3.39127,-5.45624l16.345,-1.69431c0.57878,1.43373 1.29819,3.06971 2.15896,4.90795c0.86003,1.83824 1.82146,3.7951 2.88502,5.87065c1.0606,2.05355 2.20632,4.16125 3.43494,6.32283c1.22935,2.16244 2.49201,4.27372 3.78724,6.33639c1.031,-3.11746 1.99909,-6.26988 2.90501,-9.45735c0.38339,-1.35894 0.77788,-2.78687 1.18421,-4.28369c0.40559,-1.49682 0.78972,-3.01266 1.15238,-4.5476c0.3597,-1.55694 0.69424,-3.08736 1.00213,-4.59143c0.30493,-1.52599 0.55954,-2.98811 0.76307,-4.38644l11.71994,-1.81727z"/>
 </g>
</svg>