<svg width="686" height="404" viewBox="0 0 686 404" fill="none" xmlns="http://www.w3.org/2000/svg" preserveAspectRatio="none">
<path d="M2 37.6862C6.25756 158.302 12.2873 280.147 12.2873 400.498M2 40.6602C102.696 34.5206 201.705 26.5791 301.705 12.4085C366.675 3.20182 432.822 2 498.079 2C527.439 2 556.751 4.97386 585.864 4.97386C595.539 4.97386 609.363 0.922059 617.869 7.94773C627.021 15.5064 657.011 10.0733 660.39 19.8432C666.785 54.1193 671.116 89.2062 672.964 124.589C675.374 170.745 680.965 214.237 680.965 260.561C680.965 295.507 678.908 330.548 678.908 364.811M14.3448 400.498C170.879 400.498 327.299 394.55 483.905 394.55C532.225 394.55 580.919 400.498 629.528 400.498H649.417C654.063 400.498 668.05 404.282 672.278 399.837C675.168 396.799 678.435 389.911 681.994 388.768C687.045 387.145 680.965 372.413 680.965 364.812" stroke="#242E3F" stroke-width="3" stroke-linecap="round"/>
</svg>
