<svg width="724" height="294" viewBox="0 0 724 294" fill="none" xmlns="http://www.w3.org/2000/svg" preserveAspectRatio="none">
<path d="M5.2 25.7233C5.2 83.7973 8.03577 140.881 16.0444 198.241C18.8967 218.669 19.6 239.377 19.6 260.122C19.6 270.078 17.8674 283.329 22.8 292C34.1291 292 45.8599 289.724 57.1111 288.249C85.191 284.569 113.563 283.438 141.556 278.874C166.545 274.799 191.301 272.552 216.489 271.269C230.585 270.55 244.379 269.498 258.533 269.498C273.152 269.498 287.248 273.248 301.911 273.248H495.867C526.076 273.248 557.03 275.389 587.067 271.373C623.323 266.525 661.255 265.747 697.822 265.747C706.112 265.747 713.756 261.997 722 261.997M2 18.2223C18.5805 20.7297 34.8578 20.5448 51.4222 18.1182C74.5041 14.7367 99.2571 17.2571 122 12.1801C159.636 3.77823 200.63 9.42134 238.8 7.38793C303.427 3.94512 367.642 3.22084 432.4 3.22084C489.756 3.22084 547.733 0.405757 605.022 3.32502C634.633 4.8339 665.453 6.97122 694.8 6.97122M698 6.97119C704.65 9.56911 704.11 26.213 705.2 32.5988C707.09 43.6739 708.956 54.8136 710.444 65.9354C713.713 90.3592 714 115.091 714 139.797C714 179.459 715.6 218.649 715.6 258.246" stroke="#242E3F" stroke-width="3" stroke-linecap="round"/>
</svg>
