<svg width="721" height="486" viewBox="0 0 721 486" fill="none" xmlns="http://www.w3.org/2000/svg" preserveAspectRatio="none">
<path d="M5.28147 24.2537C23.5667 36.0015 47.8195 29.0181 67.2647 33.1552C81.068 36.092 94.8816 35.3806 108.83 35.3806C127.825 35.3806 147.046 36.5611 165.982 34.2679C198.949 30.2756 232.084 28.27 265.064 23.7592C290.391 20.2951 315.619 21.6033 340.902 18.8139C368.214 15.8008 394.97 13.1269 422.392 13.1269C513.991 13.1269 606.281 8.67613 697.67 8.67613M699.311 2C711.904 54.6625 712.354 112.17 715.718 166.925C719.099 221.951 719 276.674 719 331.85C719 383.762 717.411 418.999 717.411 470.62C705.045 470.62 698.971 470.62 686.003 470.62C653.749 470.62 620.014 473.851 587.741 470.125C523.879 462.754 457.947 468.394 393.77 468.394H320.393C271.633 468.394 223.843 478.47 175.188 482.241C120.641 486.469 66.3411 481.747 11.8444 481.747C11.8444 467.618 11.8444 471.323 11.8444 457.022C11.8444 449.743 8.09246 443.18 6.92219 436.037C6.03526 430.624 6.92219 426.647 6.92219 420.682C6.92219 405.62 1.18241 403.12 4.55225 388.102C9.07508 367.946 6.92219 344.571 6.92219 323.443C6.92219 300.946 2 278.411 2 255.693V184.11C2 150.405 3.64073 116.994 3.64073 83.3498C3.64073 62.4722 6.92219 42.8463 6.92219 22.0284" stroke="#242E3F" stroke-width="3" stroke-linecap="round"/>
</svg>
