<svg width="724" height="327" viewBox="0 0 724 327" fill="none" xmlns="http://www.w3.org/2000/svg" preserveAspectRatio="none">
<path d="M2 19.8643C6.3894 27.2563 3.32597 44.0248 3.32597 52.7807C3.32597 69.6449 4.65193 86.3655 4.65193 103.23C4.65193 129.955 6.93713 155.285 9.9558 181.8C13.9123 216.552 15.2597 252.947 15.2597 287.992C15.2597 300.264 16.5856 312.579 16.5856 325.044M5.9779 13.9095C19.537 13.9095 32.5723 18.3755 46.1252 18.3755C71.2625 18.3755 96.166 13.3068 121.19 12.3381C157.995 10.9132 194.348 3.48868 231.245 3.48868C276.224 3.48868 321.221 3.89592 366.199 3.48868C444.104 2.78331 522.002 2 599.937 2C633.239 2 666.15 4.97736 699.459 4.97736M702.11 4.97705C709.57 40.0474 704.295 76.4473 706.162 112.079C707.429 136.27 714.372 160.023 715.37 184.115C715.79 194.247 719.348 204.038 719.348 214.385V262.436C719.348 275.658 720.674 287.978 720.674 301.225M17.9116 322.066C84.4128 317.62 150.574 314.623 217.175 314.623C243.379 314.623 269.165 310.686 295.333 310.074C323.231 309.422 351.117 307.817 379.017 307.262C410.263 306.641 442.073 305.668 473.308 307.262C499.376 308.592 525.596 311.645 551.687 311.645C584.563 311.645 616.709 309.553 649.367 306.849C666.048 305.467 683.682 301.225 700.343 301.225C703.554 301.225 720.354 299.018 722 302.713" stroke="#242E3F" stroke-width="3" stroke-linecap="round"/>
</svg>
