<svg width="754" height="344" viewBox="0 0 754 344" fill="none" xmlns="http://www.w3.org/2000/svg" preserveAspectRatio="none">
<path d="M5.17798 20.416C2.12036 37.9007 3.48007 56.4111 3.58897 74.1373C3.72911 96.9477 4.53669 120.356 6.41387 143.073C8.04561 162.82 6.28872 183.445 9.06222 202.993C10.8256 215.422 14.712 227.286 14.712 239.997C14.712 273.578 17.89 308.057 17.89 341.617M2 22.1065C75.8872 22.1065 150.727 25.4876 224.991 25.4876H316.27C336.28 25.4876 356.212 25.3968 376.211 24.6423C406.652 23.4939 437.424 25.8393 467.403 20.0403C487.469 16.1588 507.715 15.0271 527.873 11.9634C545.777 9.24221 562.688 6.89176 580.928 6.89176C598.402 6.89176 614.905 6.01101 632.13 3.88638C665.219 -0.19515 701.882 2.79281 734.532 8.58229M17.8901 338.236C39.1328 332.918 63.2201 337.657 84.6284 339.175C103.527 340.515 122.546 339.926 141.48 339.926C176.779 339.926 211.934 338.236 247.237 338.236C289.994 338.236 334.602 337.573 376.917 330.722C405.299 326.127 435.222 324.712 463.871 324.712C558.302 324.712 652.903 323.021 747.244 323.021M736.121 6.8916C736.121 35.3725 738.448 63.8303 740.977 92.0755C743.501 120.275 750.422 148.221 750.422 176.696C750.422 226.491 752.011 276.495 752.011 326.402" stroke="#242E3F" stroke-width="3" stroke-linecap="round"/>
</svg>
