<svg width="824" height="341" viewBox="0 0 824 341" fill="none" xmlns="http://www.w3.org/2000/svg" preserveAspectRatio="none">
<path d="M29.1649 339.159C25.9906 322.243 27.4356 304.542 25.1764 287.687C23.2822 273.554 19.4631 258.892 19.4631 243.797C19.4631 207.212 19.1505 170.851 17.5228 134.419C17.1338 125.713 12.9926 117.283 12.1329 108.453C11.0314 97.1398 10.4041 85.764 9.3302 74.4448C7.54891 55.6702 6.99464 39.085 2 20.6748C59.7434 20.6748 117.603 21.7667 175.338 20.5601C216.547 19.6989 257.654 16.5389 298.873 16.5389C363.923 16.5389 427.956 4.13041 492.908 4.13041C547.095 4.13041 601.239 1.57252 655.466 2.06233C674.45 2.2338 693.022 6.19848 712.167 6.19848C721.411 6.19848 803.984 3.79603 813 6.19848C823.987 55.9657 809.1 116.824 816.881 167.5C820.578 191.585 813.19 219.838 816.881 244C820.527 267.872 821.801 281.897 821.801 306.07C819.971 311.922 774.879 320.265 768.006 320.546C754.571 321.097 746.102 323.153 733.511 327.21C711.436 334.324 690.232 332.955 667.324 332.955H595.747C564.91 332.955 533.852 334.237 503.041 332.84C462.15 330.985 421.433 326.751 380.368 326.751C263.989 326.751 147.333 326.52 31.1052 332.955" stroke="#242E3F" stroke-width="3" stroke-linecap="round"/>
</svg>
